<svg viewBox="0 0 14 16" xmlns="http://www.w3.org/2000/svg"><path d="M6.82625081,8.36417094 C9.17885285,8.36417094 11.0935052,6.48818004 11.0935052,4.18186838 C11.0935052,1.87594955 9.17885285,0 6.82625081,0 C4.47364877,0 2.55936854,1.87636305 2.55936854,4.18186839 C2.55936854,6.48774588 4.47364877,8.36417094 6.82625081,8.36417094 L6.82625081,8.36417094 L6.82625081,8.36417094 Z M5.18985763,9.12983342 C2.21846536,9.12983342 0,11.1336759 0,14.0437267 L0,14.3569053 C0,15.878017 2.37776301,15.878017 5.3874653,15.878017 L8.58481009,15.878017 C11.475985,15.878017 13.9726889,15.878017 13.9726889,14.3569053 L13.9726889,14.0437267 C13.9726889,11.1341101 11.7538307,9.12983342 8.78283122,9.12983342 L5.18985763,9.12983342 L5.18985763,9.12983342 L5.18985763,9.12983342 Z" fill-rule="nonzero"/></svg>