<svg viewBox="0 0 14 17" xmlns="http://www.w3.org/2000/svg"><path d="M7 3.086c-.966 0-1.875.388-2.56 1.092a3.766 3.766 0 0 0-1.058 2.639c0 .997.376 1.932 1.059 2.638a3.54 3.54 0 0 0 5.118 0 3.766 3.766 0 0 0 1.06-2.638c0-.998-.377-1.933-1.06-2.64A3.547 3.547 0 0 0 7 3.087zm0 6.142c-1.29 0-2.339-1.08-2.339-2.411 0-1.33 1.049-2.412 2.339-2.412s2.339 1.081 2.339 2.412c0 1.33-1.049 2.411-2.339 2.411zm6.427-5.368a6.453 6.453 0 0 0-1.536-2.012A7.274 7.274 0 0 0 9.66.495 7.376 7.376 0 0 0 7.001 0h-.003c-.91 0-1.804.166-2.66.495-.829.32-1.578.774-2.229 1.353A6.447 6.447 0 0 0 .573 3.86 5.655 5.655 0 0 0 0 6.334c0 1.189.283 2.41.842 3.631.463 1.011 1.117 2.031 1.947 3.033 1.483 1.792 3.154 3.074 3.802 3.542a.694.694 0 0 0 .818 0c.648-.468 2.32-1.75 3.802-3.542.828-1.002 1.484-2.022 1.947-3.033.559-1.221.842-2.444.842-3.63a5.65 5.65 0 0 0-.573-2.475zm-.708 2.476c0 .992-.242 2.025-.72 3.07-.411.901-1.004 1.821-1.76 2.736C9.056 13.57 7.734 14.662 7 15.22c-.735-.558-2.057-1.649-3.238-3.077-.757-.915-1.35-1.837-1.762-2.738-.478-1.044-.72-2.077-.72-3.07 0-.65.147-1.286.439-1.886.288-.595.7-1.135 1.227-1.604a5.985 5.985 0 0 1 1.839-1.116 6.164 6.164 0 0 1 2.213-.412h.004a6.133 6.133 0 0 1 4.052 1.528c.528.47.94 1.009 1.226 1.604.292.606.439 1.24.439 1.888z" fill-rule="nonzero"/></svg>