<svg viewBox="0 0 40 40" xmlns="http://www.w3.org/2000/svg"><g fill-rule="evenodd"><path d="M10.9930455,39.9494411 C8.23162171,39.9494411 5.99304545,37.7108649 5.99304545,34.9494411 L5.99304545,9.97801257 C5.99304545,7.21658882 8.23162171,4.97801257 10.9930455,4.97801257 L31.1073312,4.97801257 C33.8687549,4.97801257 36.1073312,7.21658882 36.1073312,9.97801257 L36.1081118,22.4636018 C38.4671642,24.2359244 39.9930455,27.0573456 39.9930455,30.2351554 C39.9930455,34.6087592 37.1027397,38.3072959 33.1279964,39.5248974 C32.5098864,39.7976787 31.8263318,39.9494411 31.1073312,39.9494411 L30.2787597,39.9494411 L30.2787597,39.9494411 L10.9930455,39.9494411 Z" fill="#E2F4F2" transform="translate(.007 .022)"/><path d="M25.1348535,14.9026909 C31.0374674,14.9026909 35.8407529,19.7058225 35.8407529,25.6086674 C35.8407529,31.5108963 31.0374674,36.3142588 25.1348535,36.3142588 C19.2299294,36.3142588 14.428954,31.5108963 14.428954,25.6086674 C14.428954,19.7057455 19.2323166,14.9026909 25.1348535,14.9026909 Z M5.47692834,1.42108547e-14 L25.4704428,1.42108547e-14 C28.787787,1.42108547e-14 30.8431078,1.75255802 30.9438005,4.99366485 L30.9476791,5.2459123 L30.9476791,11.6334289 C30.9476791,12.4292791 30.456231,13.074507 29.6603807,13.074507 C28.9113452,13.074507 28.4321577,12.5029557 28.3783745,11.7722088 L28.3733134,11.6334289 L28.3733134,5.2459123 C28.3733134,3.50034367 27.3624776,2.63922065 25.6689391,2.57782823 L25.4705198,2.57428877 L5.47692834,2.57428877 C3.73135971,2.57428877 2.65601606,3.3707611 2.57875544,5.04842077 L2.57428877,5.2459123 L2.57428877,30.9141818 C2.57428877,32.6597504 3.58498174,33.5208735 5.2785096,33.5822659 L5.47692834,33.5858053 L13.3243123,33.5858053 C14.1202396,33.5858053 14.7654674,34.0771765 14.7654674,34.8730267 C14.7654674,35.6221348 14.1939161,36.1014629 13.4631692,36.1552624 L13.3243893,36.1603251 L5.47692834,36.1603251 C2.15965925,36.1603251 0.104559882,34.4075475 0.00387820709,31.1664297 L1.79412041e-12,30.9141818 L1.79412041e-12,5.2459123 C1.79412041e-12,1.92871829 1.97216764,0.0931572193 5.22425495,0.00345241203 L5.47692834,1.42108547e-14 L25.4704428,1.42108547e-14 Z M25.1359316,17.3755636 C20.4266695,17.3755636 16.9019807,20.8980963 16.9019807,25.6074353 C16.9019807,30.3165433 20.4266695,33.8414631 25.1359316,33.8414631 C29.8451166,33.8414631 33.3678032,30.3166203 33.3678032,25.6075893 C33.3678032,20.8981733 29.8451936,17.3755636 25.1359316,17.3755636 Z M10.915123,24.9062246 C11.7112043,24.9062246 12.3564321,25.3974417 12.3564321,26.193292 C12.3564321,26.9892193 11.7112043,27.4805904 10.915123,27.4805904 L10.915123,27.4805904 L7.92492834,27.4805904 C7.12907807,27.4805904 6.48385027,26.9892193 6.48385027,26.193292 C6.48385027,25.3974417 7.12907807,24.9062246 7.92492834,24.9062246 L7.92492834,24.9062246 Z M25.2304171,19.8635294 C25.6655743,19.8635294 26.3266652,20.2937583 26.3266652,20.7289155 L26.3266652,20.7289155 L26.3266652,25.0092578 L30.6838588,25.0092578 C31.1193241,25.0092578 31.5470888,25.747277 31.5492449,26.1826652 C31.5492449,26.6178995 31.1193241,27.3559957 30.6838588,27.3559957 L30.6838588,27.3559957 L25.2304171,27.3559957 C24.7948749,27.3559957 24.133784,26.6178995 24.133784,26.1826652 L24.133784,26.1826652 L24.133784,20.7289155 C24.133784,20.2938353 24.7948749,19.8635294 25.2304171,19.8635294 Z M7.8681754,17.0773989 L12.9375144,17.0773989 C13.7335957,17.0773989 14.3788235,17.568616 14.3788235,18.3644663 C14.3788235,19.1135743 13.8072723,19.5929025 13.0763328,19.646702 L12.9375144,19.6517647 L7.8681754,19.6517647 C7.07232513,19.6517647 6.42709733,19.1603936 6.42709733,18.3644663 C6.42709733,17.6154308 6.9986486,17.1362433 7.72939546,17.0824601 L7.8681754,17.0773989 L12.9375144,17.0773989 Z M7.8681754,8.67680856 L23.0004963,8.67680856 C23.7965005,8.67680856 24.4418053,9.16810267 24.4418053,9.96387594 C24.4418053,10.7130564 23.8702541,11.1922525 23.1393146,11.2460361 L23.0004963,11.2510973 L7.8681754,11.2510973 C7.07232513,11.2510973 6.42709733,10.7599572 6.42709733,9.96387594 C6.42709733,9.21484039 6.9986486,8.7356529 7.72939546,8.68186972 L7.8681754,8.67680856 L23.0004963,8.67680856 Z" fill="#38B2A6" fill-rule="nonzero" transform="translate(.007 .022)"/></g></svg>