<svg xmlns="http://www.w3.org/2000/svg" viewBox="0 0 49 49"><g fill="none"><path fill="#FFEDE4" d="M49 49V20.443L28.557 0H0z"/><path fill="#F46E42" d="M26.677 8.626a2.65 2.65 0 0 1-.601.047 2.487 2.487 0 0 1-.643-.108 2.983 2.983 0 0 1-.652-.29 3.169 3.169 0 0 1-.63-.496 3.464 3.464 0 0 1-.764-1.12 3.15 3.15 0 0 1-.251-1.238 3.19 3.19 0 0 1 .26-1.234c.173-.405.43-.78.774-1.123.344-.344.72-.6 1.126-.77a3.2 3.2 0 0 1 1.241-.255c.42 0 .833.084 1.238.251.405.168.776.42 1.11.755a3.29 3.29 0 0 1 .742 1.13c.079.2.132.402.16.604.027.201.024.395-.01.582l-.662-.102c.025-.119.035-.253.028-.404a1.806 1.806 0 0 0-.085-.468 2.449 2.449 0 0 0-.214-.48 2.177 2.177 0 0 0-.353-.455 2.637 2.637 0 0 0-.945-.627 2.5 2.5 0 0 0-1.018-.16c-.342.02-.674.106-.996.259-.323.152-.615.36-.878.623s-.47.557-.62.882a2.702 2.702 0 0 0-.255.999 2.5 2.5 0 0 0 .159 1.018c.125.337.332.65.62.939.259.259.558.452.898.579.339.127.704.153 1.094.076l.127.586zm4.41 2.883a2.297 2.297 0 0 1-.74.506c-.27.112-.545.168-.825.168a2.1 2.1 0 0 1-.83-.175 2.415 2.415 0 0 1-.76-.525 2.39 2.39 0 0 1-.52-.754 2.1 2.1 0 0 1-.175-.83c0-.28.057-.555.17-.825a2.29 2.29 0 0 1 .505-.741c.225-.225.472-.394.741-.506.27-.112.545-.169.825-.169.28 0 .556.059.83.175.274.117.525.29.754.52.234.232.409.486.525.76a2.1 2.1 0 0 1 .175.83c0 .28-.056.555-.168.824-.113.27-.282.517-.506.742zm-.458-.459a1.93 1.93 0 0 0 .389-.547 1.515 1.515 0 0 0 .056-1.222 1.592 1.592 0 0 0-.375-.566 1.56 1.56 0 0 0-.563-.372 1.524 1.524 0 0 0-.61-.096 1.62 1.62 0 0 0-.608.156 1.93 1.93 0 0 0-.548.388 1.927 1.927 0 0 0-.388.547 1.62 1.62 0 0 0-.156.608c-.01.206.022.409.099.608.076.2.201.386.375.56.174.174.362.3.563.379.202.078.406.112.611.102a1.62 1.62 0 0 0 .608-.156c.2-.094.382-.223.547-.389zm2.794.834c.259-.089.53-.1.815-.032.284.068.534.21.75.427.081.08.157.173.227.276.07.104.122.222.156.354.034.131.045.272.035.423a1.54 1.54 0 0 1-.13.493c.305-.102.6-.119.884-.05.284.067.547.222.789.464.377.377.548.773.512 1.187-.036.413-.239.805-.608 1.174l-1.826 1.826-.433-.433 1.648-1.648c.314-.314.508-.625.583-.932.074-.308-.029-.602-.309-.882a1.092 1.092 0 0 0-.493-.302 1.074 1.074 0 0 0-.512-.01c-.17.039-.336.109-.497.21a2.607 2.607 0 0 0-.452.363l-1.584 1.585-.433-.433 1.737-1.737c.145-.144.266-.286.363-.426.098-.14.161-.278.191-.414a.737.737 0 0 0-.029-.41 1.171 1.171 0 0 0-.29-.424 1.06 1.06 0 0 0-.378-.238 1.143 1.143 0 0 0-.493-.067 1.553 1.553 0 0 0-.563.162 2.236 2.236 0 0 0-.595.442L30.96 14.36l-.432-.433 2.46-2.463.168-.178c.123-.132.231-.253.324-.363l.414.414-.158.186-.09.1a8.148 8.148 0 0 1-.236.248l.013.013zm3.163 8.101l-.433-.432 2.979-2.979.432.433-2.978 2.978zm4.213-4.034a.4.4 0 0 1-.315.124.435.435 0 0 1-.296-.124.435.435 0 0 1-.124-.296.4.4 0 0 1 .124-.315.4.4 0 0 1 .315-.124.43.43 0 0 1 .296.124.435.435 0 0 1 .124.296.4.4 0 0 1-.124.315zm-.108 2.182l.414.414-.159.187-.09.1a8.148 8.148 0 0 1-.235.248l.013.012a1.39 1.39 0 0 1 .836-.01c.3.084.555.231.767.443.378.378.549.773.513 1.187-.036.414-.24.805-.608 1.174l-1.827 1.827-.432-.433 1.648-1.648c.157-.157.286-.312.388-.465.102-.153.168-.305.197-.458a.882.882 0 0 0-.035-.462 1.255 1.255 0 0 0-.315-.467 1.16 1.16 0 0 0-.907-.34 1.5 1.5 0 0 0-.566.158 2.236 2.236 0 0 0-.595.443l-1.527 1.527-.433-.433 2.46-2.463.168-.178c.123-.131.232-.252.325-.363zm.305 7.459c-.034.272 0 .563.099.875.1.312.264.582.493.811.212.213.423.362.633.45.21.086.414.122.611.107.198-.015.389-.072.573-.171.185-.1.358-.23.519-.392l.56-.56-.013-.013a1.61 1.61 0 0 1-.92-.054 2.054 2.054 0 0 1-.792-.487 2.369 2.369 0 0 1-.519-.747 2.031 2.031 0 0 1-.168-.799c0-.267.056-.531.168-.792.113-.261.277-.5.494-.716.212-.212.448-.375.71-.487a2.04 2.04 0 0 1 1.616-.025c.27.108.52.278.754.512.216.216.377.48.483.789.107.31.124.62.051.929l.013.013.516-.516.432.433-2.953 2.953a3.08 3.08 0 0 1-.582.449 1.837 1.837 0 0 1-.75.254 1.982 1.982 0 0 1-.876-.111c-.31-.106-.63-.325-.96-.656a2.831 2.831 0 0 1-.63-.948 2.691 2.691 0 0 1-.204-1.082l.642-.019zm2.209-2.043a1.83 1.83 0 0 0-.37.522 1.586 1.586 0 0 0-.149.589c-.01.201.023.403.102.604.078.202.207.392.385.57.165.165.346.29.54.375a1.487 1.487 0 0 0 1.204 0c.199-.085.386-.214.56-.388a1.648 1.648 0 0 0 .381-1.756 1.547 1.547 0 0 0-.362-.554 1.614 1.614 0 0 0-.573-.382 1.493 1.493 0 0 0-1.197.051 1.83 1.83 0 0 0-.521.37zM24.43 15.43a1.07 1.07 0 0 0 .013-.592 1.182 1.182 0 0 0-.325-.56 1.49 1.49 0 0 0-.254-.204.881.881 0 0 0-.287-.12.636.636 0 0 0-.29.002.561.561 0 0 0-.263.156.51.51 0 0 0-.15.494c.034.157.121.352.262.584l.091.144c.28.424.435.79.465 1.095.03.305-.072.575-.306.808-.17.17-.345.28-.528.33a1.21 1.21 0 0 1-.544.03 1.472 1.472 0 0 1-.519-.2 2.46 2.46 0 0 1-.451-.357 2.28 2.28 0 0 1-.516-.796 1.717 1.717 0 0 1-.083-.96l.599.088a1.32 1.32 0 0 0 .006.669c.06.237.178.445.356.623.094.094.191.174.293.242a.868.868 0 0 0 .312.134.687.687 0 0 0 .315-.01.68.68 0 0 0 .302-.188c.157-.157.2-.35.127-.579-.06-.19-.17-.424-.33-.7l-.102-.172a5.55 5.55 0 0 1-.204-.362 1.375 1.375 0 0 1-.137-.417 1.077 1.077 0 0 1 .023-.442.96.96 0 0 1 .267-.433c.153-.153.313-.254.48-.302a1.1 1.1 0 0 1 .506-.03c.17.03.335.092.497.185.16.094.31.208.445.344.208.208.363.456.465.745.101.288.116.566.044.833l-.579-.082zm3.418 4.983a2.297 2.297 0 0 1-.742.506 2.13 2.13 0 0 1-.824.168 2.1 2.1 0 0 1-.83-.175 2.415 2.415 0 0 1-.761-.525 2.39 2.39 0 0 1-.519-.754 2.1 2.1 0 0 1-.175-.83c0-.28.057-.555.169-.825.112-.269.281-.516.506-.741.225-.225.472-.393.741-.506.27-.112.544-.169.824-.169.28 0 .557.059.83.175.275.117.526.29.755.52.233.232.408.486.525.76a2.1 2.1 0 0 1 .175.83c0 .28-.056.555-.169.824-.112.27-.28.517-.505.742zm-.459-.459c.166-.165.295-.347.389-.547.093-.2.145-.402.155-.608a1.513 1.513 0 0 0-.098-.614 1.592 1.592 0 0 0-.376-.566 1.56 1.56 0 0 0-.563-.372 1.524 1.524 0 0 0-.61-.096 1.62 1.62 0 0 0-.609.156 1.94 1.94 0 0 0-.547.388 1.927 1.927 0 0 0-.388.548 1.62 1.62 0 0 0-.156.607c-.01.206.022.409.099.608.076.2.201.386.375.56.174.174.362.3.563.379.202.078.405.112.611.102a1.62 1.62 0 0 0 .608-.156c.2-.094.382-.223.547-.389zm4.347 4.347a2.297 2.297 0 0 1-.741.506c-.27.112-.545.169-.825.169a2.1 2.1 0 0 1-.83-.175 2.415 2.415 0 0 1-.76-.525 2.39 2.39 0 0 1-.52-.755 2.1 2.1 0 0 1-.174-.83c0-.28.056-.555.168-.824.113-.27.281-.517.506-.742.225-.224.472-.393.742-.506a2.09 2.09 0 0 1 1.654.007c.274.116.525.29.754.518.234.234.409.487.525.761a2.1 2.1 0 0 1 .175.83c0 .28-.056.555-.168.825a2.309 2.309 0 0 1-.506.741zm-.458-.458a1.94 1.94 0 0 0 .388-.547c.093-.2.145-.402.156-.608.01-.206-.022-.41-.099-.614a1.592 1.592 0 0 0-.375-.567 1.56 1.56 0 0 0-.564-.372 1.524 1.524 0 0 0-.61-.096 1.62 1.62 0 0 0-.608.156c-.2.094-.382.223-.548.389a1.927 1.927 0 0 0-.388.547 1.62 1.62 0 0 0-.156.608c-.01.205.023.408.099.607.076.2.202.386.375.56.174.174.362.3.564.38.201.078.405.112.61.1a1.62 1.62 0 0 0 .608-.155c.2-.093.382-.223.548-.388zm2.85-.127l.414.413-.158.187-.09.1a8.149 8.149 0 0 1-.235.248l.012.012c.26-.089.538-.092.837-.01.3.084.555.231.767.443.378.378.549.773.512 1.187-.036.414-.238.805-.607 1.174l-1.827 1.827-.432-.433 1.648-1.648c.157-.157.286-.312.388-.465.102-.153.168-.305.197-.458a.882.882 0 0 0-.035-.461 1.255 1.255 0 0 0-.315-.468 1.16 1.16 0 0 0-.907-.34 1.5 1.5 0 0 0-.566.158 2.236 2.236 0 0 0-.595.443L31.61 27.15l-.433-.433 2.46-2.463.168-.178c.123-.131.231-.252.325-.362z"/></g></svg>