<svg xmlns="http://www.w3.org/2000/svg" viewBox="0 0 10 12"><g fill-rule="nonzero"><path d="M9.72751524,0.849575925 L9.06535823,0.187418912 C8.81129319,-0.0666461283 8.39208587,-0.0618824087 8.13325711,0.198534258 L7.13763974,1.19415164 L0.884463923,1.19415164 C0.396976626,1.19415164 0,1.59112826 0,2.07861556 L0,10.6755414 C0,11.1630287 0.396976626,11.5600053 0.884463923,11.5600053 L7.84743394,11.5600053 C8.33492124,11.5600053 8.73189787,11.1630287 8.73189787,10.6755414 L8.73189787,2.76617907 L9.7163999,1.78167704 C9.97681657,1.52126038 9.98158028,1.10364097 9.72751524,0.849575925 L9.72751524,0.849575925 Z M8.14119665,10.6755414 C8.14119665,10.8375078 8.00940041,10.970892 7.84584604,10.970892 L0.884463923,10.970892 C0.722497459,10.970892 0.589113313,10.8390957 0.589113313,10.6755414 L0.589113313,2.07861556 C0.589113313,1.9166491 0.720909553,1.78326495 0.884463923,1.78326495 L6.54693852,1.78326495 L4.7351372,3.59665418 C4.61128049,3.72051088 4.5398247,3.88406525 4.53664888,4.05873497 L4.52076982,4.71612826 C4.5160061,4.89397379 4.58269817,5.06229188 4.70814278,5.18773649 C4.83041159,5.31000529 4.99079014,5.37510946 5.16387195,5.37510946 L5.17975102,5.37510946 L5.88001778,5.3592304 C6.07056657,5.35446668 6.25158791,5.26871973 6.37703252,5.12104442 L8.14119665,3.35688029 L8.14119665,10.6755414 Z M9.26702236,1.3322995 L5.91812754,4.68119432 L5.9070122,4.69230966 L5.89589685,4.70501292 C5.88954522,4.71295245 5.87842988,4.72247989 5.86572663,4.72247989 L5.16545986,4.73835895 C5.16069614,4.73835895 5.15910823,4.73677105 5.15752033,4.73677105 C5.15752033,4.73677105 5.15593242,4.73518314 5.15593242,4.72883151 L5.17181148,4.07143822 C5.17181148,4.05873497 5.18133892,4.04920753 5.18451474,4.04444381 L8.58263465,0.646323892 C8.59216209,0.636796453 8.60327744,0.63362064 8.60962907,0.63362064 C8.61280488,0.63362064 8.61598069,0.63362064 8.61598069,0.635208547 L9.2781377,1.29736556 C9.27972561,1.30054137 9.28290142,1.31800834 9.26702236,1.3322995 L9.26702236,1.3322995 Z"/><path d="M1.62284045,6.72002033 C1.62284045,6.89469004 1.76575203,7.03760163 1.94042175,7.03760163 L6.9582063,7.03760163 C7.13287602,7.03760163 7.2757876,6.89469004 7.2757876,6.72002033 C7.2757876,6.54535061 7.13287602,6.40243902 6.9582063,6.40243902 L1.94042175,6.40243902 C1.76416413,6.40243902 1.62284045,6.5437627 1.62284045,6.72002033 Z M4.67320884,8.28093242 L1.94042175,8.28093242 C1.76575203,8.28093242 1.62284045,8.423844 1.62284045,8.59851372 C1.62284045,8.77318343 1.76575203,8.91609502 1.94042175,8.91609502 L4.67479675,8.91609502 C4.84946646,8.91609502 4.99237805,8.77318343 4.99237805,8.59851372 C4.99237805,8.423844 4.84946646,8.28093242 4.67320884,8.28093242 Z"/></g></svg>