<svg viewBox="0 0 40 41" xmlns="http://www.w3.org/2000/svg"><g fill-rule="nonzero" fill="none"><path d="M39.9264592,11.2451359 L39.9264592,11.1164395 C39.9264592,7.13044019 31.7898906,5 24.1492738,5 C16.4718866,5 8.35325476,7.13044019 8.35325476,11.1164395 L8.35325476,14.7163499 C4.77128124,16.1122792 4,17.8203084 4,19.050771 L4,24.8918811 C4,26.7304004 5.74479958,28.1796916 8.35280635,29.1895319 L8.35280635,34.2042052 C8.59181387,37.6000847 14.7813458,39.6040707 21.4121223,40.0448669 L21.4856631,40.0448669 C21.6389536,40.0417944 21.7922903,40.0479339 21.9448444,40.063252 C22.0498205,40.0595395 22.1549132,40.0656949 22.258738,40.0816372 C22.5340674,40.0816372 22.7914601,40.1000225 23.0658927,40.1000224 C23.4331481,40.1000224 23.7833637,40.1184076 24.1681074,40.1184076 C24.5353628,40.1184076 24.8855783,40.1184076 25.2698737,40.1000224 C25.5452032,40.1000224 25.8025959,40.0816372 26.0770285,40.0816372 C26.1820045,40.0853498 26.2870972,40.0791944 26.390922,40.063252 C26.5442126,40.0663256 26.6975493,40.0601861 26.8501034,40.0448669 L26.9236441,40.0448669 C33.6813233,39.5856855 40,37.5104008 40,34.0019681 L40,28.160858 C40,26.2873621 38.21843,24.8546623 35.5184973,23.8076032 L35.5184973,21.310356 C38.21843,20.3000673 40,18.8305971 40,16.9571012 L40,11.2451359 L39.9264592,11.2451359 Z" fill="#F8F8F6"/><path d="M35.9264592,6.24513589 L35.9264592,6.11643954 C35.9264592,2.13044019 27.7898906,0 20.1492738,0 C12.4718866,0 4.35325476,2.13044019 4.35325476,6.11643954 L4.35325476,9.71634987 C0.771281237,11.1122792 0,12.8203084 0,14.050771 L0,19.8918811 C0,21.7304004 1.74479958,23.1796916 4.35280635,24.1895319 L4.35280635,29.2042052 C4.59181387,32.6000847 10.7813458,34.6040707 17.4121223,35.0448669 L17.4856631,35.0448669 C17.6389536,35.0417944 17.7922903,35.0479339 17.9448444,35.063252 C18.0498205,35.0595395 18.1549132,35.0656949 18.258738,35.0816372 C18.5340674,35.0816372 18.7914601,35.1000225 19.0658927,35.1000224 C19.4331481,35.1000224 19.7833637,35.1184076 20.1681074,35.1184076 C20.5353628,35.1184076 20.8855783,35.1184076 21.2698737,35.1000224 C21.5452032,35.1000224 21.8025959,35.0816372 22.0770285,35.0816372 C22.1820045,35.0853498 22.2870972,35.0791944 22.390922,35.063252 C22.5442126,35.0663256 22.6975493,35.0601861 22.8501034,35.0448669 L22.9236441,35.0448669 C29.6813233,34.5856855 36,32.5104008 36,29.0019681 L36,23.160858 C36,21.2873621 34.21843,19.8546623 31.5184973,18.8076032 L31.5184973,16.310356 C34.21843,15.3000673 36,13.8305971 36,11.9571012 L36,6.24513589 L35.9264592,6.24513589 Z M20.112055,1.87349592 C28.7436785,1.87349592 34.0350265,4.35280635 34.0350265,6.11643954 C34.0350265,7.88007274 28.7436785,10.3584863 20.112055,10.3584863 C11.4804315,10.3584863 6.18818666,7.89800953 6.18818666,6.11643954 C6.22495704,4.33486959 11.5149598,1.87349592 20.1107098,1.87349592 L20.112055,1.87349592 Z M4.33442118,11.7732493 L4.33442118,11.9566528 C4.33442118,15.4467004 10.6723799,17.5408186 17.4121223,18 L17.4856631,18 C17.6389534,17.9969491 17.7922887,18.0030885 17.9448444,18.0183852 C18.0498204,18.0146752 18.1549129,18.0208307 18.258738,18.0367704 C18.5340674,18.0367704 18.7914601,18.0551556 19.0658927,18.0551556 C19.3596074,18.0551556 19.6721557,18.0551556 19.9658703,18.0735408 C18.6246481,18.2017887 17.2466555,18.2955084 15.832341,18.2955084 L14.7673451,18.2955084 C6.75902444,18.1121048 1.89188112,15.7610423 1.89188112,14.0709499 C1.87349592,13.336439 2.7734735,12.5095538 4.33486959,11.775043 L4.33442118,11.7732493 Z M34.0161929,29.0575721 C34.0161929,30.6369049 29.7364789,32.8045639 22.6469694,33.2278718 C22.2433921,33.246257 21.8398146,33.2830274 21.4532772,33.2830274 L21.3245809,33.2830274 C20.9210035,33.2830274 20.5174261,33.3014125 20.1308886,33.3014125 C19.7273112,33.3014125 19.3237338,33.3014125 18.9371964,33.2830274 L18.8080516,33.2830274 C18.4044743,33.2830274 18.0008968,33.2646421 17.6143594,33.2278718 C10.5064647,32.8054608 6.24513589,30.6566354 6.24513589,29.0575721 L6.24513589,26.2284946 C8.6145836,27.9181386 12.9490047,28.9468125 17.4309559,29.2405272 L17.5044966,29.2405272 C17.6577869,29.2374773 17.8111223,29.2436167 17.963678,29.2589124 C18.0686541,29.2551998 18.1737468,29.2613552 18.2775716,29.2772975 C18.552901,29.2772975 18.8102937,29.2956827 19.0847263,29.2956827 C19.4519818,29.2956827 19.8021973,29.3140679 20.186941,29.3140679 C20.5358113,29.3140679 20.9044119,29.3140679 21.2887073,29.2956827 C21.5640367,29.2956827 21.8214295,29.2772975 22.0958621,29.2772975 C22.2008381,29.2810101 22.3059308,29.2748547 22.4097556,29.2589124 C22.5630459,29.2619633 22.7163813,29.2558238 22.868937,29.2405272 L22.9424778,29.2405272 C27.4607508,28.9468125 31.7588501,27.8997534 34.1282978,26.2284946 L34.1282978,29.0387385 C34.0179866,29.0387385 34.0179866,29.0387385 34.0179866,29.0571236 L34.0161929,29.0575721 Z M34.0161929,23.1617548 L34.0161929,23.2169104 C34.0161929,24.7966917 29.7364789,26.9639023 22.6469694,27.3872101 C22.2433921,27.4055953 21.8398146,27.4423657 21.4532772,27.4423657 L21.3245809,27.4423657 C20.9210035,27.4423657 20.5174261,27.4607509 20.1308886,27.4607509 C19.7273112,27.4607509 19.3237338,27.4607509 18.9371964,27.4423657 L18.8080516,27.4423657 C18.4044743,27.4423657 18.0008968,27.4239805 17.6143594,27.3872101 C13.5368825,27.148651 10.3948083,26.3217658 8.44911687,25.3850178 C9.57016517,25.6051917 10.7450238,25.7522732 11.9754864,25.8993548 C12.0355201,25.9145632 12.0974818,25.9207594 12.1593383,25.91774 C13.3162602,26.0280511 14.4736305,26.0464363 15.6857079,26.0464363 L15.796019,26.0464363 C16.9897113,26.0464363 18.1654667,25.9912807 19.3223886,25.91774 C19.3959294,25.91774 19.4510849,25.8993548 19.5062405,25.8993548 C25.2549762,25.3666326 30.453053,23.621833 31.3346454,20.793204 C33.0610598,21.5277148 34.0161929,22.4075135 34.0161929,23.1626517 L34.0161929,23.1617548 Z M29.5714606,19.8918811 C29.5714606,21.6550659 24.3182283,24.1164396 15.7040931,24.1348248 C7.12672826,24.1348248 1.87349592,21.6550659 1.83672554,19.8918811 L1.83672554,17.0632521 C3.71022146,18.4040258 6.77740964,19.3053487 10.1939164,19.78157 C10.2674572,19.7999552 10.3226128,19.8367256 10.4140903,19.8367256 C11.8581547,20.0199678 13.3117539,20.1180423 14.7673451,20.1304402 L16.6224559,20.1304402 C18.0593265,20.1082511 19.4940233,20.0102097 20.9205551,19.8367256 C20.9389403,19.8367256 20.9940958,19.8183404 21.0308662,19.8183404 C24.4469246,19.3959294 27.6226302,18.5143369 29.516305,17.2103336 L29.516305,19.9098179 L29.5714606,19.9098179 L29.5714606,19.8918811 Z M21.1958845,18.0683101 C21.3736569,18.0738903 21.5514694,18.0627643 21.7286067,18.0349767 C21.56314,18.0683101 21.434892,18.0683101 21.2694253,18.1349767 C21.2510401,18.1016434 21.2326549,18.1016434 21.1958845,18.0683101 Z M34.0161929,11.9548591 C34.0161929,13.5346404 29.7364789,15.701851 22.6469694,16.1251588 C22.2433921,16.143544 21.8398146,16.1803144 21.4532772,16.1803144 L21.3245809,16.1803144 C20.9210035,16.1803144 20.5174261,16.1986996 20.1308886,16.1986996 C19.7273112,16.1986996 19.3237338,16.1986996 18.9371964,16.1803144 L18.8080516,16.1803144 C18.4044743,16.1803144 18.0008968,16.1619292 17.6143594,16.1251588 C10.5064647,15.7027478 6.26352109,13.5355373 6.26352109,11.9548591 L6.26352109,9.10784485 C9.12892056,11.1468075 14.7494083,12.2118034 20.1860442,12.2118034 C25.6226801,12.2118034 31.2431679,11.1468075 34.1085673,9.10784485 L34.1085673,11.9180887 C34.0166414,11.9364739 34.0166414,11.9364739 34.0166414,11.9548591 L34.0161929,11.9548591 Z" fill="#C8C9CB"/></g></svg>