<?xml version="1.0" encoding="UTF-8"?>
<svg width="65px" height="20px" viewBox="0 0 65 20" version="1.1" xmlns="http://www.w3.org/2000/svg" xmlns:xlink="http://www.w3.org/1999/xlink">
    <!-- Generator: Sketch 61.2 (89653) - https://sketch.com -->
    <title>Combined Shape Copy 5</title>
    <desc>Created with Sketch.</desc>
    <g id="Design" stroke="none" stroke-width="1" fill="none" fill-rule="evenodd">
        <g id="Icons-&amp;-Tag" transform="translate(-314.000000, -628.000000)" fill="">
            <path d="M379,628 L379,648 L321,648 L314,638 L321,628 L379,628 Z M351.424,635.904 C351.125333,635.904 350.858667,635.961333 350.624,636.076 C350.389333,636.190667 350.190667,636.344 350.028,636.536 C349.865333,636.728 349.741333,636.949333 349.656,637.2 C349.570667,637.450667 349.528,637.714667 349.528,637.992 C349.528,638.269333 349.570667,638.532 349.656,638.78 C349.741333,639.028 349.865333,639.245333 350.028,639.432 C350.190667,639.618667 350.389333,639.766667 350.624,639.876 C350.858667,639.985333 351.128,640.04 351.432,640.04 C351.698667,640.04 351.936,639.992 352.144,639.896 C352.3,639.824 352.432,639.734 352.54,639.626 L352.64,639.512 L352.664,639.512 L352.664,639.752 C352.664,640.088 352.572,640.357333 352.388,640.56 C352.204,640.762667 351.92,640.864 351.536,640.864 C351.312,640.864 351.084,640.822667 350.852,640.74 C350.678,640.678 350.51525,640.59125 350.36375,640.47975 L350.216,640.36 L349.56,641.296 C349.832,641.498667 350.153333,641.653333 350.524,641.76 C350.894667,641.866667 351.256,641.92 351.608,641.92 C351.96,641.92 352.281333,641.873333 352.572,641.78 C352.862667,641.686667 353.109333,641.545333 353.312,641.356 C353.514667,641.166667 353.672,640.928 353.784,640.64 C353.8736,640.4096 353.92736,640.146773 353.94528,639.85152 L353.952,639.624 L353.952,636.016 L352.712,636.016 L352.712,636.528 L352.696,636.528 C352.557333,636.314667 352.373333,636.157333 352.144,636.056 C351.914667,635.954667 351.674667,635.904 351.424,635.904 Z M328.392,634.184 C327.96,634.184 327.557333,634.253333 327.184,634.392 C326.810667,634.530667 326.485333,634.729333 326.208,634.988 C325.930667,635.246667 325.713333,635.56 325.556,635.928 C325.398667,636.296 325.32,636.706667 325.32,637.16 C325.32,637.602667 325.397333,638.008 325.552,638.376 C325.706667,638.744 325.92,639.06 326.192,639.324 C326.464,639.588 326.785333,639.792 327.156,639.936 C327.526667,640.08 327.930667,640.152 328.368,640.152 C328.848,640.152 329.272,640.068 329.64,639.9 C329.9344,639.7656 330.191253,639.5928 330.41056,639.3816 L330.568,639.216 L329.616,638.32 C329.493333,638.490667 329.330667,638.629333 329.128,638.736 C328.925333,638.842667 328.688,638.896 328.416,638.896 C328.181333,638.896 327.965333,638.853333 327.768,638.768 C327.570667,638.682667 327.401333,638.564 327.26,638.412 C327.118667,638.26 327.008,638.077333 326.928,637.864 C326.848,637.650667 326.808,637.416 326.808,637.16 C326.808,636.909333 326.848,636.678667 326.928,636.468 C327.008,636.257333 327.12,636.074667 327.264,635.92 C327.408,635.765333 327.58,635.644 327.78,635.556 C327.98,635.468 328.2,635.424 328.44,635.424 C328.658667,635.424 328.872,635.466667 329.08,635.552 C329.2464,635.620267 329.3872,635.717547 329.5024,635.84384 L329.584,635.944 L330.512,635.016 C330.272,634.744 329.958667,634.537333 329.572,634.396 C329.185333,634.254667 328.792,634.184 328.392,634.184 Z M358.672,634.192 C358.405333,634.192 358.141333,634.225333 357.88,634.292 C357.618667,634.358667 357.384,634.464 357.176,634.608 C356.968,634.752 356.8,634.936 356.672,635.16 C356.544,635.384 356.48,635.653333 356.48,635.968 C356.48,636.224 356.521333,636.441333 356.604,636.62 C356.686667,636.798667 356.796,636.950667 356.932,637.076 C357.068,637.201333 357.222667,637.304 357.396,637.384 C357.569333,637.464 357.746667,637.533333 357.928,637.592 C358.114667,637.650667 358.281333,637.705333 358.428,637.756 C358.574667,637.806667 358.697333,637.862667 358.796,637.924 C358.894667,637.985333 358.970667,638.053333 359.024,638.128 C359.077333,638.202667 359.104,638.293333 359.104,638.4 C359.104,638.512 359.082667,638.608 359.04,638.688 C358.997333,638.768 358.94,638.832 358.868,638.88 C358.796,638.928 358.712,638.962667 358.616,638.984 C358.52,639.005333 358.421333,639.016 358.32,639.016 C358.096,639.016 357.870667,638.958667 357.644,638.844 C357.474,638.758 357.32875,638.65625 357.20825,638.53875 L357.096,638.416 L356.2,639.328 C356.450667,639.589333 356.765333,639.790667 357.144,639.932 C357.522667,640.073333 357.914667,640.144 358.32,640.144 C358.597333,640.144 358.866667,640.106667 359.128,640.032 C359.389333,639.957333 359.621333,639.842667 359.824,639.688 C360.026667,639.533333 360.188,639.337333 360.308,639.1 C360.428,638.862667 360.488,638.581333 360.488,638.256 C360.488,637.973333 360.432,637.737333 360.32,637.548 C360.208,637.358667 360.066667,637.2 359.896,637.072 C359.725333,636.944 359.536,636.841333 359.328,636.764 C359.12,636.686667 358.92,636.616 358.728,636.552 C358.594667,636.509333 358.474667,636.468 358.368,636.428 C358.261333,636.388 358.169333,636.344 358.092,636.296 C358.014667,636.248 357.956,636.192 357.916,636.128 C357.876,636.064 357.856,635.984 357.856,635.888 C357.856,635.776 357.881333,635.684 357.932,635.612 C357.982667,635.54 358.045333,635.481333 358.12,635.436 C358.194667,635.390667 358.278667,635.36 358.372,635.344 C358.465333,635.328 358.557333,635.32 358.648,635.32 C358.824,635.32 359.006667,635.364 359.196,635.452 C359.338,635.518 359.45975,635.60125 359.56125,635.70175 L359.656,635.808 L360.528,634.888 C360.277333,634.658667 359.985333,634.485333 359.652,634.368 C359.318667,634.250667 358.992,634.192 358.672,634.192 Z M367.984,635.888 C367.685333,635.888 367.401333,635.936 367.132,636.032 C366.862667,636.128 366.628,636.266667 366.428,636.448 C366.228,636.629333 366.069333,636.850667 365.952,637.112 C365.834667,637.373333 365.776,637.666667 365.776,637.992 C365.776,638.317333 365.834667,638.612 365.952,638.876 C366.069333,639.14 366.228,639.364 366.428,639.548 C366.628,639.732 366.862667,639.874667 367.132,639.976 C367.401333,640.077333 367.685333,640.128 367.984,640.128 C368.288,640.128 368.573333,640.077333 368.84,639.976 C369.106667,639.874667 369.341333,639.732 369.544,639.548 C369.746667,639.364 369.906667,639.14 370.024,638.876 C370.141333,638.612 370.2,638.317333 370.2,637.992 C370.2,637.666667 370.141333,637.373333 370.024,637.112 C369.906667,636.850667 369.746667,636.629333 369.544,636.448 C369.341333,636.266667 369.106667,636.128 368.84,636.032 C368.573333,635.936 368.288,635.888 367.984,635.888 Z M363.128,635.888 C362.829333,635.888 362.545333,635.936 362.276,636.032 C362.006667,636.128 361.772,636.266667 361.572,636.448 C361.372,636.629333 361.213333,636.850667 361.096,637.112 C360.978667,637.373333 360.92,637.666667 360.92,637.992 C360.92,638.317333 360.978667,638.612 361.096,638.876 C361.213333,639.14 361.372,639.364 361.572,639.548 C361.772,639.732 362.006667,639.874667 362.276,639.976 C362.545333,640.077333 362.829333,640.128 363.128,640.128 C363.432,640.128 363.717333,640.077333 363.984,639.976 C364.250667,639.874667 364.485333,639.732 364.688,639.548 C364.890667,639.364 365.050667,639.14 365.168,638.876 C365.285333,638.612 365.344,638.317333 365.344,637.992 C365.344,637.666667 365.285333,637.373333 365.168,637.112 C365.050667,636.850667 364.890667,636.629333 364.688,636.448 C364.485333,636.266667 364.250667,636.128 363.984,636.032 C363.717333,635.936 363.432,635.888 363.128,635.888 Z M332.792,635.888 C332.493333,635.888 332.209333,635.936 331.94,636.032 C331.670667,636.128 331.436,636.266667 331.236,636.448 C331.036,636.629333 330.877333,636.850667 330.76,637.112 C330.642667,637.373333 330.584,637.666667 330.584,637.992 C330.584,638.317333 330.642667,638.612 330.76,638.876 C330.877333,639.14 331.036,639.364 331.236,639.548 C331.436,639.732 331.670667,639.874667 331.94,639.976 C332.209333,640.077333 332.493333,640.128 332.792,640.128 C333.096,640.128 333.381333,640.077333 333.648,639.976 C333.914667,639.874667 334.149333,639.732 334.352,639.548 C334.554667,639.364 334.714667,639.14 334.832,638.876 C334.949333,638.612 335.008,638.317333 335.008,637.992 C335.008,637.666667 334.949333,637.373333 334.832,637.112 C334.714667,636.850667 334.554667,636.629333 334.352,636.448 C334.149333,636.266667 333.914667,636.128 333.648,636.032 C333.381333,635.936 333.096,635.888 332.792,635.888 Z M340.592,635.904 C340.293333,635.904 340.04,635.965333 339.832,636.088 C339.624,636.210667 339.453333,636.376 339.32,636.584 C339.208,636.365333 339.052,636.197333 338.852,636.08 C338.652,635.962667 338.408,635.904 338.12,635.904 C337.970667,635.904 337.833333,635.922667 337.708,635.96 C337.582667,635.997333 337.469333,636.046667 337.368,636.108 C337.266667,636.169333 337.18,636.24 337.108,636.32 C337.06,636.373333 337.017333,636.427852 336.98,636.483556 L336.928,636.568 L336.912,636.568 L336.912,636.016 L335.64,636.016 L335.64,640 L336.96,640 L336.96,637.84 C336.96,637.6 337.017333,637.397333 337.132,637.232 C337.246667,637.066667 337.408,636.984 337.616,636.984 C337.813333,636.984 337.957333,637.050667 338.048,637.184 C338.120533,637.290667 338.164053,637.428053 338.17856,637.59616 L338.184,637.728 L338.184,640 L339.496,640 L339.496,637.848 C339.496,637.736 339.509333,637.628 339.536,637.524 C339.562667,637.42 339.604,637.328 339.66,637.248 C339.716,637.168 339.785333,637.104 339.868,637.056 C339.950667,637.008 340.048,636.984 340.16,636.984 C340.277333,636.984 340.372,637.006667 340.444,637.052 C340.516,637.097333 340.573333,637.157333 340.616,637.232 C340.658667,637.306667 340.688,637.396 340.704,637.5 L340.722,637.659 L340.722,637.659 L340.728,637.824 L340.728,640 L342.04,640 L342.04,637.536 C342.04,637.349333 342.014667,637.158667 341.964,636.964 C341.913333,636.769333 341.832,636.593333 341.72,636.436 C341.608,636.278667 341.46,636.150667 341.276,636.052 C341.092,635.953333 340.864,635.904 340.592,635.904 Z M344.16,636.016 L342.848,636.016 L342.848,640 L344.16,640 L344.16,636.016 Z M347.48,635.904 C347.341333,635.904 347.210667,635.922667 347.088,635.96 C346.965333,635.997333 346.852,636.045333 346.748,636.104 C346.644,636.162667 346.553333,636.233333 346.476,636.316 C346.424444,636.371111 346.379407,636.426815 346.340889,636.483111 L346.288,636.568 L346.272,636.568 L346.272,636.016 L345,636.016 L345,640 L346.32,640 L346.32,637.84 C346.32,637.728 346.334667,637.62 346.364,637.516 C346.393333,637.412 346.437333,637.32 346.496,637.24 C346.554667,637.16 346.628,637.097333 346.716,637.052 C346.804,637.006667 346.906667,636.984 347.024,636.984 C347.141333,636.984 347.238667,637.006667 347.316,637.052 C347.393333,637.097333 347.453333,637.158667 347.496,637.236 C347.538667,637.313333 347.569333,637.402667 347.588,637.504 L347.609,637.66 L347.609,637.66 L347.616,637.824 L347.616,640 L348.936,640 L348.936,637.536 C348.936,637.338667 348.910667,637.141333 348.86,636.944 C348.809333,636.746667 348.726667,636.572 348.612,636.42 C348.497333,636.268 348.346667,636.144 348.16,636.048 C347.973333,635.952 347.746667,635.904 347.48,635.904 Z M373.312,635.904 C373.173333,635.904 373.042667,635.922667 372.92,635.96 C372.797333,635.997333 372.684,636.045333 372.58,636.104 C372.476,636.162667 372.385333,636.233333 372.308,636.316 C372.256444,636.371111 372.211407,636.426815 372.172889,636.483111 L372.12,636.568 L372.104,636.568 L372.104,636.016 L370.832,636.016 L370.832,640 L372.152,640 L372.152,637.84 C372.152,637.728 372.166667,637.62 372.196,637.516 C372.225333,637.412 372.269333,637.32 372.328,637.24 C372.386667,637.16 372.46,637.097333 372.548,637.052 C372.636,637.006667 372.738667,636.984 372.856,636.984 C372.973333,636.984 373.070667,637.006667 373.148,637.052 C373.225333,637.097333 373.285333,637.158667 373.328,637.236 C373.370667,637.313333 373.401333,637.402667 373.42,637.504 L373.441,637.66 L373.441,637.66 L373.448,637.824 L373.448,640 L374.768,640 L374.768,637.536 C374.768,637.338667 374.742667,637.141333 374.692,636.944 C374.641333,636.746667 374.558667,636.572 374.444,636.42 C374.329333,636.268 374.178667,636.144 373.992,636.048 C373.805333,635.952 373.578667,635.904 373.312,635.904 Z M332.792,636.976 C332.946667,636.976 333.082667,637.005333 333.2,637.064 C333.317333,637.122667 333.416,637.198667 333.496,637.292 C333.576,637.385333 333.637333,637.493333 333.68,637.616 C333.722667,637.738667 333.744,637.864 333.744,637.992 C333.744,638.12 333.724,638.245333 333.684,638.368 C333.644,638.490667 333.584,638.601333 333.504,638.7 C333.424,638.798667 333.325333,638.877333 333.208,638.936 C333.090667,638.994667 332.954667,639.024 332.8,639.024 C332.645333,639.024 332.509333,638.994667 332.392,638.936 C332.274667,638.877333 332.176,638.798667 332.096,638.7 C332.016,638.601333 331.956,638.490667 331.916,638.368 C331.876,638.245333 331.856,638.12 331.856,637.992 C331.856,637.864 331.876,637.738667 331.916,637.616 C331.956,637.493333 332.014667,637.385333 332.092,637.292 C332.169333,637.198667 332.266667,637.122667 332.384,637.064 C332.501333,637.005333 332.637333,636.976 332.792,636.976 Z M363.128,636.976 C363.282667,636.976 363.418667,637.005333 363.536,637.064 C363.653333,637.122667 363.752,637.198667 363.832,637.292 C363.912,637.385333 363.973333,637.493333 364.016,637.616 C364.058667,637.738667 364.08,637.864 364.08,637.992 C364.08,638.12 364.06,638.245333 364.02,638.368 C363.98,638.490667 363.92,638.601333 363.84,638.7 C363.76,638.798667 363.661333,638.877333 363.544,638.936 C363.426667,638.994667 363.290667,639.024 363.136,639.024 C362.981333,639.024 362.845333,638.994667 362.728,638.936 C362.610667,638.877333 362.512,638.798667 362.432,638.7 C362.352,638.601333 362.292,638.490667 362.252,638.368 C362.212,638.245333 362.192,638.12 362.192,637.992 C362.192,637.864 362.212,637.738667 362.252,637.616 C362.292,637.493333 362.350667,637.385333 362.428,637.292 C362.505333,637.198667 362.602667,637.122667 362.72,637.064 C362.837333,637.005333 362.973333,636.976 363.128,636.976 Z M367.984,636.976 C368.138667,636.976 368.274667,637.005333 368.392,637.064 C368.509333,637.122667 368.608,637.198667 368.688,637.292 C368.768,637.385333 368.829333,637.493333 368.872,637.616 C368.914667,637.738667 368.936,637.864 368.936,637.992 C368.936,638.12 368.916,638.245333 368.876,638.368 C368.836,638.490667 368.776,638.601333 368.696,638.7 C368.616,638.798667 368.517333,638.877333 368.4,638.936 C368.282667,638.994667 368.146667,639.024 367.992,639.024 C367.837333,639.024 367.701333,638.994667 367.584,638.936 C367.466667,638.877333 367.368,638.798667 367.288,638.7 C367.208,638.601333 367.148,638.490667 367.108,638.368 C367.068,638.245333 367.048,638.12 367.048,637.992 C367.048,637.864 367.068,637.738667 367.108,637.616 C367.148,637.493333 367.206667,637.385333 367.284,637.292 C367.361333,637.198667 367.458667,637.122667 367.576,637.064 C367.693333,637.005333 367.829333,636.976 367.984,636.976 Z M351.736,636.976 C351.885333,636.976 352.018667,637.002667 352.136,637.056 C352.253333,637.109333 352.354667,637.182667 352.44,637.276 C352.525333,637.369333 352.590667,637.477333 352.636,637.6 C352.681333,637.722667 352.704,637.850667 352.704,637.984 C352.704,638.122667 352.681333,638.253333 352.636,638.376 C352.590667,638.498667 352.526667,638.605333 352.444,638.696 C352.361333,638.786667 352.26,638.86 352.14,638.916 C352.02,638.972 351.885333,639 351.736,639 C351.586667,639 351.454667,638.972 351.34,638.916 C351.225333,638.86 351.128,638.785333 351.048,638.692 C350.968,638.598667 350.906667,638.490667 350.864,638.368 C350.821333,638.245333 350.8,638.117333 350.8,637.984 C350.8,637.845333 350.821333,637.714667 350.864,637.592 C350.906667,637.469333 350.968,637.362667 351.048,637.272 C351.128,637.181333 351.225333,637.109333 351.34,637.056 C351.454667,637.002667 351.586667,636.976 351.736,636.976 Z M343.504,634.024 C343.397333,634.024 343.298667,634.044 343.208,634.084 C343.117333,634.124 343.037333,634.176 342.968,634.24 C342.898667,634.304 342.845333,634.38 342.808,634.468 C342.770667,634.556 342.752,634.648 342.752,634.744 C342.752,634.941333 342.824,635.110667 342.968,635.252 C343.112,635.393333 343.290667,635.464 343.504,635.464 C343.605333,635.464 343.702667,635.445333 343.796,635.408 C343.889333,635.370667 343.969333,635.32 344.036,635.256 C344.102667,635.192 344.156,635.116 344.196,635.028 C344.236,634.94 344.256,634.845333 344.256,634.744 C344.256,634.642667 344.236,634.548 344.196,634.46 C344.156,634.372 344.102667,634.296 344.036,634.232 C343.969333,634.168 343.889333,634.117333 343.796,634.08 C343.702667,634.042667 343.605333,634.024 343.504,634.024 Z" id="Combined-Shape-Copy-5"></path>
        </g>
    </g>
</svg>