<svg xmlns="http://www.w3.org/2000/svg" viewBox="0 0 16 19"><g fill="none"><path d="m4.98051764 11.9065509c-1.88061827-1.0347423-3.13436379-2.91693477-3.13436379-5.0680119.00189961-3.26741197 2.89311276-5.91546208 6.46248826-5.91546208 3.56937549 0 6.46058869 2.64805011 6.46058869 5.91360771 0 2.15107712-1.2556452 4.03512397-3.1343638 5.06801187-.1044788.5303518-.3571275 1.008781-.7180543 1.407472h-5.2182408c-.36472597-.398691-.61167585-.8845377-.71805426-1.4056176zm7.94418756-4.50613572c.0151969-2.47188431-2.0515836-4.48759192-4.61606309-4.50428131-.4084171 0-.61547507.18914643-.61547507.56187618 0 .09271884.20705797.2800109.61547507.2800109 1.96990019 0 3.69285049 1.57807468 3.69285049 3.66239423 0 .09271884.2070579.28186528.6135754.28186528.1025792 0 .3096372-.18914644.3096372-.28186528zm-7.38570091 7.31922532c0-.3096809.27544409-.5600218.61357545-.5600218h4.31022516c.340031 0 .6135754.2484865.6135754.5600218s-.2754441.5637306-.6135754.5637306h-4.30832554c-.15956761.0037087-.31343638-.0519226-.42741325-.1576221-.11397686-.1056994-.1842626-.2503408-.18806182-.4061085zm5.25053431 1.4111808c-.4521083.8326152-1.39431703 1.407472-2.48089649 1.407472-1.03339024.0111263-1.9888963-.5303518-2.48089643-1.407472z" fill="#fedd48" transform="translate(.538 .692)"/><g fill="#4c4c4c"><path d="M6.46248827 0c3.56937553 0 6.46058863 2.64805011 6.46058863 5.9136077 0 2.15107713-1.2556451 4.03512398-3.13436378 5.0680119-.10447879.5303517-.35712751 1.008781-.71805425 1.407472h-5.21824082c-.36472597-.398691-.61167584-.8845378-.71805425-1.4056176-1.88061828-1.03474232-3.1343638-2.9169348-3.1343638-5.06801192.00189961-3.26741197 2.89311277-5.91546208 6.46248827-5.91546208zm0 1c-3.03534383 0-5.4609214 2.22066775-5.46248827 4.91546208 0 1.72289581.995866 3.30022028 2.61642641 4.19187512l.40521641.2229557.09251193.4531568c.04360892.2136123.12304945.4181397.23457553.6056419h4.22560411l.0783861-.1438287c.07180617-.1461621.12376009-.2991109.15484982-.4569275l.0902413-.4580799.40912865-.2249321c1.61886494-.89002465 2.61613664-2.46931335 2.61613664-4.1917157 0-2.69316224-2.42536739-4.9136077-5.46058863-4.9136077zM8.61665103 13.2365418c.34003098 0 .61357545.2484865.61357545.5600218s-.27544409.5637306-.61357545.5637306h-4.30832552c-.15956761.0037087-.31343638-.0519226-.42741324-.1576221-.11397687-.1056995-.1842626-.2503408-.18806183-.4061085 0-.3096809.27544409-.5600218.61357546-.5600218zM8.94338471 15.2077444c-.45210824.8326152-1.39431699 1.407472-2.48089644 1.407472-1.03339025.0111262-1.9888963-.5303518-2.48089644-1.407472z" transform="translate(.538 .692)"/></g></g></svg>