<svg width="12" height="14" xmlns="http://www.w3.org/2000/svg"><path d="M1665.09784,730.857901 C1665.2337,730.857901 1665.36399,730.91187 1665.46006,731.007936 C1665.55612,731.104002 1665.61009,731.234295 1665.61009,731.370153 C1665.60902,731.563047 1665.49752,731.738267 1665.32323,731.820934 C1666.13067,734.006073 1665.18115,736.450213 1663.1103,737.517169 C1664.64509,738.307424 1665.60978,739.888894 1665.61009,741.61518 C1665.62027,741.778942 1665.62027,741.943179 1665.61009,742.106941 C1665.74957,742.10683 1665.88307,742.163602 1665.97975,742.264146 C1666.07643,742.364691 1666.12792,742.500311 1666.12234,742.639683 C1666.12245,742.779166 1666.06568,742.912663 1665.96514,743.00934 C1665.86459,743.106017 1665.72897,743.157513 1665.5896,743.151934 L1665.5896,743.151934 L1656.38957,743.151934 C1656.10666,743.151934 1655.87732,742.922591 1655.87732,742.639683 C1655.87174,742.500311 1655.92323,742.364691 1656.01991,742.264146 C1656.11659,742.163602 1656.25008,742.10683 1656.38957,742.106941 C1656.37939,741.943179 1656.37939,741.778942 1656.38957,741.61518 C1656.38987,739.888894 1657.35457,738.307424 1658.88935,737.517169 C1656.82365,736.450838 1655.87501,734.013362 1656.67643,731.831179 C1656.49878,731.746938 1656.38666,731.566743 1656.38957,731.370153 C1656.38957,731.087244 1656.61891,730.857901 1656.90182,730.857901 L1656.90182,730.857901 Z M1661.03056,738.02942 C1659.0502,738.02942 1657.4448,739.63482 1657.4448,741.61518 C1657.4343,741.778932 1657.4343,741.943189 1657.4448,742.106941 L1657.4448,742.106941 L1664.55485,742.106941 C1664.58591,741.944515 1664.60644,741.780252 1664.61632,741.61518 C1664.61632,739.63482 1663.01092,738.02942 1661.03056,738.02942 Z M1664.23726,731.882404 L1657.7624,731.882404 C1657.5328,732.36215 1657.41376,732.8873 1657.41407,733.419158 C1657.41206,734.892592 1658.31159,736.217282 1659.6819,736.758837 C1661.0522,737.300392 1662.61431,736.948565 1663.62014,735.871846 C1664.62596,734.795127 1664.87074,733.212707 1664.23726,731.882404 L1664.23726,731.882404 Z M1663.64305,734.996892 C1663.08939,735.929968 1662.0848,736.502008 1660.99983,736.502008 C1659.91486,736.502008 1658.91027,735.929968 1658.35661,734.996892 L1658.35661,734.996892 Z" transform="translate(-1655 -730)" fill="" fill-rule="nonzero"/></svg>