<svg xmlns="http://www.w3.org/2000/svg" viewBox="0 0 36 42"><g fill="#38B2A6" fill-rule="nonzero"><path d="M13.9695672,21.5344394 L19.4166415,21.7344394 L19.3457262,21.7697849 C19.0674606,21.9432399 18.9569973,22.1482536 19.0143363,22.3847519 L19.0437041,22.4749145 C19.1370725,22.7039805 19.2923404,22.8929302 19.5098239,23.0419467 L19.6477824,23.1265661 C19.9298067,23.2952587 20.2041161,23.4772756 20.4698342,23.6720351 C20.7481218,23.8748964 21.0015823,24.1116566 21.2247016,24.3771647 C21.5304317,24.6377694 21.6999795,24.9470367 21.8074631,25.2282426 L21.856376,25.3661519 L20.3241783,26.5675989 L19.843448,26.9702134 L19.3562005,27.3650503 L18.8625317,27.7520319 C18.234815,28.2295266 17.6566844,28.767653 17.1366875,29.358455 C16.6093748,29.9554274 16.1649031,30.6193382 15.8150335,31.3326199 C15.462537,32.0495812 15.2190236,32.816704 15.0842935,33.6333953 C14.9497299,34.4502843 14.9755101,35.3034596 15.1622337,36.1928885 C15.3281733,36.9917496 15.6700779,37.7947963 16.188514,38.6027538 C16.64905,39.3207624 17.2530678,39.977836 18.0004739,40.5737661 L18.260147,40.774466 L17.2156769,40.7662125 L13.1921218,40.7572836 L10.9008544,40.7344718 C9.00111373,40.7065206 7.20918595,40.6531284 6.1527537,40.5511389 L5.92006089,40.5285464 L5.59489847,40.5031797 C4.34352449,40.3823264 0.216224969,39.7500212 0.0106421018,36.6586137 L4.4408921e-14,36.2839791 L0.000612055681,36.0650706 C0.0178737425,34.7862019 0.296592257,30.2675579 3.24278082,26.7873758 L3.68874746,26.2669209 L3.9172479,26.0181676 C5.1499449,24.7146669 8.69763851,21.5344394 13.9695672,21.5344394 Z M20.5476415,21.7764394 L22.1924392,21.8383721 C22.0706759,21.8887674 21.927036,21.9279989 21.7614591,21.9560615 C21.5825058,21.9915729 21.3867564,21.9829236 21.1743817,21.9294455 L20.5476415,21.7764394 Z M18.0843833,-1.0658141e-14 C23.5861893,-1.0658141e-14 27.9360892,4.34925083 27.9360892,9.85046538 C27.9363188,15.1165853 23.5864189,19.7009308 18.0843833,19.7009308 C12.5823477,19.7009308 8.2324478,15.3516799 8.2324478,9.85046538 C8.2324478,4.34925083 12.5823477,-1.0658141e-14 18.0843833,-1.0658141e-14 Z"/><path d="M29.3496415,26.0917358 C29.5575468,26.3371309 29.9640892,26.5457319 30.2758915,26.8369941 C30.5356757,27.0979194 30.821121,27.2189053 31.2021415,27.5484922 C31.5830507,27.8782461 31.9347362,28.094 32.4370487,28.4619395 C32.8528593,28.7838447 33.2815004,29.1631675 33.7233895,29.5999355 C34.1651395,30.0369819 34.550474,30.5467256 34.8797826,31.12925 C35.2088129,31.7117744 35.5251517,32.4137539 35.6552665,33.1723994 C35.7852421,33.9313789 35.8283817,34.6763589 35.6552665,35.6115986 C35.4993793,36.3782598 35.1525365,37.1994717 34.6933915,37.8814678 C34.2343856,38.5634639 33.5111981,39.1309312 32.7489901,39.6366392 C31.9868934,40.1425142 31.0815731,40.5447983 30.0336415,40.84377 C28.9857098,41.1428809 27.7946937,41.2923389 26.4607323,41.2923389 C25.092287,41.2923389 23.8796454,41.1196411 22.8228632,40.7748022 C21.7662201,40.4299355 20.8697504,39.9815059 20.1335931,39.4297358 C19.3972968,38.878105 18.8126293,38.2610967 18.379702,37.5789614 C17.9464965,36.8966592 17.6608007,36.2185039 17.5221415,35.5438833 C17.3661151,34.7927803 17.3445731,34.0722925 17.4570145,33.3824478 C17.5695951,32.69277 17.7730751,32.0449517 18.0676215,31.4394937 C18.3599728,30.837143 18.7313736,30.276485 19.1719965,29.772355 C19.6065063,29.2734357 20.0895926,28.8189998 20.6141132,28.4157661 C21.0292792,28.0923074 21.4365173,27.7587996 21.8354662,27.4155386 L21.8354662,27.4155386 L23.5033007,26.0917358 Z M27.5276415,28.528 L26.3436415,28.528 L26.3436415,29.536 C25.5969748,29.536 24.9783082,29.7546667 24.4876415,30.192 C23.9969748,30.6293333 23.7516415,31.136 23.7516415,31.712 C23.7516415,32.224 23.9009748,32.664 24.1996415,33.032 C24.465123,33.3591111 24.9202341,33.6799012 25.5649748,33.9943704 L25.8156415,34.112 L26.3436415,34.352 L26.3436415,36.736 C25.7922569,36.5587692 25.4953575,36.1815858 25.4529433,35.6044497 L25.4476415,35.456 L23.7036415,35.824 C23.8665506,37.1374545 24.6757737,37.8969256 26.1313109,38.1024132 L26.3436415,38.128 L26.3436415,39.2 L27.5276415,39.2 L27.5276415,38.144 C28.2849748,38.0693333 28.9063082,37.8133333 29.3916415,37.376 C29.8769748,36.9386667 30.1196415,36.4053333 30.1196415,35.776 C30.1196415,35.232 29.9516415,34.7493333 29.6156415,34.328 C29.3076415,33.9417778 28.6971415,33.5488333 27.7841415,33.1491667 L27.5276415,33.04 L27.5276415,30.928 C27.8828415,31.0144 28.1127615,31.29088 28.2174015,31.75744 L28.2476415,31.92 L29.8316415,31.648 C29.6999082,30.4624 29.0002015,29.7773867 27.7325215,29.59296 L27.5276415,29.568 L27.5276415,28.528 Z M27.5276415,34.848 L27.7516415,34.96 C28.1463082,35.1413333 28.3436415,35.456 28.3436415,35.904 C28.3436415,36.3946667 28.0716415,36.6933333 27.5276415,36.8 L27.5276415,34.848 Z M26.3436415,30.976 L26.3436415,32.608 L26.1676415,32.528 C25.7623082,32.336 25.5596415,32.0586667 25.5596415,31.696 C25.5596415,31.4826667 25.6343082,31.3093333 25.7836415,31.176 C25.9031082,31.0693333 26.0464682,31.0053333 26.2137215,30.984 L26.3436415,30.976 Z M27.7228593,20.6239941 C27.9415912,20.5538853 28.233577,20.5748428 28.5980931,20.687145 C28.7805043,20.7293105 28.9264276,20.7888711 29.0358632,20.866105 C29.1452987,20.9433389 29.2500306,21.0171494 29.3505043,21.0872861 C29.4530358,21.1587731 29.5630794,21.21883 29.6786718,21.2663853 C29.7972362,21.3155645 29.9475848,21.3400566 30.1299681,21.3400566 C30.3122401,21.3400566 30.4672645,21.319127 30.5950971,21.2769336 C30.7175057,21.2364073 30.8405382,21.1977903 30.9641498,21.1610967 C31.0804211,21.1265392 31.199411,21.101894 31.3198431,21.0874253 C31.4381293,21.0734536 31.5794882,21.0874253 31.7436415,21.1295908 C31.9260526,21.1857559 32.0490145,21.2665244 32.1128612,21.3718408 C32.1767079,21.4771572 32.1949379,21.5858691 32.1677181,21.6983105 C32.1403871,21.8104736 32.0765126,21.9228872 31.9761781,22.0351895 C31.8725393,22.1501685 31.7469708,22.2432803 31.6068471,22.3090566 C31.2604218,22.4773569 30.995934,22.649498 30.8135507,22.8249233 C30.6259944,23.0058109 30.4435667,23.1919417 30.2664843,23.3830947 C30.1642773,23.4936426 30.0639927,23.6059524 29.9656757,23.7199736 C29.8598027,23.8418636 29.7593791,23.9683821 29.6647001,24.0991572 C29.5553384,24.2537173 29.436607,24.4014297 29.3091737,24.5414639 L29.3091737,24.5414639 L23.6468026,24.5414639 C23.5226553,24.3772448 23.394988,24.2157167 23.2638895,24.0569917 C23.1507559,23.912174 23.0321616,23.7717066 22.9083632,23.6358931 C22.7806698,23.4955361 22.6713734,23.369123 22.5801679,23.2568486 C22.3982651,23.0466759 22.1916259,22.8592596 21.964746,22.6986772 C21.7481137,22.5445082 21.524477,22.400426 21.2945507,22.2668911 C21.0574218,22.1405059 20.8934076,21.9686431 20.8020629,21.7510522 C20.7109965,21.5334336 20.7930731,21.3473486 21.0482929,21.1928809 C21.1759862,21.1227441 21.3219096,21.0946895 21.4860629,21.1086611 C21.6610585,21.1245193 21.8347225,21.1526619 22.0057704,21.1928809 C22.1837866,21.2340532 22.3615802,21.2761822 22.5391434,21.3192661 C22.7122865,21.3615986 22.8718754,21.3684453 23.0177709,21.340335 C23.2731576,21.2983086 23.4645306,21.2246372 23.592224,21.1193486 C23.7198895,21.0140322 23.9386215,20.8840566 24.248559,20.7297559 C24.485827,20.6174536 24.7501757,20.5788228 25.0418554,20.6138911 C25.333702,20.6490986 25.552434,20.72277 25.6982181,20.8350444 C25.9300048,21.0135529 25.9412014,20.9982368 26.1909843,21.1505483 C26.2865578,21.2088267 26.3873111,21.2581506 26.4919598,21.2978911 C26.5284198,21.2978911 26.5738973,21.2837803 26.6287543,21.2558647 C26.7381898,21.1996997 26.883974,21.10123 27.0663573,20.960873 C27.2850892,20.8065723 27.5038212,20.6941309 27.7228593,20.6239941 Z"/></g></svg>