<svg width="91" height="60" xmlns="http://www.w3.org/2000/svg"><g fill="none" fill-rule="evenodd"><path fill="#FFEDE4" d="M-4.76105266e-13 0L91 0 91 60 49.5 60 -4.76105266e-13 60 12 30z"/><path d="M25.456,48.216 C26.208,48.216 26.852,48.074 27.388,47.79 C27.924,47.506 28.36,47.136 28.696,46.68 L28.696,46.68 L27.748,46.032 C27.492,46.4 27.168,46.68 26.776,46.872 C26.384,47.064 25.948,47.16 25.468,47.16 C24.98,47.16 24.538,47.072 24.142,46.896 C23.746,46.72 23.41,46.478 23.134,46.17 C22.858,45.862 22.646,45.5 22.498,45.084 C22.35,44.668 22.276,44.22 22.276,43.74 C22.276,43.276 22.352,42.838 22.504,42.426 C22.656,42.014 22.872,41.652 23.152,41.34 C23.432,41.028 23.77,40.782 24.166,40.602 C24.562,40.422 25.008,40.332 25.504,40.332 C25.944,40.332 26.354,40.426 26.734,40.614 C27.114,40.802 27.408,41.04 27.616,41.328 L27.616,41.328 L28.552,40.608 C28.392,40.392 28.2,40.202 27.976,40.038 C27.752,39.874 27.504,39.736 27.232,39.624 C26.96,39.512 26.676,39.428 26.38,39.372 C26.084,39.316 25.792,39.288 25.504,39.288 C24.856,39.288 24.256,39.396 23.704,39.612 C23.152,39.828 22.674,40.13 22.27,40.518 C21.866,40.906 21.55,41.374 21.322,41.922 C21.094,42.47 20.98,43.076 20.98,43.74 C20.98,44.396 21.092,44.998 21.316,45.546 C21.54,46.094 21.85,46.566 22.246,46.962 C22.642,47.358 23.114,47.666 23.662,47.886 C24.21,48.106 24.808,48.216 25.456,48.216 Z M32.536,48.156 C32.968,48.156 33.372,48.082 33.748,47.934 C34.124,47.786 34.45,47.578 34.726,47.31 C35.002,47.042 35.218,46.724 35.374,46.356 C35.53,45.988 35.608,45.584 35.608,45.144 C35.608,44.704 35.53,44.302 35.374,43.938 C35.218,43.574 35.002,43.26 34.726,42.996 C34.45,42.732 34.124,42.526 33.748,42.378 C33.372,42.23 32.968,42.156 32.536,42.156 C32.104,42.156 31.7,42.23 31.324,42.378 C30.948,42.526 30.624,42.732 30.352,42.996 C30.08,43.26 29.866,43.574 29.71,43.938 C29.554,44.302 29.476,44.704 29.476,45.144 C29.476,45.584 29.554,45.988 29.71,46.356 C29.866,46.724 30.08,47.042 30.352,47.31 C30.624,47.578 30.948,47.786 31.324,47.934 C31.7,48.082 32.104,48.156 32.536,48.156 Z M32.536,47.208 C32.232,47.208 31.962,47.152 31.726,47.04 C31.49,46.928 31.292,46.776 31.132,46.584 C30.972,46.392 30.85,46.172 30.766,45.924 C30.682,45.676 30.64,45.416 30.64,45.144 C30.64,44.872 30.682,44.612 30.766,44.364 C30.85,44.116 30.972,43.898 31.132,43.71 C31.292,43.522 31.49,43.372 31.726,43.26 C31.962,43.148 32.232,43.092 32.536,43.092 C32.84,43.092 33.11,43.148 33.346,43.26 C33.582,43.372 33.78,43.522 33.94,43.71 C34.1,43.898 34.222,44.116 34.306,44.364 C34.39,44.612 34.432,44.872 34.432,45.144 C34.432,45.416 34.39,45.676 34.306,45.924 C34.222,46.172 34.1,46.392 33.94,46.584 C33.78,46.776 33.582,46.928 33.346,47.04 C33.11,47.152 32.84,47.208 32.536,47.208 Z M38.296,48 L38.296,44.976 C38.296,44.408 38.434,43.954 38.71,43.614 C38.986,43.274 39.332,43.104 39.748,43.104 C39.972,43.104 40.16,43.142 40.312,43.218 C40.464,43.294 40.588,43.398 40.684,43.53 C40.78,43.662 40.848,43.82 40.888,44.004 C40.928,44.188 40.948,44.392 40.948,44.616 L40.948,44.616 L40.948,48 L42.076,48 L42.076,44.928 C42.076,44.704 42.102,44.484 42.154,44.268 C42.206,44.052 42.29,43.858 42.406,43.686 C42.522,43.514 42.672,43.374 42.856,43.266 C43.04,43.158 43.26,43.104 43.516,43.104 C43.764,43.104 43.968,43.152 44.128,43.248 C44.288,43.344 44.416,43.472 44.512,43.632 C44.608,43.792 44.676,43.976 44.716,44.184 C44.756,44.392 44.776,44.612 44.776,44.844 L44.776,44.844 L44.776,48 L45.904,48 L45.904,44.472 C45.904,44.152 45.862,43.852 45.778,43.572 C45.694,43.292 45.564,43.048 45.388,42.84 C45.212,42.632 44.992,42.466 44.728,42.342 C44.464,42.218 44.148,42.156 43.78,42.156 C43.372,42.156 42.996,42.254 42.652,42.45 C42.308,42.646 42.04,42.928 41.848,43.296 C41.672,42.888 41.43,42.596 41.122,42.42 C40.814,42.244 40.468,42.156 40.084,42.156 C39.652,42.156 39.278,42.262 38.962,42.474 C38.646,42.686 38.416,42.944 38.272,43.248 L38.272,43.248 L38.236,43.248 C38.236,43.128 38.232,42.978 38.224,42.798 C38.216,42.618 38.204,42.456 38.188,42.312 L38.188,42.312 L37.12,42.312 C37.136,42.496 37.148,42.708 37.156,42.948 C37.164,43.188 37.168,43.384 37.168,43.536 L37.168,43.536 L37.168,48 L38.296,48 Z M48.94,48 L48.94,44.976 C48.94,44.408 49.078,43.954 49.354,43.614 C49.63,43.274 49.976,43.104 50.392,43.104 C50.616,43.104 50.804,43.142 50.956,43.218 C51.108,43.294 51.232,43.398 51.328,43.53 C51.424,43.662 51.492,43.82 51.532,44.004 C51.572,44.188 51.592,44.392 51.592,44.616 L51.592,44.616 L51.592,48 L52.72,48 L52.72,44.928 C52.72,44.704 52.746,44.484 52.798,44.268 C52.85,44.052 52.934,43.858 53.05,43.686 C53.166,43.514 53.316,43.374 53.5,43.266 C53.684,43.158 53.904,43.104 54.16,43.104 C54.408,43.104 54.612,43.152 54.772,43.248 C54.932,43.344 55.06,43.472 55.156,43.632 C55.252,43.792 55.32,43.976 55.36,44.184 C55.4,44.392 55.42,44.612 55.42,44.844 L55.42,44.844 L55.42,48 L56.548,48 L56.548,44.472 C56.548,44.152 56.506,43.852 56.422,43.572 C56.338,43.292 56.208,43.048 56.032,42.84 C55.856,42.632 55.636,42.466 55.372,42.342 C55.108,42.218 54.792,42.156 54.424,42.156 C54.016,42.156 53.64,42.254 53.296,42.45 C52.952,42.646 52.684,42.928 52.492,43.296 C52.316,42.888 52.074,42.596 51.766,42.42 C51.458,42.244 51.112,42.156 50.728,42.156 C50.296,42.156 49.922,42.262 49.606,42.474 C49.29,42.686 49.06,42.944 48.916,43.248 L48.916,43.248 L48.88,43.248 C48.88,43.128 48.876,42.978 48.868,42.798 C48.86,42.618 48.848,42.456 48.832,42.312 L48.832,42.312 L47.764,42.312 C47.78,42.496 47.792,42.708 47.8,42.948 C47.808,43.188 47.812,43.384 47.812,43.536 L47.812,48 L48.94,48 Z M61.084,48.156 C61.588,48.156 62.046,48.062 62.458,47.874 C62.87,47.686 63.228,47.392 63.532,46.992 L63.532,46.992 L62.74,46.356 C62.58,46.596 62.36,46.8 62.08,46.968 C61.8,47.136 61.468,47.22 61.084,47.22 C60.836,47.22 60.602,47.176 60.382,47.088 C60.162,47 59.968,46.878 59.8,46.722 C59.632,46.566 59.498,46.382 59.398,46.17 C59.298,45.958 59.244,45.732 59.236,45.492 L59.236,45.492 L63.748,45.492 C63.756,45.428 63.76,45.364 63.76,45.3 L63.76,45.3 L63.76,45.108 C63.76,44.652 63.696,44.242 63.568,43.878 C63.44,43.514 63.258,43.204 63.022,42.948 C62.786,42.692 62.498,42.496 62.158,42.36 C61.818,42.224 61.44,42.156 61.024,42.156 C60.608,42.156 60.22,42.23 59.86,42.378 C59.5,42.526 59.188,42.732 58.924,42.996 C58.66,43.26 58.454,43.578 58.306,43.95 C58.158,44.322 58.084,44.728 58.084,45.168 C58.084,45.616 58.16,46.024 58.312,46.392 C58.464,46.76 58.672,47.074 58.936,47.334 C59.2,47.594 59.516,47.796 59.884,47.94 C60.252,48.084 60.652,48.156 61.084,48.156 Z M62.62,44.652 L59.236,44.652 C59.252,44.428 59.31,44.218 59.41,44.022 C59.51,43.826 59.638,43.656 59.794,43.512 C59.95,43.368 60.134,43.254 60.346,43.17 C60.558,43.086 60.784,43.044 61.024,43.044 C61.288,43.044 61.518,43.086 61.714,43.17 C61.91,43.254 62.074,43.368 62.206,43.512 C62.338,43.656 62.438,43.826 62.506,44.022 C62.574,44.218 62.612,44.428 62.62,44.652 L62.62,44.652 Z M66.46,48 L66.46,44.976 C66.46,44.408 66.602,43.954 66.886,43.614 C67.17,43.274 67.536,43.104 67.984,43.104 C68.248,43.104 68.464,43.152 68.632,43.248 C68.8,43.344 68.932,43.472 69.028,43.632 C69.124,43.792 69.19,43.976 69.226,44.184 C69.262,44.392 69.28,44.612 69.28,44.844 L69.28,44.844 L69.28,48 L70.408,48 L70.408,44.472 C70.408,44.152 70.366,43.852 70.282,43.572 C70.198,43.292 70.068,43.048 69.892,42.84 C69.716,42.632 69.496,42.466 69.232,42.342 C68.968,42.218 68.652,42.156 68.284,42.156 C68.076,42.156 67.876,42.184 67.684,42.24 C67.492,42.296 67.316,42.374 67.156,42.474 C66.996,42.574 66.854,42.69 66.73,42.822 C66.606,42.954 66.508,43.096 66.436,43.248 L66.436,43.248 L66.4,43.248 C66.4,43.128 66.396,42.978 66.388,42.798 C66.38,42.618 66.368,42.456 66.352,42.312 L66.352,42.312 L65.284,42.312 C65.3,42.496 65.312,42.708 65.32,42.948 C65.328,43.188 65.332,43.384 65.332,43.536 L65.332,48 L66.46,48 Z M74.128,48.096 C74.304,48.096 74.474,48.082 74.638,48.054 C74.802,48.026 74.952,47.988 75.088,47.94 L75.088,47.94 L75.052,47.016 C74.956,47.064 74.848,47.1 74.728,47.124 C74.608,47.148 74.496,47.16 74.392,47.16 C74.112,47.16 73.908,47.086 73.78,46.938 C73.652,46.79 73.588,46.544 73.588,46.2 L73.588,46.2 L73.588,43.236 L75.1,43.236 L75.1,42.312 L73.588,42.312 L73.588,40.68 L72.472,40.68 L72.472,42.312 L71.38,42.312 L71.38,43.236 L72.472,43.236 L72.472,46.32 C72.472,46.912 72.614,47.356 72.898,47.652 C73.182,47.948 73.592,48.096 74.128,48.096 Z M77.896,48.156 C78.184,48.156 78.464,48.124 78.736,48.06 C79.008,47.996 79.25,47.89 79.462,47.742 C79.674,47.594 79.844,47.404 79.972,47.172 C80.1,46.94 80.164,46.656 80.164,46.32 C80.164,46.072 80.116,45.856 80.02,45.672 C79.924,45.488 79.79,45.33 79.618,45.198 C79.446,45.066 79.244,44.956 79.012,44.868 C78.78,44.78 78.528,44.704 78.256,44.64 C77.824,44.544 77.5,44.438 77.284,44.322 C77.068,44.206 76.96,44.028 76.96,43.788 C76.96,43.652 76.99,43.538 77.05,43.446 C77.11,43.354 77.19,43.278 77.29,43.218 C77.39,43.158 77.504,43.114 77.632,43.086 C77.76,43.058 77.888,43.044 78.016,43.044 C78.304,43.044 78.564,43.11 78.796,43.242 C79.028,43.374 79.208,43.544 79.336,43.752 L79.336,43.752 L80.116,43.092 C79.908,42.788 79.614,42.556 79.234,42.396 C78.854,42.236 78.46,42.156 78.052,42.156 C77.78,42.156 77.516,42.19 77.26,42.258 C77.004,42.326 76.776,42.43 76.576,42.57 C76.376,42.71 76.214,42.89 76.09,43.11 C75.966,43.33 75.904,43.592 75.904,43.896 C75.904,44.16 75.954,44.382 76.054,44.562 C76.154,44.742 76.284,44.892 76.444,45.012 C76.604,45.132 76.782,45.226 76.978,45.294 C77.174,45.362 77.368,45.42 77.56,45.468 C78.048,45.58 78.418,45.7 78.67,45.828 C78.922,45.956 79.048,46.152 79.048,46.416 C79.048,46.576 79.016,46.708 78.952,46.812 C78.888,46.916 78.802,47 78.694,47.064 C78.586,47.128 78.466,47.174 78.334,47.202 C78.202,47.23 78.064,47.244 77.92,47.244 C77.6,47.244 77.306,47.168 77.038,47.016 C76.77,46.864 76.56,46.676 76.408,46.452 L76.408,46.452 L75.604,47.136 C75.876,47.48 76.218,47.736 76.63,47.904 C77.042,48.072 77.464,48.156 77.896,48.156 Z" fill="#D95449" fill-rule="nonzero"/><g fill="#D95449"><path d="M10.1731721,-4.12573201e-15 L9.66963148,-4.12573201e-15 L0.506283694,3.27222885 L0.465016571,3.2928369 C0.170219983,3.4400529 1.91299967e-13,3.73756946 1.91299967e-13,4.04909047 L1.91299967e-13,13.4533776 C0.0228528167,14.263675 0.428899809,15.6609278 1.33410952,17.1300744 C2.85183299,19.573272 5.5272608,21.8198313 9.61941576,23.5348517 L9.91458629,23.6585575 L10.2099142,23.5352326 C14.1879111,21.8740754 16.8466366,19.7084361 18.4145482,17.2679059 C18.981914,16.3847737 19.3682815,15.5205811 19.6051624,14.705579 C19.7581347,14.1792695 19.8269799,13.7554119 19.841724,13.4756219 L19.8428036,13.4346188 L19.8428036,4.04909047 C19.8428036,3.70893035 19.6587032,3.43312127 19.377787,3.2928369 L19.3365199,3.27222885 L10.1731721,-4.12573201e-15 Z M9.92140909,1.55304131 L18.3042296,4.5465897 L18.3054216,13.3936157 C18.3032336,13.4351371 18.2944843,13.5173929 18.27592,13.6316874 C18.2454466,13.8193017 18.1975588,14.0335315 18.1285808,14.270854 C17.9325437,14.9453308 17.607379,15.6726304 17.1226268,16.4271705 L17.0520724,16.5354979 C15.6953847,18.5904218 13.4166035,20.4563319 9.98573549,21.9492932 L9.91551165,21.9793639 L9.85294369,21.9523854 C6.25660901,20.3828956 3.94208683,18.4075596 2.64008881,16.3116404 L2.57952786,16.2120546 C1.86404749,15.0199078 1.55261588,13.9359318 1.53824775,13.4311973 L1.53824775,4.5465897 L9.92140909,1.55304131 Z" fill-rule="nonzero" transform="translate(41 8)"/><path d="M9.71659919,5.99759221 C10.186153,5.99759221 10.5668016,6.3782408 10.5668016,6.84779464 L10.5663846,10.2755922 L13.9621262,10.2760302 C14.4347094,10.2760302 14.8178138,10.6591346 14.8178138,11.1317178 C14.8178138,11.6043011 14.4347094,11.9874055 13.9621262,11.9874055 L10.5663846,11.9865922 L10.5668016,15.4156411 C10.5668016,15.8851949 10.186153,16.2658435 9.71659919,16.2658435 C9.24704535,16.2658435 8.86639676,15.8851949 8.86639676,15.4156411 L8.86638462,11.9865922 L5.47107222,11.9874055 C4.99848901,11.9874055 4.61538462,11.6043011 4.61538462,11.1317178 C4.61538462,10.6591346 4.99848901,10.2760302 5.47107222,10.2760302 L8.86638462,10.2755922 L8.86639676,6.84779464 C8.86639676,6.3782408 9.24704535,5.99759221 9.71659919,5.99759221 Z" transform="rotate(-45 39.873 -34.36)"/></g></g></svg>