<svg width="574" height="438" xmlns="http://www.w3.org/2000/svg" xmlns:xlink="http://www.w3.org/1999/xlink"><defs><path d="M39.8057442,62.4641296 C39.8057442,62.4641296 41.5389767,74.577463 46.7372093,76.156 C51.9354419,78.2860741 57.2259767,72.3522963 50.2036744,70.8688519 C50.2036744,70.8688519 46.4881395,65.4310185 47.7276279,58.7569815 C48.9656512,52.0829444 60.5898837,28.1049815 56.2633953,12.7775185 C50.8571163,-6.38144444 45.9943953,5.2257037 45.9943953,5.2257037 L38.0725116,5.54462963 C38.0725116,5.54462963 34.4785814,-0.888018519 31.2597209,2.21346296 C28.0423256,5.31640741 25.3406512,18.9570741 27.8694419,23.9018889 C27.8694419,23.9018889 6.6325814,30.0814444 1.92809302,50.1050185 C-1.99255814,66.795963 7.1277907,72.599537 14.5544651,75.3177222 C21.9811395,78.0388333 40.0709302,79.4813148 39.0629302,73.8357407 C38.3201163,69.6721481 33.7006047,70.9302963 33.7006047,70.9302963 L39.8057442,62.4641296" id="a"/></defs><g fill="none" fill-rule="evenodd"><path fill="#AD5B2E" d="M0 0L9.69812003 75 114.589186 75 116 0z" transform="translate(376 113)"/><path fill="#FFF9CC" d="M4 4L14.3447507 70 110.24545 70 112 4z" transform="translate(376 113)"/><path fill="#95BBB4" d="M27 21L29.9914296 53.0796767 86.7701273 54 90 21z" transform="translate(376 113)"/><path d="M29,37.3951593 L30.4589324,53.0779818 L87.2064148,54 L89,35.6308769 C84.2985432,33.5593054 75.3095598,32.7111116 62.0330498,33.0862958 C48.7565397,33.4614799 37.7455231,34.8977678 29,37.3951593 Z" fill="#91AA3D" transform="translate(376 113)"/><g fill-rule="nonzero"><g transform="translate(130 87.712)"><ellipse fill="#FFF" cx="43" cy="40.215" rx="29" ry="15.479"/><path d="M86,43.7900306 C86,19.6054645 66.7482442,0 43,0 C19.2517558,0 -6.17239144e-15,19.6054645 -6.17239144e-15,43.7900306" fill="#63656A"/></g><path fill="#63656A" d="M40.8282828 -9.13158438e-15L45.1717172 -9.13158438e-15 45.1717172 94 40.8282828 94z" transform="translate(130)"/></g><g fill-rule="nonzero"><g transform="translate(209 53.437)"><ellipse fill="#FFF" cx="32.5" cy="34.5" rx="19" ry="10.88"/><path d="M65,35.5076006 C65,15.8972943 50.4492543,0 32.5,0 C14.5507457,0 -6.24125376e-15,15.8972943 -6.24125376e-15,35.5076006" fill="#7D7F82"/></g><path fill="#7D7F82" d="M30.7432432 -3.79904441e-15L35.1351351 -3.79904441e-15 35.1351351 73 30.7432432 73z" transform="translate(209)"/></g><path d="M310,438 C409.411255,438 490,431.350163 490,426.426124 C490,421.502084 472,418.118856 310,414.852248 C148,411.58564 130,418.3194 130,424.711475 C130,431.103551 210.588745,438 310,438 Z" fill="#B0D6D3" opacity=".4"/><path d="M70.957,197.856 C70.957,199.891 59.208,201.54 44.716,201.54 C30.224,201.54 18.476,199.891 18.476,197.856 C18.476,195.823 30.224,194.174 44.716,194.174 C59.208,194.174 70.957,195.823 70.957,197.856" fill="#BCE0DD" transform="translate(0 219)"/><path d="M51.798 136.689C51.798 136.689 57.555 40.287 97.841 51.797 97.841 51.797 73.381 53.237 51.798 136.689M33.093 152.517C32.106 156.96 33.094 48.921 2.06057393e-13 54.675 2.06057393e-13 54.675 61.871 23.022 33.093 152.517" fill="#7B923C" transform="translate(0 219)"/><path d="M43.165,155.395 C40.287,148.201 23.022,2.878 50.36,-1.42108547e-14 L43.165,155.395" fill="#525F2E" transform="translate(0 219)"/><path d="M24.46,139.567 C24.46,139.567 40.288,37.41 110.791,73.38 C110.791,73.38 74.819,61.87 24.46,139.567" fill="#91AA3D" transform="translate(0 219)"/><path d="M43.764,130.309 C43.764,127.431 51.439,23.83 83.095,19.993 C83.095,19.993 56.235,82.345 53.357,128.391 L43.764,130.309" fill="#7B923C" transform="translate(0 219)"/><path d="M20.742,123.594 C20.742,123.594 16.904,82.345 2.515,75.63 C2.515,75.63 31.294,81.386 32.253,124.554 L20.742,123.594" fill="#525F2E" transform="translate(0 219)"/><path d="M75.056,141.663 C75.056,154.038 73.656,164.509 71.113,173.066 C66.135,189.873 56.772,198.899 45.079,198.899 C27.438,198.899 11.187,178.395 11.187,141.683 C11.187,137.222 11.407,111.288 11.801,107.288 L74.443,107.288 C74.845,111.288 75.056,137.202 75.056,141.663" fill="#FFF" transform="translate(0 219)"/><path d="M11.801,107.288 C11.407,111.288 11.187,137.241 11.187,141.702 C11.187,178.415 27.438,198.939 45.079,198.939 C56.772,198.939 66.135,189.953 71.113,173.146 C34.536,185.051 20.118,130.288 15.676,107.288 L11.801,107.288 Z" fill="#F0FFFE" transform="translate(0 219)"/><g><path fill="#804E28" d="M335.72044 146.222222L344.356275 189 340.036242 189 322.591093 146.222222 335.72044 146.222222M49.0560417 146.222222L40.4210526 189 44.7385472 189 62.1862348 146.222222 49.0560417 146.222222" transform="translate(116 241)"/><path d="M336.903644,103.084269 L191.612585,106.555556 L46.3167416,103.084269 C46.3167416,103.084269 29.7756055,39.8782056 29.5946903,28.674536 C29.5384615,25.3698441 29.4007282,21.9762444 29.9626093,18.7557127 C31.3107761,11.0539721 36.6716958,4.32805862 56.8102626,2.10795474 C83.8327427,-0.874338759 181.265622,0.144647487 191.687821,0.262471818 C202.874126,0.135152486 299.518111,-0.862254212 326.414037,2.10795474 C340.456716,3.6560715 347.31497,7.39710191 350.6332,12.1316547 C354.068851,17.0215802 353.720937,22.9792618 353.629609,28.674536 C353.446955,39.8782056 336.903644,103.084269 336.903644,103.084269 Z" fill="#38B2A6" transform="translate(116 241)"/><path d="M31.0931174,18.6666667 C32.4428222,11.001465 37.8098582,4.30746102 57.9714006,2.09788987 C73.5456882,0.389166302 112.488156,0 144.71693,0 C168.4713,0 188.575371,0.211335343 193.002838,0.261162375 C197.728982,0.207469453 217.698953,0 241.219519,0 C273.434797,0 312.317616,0.389166302 327.88276,2.09788987 C341.94146,3.63866197 348.807539,7.36194399 352.129555,12.0740349 C334.518084,7.98349326 317.973315,4.84825613 298.892407,4.84825613 C298.651637,4.84825613 298.413915,4.84911522 298.172274,4.8499743 C247.688959,5.05143015 198.175255,13.2561383 147.774229,13.2561383 C142.750715,13.2561383 137.719799,13.1749546 132.676692,12.995835 C125.215872,12.7325249 103.011051,10.5822307 80.7178456,10.5822307 C60.7369894,10.5822307 40.6860356,12.308136 31.0931174,18.6666667" fill="#4CCCBF" transform="translate(116 241)"/><path fill="#2FA095" d="M46.6396761 119L337.360324 119 337.360324 91 46.6396761 91z" transform="translate(116 241)"/><path fill="#35AA9F" d="M45.8623482 161L338.91498 161 338.91498 138.444444 45.8623482 138.444444z" transform="translate(116 241)"/><path d="M338.242591,142.333333 L338.242591,138.444444 L338.81004,138.444444 C338.794494,138.634606 338.778947,138.82006 338.778947,139.005985 C338.778947,139.919605 338.615709,140.672248 338.242591,141.289801 L338.242591,142.333333" fill="#C97F62" transform="translate(116 241)"/><path d="M203.818978,150.888889 C201.848211,150.888889 200.067954,150.872039 198.494734,150.836654 C173.26014,150.266288 71.3613924,145.037784 45.8623482,144.067655 L45.8623482,138.444444 L47.8052775,138.444444 L47.8052775,139.881314 C47.8052775,139.881314 121.01635,145.750111 198.493429,145.750111 C264.51127,145.750111 334.95257,140.094043 337.510086,139.887211 C337.540532,139.885105 337.56228,139.882999 337.570979,139.882156 C337.579678,139.881735 337.579678,139.881314 337.579678,139.881314 L337.579678,138.444444 L338.91498,138.444444 L338.91498,141.924778 C338.693154,141.956792 338.471329,141.992598 338.240805,142.027983 C335.478861,142.455126 332.395054,142.877636 329.045925,143.29509 C294.263707,147.576212 231.123071,150.888889 203.818978,150.888889" fill="#2B948A" transform="translate(116 241)"/><path d="M336.582996,101.888889 L336.582996,140.94771 C336.582996,140.94771 264.896765,147 197.788771,147 C120.474363,147 47.417004,140.94771 47.417004,140.94771 L47.417004,101.888889 C47.417004,101.888889 95.1703529,102.577873 126.247075,105.003221 C135.499907,105.72609 225.448308,107.593646 272.646956,106.487187 C307.333142,105.673525 336.582996,101.888889 336.582996,101.888889" fill="#38B2A6" transform="translate(116 241)"/><path d="M333.339418,90.2222222 L283.724696,90.2222222 C286.938607,74.6253327 336.969922,54.4444444 336.969922,54.4444444 C341.457992,58.4002444 343.23842,65.6668818 341.16198,70.4092538 C339.969224,73.137772 336.874154,82.6710426 333.339418,90.2222222" fill="#2CA89C" transform="translate(116 241)"/><path d="M324.84328,101.111111 C324.808474,101.111111 324.778019,101.110146 324.743213,101.108698 C318.543416,100.785781 284.498048,98.4510346 283.248952,94.0817708 C282.892191,92.8335476 282.860431,91.5433308 283.108858,90.2222222 L332.696356,90.2222222 C330.120721,96.2417857 327.314498,101.111111 324.84328,101.111111" fill="#1F9589" transform="translate(116 241)"/><path d="M337.311194,57.3869299 C334.794693,65.2494177 325.14591,95.5183273 325.14591,97.2824258 C325.14591,99.8627162 320.837555,99.5790906 321.579769,99.5127942 C324.733081,99.232681 284.584568,96.5263836 283.483983,95.1605024 C282.383837,93.7954994 280.761946,90.2607166 284.495414,77.5932776 C287.264444,68.1949968 291.126592,60.2692859 294.258385,54.218753 C295.185493,52.4291896 295.935174,51.1748269 297.622942,51.3495684 C305.220316,52.1385393 326.871887,54.3851525 335.08016,55.2395417 C335.78724,55.3128628 337.688889,56.2080836 337.311194,57.3869299" fill="#E7E7E7" transform="translate(116 241)"/><path d="M336.438608,56.3716588 C334.546005,54.576774 330.443938,59.3085103 327.870513,70.0138078 C325.297087,80.7191053 316.857449,98.179332 321.764514,98.7400735 C329.202186,99.5897206 331.92976,85.9044704 334.927095,75.3895007 C337.924429,64.874531 339.594373,59.3609998 336.438608,56.3716588" fill="#CBCACA" transform="translate(116 241)"/><path d="M104.161943,90.2222222 L54.5280435,90.2222222 C51.0141821,82.5402102 47.9167554,72.9181149 46.7359001,70.2788316 C44.6307628,65.5752017 46.4391407,58.3679281 50.9907769,54.4444444 L104.161943,90.2222222" fill="#2CA89C" transform="translate(116 241)"/><path d="M62.9735707,101.111111 C60.5499008,101.109717 57.7578121,96.2235878 55.1902834,90.2222222 L104.485606,90.2222222 L106.493927,91.666918 C106.493927,91.666918 69.1801129,99.5246874 63.4270768,101.052097 C63.2770776,101.091594 63.1262013,101.111111 62.9735707,101.111111" fill="#1F9589" transform="translate(116 241)"/><path d="M.773330846 72.6567012C3.11391964 63.629869 18.6727026 54.4301056 32.2473511 60.0546687 41.1365632 63.7374132 46.3700959 71.58384 52.9817482 83.9449735 62.4893255 101.721174 59.3617265 125.100859 59.3617265 138.354609 59.3617265 140.406123 58.5346844 141.555556 52.8101221 141.555556 46.836425 141.555556 44.9451305 140.874586 44.9451305 137.048592 44.9451305 128.591314 39.1507252 117.763761 31.717993 111.060315 14.5332333 95.5619009-4.04327383 91.233891.773330846 72.6567012M352.295057 111.342084C345.01618 117.945032 339.269699 130.345668 339.048353 138.844562 339.03984 139.01928 339.031326 139.190106 339.031326 139.360499 339.031326 140.199922 338.941937 140.891441 338.737617 141.458842 338.588634 141.878337 338.371545 142.233395 338.082093 142.524015 336.99239 143.630704 334.85555 143.888889 331.173545 143.888889 330.386064 143.888889 329.69223 143.865968 329.079272 143.824018 325.729286 143.589187 324.831132 142.722518 324.656609 141.320019 324.643839 141.210172 324.635326 141.099027 324.631069 140.983557 324.622556 140.88236 324.622556 140.776404 324.622556 140.670449 324.622556 140.084453 324.618299 139.476401 324.605529 138.844562 324.51614 133.536429 324.098988 126.687839 324.150067 119.300824 324.184121 114.519007 324.409723 109.506683 325.048221 104.535011 325.167407 103.608229 325.30362 102.681446 325.452603 101.759421 326.022995 98.2088444 326.831759 94.7084347 327.955515 91.3554971 328.794076 88.8333333 329.815673 86.3942047 331.045845 84.0791944 336.553954 73.72241 341.108573 66.51487 347.621252 62.2580708 348.919531 61.4095652 350.29443 60.6765291 351.771489 60.0632871 365.337442 54.4096107 380.886995 63.6597051 383.228155 72.730757 388.038173 91.4108532 369.474909 95.760201 352.295057 111.342084" fill="#52CCC0" transform="translate(116 241)"/><path d="M52.1300162,54.2757931 C54.6461391,62.1386868 64.2955956,92.4070297 64.2955956,94.1715598 C64.2955956,96.7514002 68.6031769,96.4677758 67.8605056,96.4019188 C64.7062388,96.1213677 104.857043,93.4150817 105.957215,92.0496454 C107.057388,90.684209 108.679318,87.1494412 104.946198,74.4820556 C102.176662,65.0842535 98.3144204,57.158137 95.1825523,51.1080686 C94.2558602,49.3180738 93.5057226,48.0637164 91.8179132,48.2384571 C84.219916,49.0274246 62.570455,51.2735894 54.3589085,52.128853 C53.6535684,52.2021739 51.7527515,53.0973908 52.1300162,54.2757931" fill="#FEDD48" transform="translate(116 241)"/><path d="M53.0027686,54.0383221 C54.8978932,52.2434536 58.9994291,56.9751469 61.5715062,67.6803468 C64.1431551,78.3855467 72.5834387,95.8456143 67.6773526,96.4067774 C60.2424356,97.2559901 57.5115037,83.5708646 54.5146721,73.0559907 C51.5178405,62.5406901 49.8462259,57.0272091 53.0027686,54.0383221" fill="#E5C63A" transform="translate(116 241)"/></g><g><path fill="#AD5B2E" d="M50 74L47.5650788 0.85033011 0 0 1.55657871 74 50 74" transform="translate(524 143)"/><path fill="#FFF9CC" d="M42.8065078 4L5 4 5 69 45 69z" transform="translate(524 143)"/><path fill="#E16B5E" d="M32 19L15 19 15 57 32 57z" transform="translate(524 143)"/></g><g><path d="M7.55793122,63.0332222 C5.20788471,61.1708704 3.22265215,58.7789259 1.90111726,56.0417222 C0.570791682,53.3118333 -0.0738594807,50.2600926 0.00672191469,47.2712593 C0.0770474961,44.2765741 0.852094008,41.3667407 2.08572191,38.7597407 C3.31202424,36.1366481 5.00569866,33.8193148 6.91034982,31.7755556 L8.26558238,30.3725741 L8.56739633,30.058037 L8.84576843,29.7244815 C9.02597773,29.5006481 9.23109401,29.2899815 9.39372191,29.0529815 C10.1086987,28.1430185 10.6874196,27.1438148 11.170908,26.1007222 C12.129094,24.014537 12.5964661,21.6928148 12.4909777,19.3769444 C12.3869545,17.0683889 11.7159312,14.7510556 10.4837684,12.8565185 C9.27797773,10.9532037 7.3850475,9.56924074 5.39688471,9.559 L5.36318703,9.559 C4.56909401,9.55461111 3.92737308,8.90944444 3.93176843,8.11505556 C3.93616378,7.34261111 4.55297773,6.715 5.31923354,6.68574074 C6.93818703,6.62722222 8.56300098,7.09244444 9.87428005,7.91755556 C10.5496987,8.31109259 11.1313498,8.8085 11.6910242,9.31761111 C12.2213963,9.84866667 12.7239312,10.4075185 13.1488149,11.0117222 C14.876187,13.4168333 15.8182568,16.2447407 16.0893033,19.119463 C16.3603498,22.000037 15.9164196,24.9537593 14.8278382,27.6529259 C14.2813498,28.9988519 13.6000708,30.3008889 12.7620242,31.4844259 C12.5671638,31.7916481 12.3312801,32.0666852 12.1173731,32.3578148 L11.7862568,32.7893889 L11.4316987,33.1975556 L10.1394661,34.6678333 C8.57911726,36.5097037 7.26197773,38.5212778 6.38144284,40.6703704 C5.49065215,42.8106852 5.02034982,45.0738889 5.07455912,47.2917407 C5.12290796,49.5095926 5.69869866,51.667463 6.74186145,53.5766296 C7.78062889,55.4901852 9.28383819,57.1433333 11.0800708,58.4336667 C12.3796289,59.3685 12.6755824,61.1781852 11.737908,62.4772963 C10.8031638,63.7749444 8.99081494,64.069 7.68979168,63.1341667 L7.58869866,63.0595556 L7.55793122,63.0332222" fill="#A96F4A" transform="translate(275 265)"/><path d="M54.6365126,46.1491667 C54.6365126,46.1491667 53.0131638,62.5870185 56.9748382,68.768037 C56.9748382,68.768037 60.4398382,68.0263148 60.9350475,70.7445 C61.4302568,73.4656111 55.4013033,74.9666111 53.2607684,72.7238889 C48.3101405,67.5318333 49.0529545,58.8798704 48.3101405,53.3176852 L54.6365126,46.1491667" fill="#E3D2BF" transform="translate(275 265)"/><path d="M43.730187,62.4641296 C43.730187,62.4641296 45.4634196,74.577463 50.6616521,76.156 C55.8598847,78.2860741 61.1504196,72.3522963 54.1281173,70.8688519 C54.1281173,70.8688519 50.4125824,65.4310185 51.6520708,58.7569815 C52.890094,52.0829444 64.5143266,28.1049815 60.1878382,12.7775185 C54.7815591,-6.38144444 49.9188382,5.2257037 49.9188382,5.2257037 L41.9969545,5.54462963 C41.9969545,5.54462963 38.4030242,-0.888018519 35.1841638,2.21346296 C31.9667684,5.31640741 29.265094,18.9570741 31.7938847,23.9018889 C31.7938847,23.9018889 10.5570242,30.0814444 5.85253587,50.1050185 C1.93188471,66.795963 11.0522335,72.599537 18.478908,75.3177222 C25.9055824,78.0388333 43.9953731,79.4813148 42.9873731,73.8357407 C42.2445591,69.6721481 37.6250475,70.9302963 37.6250475,70.9302963 L43.730187,62.4641296" fill="#E3D2BF" transform="translate(275 265)"/><g transform="translate(278.924 265)"><mask id="b" fill="#fff"><use xlink:href="#a"/></mask><path d="M60.2309302 17.6828333C60.4521628 17.4107222 60.6103953 17.0976481 60.6719302 16.7538519 60.9693488 15.0699815 60.6016047 13.4241481 59.8719767 11.8719444 59.5071628 10.4616481 58.8434651 9.10109259 58.1387442 8.05361111 56.7322326 5.96888889 55.0048605 3.75688889 52.8145116 2.45485185 52.1288372 2.04522222 51.4519535 1.85357407 50.8102326 1.83016667 48.51.187259259 45.8464186-.877777778 43.6941628.901185185 42.9718605 1.49807407 42.7506279 2.21638889 42.8590465 2.88935185 42.3389302 2.6465 41.8056279 2.62309259 41.3060233 2.75183333L41.0276512 2.75183333C39.6694884 2.2632037 38.1252558 2.80596296 36.7480465 3.59011111 35.4616744 1.56390741 32.9548605.596888889 30.064186 1.52294444 27.9119302 2.21053704 26.925907 4.90385185 28.5419302 5.60607407 26.9185814 6.88616667 26.8292093 8.67244444 26.0863953 10.0754259 25.3831395 11.4023333 24.9919535 12.9852593 25.3714186 14.4321296 24.6491163 15.8277963 24.3604884 17.3185556 25.1897442 18.6410741 25.6527209 19.3784074 26.1977442 19.8611852 26.7925814 20.1493889 27.783 21.9107963 29.9850698 22.5427963 32.1842093 22.1507222 34.8829535 21.6679444 37.4615581 19.9343333 39.413093 18.0617407 39.7676512 17.7223333 40.1383256 17.3463519 40.5148605 16.944037 41.114093 19.3067222 43.004093 21.5801667 44.7959302 22.9246296 47.981093 25.3165741 51.8783023 26.4781667 55.7711163 27.1130926 56.3014884 27.2242778 56.8362558 27.3062037 57.3827442 27.3471667 60.3349535 27.569537 60.6235814 23.6253889 58.4024651 22.4798889 59.2434419 22.1477963 60.0096977 21.6065 60.6543488 20.8047963 61.5246279 19.7207407 61.2828837 18.2914259 60.2309302 17.6828333M37.4542326 40.9161481C37.6827907 38.4671481 36.652814 35.8937963 35.6433488 33.7256852 34.5840698 31.442 32.9138372 29.4055556 31.3534884 27.4495741 30.6399767 26.5527778 29.875186 25.7057222 29.1103953 24.8528148 28.3089767 23.9589444 27.1442093 23.621 26.145 22.9641296 25.5164651 22.5515741 24.7575349 23.0372778 24.6373953 23.6839074 24.192 23.5112778 23.6718837 23.4571481 23.0887674 23.5785741 20.7856047 24.056963 18.7725349 24.5177963 16.6217442 25.5345556 14.3478837 26.6083704 12.2527674 28.0157407 10.2704651 29.5547778 6.44065116 32.5245926 3.213 36.1761481.666627907 40.2958519-3.81223256 47.5375185-5.10593023 55.8164259-2.20646512 63.870037.285697674 70.7957037 5.55718605 77.3190556 13.317907 78.0461481 17.3293953 78.4221296 20.4295814 76.315463 23.7671163 74.5204074 26.7178605 72.9330926 29.9777442 71.9763148 32.773186 70.0890926 35.8924186 67.9853519 37.7926744 64.6380926 36.4506279 60.8782778 35.658 58.6575 34.3584419 56.6400741 33.6713023 54.3827222 32.9914884 52.1487778 34.0493023 49.9675 35.052907 48.0159074 36.2337907 45.7146667 37.2110233 43.5172963 37.4542326 40.9161481" fill="#A96F4A" mask="url(#b)"/><path d="M41.4100465.889481481C40.369814 3.5037963 39.3735349 7.426 40.4796977 10.150037 40.6291395 10.5201667 41.2488837 10.7571667 41.4613256 10.2773148 42.0913256 8.85238889 42.2568837 7.28409259 42.5293953 5.75675926 42.8092326 4.20894444 43.1813721 2.71818519 43.3483953 1.15135185 43.4773256-.0438888889 41.7865814-.0555925926 41.4100465.889481481M29.9923953 13.665537C28.7646279 12.9852593 27.5471163 12.2537778 26.284186 11.6451852 25.1648372 11.1068148 23.9253488 12.2098889 24.5597442 13.3670926 25.515 15.1109444 28.6503488 16.3017963 30.0934884 14.4467593 30.2824884 14.2024444 30.3000698 13.8352407 29.9923953 13.665537M28.035 18.4830741C26.7471628 18.3865185 25.8417209 17.7120926 24.9685116 16.8167593 24.205186 16.037 22.8528837 17.0522963 23.4477209 17.9885926 24.5245814 19.6768519 26.4819767 20.1815741 28.2283953 19.1911481 28.577093 18.9921852 28.3968837 18.5079444 28.035 18.4830741M58.149 13.0964444C57.4120465 13.5265556 56.686814 13.9610556 55.8839302 14.2624259 55.1015581 14.5550185 54.3147907 14.7583704 53.5514651 15.1021667 52.7778837 15.4518148 53.2174186 16.5812222 53.9587674 16.6031667 55.8707442 16.6587593 58.0757442 16.1657407 59.5525814 14.9119815 60.5752326 14.0444444 59.2610233 12.4483519 58.149 13.0964444M61.7282791 20.5517037C60.6133256 19.9811481 59.4895814 20.2591111 58.2779302 20.2035185 56.9783721 20.145 55.7256977 19.9226296 54.4510465 19.6739259 53.9382558 19.5744444 53.424 20.225463 53.8957674 20.6292407 55.8062791 22.2604444 59.6844419 24.3597963 61.9714884 22.436 62.5472791 21.9502963 62.3817209 20.8852593 61.7282791 20.5517037M23.6015581 40.0500741C20.5423953 39.6492222 19.2428372 36.0517963 18.3769535 33.5589074 17.3455116 30.5920185 16.7873023 27.4290926 16.1192093 24.3641852 15.8466977 23.1133519 14.0636512 23.4864074 13.9889302 24.6538519 13.7427907 28.5146111 14.4826744 32.5831111 15.9668372 36.1571296 17.2693256 39.2922593 19.9636744 43.0667037 23.8550233 41.9182778 24.961186 41.592037 24.6154186 40.1832037 23.6015581 40.0500741M15.0848372 39.9666852C14.0812326 38.7992407 13.027814 37.8585556 12.4769302 36.3707222 11.9963721 35.0701481 11.8923488 33.5223333 11.9040698 32.1456852 11.9143256 31.0426111 10.4492093 30.9738519 10.0902558 31.9013704 8.84051163 35.1315926 10.7451628 40.6264815 14.7332093 40.8166667 15.2005814 40.8400741 15.3485581 40.2739074 15.0848372 39.9666852" fill="#72432A" mask="url(#b)"/><path d="M23.674814 32.7542778C21.3379535 30.3418519 21.7994651 26.0509815 21.2090233 23.0109444 21.0126977 22.0044259 19.3615116 21.9956481 19.1725116 23.0109444 18.6025814 26.0802407 18.8692326 33.576463 23.260186 33.7520185 23.7861628 33.773963 24.0176512 33.1068519 23.674814 32.7542778M16.240814 50.6960556C12.8710465 49.7904815 10.8286744 47.2668704 9.22876744 44.3058333 7.54388372 41.1882593 7.1277907 37.839537 6.14176744 34.5127593 5.76962791 33.2516852 3.88988372 33.2004815 3.54118605 34.5127593 2.50681395 38.4086296 4.914 43.3490556 6.86406977 46.6260926 8.64565116 49.6222407 12.5443256 53.8355741 16.3712093 51.6864815 16.7814419 51.4553333 16.6906047 50.8160185 16.240814 50.6960556M7.60248837 52.8875741C6.35860465 51.5782222 5.06637209 50.5248889 4.10672093 48.9580556 3.16611628 47.4248704 2.66651163 45.6985741 1.81088372 44.1273519 1.19260465 42.9891667-.407302326 43.5904444-.483488372 44.7476481-.726697674 48.5162407 2.87602326 54.2232593 6.88897674 54.6124074 7.81493023 54.7031111 8.15923256 53.4756852 7.60248837 52.8875741" fill="#72432A" mask="url(#b)"/></g><path d="M57.1858149,72.4693333 C56.9675126,72.1899074 56.7169777,71.9397407 56.4605824,71.7071296 C56.2012568,71.4759815 55.9258149,71.2697037 55.6357219,71.1 C55.3441638,70.9317593 55.0394196,70.7986296 54.7273498,70.7196296 C54.4167452,70.6362407 54.0988149,70.6216111 53.7896754,70.6479444 L53.569908,70.6684259 L53.4512335,70.4372778 C52.8739777,69.3181111 52.298187,68.1565185 51.9187219,66.9027593 C51.7238614,66.281 51.5846754,65.6387593 51.4747917,64.9965185 C51.4235126,64.6732037 51.4000708,64.3455 51.3634428,64.0221852 C51.3385359,63.6974074 51.3297452,63.3711667 51.3136289,63.0463889 C51.2960475,61.7443519 51.4528149,60.4569444 51.7077452,59.2017222 C51.9656056,57.9435741 52.361187,56.7249259 52.8329545,55.5428519 C52.6937684,56.8127037 52.487187,58.0547593 52.4007452,59.3041296 C52.2908614,60.5476481 52.235187,61.7882407 52.298187,63.0142037 C52.3201638,63.319963 52.3333498,63.6271852 52.3626521,63.9314815 C52.4051405,64.2343148 52.4300475,64.5386111 52.4857219,64.8385185 C52.5794894,65.4412593 52.6923033,66.0410741 52.865187,66.6291852 C53.1757917,67.8127222 53.646094,68.9640741 54.1002801,70.1490741 L53.7633033,69.9398704 C54.5603266,69.9486481 55.3163266,70.271963 55.8803963,70.7518148 C56.4532568,71.2243519 56.8883963,71.8241667 57.1858149,72.4693333" fill="#AF9B8A" transform="translate(275 265)"/><path d="M44.0202801,16.1247778 C40.7047219,16.5534259 35.1841638,25.7393704 40.9655126,25.1278519 C41.9295591,25.0254444 42.5859312,24.528037 42.9712568,23.9033519 C43.0635591,24.096463 43.1675824,24.2837222 43.2979777,24.4578148 L43.3126289,24.4768333 C43.7975824,25.1307778 44.5799545,25.5667407 45.3813731,25.6793889 C46.5036521,25.8359259 48.2193033,25.597463 48.3379777,24.4739074 C48.7775126,20.3103148 45.4018847,15.9462963 44.0202801,16.1247778" fill="#FFFFFE" transform="translate(275 265)"/><path d="M43.5133498,20.3732222 C45.0282801,20.5443889 45.9293266,20.7272593 44.675187,21.644537 C43.4225126,22.5618148 43.0122801,22.6364259 41.6292103,21.4455741 C40.2490708,20.2561852 42.3998614,20.2459444 43.5133498,20.3732222" fill="#A96F4A" transform="translate(275 265)"/><path d="M52.0227452 6.41216667C52.0227452 6.41216667 53.1816521 2.7255 54.6687452 4.02314815 56.152908 5.3207963 57.1858149 8.12383333 57.1858149 8.12383333L52.0227452 6.41216667M39.849094 6.41216667C39.849094 6.41216667 36.5452568 1.08259259 34.1996056 7.89561111L39.849094 6.41216667" fill="#D09A8B" transform="translate(275 265)"/><path d="M52.5252801,16.7626296 C52.5252801,18.0368704 51.3517219,19.0697222 49.904187,19.0697222 C48.4566521,19.0697222 47.283094,18.0368704 47.283094,16.7626296 C47.283094,15.4898519 47.6112801,14.2785185 49.0602801,14.2785185 C50.5078149,14.2785185 52.5252801,15.4898519 52.5252801,16.7626296" fill="#FFFFFE" transform="translate(275 265)"/><path d="M48.4346754,16.749463 C48.3438382,16.0823519 48.7906987,15.4722963 49.4309545,15.3874444 C50.0697452,15.3011296 50.660187,15.7707407 50.7510242,16.4378519 C50.8403963,17.104963 50.7788614,17.7589074 50.1415359,17.8437593 C49.5012801,17.931537 48.5240475,17.4165741 48.4346754,16.749463" fill="#3A383B" transform="translate(275 265)"/><path d="M38.2696987,18.7537222 C37.0302103,18.4552778 36.3005824,17.0742407 36.6404894,15.6683333 C36.9803963,14.2624259 38.2623731,13.3670926 39.5018614,13.665537 C40.7428149,13.9639815 41.8431173,14.5681852 41.5032103,15.9740926 C41.1633033,17.38 39.5106521,19.0536296 38.2696987,18.7537222" fill="#FFFFFE" transform="translate(275 265)"/><path d="M39.244001,14.7861667 C39.9135591,14.8563889 40.4043731,15.4327963 40.3384428,16.0735741 C40.2725126,16.7143519 39.6732801,17.1766481 39.0022568,17.1078889 C38.3326987,17.0376667 37.7114894,16.827 37.7774196,16.1862222 C37.8433498,15.5454444 38.5729777,14.7188704 39.244001,14.7861667" fill="#3A383B" transform="translate(275 265)"/></g></g></svg>