<svg width="123" height="72" viewBox="0 0 123 72" xmlns="http://www.w3.org/2000/svg"><title>logo-authentication</title><g fill="none" fill-rule="evenodd"><g fill="#F9C838"><path d="M76.88 11.88c-4.1-2.4-8.3-3.92-12.73-3.65-.65.06-1.27.18-1.87.4-1.78.58-3 1.75-3.04 3.33-.04 1.56 1.28 2.96 3.25 3.68.4.18.8.33 1.2.47 2.87 1 5.7 2.13 8.45 3.49 7.14 3.63 14.48 9.79 12.16 19.3-.07.27.33.41.46.15 6.12-12.7 1.32-21.32-7.88-27.17M45.24 41.89c4.1 2.4 8.32 3.92 12.74 3.65a7.34 7.34 0 0 0 1.86-.4c1.79-.58 3-1.75 3.05-3.33.03-1.56-1.28-2.96-3.26-3.68-.4-.18-.8-.33-1.18-.47-2.88-1-5.72-2.13-8.47-3.49-7.14-3.63-14.47-9.78-12.15-19.3.07-.27-.33-.41-.46-.15-6.12 12.7-1.32 21.32 7.87 27.17"/><path d="M84.72 14.35A26.94 26.94 0 0 0 73.58 3.27 25.06 25.06 0 0 0 60.92 0C49.7 0 40.58 6.74 40.56 15.06v.02a11.83 11.83 0 0 0 2.01 6.5c1.37 1.86 3.6 3.48 6 4.85 3.48 1.98 7.28 3.4 9.51 4.34 6.54 2.77 12.66 4.79 12.84 11.17.1 3.39-3.1 5.77-5.52 6.76-2.74 1-4.99 1.16-8.16.92a28.46 28.46 0 0 1-16.22-6.98A27.09 27.09 0 0 1 37 38.2c-.22-.3-.7-.02-.52.3a26.94 26.94 0 0 0 11.15 11.1 25.06 25.06 0 0 0 12.65 3.26c11.24 0 20.34-6.74 20.36-15.06v-.02a11.82 11.82 0 0 0-2-6.5c-1.38-1.86-3.6-3.48-6-4.85-3.49-1.97-7.29-3.4-9.52-4.34-6.54-2.77-12.66-4.79-12.84-11.17-.1-3.39 3.1-5.77 5.53-6.76 2.73-1 4.98-1.15 8.16-.92a28.47 28.47 0 0 1 16.22 6.98 27.09 27.09 0 0 1 4 4.44c.22.3.7.02.52-.3"/></g><path fill="#4A4E4D" d="M109.37 59.24h3.02l3.36 5.4 3.35-5.4h3.03V72h-2.8v-8.33l-3.58 5.45h-.08l-3.55-5.4V72h-2.75V59.24M0 70.02l1.65-1.94a5.88 5.88 0 0 0 3.78 1.51c1.14 0 1.83-.44 1.83-1.17v-.04c0-.69-.44-1.04-2.55-1.57C2.15 66.17.5 65.48.5 63v-.03c0-2.25 1.84-3.74 4.43-3.74 1.85 0 3.42.57 4.7 1.58L8.2 62.87a6.02 6.02 0 0 0-3.3-1.22c-1.06 0-1.62.48-1.62 1.08v.04c0 .81.54 1.08 2.73 1.63 2.57.65 4.02 1.56 4.02 3.72v.03c0 2.47-1.92 3.85-4.66 3.85A8.16 8.16 0 0 1 0 70.02M13.7 61.83h-3.67v-2.59h10.02v2.59h-3.68V72H13.7V61.83M21.87 66.42v-7.18h2.76v7.1c0 2.05 1.03 3.11 2.71 3.11 1.69 0 2.7-1.02 2.7-3.01v-7.2h2.77v7.09c0 3.8-2.13 5.67-5.5 5.67s-5.44-1.88-5.44-5.58M39.65 69.47c2.31 0 3.87-1.55 3.87-3.81v-.04a3.68 3.68 0 0 0-3.87-3.85h-2.19v7.7h2.19zm-5.02-10.23h5.02c4.04 0 6.83 2.75 6.83 6.34v.04c0 3.6-2.8 6.38-6.83 6.38h-5.02V59.24zM47.4 59.24h9.02v2.5h-6.41v2.59h5.64v2.5h-5.64v2.67h6.5V72h-9.12V59.24M58.33 59.24h2.5l5.76 7.86v-7.86h2.68V72h-2.3L61 63.89V72h-2.67V59.24M74.77 61.83h-3.68v-2.59H81.1v2.59h-3.68V72h-2.66V61.83M93.45 67.31a4.37 4.37 0 0 1-3.1 1.28c-2.14 0-3.62-1.77-3.62-3.88v-.04c0-2.11 1.51-3.84 3.62-3.84 1.21 0 2.17.5 3.1 1.31.3-.87.76-1.67 1.33-2.37a6.54 6.54 0 0 0-4.4-1.44 6.31 6.31 0 0 0-6.53 6.38v.03a6.27 6.27 0 0 0 6.41 6.35c1.98 0 3.3-.57 4.42-1.53a7.58 7.58 0 0 1-1.23-2.25M105.5 64.74v-.03a3.82 3.82 0 0 0-3.9-3.88 3.76 3.76 0 0 0-3.86 3.84v.04a3.82 3.82 0 0 0 3.9 3.88 3.76 3.76 0 0 0 3.86-3.85zm-10.72 0v-.03c0-3.5 2.89-6.38 6.86-6.38s6.82 2.84 6.82 6.34v.04c0 3.5-2.89 6.38-6.86 6.38s-6.82-2.84-6.82-6.35zM82.94 69.72a1.37 1.37 0 1 1-2.74 0 1.37 1.37 0 0 1 2.74 0"/></g></svg>