<svg viewBox="0 0 40 39" xmlns="http://www.w3.org/2000/svg"><g fill-rule="nonzero" fill="none"><path d="M29.1318696,5.88954167 L36.8985722,14.6988089 C37.8577481,15.7870232 37.7531783,17.4467521 36.6650054,18.4059749 L35.3036099,19.6061365 C34.8257981,20.0295201 34.2092533,20.2628812 33.5708513,20.2619876 C33.5148168,20.2619876 33.4586476,20.2602313 33.4023437,20.2567292 C32.8873389,20.2259121 32.3973056,20.0435224 31.9910307,19.7383351 L29.4880865,21.9423418 C29.6550074,22.0591921 29.8109056,22.1974321 29.951778,22.35681 L39.3231412,32.9869285 C40.2808219,34.0755809 40.1765145,35.7340134 39.0899784,36.6940945 L37.5835129,38.0223542 C37.1586589,38.39899 36.6240472,38.6253481 36.061887,38.6703102 L35.8499461,38.6786104 L35.8499461,38.6786104 C35.7939116,38.6786104 35.7377425,38.6768531 35.6814386,38.6733509 C34.9856089,38.631513 34.335452,38.3129827 33.8759429,37.7887874 L24.8714978,27.5760988 L24.863,27.567 L24.5049838,27.1590729 C24.3641749,26.9993536 24.246284,26.8273182 24.151058,26.6469895 L21.6820235,28.8244529 C22.2862512,29.8835984 22.0863108,31.2562692 21.1356412,32.094283 L19.7742457,33.2944447 C19.2955385,33.7177186 18.6784668,33.9511508 18.0394666,33.9507035 C17.2848054,33.9520781 16.5661695,33.6281029 16.0674838,33.0616861 L8.30078125,24.2524188 C7.83999295,23.7298693 7.60568505,23.0456601 7.64941262,22.3503387 C7.69314018,21.6550174 8.01132051,21.0055533 8.53394397,20.5448488 L9.89533944,19.3446871 C10.8458359,18.5067268 12.2325084,18.480407 13.2074981,19.2124013 L23.5161842,10.1244708 C22.9131996,9.06566099 23.1133236,7.69414538 24.0633082,6.85654059 L25.4247037,5.65637896 C26.5128098,4.6971016 28.1725305,4.80148996 29.1318696,5.88954167 Z M25.6356412,36.6524727 C26.1935797,36.6524727 26.6458782,37.1047712 26.6458782,37.6627098 C26.6458782,38.2206483 26.1935797,38.6729468 25.6356412,38.6729468 L5.01023707,38.6729468 C4.45229854,38.6729468 4,38.2206483 4,37.6627098 C4,37.1047712 4.45229854,36.6524727 5.01023707,36.6524727 L25.6356412,36.6524727 Z" fill="#E2F4F2" transform="translate(.009 .013)"/><path d="M25.8455142,0.914801098 L33.8327601,9.97421631 C34.8191728,11.0933315 34.7116337,12.8001901 33.592561,13.786651 L32.1925073,15.0208924 C31.7011275,15.4562984 31.0670753,15.696286 30.4105453,15.6953644 C30.3529196,15.6953644 30.2951555,15.6935609 30.2372528,15.6899593 C29.7074392,15.6582561 29.2033243,15.4705675 28.7854272,15.1565167 L26.2119309,17.4234959 C26.3835597,17.5436517 26.5438559,17.6857973 26.6887048,17.849674 L36.3261772,28.7816454 C37.3110522,29.9012111 37.2037829,31.6067366 36.0863936,32.5940801 L34.5371504,33.960057 C34.1002323,34.3473878 33.5504398,34.5801736 32.9723164,34.6264124 L32.7543573,34.6349451 L32.7543573,34.6349451 C32.6967316,34.6349451 32.6389675,34.6331411 32.5810648,34.6295395 C31.8654764,34.5865135 31.1968575,34.2589382 30.7243002,33.7198578 L21.4641649,23.2171697 L21.45,23.199 L21.0872434,22.788302 C20.9423357,22.6239335 20.8210295,22.4468816 20.723064,22.261292 L18.1845929,24.5017973 C18.8054037,25.590906 18.5996428,27.00206 17.6222249,27.8636524 L16.2221712,29.0978938 C15.7298706,29.533187 15.0952766,29.7732478 14.4381313,29.7727832 C13.6620408,29.7742014 12.9229985,29.4410266 12.4101521,28.8585258 L4.42290624,19.7991106 C3.9490334,19.2617227 3.70807209,18.5580847 3.75304135,17.843019 C3.7980106,17.1279533 4.12522598,16.460047 4.66268985,15.9862603 L6.06274351,14.7520189 C7.04060331,13.889935 8.46736719,13.8631761 9.47010193,14.6168388 L20.0710302,5.2711512 C19.4501121,4.18211653 19.6557169,2.77095581 20.6330259,1.90925892 L22.0330796,0.675017493 C23.1520836,-0.311499506 24.8589337,-0.20414693 25.8455142,0.914801098 Z M22.2500069,32.5512764 C22.8237886,32.5512764 23.2889306,33.0164184 23.2889306,33.5902002 C23.2889306,34.1639819 22.8237886,34.6291239 22.2500069,34.6291239 L1.03892376,34.6291239 C0.465142013,34.6291239 -7.46069873e-14,34.1639819 -7.46069873e-14,33.5902002 C-7.46069873e-14,33.0164184 0.465142013,32.5512764 1.03892376,32.5512764 L22.2500069,32.5512764 Z M23.8269631,19.5413562 L23.115,20.169 L23.0357773,20.2482589 C22.6344838,20.6886797 22.6169124,21.3678212 23.0120789,21.8295044 L32.2831014,32.3459851 C32.4323097,32.5151745 32.6528805,32.5841171 32.8598731,32.5474766 C32.8749011,32.5448612 32.8894692,32.5417092 32.9038961,32.5380432 L32.8598731,32.5474766 C32.8831565,32.5433551 32.9062681,32.5378977 32.929087,32.5310968 L32.9038961,32.5380432 C32.9490536,32.526568 32.9928274,32.5100555 33.0343727,32.4887954 C33.0794616,32.4658292 33.122795,32.4365812 33.1628621,32.4012558 L34.7121052,31.0352788 C34.9691972,30.8077429 34.993908,30.4151575 34.767376,30.1571805 L32.512,27.599 L25.5068251,19.6515834 C25.0722116,19.1588751 24.3215752,19.1101386 23.8269631,19.5413562 Z M7.84844568,16.1545654 C7.69684812,16.1543615 7.55045002,16.2098154 7.43703187,16.3104046 L6.0369782,17.544646 C5.77879954,17.7723339 5.75405522,18.1661965 5.98170746,18.4244066 L13.9689534,27.4838218 C14.1966413,27.7420005 14.5905039,27.7667448 14.848714,27.5390926 L16.2487677,26.3048512 C16.5069463,26.0771632 16.5316906,25.6833006 16.3040384,25.4250905 L8.31679251,16.3656753 C8.20734202,16.2409028 8.05238172,16.1652941 7.88667807,16.1558127 C7.87448803,16.1549816 7.8617439,16.1545654 7.84844568,16.1545654 Z M21.3640127,6.90107982 L10.8924923,16.1321252 L16.8588237,22.9000902 L27.3311752,13.6686292 L21.3640127,6.90107982 Z M23.8187818,2.07590173 C23.6671842,2.07569785 23.5207861,2.13115167 23.407368,2.23174086 L22.0073143,3.46598229 C21.7491356,3.69367022 21.7243913,4.0875328 21.9520435,4.34574293 L29.9392894,13.4051581 C30.1669774,13.6633368 30.5608399,13.6880811 30.8190501,13.4604289 L32.2191037,12.2261875 C32.4772824,11.9984995 32.5020267,11.604637 32.2743745,11.3464268 L24.2871286,2.2870116 C24.1780757,2.16263695 24.0237922,2.08706648 23.8586764,2.077149 L23.8187818,2.07590173 Z" fill="#38B2A6" transform="translate(.009 .013)"/></g></svg>