<svg xmlns="http://www.w3.org/2000/svg" viewBox="0 0 112 64"><g fill="none" fill-rule="evenodd"><circle cx="56" cy="32" fill="#fff8da" r="32"/><g fill="#fcce01"><path d="m41.6954033 30.820887-.9519879.9503321c-.9896578.9904436-.9914457 2.5930648-.004 3.5857066l8.9198805 8.904371c.4959934.4951314 1.1439847.7387033 1.793976.7387033.675571-.0059519 1.3218463-.276199 1.7999759-.7526788l17.9957592-17.9624729c.9999867-.9982479.9999867-2.6054272.0079999-3.5936926l-.9579872-.9543251c-.9982066-.9855502-2.6061451-.9819765-3.5999518.007986l-15.247796 15.2232813-6.1639175-6.1551969c-.9953327-.9851469-2.6019292-.9824656-3.5919511.007986z"/><path d="m94.4591333 30.4125226 2.7123444 7.2137048c.2393804.636287-.1000584 1.3406162-.7580379 1.5723277-.1431216.0502654-.2894096.0741722-.4331645.0741722-.5180242 0-1.0037511-.3095616-1.1912024-.8073122l-2.7123445-7.2130917c-.2393803-.6369001.1000585-1.3406163.7580379-1.5729408.6573462-.2317114 1.3849866.096853 1.624367.73314zm20.7064037-.731914c.657979.2317115.997418.9360407.757405 1.5723277l-2.711712 7.2124788c-.187451.4977506-.673811.8073122-1.191202.8073122-.144388 0-.290043-.0239068-.433798-.0741722-.657346-.2317115-.996785-.9360407-.757404-1.5723277l2.712344-7.2124788c.23938-.6369.967021-.9636255 1.624367-.73314zm-11.165385-5.6806086c.699776 0 1.267196.549242 1.267196 1.2265995v10.7188003c0 .6779706-.56742 1.2272125-1.267196 1.2272125-.70041 0-1.26783-.5492419-1.26783-1.2272125v-10.7188003c0-.6773575.56742-1.2265995 1.26783-1.2265995z" transform="rotate(90 104 31.636)"/><path d="m-1.54086672 30.4125226 2.71234446 7.2137048c.23938039.636287-.10005847 1.3406162-.7580379 1.5723277-.14312161.0502654-.28940962.0741722-.43316451.0741722-.51802423 0-1.00375111-.3095616-1.19120242-.8073122l-2.71234446-7.2130917c-.23938039-.6369001.10005847-1.3406163.7580379-1.5729408.65734615-.2317114 1.38498654.096853 1.62436693.73314zm20.70640372-.731914c.6579794.2317115.9974183.9360407.7574046 1.5723277l-2.7117112 7.2124788c-.1874513.4977506-.6738115.8073122-1.1912024.8073122-.1443882 0-.2900429-.0239068-.4337978-.0741722-.6573462-.2317115-.996785-.9360407-.7574046-1.5723277l2.7123444-7.2124788c.2393804-.6369.9670208-.9636255 1.624367-.73314zm-11.16538534-5.6806086c.699776 0 1.26719618.549242 1.26719618 1.2265995v10.7188003c0 .6779706-.56742018 1.2272125-1.26719618 1.2272125-.70040929 0-1.26782947-.5492419-1.26782947-1.2272125v-10.7188003c0-.6773575.56742018-1.2265995 1.26782947-1.2265995z" transform="matrix(0 1 1 0 -23.636 23.636)"/></g></g></svg>