<svg xmlns="http://www.w3.org/2000/svg" viewBox="0 0 67 44"><path d="m619.726667 508.2268c5.652243 0 10.235142 4.582899 10.273333 10.273333 0 5.690434-4.5829 10.273334-10.273333 10.273334-5.690434 0-10.273334-4.621091-10.273334-10.273334 0-5.690434 4.621091-10.273333 10.273334-10.273333zm5.057222 6.872938c-.373413-.39734-.933531-.39734-1.306944 0l-4.854361 5.165422-3.061981-3.258189c-.373413-.39734-.933531-.39734-1.306944 0-.373412.39734-.373412.99335 0 1.39069l3.696783 3.933667c.186706.198671.410754.278139.672142.278139.261389 0 .485436-.079468.672143-.278139l5.526503-5.880633c.336071-.39734.336071-.993351-.037341-1.350957zm-7.734528-30.099726c2.086792-.004645 2.877263 1.362396 3.097193 3.237562-1.061627.305864-1.839617 1.275441-1.841691 2.421875-.003262 1.171985.803196 2.157421 1.899013 2.434194l-.003797 1.417178c-1.096229.283693-1.907524 1.268796-1.909009 2.442361-.005081 1.173765.801175 2.155639 1.897114 2.432513l-.004082 1.417147c-1.09253.283372-1.907089 1.27245-1.908836 2.442402-.003557 1.171843.802952 2.157218 1.896941 2.432472l.000598.199392c-.15386-.005521-.308423-.008305-.463643-.008305-6.948177 0-12.628782 5.579225-12.628782 12.506763 0 1.08548.140192 2.139721.403807 3.145567l-41.953777.105875c-2.552385.005857-2.535766-2.037799-2.529748-4.558188l.06407-27.370557c.004118-2.52207.106379-4.564197 3.184637-4.571387zm-31.452715 21.595198-2.811411 5.082853-.416727-1.210848.769345-1.528361-1.539769-1.528453-1.540309 1.528453.770518 1.528361-.496662 1.239435-2.733119-5.11144s-4.32927 1.910694-5.831678 3.059955c-1.502244 1.149308-2.165422 4.639049-2.165422 4.639049h24.035425s-.440303-3.28584-2.20809-4.639095c-1.502173-1.149861-5.832101-3.059909-5.832101-3.059909zm18.278076 4.11492h-5.772449c-.891263 0-1.613776.722512-1.613776 1.613776 0 .841749.644463 1.532976 1.46689 1.607181l.146886.006595h5.772449c.891263 0 1.613775-.722512 1.613775-1.613776s-.722512-1.613776-1.613775-1.613776zm-22.133581-18.558423c-5.870237 0-5.880734 4.417736-5.880734 6.902056s2.352533 7.110229 5.880734 7.104664c3.52853-.005427 5.880734-4.620852 5.880734-7.105311l-.000276-.263619c-.007384-2.519946-.212189-6.63779-5.880458-6.63779zm24.133581 10.489544h-7.772449c-.891263 0-1.613776.722512-1.613776 1.613776 0 .841749.644463 1.532976 1.46689 1.607181l.146886.006595h7.772449c.891263 0 1.613775-.722513 1.613775-1.613776 0-.891264-.722512-1.613776-1.613775-1.613776zm3-8.06888h-10.772449c-.891263 0-1.613776.722512-1.613776 1.613776 0 .841749.644463 1.532976 1.46689 1.607181l.146886.006595h10.772449c.891263 0 1.613775-.722512 1.613775-1.613776s-.722512-1.613776-1.613775-1.613776z" transform="translate(-563 -485)"/></svg>