<svg width="12" height="12" xmlns="http://www.w3.org/2000/svg"><path d="M1100.8,421.9 L1100.95,421.9 C1101.5275,421.9 1102,422.3725 1102,422.95 L1102,428.2 C1102,428.7775 1101.5275,429.25 1100.95,429.25 L1100.8,429.25 C1100.2225,429.25 1099.75,428.7775 1099.75,428.2 L1099.75,422.95 C1099.75,422.3725 1100.2225,421.9 1100.8,421.9 Z M1105,418.75 C1105.5775,418.75 1106.05,419.2225 1106.05,419.8 L1106.05,428.2 C1106.05,428.7775 1105.5775,429.25 1105,429.25 C1104.4225,429.25 1103.95,428.7775 1103.95,428.2 L1103.95,419.8 C1103.95,419.2225 1104.4225,418.75 1105,418.75 Z M1109.2,424.75 C1109.7775,424.75 1110.25,425.2225 1110.25,425.8 L1110.25,428.2 C1110.25,428.7775 1109.7775,429.25 1109.2,429.25 C1108.6225,429.25 1108.15,428.7775 1108.15,428.2 L1108.15,425.8 C1108.15,425.2225 1108.6225,424.75 1109.2,424.75 Z" transform="translate(-1099 -418)" fill="" fill-rule="nonzero"/></svg>