<svg xmlns="http://www.w3.org/2000/svg" viewBox="0 0 40 43"><g fill="none" fill-rule="evenodd"><circle fill="#F8F8F6" cx="22" cy="23" r="18"/><path d="M16.8676821,3 C26.1680092,3 33.7353641,10.5660607 33.7353641,19.8663878 C33.7353641,21.221589 33.5697029,22.559406 33.252924,23.8589323 L33.1270767,24.344419 L35.4295094,22.6865121 C36.0119123,22.2710647 36.819511,22.403076 37.2362526,22.9815962 C37.6252115,23.5227564 37.5361456,24.2634693 37.0511308,24.6976 L36.9411685,24.785751 L30.8181727,29.1925995 L30.7793459,29.2133072 L30.7793459,29.2133072 C30.7183696,29.2545807 30.6539496,29.2903859 30.5868427,29.3203442 L30.4260215,29.3815569 L30.4260215,29.3815569 C30.3341312,29.4061473 30.2396525,29.4203838 30.1425854,29.4242665 L30.0623432,29.4372087 L30.0623432,29.4372087 L30.0286933,29.4294434 L30.0286933,29.4294434 L29.953628,29.4320318 L29.953628,29.4320318 C29.800909,29.4190895 29.6585439,29.3712031 29.5239441,29.3090801 L29.4398192,29.2650763 L29.4398192,29.2650763 C29.319456,29.1981 29.2100127,29.1165636 29.1158576,29.0177371 L29.0269603,28.9130461 C29.0230776,28.906575 29.0153122,28.9052808 29.0114295,28.8988096 L28.985545,28.8418636 L28.985545,28.8418636 L28.9010846,28.7113861 L28.9010846,28.7113861 L28.8664759,28.6412581 L25.9544615,21.6498349 C25.6787908,20.9897783 25.9906999,20.2313603 26.6507565,19.9569838 C27.2683462,19.7021826 27.9735239,19.9569838 28.2864043,20.5347656 L28.3436076,20.6545731 L30.1749411,25.0510678 C30.8142901,23.4073974 31.1456126,21.6524234 31.1456126,19.8663878 C31.1456126,11.9935949 24.7417692,5.58845731 16.8676821,5.58845731 C8.99359493,5.58845731 2.58975154,11.9935949 2.58975154,19.8663878 C2.58975154,27.7391807 8.99618338,34.1443184 16.8689763,34.1443184 C19.4470798,34.1443184 21.9721199,33.4506118 24.1710144,32.1382639 C24.2525508,32.0890833 24.3418525,32.076141 24.4285659,32.0476679 C24.9941438,31.7021089 25.5416025,31.3254884 26.0489401,30.9087467 C26.60287,30.4544725 27.4156456,30.5347146 27.8712141,31.086056 C28.3241941,31.6386917 28.2452462,32.4527615 27.6939048,32.90833 C27.0413076,33.4437547 26.3495516,33.9295846 25.6244331,34.3617488 C25.4975987,34.436814 25.362999,34.4808178 25.2271049,34.5079966 C22.691711,35.9601212 19.8094638,36.7327757 16.8676821,36.7327757 C7.56735495,36.7327757 -1.62003744e-12,29.166715 -1.62003744e-12,19.8663878 C-1.62003744e-12,10.5660607 7.56606072,3 16.8676821,3 Z M18.1636364,10 L18.1636364,12.186747 L18.5155522,12.2282684 C19.5431283,12.3672265 20.4361478,12.6477978 21.1946109,13.0699824 L21.4727273,13.2349398 L20.1272727,15.8373494 L19.916003,15.6836603 C19.2127724,15.1957582 18.5195592,14.9518072 17.8363636,14.9518072 C17.3757576,14.9518072 17,15.0572289 16.7090909,15.2680723 C16.4181818,15.4789157 16.2727273,15.7168675 16.2727273,15.9819277 C16.2727273,16.2228916 16.3878788,16.4518072 16.6181818,16.6686747 C16.8024242,16.8421687 17.0332121,16.9886747 17.3105455,17.1081928 L17.5272727,17.1927711 L18.6,17.5542169 L18.8930556,17.6585718 C19.9421296,18.0483392 20.7111111,18.5165663 21.2,19.063253 C21.7333333,19.6596386 22,20.4337349 22,21.3855422 C22,21.9638554 21.9333333,22.4759036 21.8,22.9216867 C21.6666667,23.3674699 21.4484848,23.7650602 21.1454545,24.1144578 C20.8424242,24.4638554 20.4454545,24.7710843 19.9545455,25.0361446 C19.5454545,25.2570281 19.0627104,25.461178 18.5063131,25.6485944 L18.1636364,25.7590361 L18.1636364,28 L16.4909091,28 L16.4909091,25.8493976 L16.2045455,25.8409262 C15.9136364,25.8239834 15.6090909,25.7816265 15.2909091,25.7138554 C14.8666667,25.623494 14.4484848,25.503012 14.0363636,25.3524096 C13.6242424,25.2018072 13.2393939,25.0271084 12.8818182,24.8283133 C12.5957576,24.6692771 12.3504242,24.5044578 12.1458182,24.3338554 L12,24.2048193 L13.4727273,21.4759036 L13.700202,21.6692369 C14.7598653,22.5403481 15.7931313,22.9759036 16.8,22.9759036 C17.2484848,22.9759036 17.6393939,22.8554217 17.9727273,22.6144578 C18.3060606,22.373494 18.4727273,22.060241 18.4727273,21.6746988 C18.4727273,21.1853568 18.1370629,20.8140729 17.4657343,20.5608469 L17.2909091,20.5 L16.2545455,20.1746988 L15.9530303,20.0768072 C15.4631313,19.9111446 15.0363636,19.7329317 14.6727273,19.5421687 C14.2363636,19.313253 13.8787879,19.0481928 13.6,18.746988 C13.3212121,18.4457831 13.1151515,18.1054217 12.9818182,17.7259036 C12.8484848,17.3463855 12.7818182,16.9096386 12.7818182,16.4156627 C12.7818182,15.8975904 12.8575758,15.3975904 13.0090909,14.9156627 C13.1606061,14.4337349 13.3909091,14.003012 13.7,13.623494 C14.0090909,13.2439759 14.3939394,12.9246988 14.8545455,12.6656627 C15.2493506,12.4436317 15.7064935,12.2946275 16.225974,12.2186501 L16.4909091,12.186747 L16.4909091,10 L18.1636364,10 Z" fill="#C8C9CB"/></g></svg>