<svg xmlns="http://www.w3.org/2000/svg" viewBox="0 0 44 39">
        <path d="M6.694 27.934l2.232 3.581 2.231-3.581h2.231c2.465 0 4.463 1.924 4.463 4.297v5.73a.73.73 0 0 1-.744.717H.744A.73.73 0 0 1 0 37.96v-5.73c0-1.14.47-2.232 1.307-3.038a4.551 4.551 0 0 1 3.156-1.26h2.231zm-2.231 2.865v5.014l4.463-2.507-4.463-2.507zm8.925 0l-4.462 2.507 4.462 2.507v-5.014zM8.926 19.339c2.054 0 3.719 1.603 3.719 3.581s-1.665 3.581-3.72 3.581c-2.053 0-3.718-1.603-3.718-3.58 0-1.979 1.665-3.582 3.719-3.582z"/>
        <path d="M24.751.077l.117.055.108.07 17.79 13.245c.714.532.6.973-.244 1.012l-.125.003h-1.653l-.042 21.215 2.9.079.034 2.922-23.598-.02c.413-.078.731-.39.782-.776l.006-.107v-7.22c0-2.99-2.664-5.415-5.95-5.415a4.733 4.733 0 0 0 .992-2.9c0-2.67-2.22-4.835-4.959-4.835-.733 0-1.428.155-2.054.433l-.01-2.733-1.656-.035c-.906-.02-1.124-.475-.506-1.035l.094-.08L23.623.239c.307-.25.765-.304 1.128-.162zm2.168 25.21h-4.832v9.77l4.832.029v-9.799zm4.83-.002v4.044l4.83.017V25.33l-4.83-.044zm-9.662-8.04v4.044l4.822.022v-4.012l-4.822-.054zm9.663 0v4.044l4.818.022v-4.012l-4.818-.054zm-9.663-7.928v4.049l4.827.017V9.371l-4.827-.054z"/>
</svg>
