<svg viewBox="0 0 39 43" xmlns="http://www.w3.org/2000/svg"><g fill="none" fill-rule="evenodd"><path d="M32.8286923,5.97801257 C36.1424008,5.97801257 38.8286923,8.66430407 38.8286923,11.9780126 C38.8286923,12.0320543 38.8279622,12.0860935 38.8265021,12.1401155 L38.3318803,30.4559632 C35.6313878,32.9999407 31.2006806,37.1738534 25.0397585,42.9777013 L11.9930455,42.9780126 C8.67933696,42.9780126 5.99304545,40.2917211 5.99304545,36.9780126 L5.99304545,11.9780126 C5.99304545,8.66430407 8.67933696,5.97801257 11.9930455,5.97801257 L32.8286923,5.97801257 Z" fill="#E2F4F2" transform="translate(.007 .022)"/><path d="M25.4704428,4.26325641e-14 C28.787787,4.26325641e-14 30.8431078,1.75255802 30.9438005,4.99366485 L30.9476791,5.2459123 L30.9476791,8.63342888 C30.9476791,9.42927914 30.456231,10.074507 29.6603807,10.074507 C28.9113452,10.074507 28.4321577,9.50295568 28.3783745,8.77220881 L28.3733134,8.63342888 L28.3733134,5.2459123 C28.3733134,3.50034367 27.3624776,2.63922065 25.6689391,2.57782823 L25.4705198,2.57428877 L5.47692834,2.57428877 C3.73135971,2.57428877 2.65601606,3.3707611 2.57875544,5.04842077 L2.57428877,5.2459123 L2.57428877,30.9141818 C2.57428877,32.6597504 3.58498174,33.5208735 5.2785096,33.5822659 L5.47692834,33.5858053 L12.3243123,33.5858053 C13.1202396,33.5858053 13.7654674,34.0771765 13.7654674,34.8730267 C13.7654674,35.6221348 13.1939161,36.1014629 12.4631692,36.1552624 L12.3243893,36.1603251 L5.47692834,36.1603251 C2.15965925,36.1603251 0.104559882,34.4075475 0.00387820709,31.1664297 L1.7781332e-12,30.9141818 L1.7781332e-12,5.2459123 C1.7781332e-12,1.92871829 1.97216764,0.0931572193 5.22425495,0.00345241203 L5.47692834,4.26325641e-14 L25.4704428,4.26325641e-14 Z M31.3471294,13.3549661 C31.6505279,13.1298498 32.0810804,13.1548627 32.3562225,13.4300048 L32.3562225,13.4300048 L35.5105175,16.5842998 L36.7270759,17.7770727 L36.8021146,17.8639951 C37.0272309,18.1673936 37.002218,18.5979461 36.7270759,18.8730882 L36.7270759,18.8730882 L35.5105175,20.0896466 L21.9751666,33.5495904 L19.553368,33.8431417 L19.3646238,33.8611299 C17.3706941,34.0040673 16.0058305,32.5909539 16.2453287,30.572326 L16.2453287,30.572326 L16.5387699,28.1514419 L31.260207,13.4300048 Z M31.8465375,16.1074686 L18.7403869,29.136975 L18.6755963,29.269942 L18.4713153,30.9816781 C18.4261723,31.4867426 18.6399548,31.7000584 19.1507723,31.6541019 L19.1507723,31.6541019 L20.8563175,31.4506632 L20.9883513,31.3868057 L34.0954378,18.3563689 L31.8465375,16.1074686 Z M7.92492834,24.9062246 L10.915123,24.9062246 C11.7112043,24.9062246 12.3564321,25.3974417 12.3564321,26.193292 C12.3564321,26.9424 11.7848808,27.4217282 11.0539413,27.4755277 L10.915123,27.4805904 L7.92492834,27.4805904 C7.12907807,27.4805904 6.48385027,26.9892193 6.48385027,26.193292 C6.48385027,25.4442564 7.05540154,24.9650689 7.78614841,24.9112858 L7.92492834,24.9062246 L10.915123,24.9062246 Z M16.9375144,17.0773989 C17.7335957,17.0773989 18.3788235,17.568616 18.3788235,18.3644663 C18.3788235,19.1135743 17.8072723,19.5929025 17.0763328,19.646702 L16.9375144,19.6517647 L7.8681754,19.6517647 C7.07232513,19.6517647 6.42709733,19.1603936 6.42709733,18.3644663 C6.42709733,17.6154308 6.9986486,17.1362433 7.72939546,17.0824601 L7.8681754,17.0773989 L16.9375144,17.0773989 Z M23.0004963,8.67680856 C23.7965005,8.67680856 24.4418053,9.16810267 24.4418053,9.96387594 C24.4418053,10.7130564 23.8702541,11.1922525 23.1393146,11.2460361 L23.0004963,11.2510973 L7.8681754,11.2510973 C7.07232513,11.2510973 6.42709733,10.7599572 6.42709733,9.96387594 C6.42709733,9.21484039 6.9986486,8.7356529 7.72939546,8.68186972 L7.8681754,8.67680856 L23.0004963,8.67680856 Z" fill="#3AB2A6" fill-rule="nonzero" transform="translate(.007 .022)"/></g></svg>