<svg xmlns="http://www.w3.org/2000/svg" width="16" height="16"><g fill-rule="evenodd"><path d="M8,0 C12.418278,0 16,3.581722 16,8 C16,12.418278 12.418278,16 8,16 C3.581722,16 0,12.418278 0,8 C0,3.581722 3.581722,0 8,0 Z M11.4666667,9 L4.48,9 C4.42666667,9 4.37333333,9 4.31999999,9.05333333 C4.26666666,9.05333333 4.26666666,9.10666666 4.21333332,9.10666666 C4.10666666,9.21333332 4,9.37333332 4,9.53333333 C4,9.69333332 4.05333333,9.79999999 4.16,9.90666666 C4.16,9.90666666 4.16,9.95999999 4.21333332,9.96 L6.13333333,11.88 C6.56,12.3066667 7.2,11.9333333 7.2,11.2933333 L7.2,10.0666667 L11.4666667,10.0666667 C11.7333333,10.0666667 12,9.8 12,9.53333333 C12,9.26666665 11.7333333,9 11.4666667,9 Z M8.8,4.76909996 L8.8,5.99576664 L4.53333333,5.99576664 C4.26666666,5.99576664 4,6.2624333 4,6.52909996 C4,6.79576663 4.26666666,7.0624333 4.53333333,7.0624333 L11.52,7.0624333 C11.5733333,7.0624333 11.6266667,7.0624333 11.68,7.00909996 C11.7333333,7.00909996 11.7333333,6.95576663 11.7866667,6.95576663 C11.8933333,6.84909997 12,6.68909997 12,6.52909996 C12,6.36909997 11.9466667,6.2624333 11.84,6.15576663 C11.84,6.15576663 11.84,6.1024333 11.7866667,6.1024333 L9.86666667,4.1824333 C9.44,3.75576662 8.8,4.12909997 8.8,4.76909996 Z"/></g></svg>