<svg xmlns="http://www.w3.org/2000/svg" viewBox="0 0 44 44"><path d="m33 2.2v-.2c0-1.1045695-.8954305-2-2-2h-.4c-1.1045695 0-2 .8954305-2 2v.2h-13.2v-.2c0-1.1045695-.8954305-2-2-2h-.4c-1.1045695 0-2 .8954305-2 2v.2h-7c-2.209139 0-4 1.790861-4 4v33.8c0 2.209139 1.790861 4 4 4h36c2.209139 0 4-1.790861 4-4v-33.8c0-2.209139-1.790861-4-4-4zm-7.15 35.2h-4.4v-13.2h-3.3v-4.4h7.7zm-21.45-26.2v-2.6c0-1.1045695.8954305-2 2-2h4.6v2.2h4.4v-2.2h13.2v2.2h4.4v-2.2h4.6c1.1045695 0 2 .8954305 2 2v2.6c0 1.1045695-.8954305 2-2 2h-31.2c-1.1045695 0-2-.8954305-2-2z"/></svg>