<svg viewBox="0 0 88 88" xmlns="http://www.w3.org/2000/svg"><g fill-rule="nonzero" fill="none"><circle fill="#F8F8F6" cx="44.1157895" cy="43.8378947" r="43.7838596"/><path d="M44.154386,87.7954386 C52.7050998,87.8064848 61.070135,85.3018064 68.2077193,80.5933333 C65.6105663,67.1539042 60.4536842,66.2722807 60.4536842,66.2722807 L26.6122807,66.2722807 C26.6122807,66.2722807 22.3995973,66.6040177 19.0087719,79.86 C26.3702245,85.0380543 35.1542184,87.8101021 44.154386,87.7954386 Z" fill="#FCCE01"/><circle fill="#3B3B3B" cx="43.6912281" cy="37.9154386" r="21.1354386"/><path d="M36.8712281,55.5192982 L50.4147368,55.5192982 L50.4147368,66.3533333 C50.4147368,70.0922042 47.3837831,73.1231579 43.6449123,73.1231579 L43.6449123,73.1231579 C39.9060414,73.1231579 36.8750877,70.0922042 36.8750877,66.3533333 L36.8750877,55.5192982 L36.8712281,55.5192982 Z" fill="#000" opacity="0.1"/><path d="M38.1642105,55.0175439 L49.1217544,55.0175439 C49.4646747,55.0175439 49.7935498,55.1537684 50.036031,55.3962497 C50.2785123,55.6387309 50.4147368,55.967606 50.4147368,56.3105263 L50.4147368,65.8515789 C50.4147368,67.6470481 49.7014895,69.3689794 48.4319011,70.6385678 C47.1623128,71.9081562 45.4403814,72.6214035 43.6449123,72.6214035 L43.6449123,72.6214035 C41.8494432,72.6214035 40.1275118,71.9081562 38.8579234,70.6385678 C37.588335,69.3689794 36.8750877,67.6470481 36.8750877,65.8515789 L36.8750877,56.3105263 C36.8750877,55.5964318 37.4539757,55.0175439 38.1680702,55.0175439 L38.1642105,55.0175439 Z" fill="#FFDDCA"/><path d="M36.8982456,60.6333333 C41.2630037,62.2646687 46.0677693,62.2783614 50.4417544,60.6719298 L50.4417544,59.0084211 L36.8982456,59.0084211 L36.8982456,60.6333333 Z" fill="#000" opacity="0.1"/><circle fill="#FFDDCA" cx="43.6912281" cy="42.1301754" r="19.4101754"/><path d="M30,24.8978947 C30,24.8978947 41.7070897,45.8978205 64.2879598,39 L55.8905263,23.4196491 L46.3687719,20 L30,24.8978947 Z" fill="#000" opacity="0.1"/><path d="M29.8698246,24.2291228 C29.8698246,24.2291228 42.415278,45.8355142 64.2879598,38.2925652 L55.7603509,22.7508772 L46.2385965,19.3312281 L29.8698246,24.2291228 Z" fill="#3B3B3B"/><ellipse fill="#FFDDCA" cx="24.277193" cy="42.1108772" rx="1.80631579" ry="3.38491228"/><ellipse fill="#FFDDCA" cx="63.1014035" cy="42.1108772" rx="1.80631579" ry="3.38491228"/><path fill="#3B3B3B" d="M28.6463158 24.7192982L32.4326316 22.7663158 33.285614 25.8964912 30.9659649 27.4750877z"/></g></svg>