<svg width="16" height="13" xmlns="http://www.w3.org/2000/svg"><g fill="" fill-rule="nonzero"><path d="M12.4197967 6.99025981C13.598397 6.99025981 14.5575943 6.05043094 14.5575943 4.89502114 14.5575943 3.73980815 13.598397 2.8 12.4197967 2.8 11.2411965 2.8 10.2821856 3.7400153 10.2821856 4.89502115 10.2821856 6.05021344 11.2411965 6.99025981 12.4197967 6.99025981L12.4197967 6.99025981 12.4197967 6.99025981zM5.3606237 6.56834539C7.20811138 6.56834539 8.71167918 5.09513827 8.71167918 3.28400221 8.71167918 1.47317465 7.20811138 4.88498131e-15 5.3606237 4.88498131e-15 3.51313602 4.88498131e-15 2.00986047 1.47349937 2.00986047 3.28400222 2.00986047 5.09479732 3.51313602 6.56834539 5.3606237 6.56834539L5.3606237 6.56834539 5.3606237 6.56834539zM10.6905888 7.7103919C10.8340607 7.89468384 11.9724274 8.93252563 11.9724274 10.9545262 12.2676202 10.9545262 12.7104094 10.9545262 13.300795 10.9545262 14.749208 10.9545262 16 10.9545262 16 10.1924837L16 10.0355884C16 8.57793646 14.8884024 7.57383933 13.3999991 7.57383933L11.6000009 7.57383933C11.2765433 7.57383933 10.9708952 7.62123735 10.6905888 7.7103919zM6.8971174 7.16961665C9.15952939 7.16961665 10.866543 8.64962045 10.9679209 10.8227383L10.972689 11.0284747 10.972689 11.2744124C10.972689 12.3892997 9.26474483 12.4636255 7.19107811 12.4685806L3.31506668 12.4661031C1.47606946 12.4484064.10863986 12.3201059.0061733776 11.3899271L-2.7533531e-14 11.2744124-2.7533531e-14 11.0284747C-2.7533531e-14 8.81247505 1.63816563 7.26564034 3.86510329 7.17392767L4.07557158 7.16961665 6.8971174 7.16961665z"/></g></svg>