<svg width="22" height="22" xmlns="http://www.w3.org/2000/svg"><path d="M11,0 C17.0751322,0 22,4.92486775 22,11 C22,17.0751322 17.0751322,22 11,22 C4.92486775,22 0,17.0751322 0,11 C0,4.92486775 4.92486775,0 11,0 Z M11,1 C5.4771525,1 1,5.4771525 1,11 C1,16.5228475 5.4771525,21 11,21 C16.5228475,21 21,16.5228475 21,11 C21,5.4771525 16.5228475,1 11,1 Z M14.1332571,5.19853426 C14.3920859,4.93811759 14.8112932,4.93335387 15.0653582,5.18741891 L15.0653582,5.18741891 L15.7275152,5.84957592 C15.9815803,6.10364097 15.9768166,6.52126038 15.7163999,6.78167704 L15.7163999,6.78167704 L14.7318979,7.76617907 L14.7318979,15.6755414 C14.7318979,16.1630287 14.3349212,16.5600053 13.8474339,16.5600053 L13.8474339,16.5600053 L6.88446392,16.5600053 C6.39697663,16.5600053 6,16.1630287 6,15.6755414 L6,15.6755414 L6,7.07861556 C6,6.59112826 6.39697663,6.19415164 6.88446392,6.19415164 L6.88446392,6.19415164 L13.1376397,6.19415164 Z M12.5469385,6.78326495 L6.88446392,6.78326495 C6.72090955,6.78326495 6.58911331,6.9166491 6.58911331,7.07861556 L6.58911331,7.07861556 L6.58911331,15.6755414 C6.58911331,15.8390957 6.72249746,15.970892 6.88446392,15.970892 L6.88446392,15.970892 L13.845846,15.970892 C14.0094004,15.970892 14.1411966,15.8375078 14.1411966,15.6755414 L14.1411966,15.6755414 L14.1411966,8.35688029 L12.3770325,10.1210444 C12.2515879,10.2687197 12.0705666,10.3544667 11.8800178,10.3592304 L11.8800178,10.3592304 L11.179751,10.3751095 L11.163872,10.3751095 C10.9907901,10.3751095 10.8304116,10.3100053 10.7081428,10.1877365 C10.5826982,10.0622919 10.5160061,9.89397379 10.5207698,9.71612826 L10.5207698,9.71612826 L10.5366489,9.05873497 C10.5398247,8.88406525 10.6112805,8.72051088 10.7351372,8.59665418 L10.7351372,8.59665418 L12.5469385,6.78326495 Z M10.6732088,13.2809324 C10.8494665,13.2809324 10.992378,13.423844 10.992378,13.5985137 C10.992378,13.7731834 10.8494665,13.916095 10.6747967,13.916095 L10.6747967,13.916095 L7.94042175,13.916095 C7.76575203,13.916095 7.62284045,13.7731834 7.62284045,13.5985137 C7.62284045,13.423844 7.76575203,13.2809324 7.94042175,13.2809324 L7.94042175,13.2809324 Z M12.9582063,11.402439 C13.132876,11.402439 13.2757876,11.5453506 13.2757876,11.7200203 C13.2757876,11.89469 13.132876,12.0376016 12.9582063,12.0376016 L12.9582063,12.0376016 L7.94042175,12.0376016 C7.76575203,12.0376016 7.62284045,11.89469 7.62284045,11.7200203 C7.62284045,11.5437627 7.76416413,11.402439 7.94042175,11.402439 L7.94042175,11.402439 Z M14.6139958,5.63381913 C14.6032774,5.63362064 14.5921621,5.63679645 14.5826347,5.64632389 L14.5826347,5.64632389 L11.1845147,9.04444381 C11.1813389,9.04920753 11.1718115,9.05873497 11.1718115,9.07143822 L11.1718115,9.07143822 L11.1559324,9.72883151 C11.1559324,9.73518314 11.1575203,9.73677105 11.1575203,9.73677105 C11.1591082,9.73677105 11.1606961,9.73835895 11.1654599,9.73835895 L11.1654599,9.73835895 L11.8657266,9.72247989 C11.8784299,9.72247989 11.8895452,9.71295245 11.8958968,9.70501292 L11.8958968,9.70501292 L11.9070122,9.69230966 L15.2670224,6.3322995 C15.2829014,6.31800834 15.2797256,6.30054137 15.2781377,6.29736556 L15.2781377,6.29736556 L14.6159807,5.63520855 C14.6159807,5.63362064 14.6128049,5.63362064 14.6096291,5.63362064 Z" fill="" fill-rule="nonzero"/></svg>