<svg xmlns="http://www.w3.org/2000/svg" viewBox="0 0 14 14"><path d="M39.5714286,15 C40.3604068,15 41,15.6395932 41,16.4285714 L41,27.5714286 C41,28.3604068 40.3604068,29 39.5714286,29 L28.4285714,29 C27.6395932,29 27,28.3604068 27,27.5714286 L27,16.4285714 C27,15.6395932 27.6395932,15 28.4285714,15 L39.5714286,15 Z M34.4516364,17 L33.5149091,17 L33.5149091,18.232 C33.1619394,18.2659394 32.8564848,18.3558788 32.5985455,18.5018182 C32.3406061,18.6477576 32.1250909,18.8276364 31.952,19.0414545 C31.7789091,19.2552727 31.6499394,19.4979394 31.5650909,19.7694545 C31.4802424,20.0409697 31.4378182,20.3226667 31.4378182,20.6145455 C31.4378182,20.8928485 31.4751515,21.1389091 31.5498182,21.3527273 C31.6244848,21.5665455 31.7398788,21.758303 31.896,21.928 C32.0521212,22.097697 32.2523636,22.2470303 32.4967273,22.376 C32.68,22.4727273 32.8919091,22.5637273 33.1324545,22.649 L33.3825455,22.7323636 L33.9629091,22.9156364 C34.4041212,23.0581818 34.6247273,23.2787879 34.6247273,23.5774545 C34.6247273,23.7946667 34.5313939,23.9711515 34.3447273,24.1069091 C34.1580606,24.2426667 33.9391515,24.3105455 33.688,24.3105455 C33.1442909,24.3105455 32.5868364,24.0823709 32.0156364,23.6260218 L31.8247273,23.4654545 L31,25.0029091 C31.1289697,25.1250909 31.2935758,25.2421818 31.4938182,25.3541818 C31.6940606,25.4661818 31.9095758,25.5646061 32.1403636,25.6494545 C32.3711515,25.734303 32.6053333,25.8021818 32.8429091,25.8530909 C33.0012929,25.8870303 33.1536431,25.9096566 33.2999596,25.9209697 L33.5149091,25.9294545 L33.5149091,27.1410909 L34.4516364,27.1410909 L34.4516364,25.8785455 C34.8453333,25.7563636 35.1796364,25.6206061 35.4545455,25.4712727 C35.7294545,25.3219394 35.9517576,25.1488485 36.1214545,24.952 C36.2911515,24.7551515 36.4133333,24.5311515 36.488,24.28 C36.5626667,24.0288485 36.6,23.7403636 36.6,23.4145455 C36.6,22.878303 36.4506667,22.4421818 36.152,22.1061818 C35.8906667,21.8121818 35.4864167,21.5584583 34.93925,21.3450114 L34.696,21.256 L34.0952727,21.0523636 C33.8848485,20.977697 33.7151515,20.8792727 33.5861818,20.7570909 C33.4572121,20.6349091 33.3927273,20.5059394 33.3927273,20.3701818 C33.3927273,20.2208485 33.4741818,20.0867879 33.6370909,19.968 C33.8,19.8492121 34.0104242,19.7898182 34.2683636,19.7898182 C34.6366061,19.7898182 35.0100455,19.9171439 35.3886818,20.1717955 L35.5512727,20.2887273 L36.3047273,18.8225455 C35.8652121,18.5433939 35.3373485,18.3577879 34.7211364,18.2657273 L34.4516364,18.232 L34.4516364,17 Z" transform="translate(-27 -15)" fill-rule="evenodd"/></svg>