<svg viewBox="0 0 330 213" xmlns="http://www.w3.org/2000/svg" xmlns:xlink="http://www.w3.org/1999/xlink"><linearGradient id="a" x1="49.988%" x2="49.988%" y1="100%" y2="-.007%"><stop offset="0" stop-color="#808080" stop-opacity=".25"/><stop offset=".54" stop-color="#808080" stop-opacity=".12"/><stop offset="1" stop-color="#808080" stop-opacity=".1"/></linearGradient><g fill="none" transform="translate(-15 -10)"><ellipse cx="180" cy="214" fill="#e2f4f2" rx="165" ry="9"/><path d="m78.32 207.318 4.117-2.42a9.892 9.892 0 0 0 -2.106-2.518l-7.765 2.415 6.086-3.579a9.892 9.892 0 0 0 -14.646 8.678c0 5.464 4.428 5.654 9.893 5.654 5.464 0 9.892-.19 9.892-5.654a9.839 9.839 0 0 0 -.85-4.013l-4.62 1.437z" fill="#38b2a6"/><path d="m79.368 212.63a7.701 7.701 0 0 0 -1.458-1.147c-.749-.497-1.52-1.002-2.402-1.172-.775-.146-1.573-.021-2.366-.067a5.529 5.529 0 0 1 -3.615-1.655c-.561-.583-1.004-1.29-1.68-1.74-.729-.48-1.653-.583-2.518-.463-.25.036-.5.087-.744.153a9.85 9.85 0 0 0 -.585 3.355c0 5.464 4.428 5.654 9.892 5.654 2.652 0 5.059-.046 6.835-.716l-.29-.545a7.718 7.718 0 0 0 -1.07-1.658z" fill="#2b948a"/><path d="m291.366 209.713c-.315-1.138-.629-2.291-1.258-3.282a11.404 11.404 0 0 0 -2.062-2.253c-2.279-2.072-5.08-4.175-8.1-3.65-.937.205-1.842.535-2.691.98-.44.205-.883.41-1.336.582a6.664 6.664 0 0 1 -4.033.352c-.692-.185-1.336-.518-2.018-.726a6.513 6.513 0 0 0 -.993-.213 18.288 18.288 0 0 0 1.917-1.01c3.392-2.096 6.098-5.868 5.718-9.86-.126-1.352-.59-2.644-1.05-3.917l-1.21-3.342c-.522-1.449-1.06-2.923-2.015-4.127-1.063-1.339-2.571-2.247-4.13-2.926-3.351-1.456-7.013-1.968-10.628-2.465l-.252-.034v-39.054a2.515 2.515 0 0 0 -2.515-2.53h-4.756l-.628-3.845c-.6-3.65-1.22-7.371-2.902-10.66-1.1-2.153-2.854-4.202-5.215-4.627a5.2 5.2 0 0 1 -1.358-.314c-.691-.34-1.068-1.094-1.603-1.653-1.37-1.437-3.599-1.459-5.438-2.2-1.622-.645-2.948-1.862-4.426-2.795-1.477-.934-3.316-1.6-4.954-.99 0 .12-.022.235-.034.355l-1.05-.472c-1.132-.521-2.289-1.062-3.197-1.923-1.17-1.104-1.792-2.56-2.276-4.112-.05-.163-.097-.314-.145-.487a14.626 14.626 0 0 0 3.91-7.472c.086.273.174.55.259.827.077.28.182.553.314.814.044.086.093.169.148.248.103.154.233.29.383.4a1.072 1.072 0 0 0 .77.197c.483-.102.88-.441 1.057-.902.05-.123.087-.252.11-.383.012-.08.02-.16.022-.24v-.075-.163-.088-.239c0-.063-.02-.126-.032-.186s0-.034 0-.05l-.05-.242a.314.314 0 0 1 0-.053l-.047-.198-.029-.12v-.031c-.031-.123-.06-.249-.088-.374a10.826 10.826 0 0 1 -.172-3.323c.189-1.628.49-3.241.899-4.828l.066-.286.075-.333c.05-.227.097-.453.145-.68a17.278 17.278 0 0 0 .198-1.096v-.063c.192-1.172.243-2.362.154-3.546-.148-1.644-.657-3.2-1.776-4.442-.79-.877-1.827-1.524-2.56-2.445-.688-.865-1.074-1.927-1.785-2.773-1.964-2.345-7.003-4.152-10.096-4.467-3.543-.358-9.267.547-12.121 2.64-1.056.774-1.78 1.887-2.515 2.946-1.352 1.968-2.889 3.93-5.055 5.03-.82.415-1.757.729-2.3 1.452a3.958 3.958 0 0 0 -.63 1.631 32.129 32.129 0 0 0 -.647 6.224c-.047.915.07 1.83.346 2.704.044.12.097.242.154.358.05.104.107.207.167.314l.037.066c.38.545.717 1.118 1.01 1.714.069.167.12.342.15.521.054.462.024.93-.088 1.38 0 .07-.025.135-.04.201l-.029.145c0 .044 0 .091-.025.135a9.59 9.59 0 0 0 -.066.406c0 .094-.019.191-.022.289-.022.39.052.778.217 1.132.041.084.09.164.148.238.112.151.257.275.424.362.374.14.765.234 1.163.277 1.176.264 1.911 1.163 2.389 2.266.106.248.2.5.28.758a13.4 13.4 0 0 1 .44 1.97c.534-.028.845-.5 1.034-1.015.059-.17.108-.343.148-.519.072-.33.144-.66.22-.99a14.614 14.614 0 0 0 5.74 6.325c.088.258.173.519.251.783.412 1.424.61 2.917-.104 4.161-.509.884-1.367 1.43-2.323 1.808a1.537 1.537 0 0 0 -.518-.443c-.83-.415-1.823.09-2.515.71-1.257 1.138-2.282 2.77-3.939 3.144-.597.138-1.257.11-1.757.474-.329.31-.604.672-.814 1.072a3.75 3.75 0 0 1 -3.219 1.603c-.575-.028-1.257-.16-1.65.261-.293.314-.315.814-.629 1.113-.424.415-1.113.21-1.704.185a3.143 3.143 0 0 0 -2.279.987 5.363 5.363 0 0 0 -1.37-3.426c-.849-.874-2.028-1.323-3.034-2.009-2.514-1.71-3.772-4.715-5.082-7.468-1.311-2.754-3.04-5.658-5.9-6.661-.658-.233-1.572-.252-1.868.386-.1.267-.117.557-.047.833.277 1.465 1.32 2.64 2.222 3.82 1.519 1.986 2.792 4.416 2.424 6.9-.43 2.939-3.05 5.22-3.363 8.172-.139 1.302.191 2.61.188 3.917 0 .817-.129 1.644.047 2.44.187.604.409 1.197.664 1.775.283.95.429 1.936.433 2.927.222 4.166.444 8.333.664 12.501.166 3.11-.513 6.177-1.198 9.236a28.98 28.98 0 0 0 -1.968 5.658c-.773 3.404-.795 7.032.315 10.345.594 1.801 1.505 3.489 1.992 5.322 0 .04.02.078.029.116.047.39.1.78.173 1.166.089.447.206.888.349 1.32.142.745.374 1.47.691 2.16a6.042 6.042 0 0 0 1.886 2.2c-.452.887-1.185 1.6-1.672 2.468-.849 1.502-.883 3.348-.575 5.051.594 3.288 2.37 6.227 4.715 8.616a2.728 2.728 0 0 0 -.315 0 4.929 4.929 0 0 0 -2.15.77c-4.963 2.902-7.802 9.116-6.764 14.806.204 1.113.56 2.238 1.301 3.084a4.891 4.891 0 0 0 2.292 1.405 7.95 7.95 0 0 0 1.688.314c3.87.315 7.616-1.48 11.495-1.631a30.96 30.96 0 0 1 3.85.179c1.868.155 3.74.254 5.615.295 3.046.073 4.762-.738 6.708-3.017a8.135 8.135 0 0 0 1.185-1.867c1.654-.095 3.48-.24 4.803-.35l.02.186c.071.629.181 1.352.684 1.751.284.192.606.323.943.383 3.178.783 6.394 1.572 9.663 1.572a40.777 40.777 0 0 0 4.59-.355l5.752-.663a29.3 29.3 0 0 1 4.938 1.075c1.66.566 3.213 1.405 4.835 2.065 3.772 1.53 7.833 2.078 11.854 2.612.685.091 1.47.154 1.98-.314.654-.629.434-1.682.252-2.562a14.002 14.002 0 0 1 -.18-1.088 54.538 54.538 0 0 1 7.94 2.757l.453.198c.13.685.764 1.236 1.37 1.974.2.311.433.599.696.858.299.198.64.321.996.362a46.56 46.56 0 0 0 12.888.581c.88-.12 1.77-.15 2.656-.09.65.087 1.293.233 1.918.433l3.64 1.04c2.681.77 5.432 1.547 8.214 1.374a10.91 10.91 0 0 0 1.678-.242c2.2-.51 4.253-1.741 5.31-3.722 1.417-2.694.729-6.004-.08-8.946zm-106.77-49.166a11.439 11.439 0 0 1 -1.05 3.932c-.39.79-.892 1.515-1.257 2.308-.346.716-.603 2.071-.757 3.558a11.8 11.8 0 0 0 -.57-.082c.28-.98.491-1.986.77-2.97.664-2.339 1.755-4.549 2.864-6.746z" fill="url(#a)"/><path d="m189.44 208.893c-.663-1.51-1.291-3.244-.628-4.753a4.04 4.04 0 0 1 2.09-1.965 10.059 10.059 0 0 1 2.83-.698c3.05-.4 6.137-.442 9.197-.125.223 1.766-.248 3.558-.654 5.265-.368 1.572-.578 1.804-2.2 1.886-1.05.057-10.386.946-10.635.39z" fill="#ffddca"/><ellipse cx="217.433" cy="186.141" fill="#464353" rx="44.951" ry="12.574"/><ellipse cx="217.433" cy="186.141" fill="#48484c" rx="44.951" ry="12.574"/><path d="m225.492 119.764a13.985 13.985 0 0 1 -7.21 6.551 18.1 18.1 0 0 1 -5.71 1.088c-2.133.097-4.312-.041-6.317-.77-2.691-.975-4.926-2.968-6.602-5.29-1.675-2.324-2.829-4.977-3.831-7.652-.528-1.392-1.031-2.876-.783-4.347 1.619-.368 3.392-.909 4.228-2.345.713-1.232.515-2.71.104-4.118-.117-.4-.252-.795-.387-1.176-.314-.911-1.399-2.643-.645-3.423.481-.493 2.496-.745 3.191-1.065 2.14-.988 4.115-2.415 6.466-2.883 2.034-.406 4.134-.025 6.164.396.27.04.528.132.761.274.265.223.462.517.566.848.578 1.409.918 2.965 1.383 4.432.484 1.538 1.106 2.98 2.273 4.071.908.852 2.065 1.386 3.196 1.905l2.786 1.276c.495.186.944.476 1.317.852.364.5.582 1.093.628 1.71a15.975 15.975 0 0 1 -1.578 9.666z" fill="#ffddca"/><path d="m216.857 100.284a14.46 14.46 0 0 1 -17.486 2.597c-.117-.4-.252-.795-.387-1.176-.314-.911-1.399-2.643-.645-3.423.481-.493 2.496-.745 3.191-1.065 2.14-.988 4.115-2.415 6.466-2.883 2.034-.406 4.134-.025 6.164.396.27.04.528.132.761.274.265.223.462.517.566.848.566 1.409.905 2.965 1.37 4.432z" fill="#000" opacity=".1"/><circle cx="206.431" cy="89.638" fill="#ffddca" r="14.46"/><path d="m250.486 136.566-1.189-7.199c-.6-3.611-1.22-7.292-2.898-10.546-1.103-2.131-2.854-4.162-5.215-4.583a5.045 5.045 0 0 1 -1.358-.314c-.691-.333-1.068-1.082-1.6-1.635-1.37-1.42-3.602-1.443-5.438-2.166-1.622-.628-2.948-1.839-4.426-2.763-1.477-.924-3.316-1.571-4.95-.98-.265 2.813-.544 5.69-1.739 8.251a12.347 12.347 0 0 1 -18.628 4.64c-2.8-2.11-4.595-5.363-5.432-8.767-.204-.83-.437-1.783-1.2-2.163-.827-.415-1.82.088-2.515.698-1.273 1.128-2.285 2.744-3.939 3.124-.597.139-1.257.11-1.754.472-.33.305-.606.663-.817 1.06a3.772 3.772 0 0 1 -3.216 1.59c-.575-.028-1.257-.16-1.65.258-.293.314-.315.804-.629 1.097-.424.411-1.113.21-1.704.188-1.119-.047-2.16.67-2.8 1.572-.642.902-.943 2.018-1.258 3.1 3.436 7.65 6.58 15.311 10.015 22.962.161.288.247.613.248.943a2.298 2.298 0 0 1 -.427.943c-1.685 2.707-1.631 6.11-1.446 9.292.185 3.181.412 6.542-1.009 9.393-.387.782-.89 1.499-1.257 2.282-.862 1.773-1.173 7.443-.67 9.348h71.041c-1.354-3.725-.839-11.2-.556-15.154.198-2.766-.314-5.53-.534-8.296-.463-5.648-.117-11.008-1.05-16.647z" fill="#fcce01"/><path d="m254.123 174.463c1.046-.4 2.2-.255 3.322-.104 3.612.494 7.277 1 10.625 2.443 1.572.672 3.068 1.571 4.13 2.895.943 1.191 1.494 2.65 2.015 4.086l1.207 3.298c.46 1.257.925 2.54 1.053 3.875.378 3.958-2.329 7.69-5.733 9.745-3.404 2.056-7.412 2.788-11.316 3.555a361.366 361.366 0 0 0 -11.713 2.515c-1.813.47-3.654.833-5.51 1.084-4.162.472-8.513-.223-12.467 1.154-1.572.55-3.115 1.367-4.747 1.748a29.526 29.526 0 0 1 -3.278.528l-7.485.855a40.83 40.83 0 0 1 -4.59.352c-3.268 0-6.484-.773-9.659-1.547a2.442 2.442 0 0 1 -.943-.38c-.503-.396-.613-1.097-.685-1.732a300.3 300.3 0 0 1 -.843-8.44c-.075-.915-.132-1.905.368-2.675.629-.943 1.855-1.239 2.974-1.42a77.605 77.605 0 0 1 14.36-.997c1.825-1.827 4.837-1.836 7.229-2.83.88-.404 1.732-.867 2.55-1.386a33.32 33.32 0 0 1 13.99-4.423 13.03 13.03 0 0 0 2.864-.408c1.852-.575 3.54-2.14 5.442-1.757.235-.651.399-1.522.943-1.968.27-.23.603-.384.851-.629.525-.531.573-1.367.494-2.109s-.255-1.503-.063-2.226c.08-.273.197-.535.349-.776.946-1.653 2.37-2.483 4.266-2.326z" fill="#464353"/><path d="m254.123 174.463c1.046-.4 2.2-.255 3.322-.104 3.612.494 7.277 1 10.625 2.443 1.572.672 3.068 1.571 4.13 2.895.943 1.191 1.494 2.65 2.015 4.086l1.207 3.298c.46 1.257.925 2.54 1.053 3.875.378 3.958-2.329 7.69-5.733 9.745-3.404 2.056-7.412 2.788-11.316 3.555a361.366 361.366 0 0 0 -11.713 2.515c-1.813.47-3.654.833-5.51 1.084-4.162.472-8.513-.223-12.467 1.154-1.572.55-3.115 1.367-4.747 1.748a29.526 29.526 0 0 1 -3.278.528l-7.485.855a40.83 40.83 0 0 1 -4.59.352c-3.268 0-6.484-.773-9.659-1.547a2.442 2.442 0 0 1 -.943-.38c-.503-.396-.613-1.097-.685-1.732a300.3 300.3 0 0 1 -.843-8.44c-.075-.915-.132-1.905.368-2.675.629-.943 1.855-1.239 2.974-1.42a77.605 77.605 0 0 1 14.36-.997c1.825-1.827 4.837-1.836 7.229-2.83.88-.404 1.732-.867 2.55-1.386a33.32 33.32 0 0 1 13.99-4.423 13.03 13.03 0 0 0 2.864-.408c1.852-.575 3.54-2.14 5.442-1.757.235-.651.399-1.522.943-1.968.27-.23.603-.384.851-.629.525-.531.573-1.367.494-2.109s-.255-1.503-.063-2.226c.08-.273.197-.535.349-.776.946-1.653 2.37-2.483 4.266-2.326z" fill="#525257"/><path d="m192.332 210.835c-1.945 2.254-3.659 3.059-6.704 2.987a98.522 98.522 0 0 1 -5.615-.293 31.497 31.497 0 0 0 -3.847-.179c-3.88.151-7.623 1.927-11.493 1.616a8.148 8.148 0 0 1 -1.688-.315 4.913 4.913 0 0 1 -2.279-1.386c-.741-.84-1.097-1.952-1.3-3.052-1.035-5.64 1.8-11.782 6.764-14.652a4.96 4.96 0 0 1 2.15-.763 5.096 5.096 0 0 1 2.175.477l.047.02a16.45 16.45 0 0 1 5.388 3.595c.234.268.512.492.824.664.31.117.639.179.971.182l4.13.26c.7.022 1.396.118 2.075.287a16.49 16.49 0 0 1 2.182.943c2.222.993 4.686 1.257 7.088 1.64.231.014.452.102.629.252.096.12.162.26.195.409a8.019 8.019 0 0 1 -1.692 7.308z" fill="#4c4c4c"/><path d="m170.53 195.294a24.802 24.802 0 0 0 -4.134 5.168 25.864 25.864 0 0 0 -3.376 10.229 18.986 18.986 0 0 0 -.035 3.964 4.913 4.913 0 0 1 -2.279-1.39c-.741-.84-1.097-1.952-1.3-3.052-1.035-5.64 1.8-11.782 6.764-14.652a4.96 4.96 0 0 1 2.15-.763 5.096 5.096 0 0 1 2.175.477l.035.02z" fill="#3b3b3b" opacity=".463"/><path d="m250.527 203.112c2.31-.063 4.903-.18 6.6 1.377 1.62 1.47 1.833 3.898 1.94 6.082l.123 2.537c.038.773.069 1.572-.242 2.288-.554 1.258-2.072 1.865-3.458 1.792-1.386-.072-2.66-.679-3.926-1.226a55.23 55.23 0 0 0 -10.688-3.366c.12-1.754.319-3.5.597-5.237.192-1.204.224-3.22 1.028-4.219.852-1.056 1.962-.484 3.119-.289 1.623.248 3.266.335 4.907.261z" fill="#ffddca"/><path d="m189.475 177.625c0 .314-.493 0-.537-.336-.346-2.543-2.364-4.64-4.716-5.658-2.35-1.019-5.03-1.072-7.575-.83-3.85.364-8.157 1.839-9.581 5.438-.334.842-.484 1.754-.893 2.562-.453.886-1.191 1.593-1.682 2.455-.845 1.49-.88 3.316-.575 5.001.82 4.495 3.895 8.34 7.62 11.002s8.078 4.253 12.42 5.686a215.384 215.384 0 0 0 35.205 8.409c1.937.292 3.892.563 5.747 1.185 1.66.556 3.212 1.39 4.834 2.043 3.772 1.515 7.83 2.056 11.85 2.587.686.088 1.472.151 1.978-.314.654-.607.437-1.663.252-2.534a13.627 13.627 0 0 1 1.6-9.662c.672-1.132 1.546-2.292 1.42-3.603-.15-1.528-1.672-2.609-3.187-2.854s-3.055.116-4.577.314c-.525.07-1.097.113-1.572-.154a3.109 3.109 0 0 1 -.61-.54 6.894 6.894 0 0 0 -8.028-1.123c-.562.315-1.414-.386-1.999-.65l-6.604-2.996c-7.595-3.436-15.227-6.887-23.261-9.062a4.885 4.885 0 0 1 -1.792-.745c-.4-.315-.685-.742-1.053-1.091-.802-.758-1.918-1.06-2.88-1.597-.962-.538-2.03-1.855-1.804-2.933z" fill="#4f4f52"/><path d="m291.382 218.706c-1.057 1.959-3.106 3.178-5.307 3.681a10.53 10.53 0 0 1 -1.678.24c-2.782.172-5.53-.598-8.21-1.359l-3.64-1.03a11.49 11.49 0 0 0 -1.918-.428 13.158 13.158 0 0 0 -2.653.091c-4.303.4-8.64.206-12.888-.578a2.273 2.273 0 0 1 -.997-.356 4.95 4.95 0 0 1 -.695-.851c-.99-1.192-2.055-1.887-.883-3.458.676-.912 1.93-1.368 2.455-2.414.525-1.047.189-2.534-.122-3.615-.425-1.493-1.82-2.138-2.32-3.508-.374-1.035.254-2.235 1.2-2.798.947-.563 2.116-.607 3.207-.462 1.09.145 2.16.453 3.256.537 3.226.258 6.523-1.405 9.62-.468.681.208 1.326.538 2.017.72a6.711 6.711 0 0 0 4.033-.349c.453-.17.896-.374 1.336-.575a10.76 10.76 0 0 1 2.688-.972c3.02-.518 5.822 1.572 8.1 3.612.783.65 1.475 1.4 2.06 2.232.628.98.961 2.122 1.257 3.247.833 2.914 1.521 6.19.082 8.861z" fill="#4c4c4c"/><path d="m291.382 218.706c-1.057 1.959-3.106 3.178-5.307 3.681a10.276 10.276 0 0 0 1.116-5.394c-.188-2.99-1.502-5.806-3.178-8.289a29.36 29.36 0 0 0 -3.501-4.265c-1-1.006-2.23-1.805-3.304-2.726a10.76 10.76 0 0 1 2.687-.971c3.021-.519 5.822 1.572 8.101 3.612.782.649 1.475 1.4 2.059 2.231.629.981.962 2.122 1.257 3.248.82 2.926 1.51 6.202.07 8.873z" fill="#3b3b3b" opacity=".463"/><path d="m196.44 66.169c-1.055.764-1.778 1.86-2.514 2.914-1.355 1.946-2.889 3.888-5.054 4.973-.82.412-1.758.723-2.301 1.44a3.879 3.879 0 0 0 -.613 1.612 31.953 31.953 0 0 0 -.648 6.161c0 1.031.044 2.094.5 3.03.43.88 1.207 1.626 1.367 2.584.123.748-.154 1.493-.251 2.245-.098.751.072 1.64.767 1.999.374.14.765.233 1.163.273 2.09.466 2.791 2.917 3.109 4.945.71-.04 1.03-.855 1.178-1.518l2.179-9.685c.236-1.05.628-2.267 1.675-2.634.701-.242 1.468-.016 2.2.047 2.877.236 5.31-1.987 8.123-2.6.9-.18 1.822-.24 2.738-.179 2.22.11 4.8 1.022 5.272 3.093.078.337.125.739.44.905.314.167.628.026.974 0 1.408-.141 2.238 1.443 2.644 2.738l1.477 4.716c.22.713.591 1.552 1.364 1.644.714.088 1.32-.588 1.428-1.258.106-.67-.126-1.364-.28-2.037-.695-3.096.368-6.265 1.015-9.367.648-3.103.764-6.667-1.408-9.056-.79-.865-1.826-1.51-2.562-2.42-.685-.856-1.072-1.906-1.782-2.745-1.965-2.317-7.004-4.105-10.094-4.4-3.517-.387-9.25.508-12.105 2.58z" fill="#4c4c4c"/><path d="m222.242 92.668c-.774-.094-1.145-.943-1.365-1.644-.492-1.574-.985-3.146-1.477-4.715-.406-1.298-1.235-2.883-2.644-2.738-.314.034-.685.163-.974 0-.29-.164-.362-.57-.44-.905-.472-2.075-3.052-2.984-5.272-3.094-.916-.06-1.837 0-2.738.18-2.829.628-5.246 2.829-8.122 2.6-.742-.06-1.509-.287-2.2-.045-1.06.365-1.44 1.572-1.676 2.634l-2.178 9.682c-.148.666-.469 1.48-1.18 1.518-.314-2.024-1.018-4.476-3.108-4.941a4.941 4.941 0 0 1 -1.163-.274 1.364 1.364 0 0 1 -.607-.675c-.056.292-.122.584-.16.877-.094.748.072 1.64.767 1.999.374.14.765.233 1.163.273 2.09.466 2.791 2.917 3.109 4.945.71-.041 1.03-.855 1.179-1.518l2.178-9.685c.236-1.05.629-2.267 1.675-2.634.701-.242 1.468-.016 2.2.047 2.877.235 5.31-1.987 8.123-2.6.897-.18 1.813-.24 2.726-.18 2.219.111 4.8 1.023 5.271 3.094.079.336.126.739.44.905.315.167.629.026.975 0 1.408-.141 2.238 1.443 2.643 2.738.49 1.574.983 3.146 1.478 4.715.22.714.59 1.553 1.364 1.644.714.088 1.32-.587 1.427-1.257a4.269 4.269 0 0 0 -.188-1.67c-.229.464-.71.748-1.226.724zm-35.062-5.985c-.16-.959-.943-1.704-1.367-2.584a5.17 5.17 0 0 1 -.466-1.886c0 .352-.031.704-.034 1.06 0 1.03.044 2.093.5 3.03.348.713.924 1.342 1.213 2.068.152-.549.205-1.12.154-1.688zm37.224-6.69c-.572 2.742-1.465 5.533-1.188 8.28.18-2.027.77-4.067 1.188-6.079.349-1.527.472-3.096.365-4.659-.068.827-.19 1.648-.365 2.459z" fill="#000" opacity=".1"/><path d="m188.419 150.46c-.38 6.243-4.96 11.4-6.705 17.405-.434 1.502-.695 3.062-1.317 4.492-1.258 2.876-3.845 4.963-6.601 6.434a9.914 9.914 0 0 1 -3.25 1.182 6.23 6.23 0 0 1 -6.26-3.329c-.719-1.461-.82-3.143-1.257-4.715-.487-1.813-1.398-3.486-1.992-5.268-1.094-3.279-1.072-6.868-.315-10.238a31.434 31.434 0 0 1 3.373-8.35c.22-.386.443-.77.673-1.15.648-1.1 1.376-2.15 2.178-3.143 1.886-2.273 4.31-4.02 6.708-5.743.183-.151.398-.258.629-.314h.038c.27-.01.538.053.776.182a61.473 61.473 0 0 1 9.54 5.168c1.082.72 2.789 1.524 3.354 2.75.566 1.226.51 3.304.428 4.637z" fill="#ffddca"/><path d="m175.94 121.732c-.307.32-.544.7-.698 1.116a52.765 52.765 0 0 0 -4.433 18.112 1.81 1.81 0 0 1 -.204.877c-.139.18-.293.348-.462.5a1.735 1.735 0 0 0 .296 2.515c.518-.978 1.76-1.295 2.863-1.38 5.284-.418 10.446 2.04 15.746 1.855-.375-1.292-.912-2.534-1.217-3.842-1.348-5.806 2.015-12.127-.047-17.72-.412-1.118-1.1-2.218-2.185-2.709a5.818 5.818 0 0 0 -1.399-.37c-1.339-.243-4.004-1.277-5.3-.862-.477.154-.666.604-1.062.874-.588.386-1.386.522-1.899 1.034z" fill="#fcce01"/><path d="m178.105 173.708a9.27 9.27 0 0 1 -7.858 4.562 6.193 6.193 0 0 1 -2.515-.463c-2.009-.886-3.143-3.08-3.565-5.236-.42-2.157-.289-4.382-.587-6.56-.24-1.736-.749-3.42-1.013-5.153-.647-4.284.63-8.515 1.538-12.781.22-.387.443-.77.672-1.15.649-1.1 1.377-2.15 2.179-3.144 1.886-2.273 4.31-4.02 6.708-5.743h-2.515a.43.43 0 0 1 .682.299c.248 2.2 3.35 4.4 4.027 6.538.418 1.314.92 2.603 1.257 3.942.265 1.14.467 2.295.604 3.458.446 3.254.89 6.502 1.332 9.744.557 3.958 1.035 8.236-.946 11.687z" fill="#000" opacity=".1"/><path d="m173.943 132.435 3.034-9.515c.452-1.424.911-2.87.965-4.366.053-1.496-.34-3.065-1.386-4.134-.85-.864-2.025-1.31-3.03-1.986-2.515-1.695-3.773-4.662-5.084-7.394-1.31-2.731-3.036-5.589-5.897-6.6-.66-.233-1.571-.252-1.867.38a1.336 1.336 0 0 0 -.047.823c.277 1.452 1.317 2.612 2.222 3.772 1.519 1.965 2.789 4.37 2.424 6.828-.434 2.91-3.05 5.168-3.363 8.094-.139 1.289.191 2.58.188 3.88 0 .804-.132 1.624.047 2.41.186.608.408 1.204.664 1.786.28.94.426 1.914.433 2.895l.664 12.372c.358 6.692-3.273 13.203-2.273 19.804.264 1.732.773 3.417 1.012 5.152.314 2.178.167 4.4.588 6.56s1.572 4.35 3.565 5.237a6.193 6.193 0 0 0 2.514.462 9.27 9.27 0 0 0 7.859-4.561c1.98-3.458 1.502-7.73.962-11.672l-1.333-9.744a31.582 31.582 0 0 0 -.604-3.458c-.333-1.339-.836-2.628-1.257-3.942-1.349-4.297-2.358-8.814-1-13.083z" fill="#ffddca"/><rect fill="#3f3d56" height="44.637" rx="7.97" width="70.098" x="187.099" y="133.174"/><rect fill="#424141" height="44.637" rx="7.97" width="70.098" x="187.099" y="133.174"/><circle cx="221.991" cy="155.492" fill="#fff" r="1.886"/><path d="m139.278 192.063h3.806a7.859 7.859 0 0 1 7.859 7.858v11.666h-19.524v-11.667a7.859 7.859 0 0 1 7.859-7.858z" fill="#3f3d56"/><path d="m139.278 192.063h3.806a7.859 7.859 0 0 1 7.859 7.858v11.666h-19.524v-11.667a7.859 7.859 0 0 1 7.859-7.858z" fill="#3b3b3b"/><g fill="#4c4c4c"><circle cx="140.403" cy="194.798" r="1.562"/><circle cx="140.403" cy="192.846" r="1.562"/><circle cx="140.403" cy="190.894" r="1.562"/><circle cx="140.403" cy="188.941" r="1.562"/><circle cx="140.403" cy="186.989" r="1.562"/><circle cx="140.403" cy="185.037" r="1.562"/><circle cx="140.403" cy="183.085" r="1.562"/><circle cx="142.745" cy="183.865" r="1.562"/><circle cx="144.307" cy="183.085" r="1.562"/><circle cx="145.87" cy="182.303" r="1.562"/><circle cx="140.403" cy="181.13" r="1.562"/><circle cx="140.403" cy="179.178" r="1.562"/><circle cx="140.403" cy="177.226" r="1.562"/><circle cx="140.403" cy="175.274" r="1.562"/></g><path d="m146.875 170.235c-.386.057-.776.097-1.166.123a8.978 8.978 0 0 0 1.006-1.031 6.67 6.67 0 0 0 -.943-1.833 3.213 3.213 0 0 1 -1.257.396c-.387.057-.777.1-1.166.126a21.504 21.504 0 0 0 1.493-1.572 6.633 6.633 0 1 0 2.096 3.778zm5.222 7.761a3.09 3.09 0 0 1 -1.314.44c-.387.057-.777.098-1.166.123.414-.372.8-.773 1.156-1.201a3.91 3.91 0 1 0 1.324.629v.01z" fill="#38b2a6"/><circle cx="138.058" cy="183.865" fill="#4c4c4c" r="1.562"/><circle cx="136.496" cy="183.085" fill="#4c4c4c" r="1.562"/><circle cx="134.934" cy="182.303" fill="#4c4c4c" r="1.562"/><path d="m128.706 177.996c.4.245.849.395 1.314.44.387.057.777.098 1.167.123-.415-.371-.802-.772-1.157-1.201a3.91 3.91 0 1 1 -1.324.629v.01z" fill="#38b2a6"/><path d="m139.278 193.235h3.806a7.859 7.859 0 0 1 7.859 7.859v10.332c0 .736-.597 1.333-1.333 1.333h-16.858a1.333 1.333 0 0 1 -1.333-1.333v-10.332a7.859 7.859 0 0 1 7.859-7.859z" fill="#4c4c4c"/><path d="m146.995 170.662a5.92 5.92 0 0 1 -.503.478c.18 0 .355-.028.535-.047a6.453 6.453 0 0 0 -.032-.43zm-2.848-1.867c.393-.025.78-.066 1.17-.122.35-.045.691-.138 1.015-.277a6.89 6.89 0 0 0 -.547-.902 2.364 2.364 0 0 1 -.629.267 9.05 9.05 0 0 1 -1.009 1.034zm-9.603 3.354a6.626 6.626 0 0 1 10.216-5.583l.1-.106a6.633 6.633 0 1 0 -8.744 9.974 6.601 6.601 0 0 1 -1.572-4.285z" fill="#2b948a"/><path d="m149.616 179.338c.39-.025.78-.066 1.166-.123a3.05 3.05 0 0 0 1.314-.44 3.907 3.907 0 0 1 1.572 2.766 3.892 3.892 0 0 0 -1.55-3.555 3.09 3.09 0 0 1 -1.314.44l-.314.038c-.269.313-.56.606-.874.874zm.157-1.333c.13.002.26.011.39.028.204-.217.405-.45.61-.676a3.898 3.898 0 0 0 -4.904 3.773c0 .132 0 .26.019.39a3.904 3.904 0 0 1 3.885-3.515z" fill="#2b948a"/><path d="m131.186 179.338c-.39-.025-.78-.066-1.166-.123a3.033 3.033 0 0 1 -1.314-.44 3.907 3.907 0 0 0 -1.571 2.766 3.892 3.892 0 0 1 1.55-3.555c.398.245.848.395 1.313.44l.315.038c.266.315.558.607.873.874zm-.157-1.333c-.131.002-.262.011-.393.028-.2-.217-.402-.45-.606-.676a3.898 3.898 0 0 1 4.903 3.773c0 .132 0 .26-.018.39a3.904 3.904 0 0 0 -3.886-3.515z" fill="#2b948a"/><path d="m88.12 93.793c19.302 1.705 40.573 8.007 62.957 16.87 2.435-27.834 9.196-53.923 20.902-78.01l-62.955-16.87a227.62 227.62 0 0 0 -20.903 78.01z" fill="#e7e7e7"/><path d="m86.266 89.396c19.3 1.704 40.572 8.006 62.956 16.869 2.435-27.833 9.195-53.922 20.902-78.01l-62.956-16.869a227.62 227.62 0 0 0 -20.902 78.01z" fill="#fff" stroke="#e5e5e5"/><path d="m147.12 25.021-21.899-5.868 1.926-7.185 21.9 5.868z" fill="#3b3b3b"/><path d="m112.09 34.586 38.817 10.4-1.409 5.257-38.817-10.4zm-2.925 10.918 38.816 10.4-1.408 5.257-38.817-10.4z" fill="#38b2a6"/><path d="m84.905 97.256c17.229-3.024 37.25-2.498 58.84 0-4.38-24.84-4.58-49.17 0-72.91h-58.84a205.49 205.49 0 0 0 0 72.91z" fill="#e7e7e7"/><path d="m82.26 93.854c17.228-3.023 37.25-2.498 58.84 0-4.38-24.84-4.58-49.17 0-72.91h-58.84a205.49 205.49 0 0 0 0 72.91z" fill="#fff" stroke="#e5e5e5"/><path d="m120.283 23.5h-20.467v-6.715h20.467z" fill="#3b3b3b"/><path d="m91.972 40.025h36.279v4.913h-36.279zm0 10.204h36.279v4.913h-36.279z" fill="#38b2a6"/></g></svg>