<svg xmlns="http://www.w3.org/2000/svg" viewBox="0 0 204 200"><g fill="#E7E7E7" fill-rule="nonzero"><path d="M120.321484,199.986719 L105.868359,199.986719 C83.9283203,195.986719 61.5617188,192.1 38.6548828,188.133203 L37.4947266,187.953516 L22.9349609,185.426758 L21.9816406,185.259961 C14.7181305,184.002881 7.45588723,182.738493 0.194921875,181.466797 L0.194921875,18.6533203 C7.98164062,17.2666016 15.6617187,15.9267578 23.8015625,14.5 L26.8882812,13.9599609 L41.3283203,11.4333984 C60.5615234,8.1 83.3283203,4.14003906 106.468164,0.0134765625 L120.281641,0.0134765625 L120.281641,18.6066406 L150.281641,18.6066406 C156.868164,18.5599609 162.948242,18.5333984 168.281641,18.5333984 C178.074805,18.5333984 186.381641,18.6 194.414844,18.7466797 C194.737746,18.7045162 195.062708,18.6800006 195.388281,18.6732422 C197.51855,18.6716054 199.564713,19.5044713 201.088281,20.9933594 C202.81674,22.7148285 203.670138,25.1279508 203.408203,27.5533203 C203.601562,51.4732422 203.601562,75.6466797 203.548242,104.586523 L203.548242,127.25332 C203.548242,139.7 203.548242,152.586719 203.62832,165.133398 L203.62832,166 C203.62832,166.433398 203.62832,166.866602 203.574805,167.333398 L203.574805,168.093164 C203.934209,171.933901 203.179719,175.796875 201.401562,179.220117 C198.429293,180.976033 194.979201,181.750481 191.541602,181.433398 L120.38125,181.433398 L120.38125,199.986719 L120.321484,199.986719 Z M120.321484,25.5533203 L120.321484,174.5 L196.521484,174.5 L196.521484,25.5533203 L120.321484,25.5533203 Z M36.0748047,61.9867187 C35.8947227,85.2708107 35.8947227,108.555947 36.0748047,131.840039 L49.0816406,132.926758 L49.0816406,107.373047 L49.8214844,107.373047 C51.0214844,107.413086 52.4882813,107.466406 53.9214844,107.466406 C57.7299037,107.649026 61.5261855,106.910365 64.9882813,105.313086 C71.1891487,102.027084 75.5441748,96.0828385 76.8082031,89.1798828 C78.7007179,81.1551232 76.9191896,72.7044087 71.9482422,66.1265625 C67.4645473,62.3550309 61.6848939,60.4842443 55.8416016,60.9130859 C52.8349609,60.9130859 49.8015625,61.1865234 46.8548828,61.4462891 L46.7882813,61.4462891 C43.7949219,61.7130859 40.7082031,61.9865234 37.8015625,61.9865234 C37.2283203,61.9865234 36.6414063,61.9865234 36.0548828,61.9533203 L36.0748047,61.9867187 Z" transform="translate(-.195)"/><path d="M128.381641,103.5 L188.434961,103.5 L188.434961,112.833398 L128.381641,112.833398 L128.381641,103.5 Z M128.381641,119.5 L188.434961,119.5 L188.434961,128.833398 L128.381641,128.833398 L128.381641,119.5 Z M128.381641,135.5 L188.434961,135.5 L188.434961,144.833398 L128.381641,144.833398 L128.381641,135.5 Z M128.434961,151.5 L188.434961,151.5 L188.434961,160.833398 L128.434961,160.833398 L128.434961,151.5 Z M48.9816406,73.7666016 C53.2414063,73.5666016 58.5283203,72.7732422 61.4015625,76.8066406 C63.768435,81.25764 63.877345,86.568998 61.6949219,91.1132812 C59.228125,95.5199219 53.6480469,95.1666016 49.3214844,95.6732422 C48.8748047,88.3800781 48.9148438,81.0800781 48.9882813,73.7599609 L48.9816406,73.7666016 Z M176.088281,74.1865234 C172.567767,73.9458841 169.211894,72.6049833 166.494922,70.3533203 C161.223477,71.5162352 156.063843,73.1379744 151.075,75.2 C147.041602,82.2332031 143.294922,85.8267578 140.048242,85.8267578 C139.361496,85.8532529 138.682146,85.6769793 138.094922,85.3199219 C136.730979,84.7095899 135.853496,83.3542308 135.854881,81.8599609 C135.854881,80.7134766 136.121484,77.4533203 148.42832,72.2732422 C151.223017,67.2138901 153.526825,61.8985512 155.308203,56.4 C153.741602,53.3333984 150.374805,45.8 152.708203,41.9599609 C153.51945,40.5467186 155.087443,39.7444235 156.708203,39.9132813 C158.028842,39.9247335 159.273574,40.5323837 160.094922,41.5666016 C161.774805,43.7732422 161.641602,48.7333984 159.42832,55.8933594 C161.523188,59.746597 164.260186,63.214131 167.521484,66.1466797 C170.208722,65.6032461 172.940327,65.3086408 175.681641,65.2666016 C181.781641,65.4 182.694922,68.2 182.561523,69.8732422 C182.561523,74.2800781 178.281641,74.2800781 176.081641,74.2800781 L176.088281,74.1865234 Z M139.348047,82.4066406 L139.794922,82.2933594 C141.69866,81.7523736 143.369935,80.5967581 144.548242,79.0066406 C142.527021,79.6267835 140.722146,80.8053888 139.341602,82.4066406 L139.348047,82.4066406 Z M157.888281,43.3 L157.461523,43.3 C157.265229,43.2809581 157.068188,43.3278988 156.901563,43.4333984 C156.420934,45.6678719 156.712396,47.9992974 157.72832,50.0466797 C158.540282,47.8797131 158.594325,45.5016147 157.881641,43.3 L157.888281,43.3 Z M157.12832,62.0132813 L157.12832,62.2535156 L156.994922,62.1199219 C155.921484,64.9199219 154.754883,67.6732422 153.408203,70.3867188 L153.634766,70.2533203 L153.634766,70.5400391 C156.249499,69.5579347 158.921,68.7341781 161.634766,68.0732422 L161.501563,67.9599609 L161.861523,67.9599609 C160.089002,66.1391353 158.501235,64.1471805 157.121484,62.0132813 L157.12832,62.0132813 Z M175.914844,68.8 C174.703062,68.7465647 173.489655,68.8587322 172.308203,69.1333984 C173.584131,69.8743 175.005776,70.3291893 176.474805,70.4666016 C177.405713,70.6135026 178.358993,70.5075977 179.234961,70.1599609 C179.148242,69.6533203 178.568164,68.8267578 175.82832,68.8267578 L175.914844,68.8 Z" transform="translate(-.195)"/></g></svg>