<svg viewBox="0 0 14 17" xmlns="http://www.w3.org/2000/svg"><path d="M60.9729722,233.189176 C61.7837802,233.189176 62.5675581,233.5135 63.1081088,234.081067 C63.7026924,234.621618 64,235.378364 64,236.189176 C64,236.972968 63.6756759,237.729713 63.1081088,238.29728 C62.5675581,238.89188 61.8108125,239.189176 61.0000023,239.189176 C60.1891921,239.189176 59.4324306,238.864848 58.8648635,238.29728 C58.270264,237.756746 57.9729722,236.999984 57.9729722,236.189176 C57.9729722,235.405396 58.2972963,234.621618 58.8648635,234.081067 C59.4053983,233.486484 60.1621598,233.189176 60.9729722,233.189176 Z M59.0540578,223 C59.4594629,223 59.8108034,223.162162 60.0810788,223.405405 L60.0810788,223.405405 L62.7297201,226.108111 C62.9729632,226.351354 63.1621575,226.83784 63.1891898,227.135132 L63.1891898,227.135132 L63.1891898,233.189176 C62.5135094,232.648641 61.9729745,232.324317 61.0270187,232.324317 C58.8378312,232.324317 57.0540487,234.1081 57.0540487,236.216206 C57.0540487,237.216211 57.4594538,237.864859 58.0540533,238.513507 L58.0540533,238.513507 L51.2162153,238.513507 C50.5405507,238.513507 50,237.972956 50,237.297292 L50,237.297292 L50,224.216215 C50,223.540535 50.5405507,223 51.1891988,223 L51.1891988,223 Z M61.1621643,234.513505 C61.054051,234.324311 60.7837757,234.324311 60.6756782,234.513505 L60.6756782,234.513505 L60.2972895,235.270266 C60.2432408,235.324315 60.1621598,235.405396 60.0810788,235.405396 L60.0810788,235.405396 L59.2432363,235.540526 C58.9999932,235.567558 58.9189122,235.837833 59.0810742,235.999995 L59.0810742,235.999995 L59.7027059,236.594579 C59.7567547,236.648644 59.8108034,236.756741 59.783787,236.837822 L59.783787,236.837822 L59.6486414,237.675665 C59.6216249,237.918908 59.864868,238.08107 60.0540465,237.972956 L60.0540465,237.972956 L60.8108079,237.567551 C60.891889,237.513503 60.97297,237.513503 61.054051,237.567551 L61.054051,237.567551 L61.7837802,237.972956 C61.999991,238.054037 62.2162176,237.891875 62.1891853,237.675665 L62.1891853,237.675665 L62.0540555,236.837822 C62.0540555,236.756741 62.081072,236.648644 62.1351365,236.594579 L62.1351365,236.594579 L62.7567524,236.027012 C62.8918822,235.86485 62.8108012,235.59459 62.5945904,235.567558 L62.5945904,235.567558 L61.7567479,235.432428 C61.6756669,235.405396 61.5945859,235.351347 61.5405371,235.270266 L61.5405371,235.270266 Z M56.1891898,231.945944 L52.945949,231.945944 C52.5945926,231.945944 52.3243331,232.216204 52.3243331,232.56756 C52.3243331,232.918917 52.5945926,233.189176 52.945949,233.189176 L52.945949,233.189176 L56.1621575,233.189176 C56.5135139,233.189176 56.8108057,232.918917 56.8108057,232.56756 C56.8108057,232.216204 56.5405462,231.945944 56.1891898,231.945944 L56.1891898,231.945944 Z M60.2432408,229.054044 L52.945949,229.054044 C52.5945926,229.054044 52.3243331,229.32432 52.3243331,229.675676 C52.3243331,230.027016 52.5945926,230.297292 52.945949,230.297292 L52.945949,230.297292 L60.2162085,230.297292 C60.5675649,230.297292 60.8648567,230.027016 60.8648567,229.675676 C60.8648567,229.32432 60.5945972,229.054044 60.2432408,229.054044 L60.2432408,229.054044 Z M60.2432408,226.29729 L52.945949,226.29729 C52.5945926,226.29729 52.3243331,226.567565 52.3243331,226.918921 C52.3243331,227.270262 52.5945926,227.540537 52.945949,227.540537 L52.945949,227.540537 L60.2162085,227.540537 C60.5675649,227.540537 60.8378402,227.270262 60.8648567,226.918921 C60.8648567,226.567565 60.5945972,226.29729 60.2432408,226.29729 L60.2432408,226.29729 Z" transform="translate(-50 -223)" fill-rule="nonzero"/></svg>