<svg viewBox="0 0 78 104" xmlns="http://www.w3.org/2000/svg"><g fill="none" fill-rule="evenodd"><path fill="#EDEDED" d="M1 79.8517853L12 70.3671932 12 34.6782133 1 44.6782133zM65 34.6782133L75 44.6782133 75 81.6525311 65 71.067398z"/><path d="M12,34.6782133 L21.514335,34.6782133 C24.2757587,34.6782133 26.514335,36.9167896 26.514335,39.6782133 L26.514335,44.5373493 L50.1902808,44.5373493 L50.1902808,39.6782133 C50.1902808,36.9167896 52.428857,34.6782133 55.1902808,34.6782133 L65,34.6782133 L65,71.6782133 C65,74.4396371 62.7614237,76.6782133 60,76.6782133 L17,76.6782133 C14.2385763,76.6782133 12,74.4396371 12,71.6782133 L12,34.6782133 Z M13,35.6782133 L13,71.6782133 C13,73.8873523 14.790861,75.6782133 17,75.6782133 L60,75.6782133 C62.209139,75.6782133 64,73.8873523 64,71.6782133 L64,35.6782133 L55.1902808,35.6782133 C52.9811418,35.6782133 51.1902808,37.4690743 51.1902808,39.6782133 L51.1902808,45.5373493 L25.514335,45.5373493 L25.514335,39.6782133 C25.514335,37.4690743 23.723474,35.6782133 21.514335,35.6782133 L13,35.6782133 Z" fill="#E7E7E7" fill-rule="nonzero"/><path d="M13,35.6782133 L13,71.6782133 C13,73.8873523 14.790861,75.6782133 17,75.6782133 L60,75.6782133 C62.209139,75.6782133 64,73.8873523 64,71.6782133 L64,35.6782133 L55.1902808,35.6782133 C52.9811418,35.6782133 51.1902808,37.4690743 51.1902808,39.6782133 L51.1902808,45.5373493 L25.514335,45.5373493 L25.514335,39.6782133 C25.514335,37.4690743 23.723474,35.6782133 21.514335,35.6782133 L13,35.6782133 Z" fill="#F8F8F6" fill-rule="nonzero"/><path d="M1,79.8517853 L1,44.6782133 L12,34.6782133 L21.514335,34.6782133 C24.2757587,34.6782133 26.514335,36.9167896 26.514335,39.6782133 L26.514335,44.5373493 L50.1902808,44.5373493 L50.1902808,39.6782133 C50.1902808,36.9167896 52.428857,34.6782133 55.1902808,34.6782133 L65,34.6782133 L75,44.6782133 L75,81.6525311 L75,81.6782133 C75,84.4396371 72.7614237,86.6782133 70,86.6782133 L6,86.6782133 C3.23857625,86.6782133 1,84.4396371 1,81.6782133 L1,79.8517853 Z M2,45.1205832 L2,81.6782133 C2,83.8873523 3.790861,85.6782133 6,85.6782133 L70,85.6782133 C72.209139,85.6782133 74,83.8873523 74,81.6782133 L74,45.0924269 L64.5857864,35.6782133 L55.1902808,35.6782133 C52.9811418,35.6782133 51.1902808,37.4690743 51.1902808,39.6782133 L51.1902808,45.5373493 L25.514335,45.5373493 L25.514335,39.6782133 C25.514335,37.4690743 23.723474,35.6782133 21.514335,35.6782133 L12.3866069,35.6782133 L2,45.1205832 Z" fill="#E7E7E7" fill-rule="nonzero"/><path d="M1,44.6782133 L16.2652979,44.6782133 C19.0267217,44.6782133 21.2652979,46.9167896 21.2652979,49.6782133 L21.2652979,54.5373493 L54.3222788,54.5373493 L54.3222788,49.6782133 C54.3222788,46.9167896 56.5608551,44.6782133 59.3222788,44.6782133 L75,44.6782133 L75,81.6782133 C75,84.4396371 72.7614237,86.6782133 70,86.6782133 L6,86.6782133 C3.23857625,86.6782133 1,84.4396371 1,81.6782133 L1,44.6782133 Z M2,45.6782133 L2,81.6782133 C2,83.8873523 3.790861,85.6782133 6,85.6782133 L70,85.6782133 C72.209139,85.6782133 74,83.8873523 74,81.6782133 L74,45.6782133 L59.3222788,45.6782133 C57.1131398,45.6782133 55.3222788,47.4690743 55.3222788,49.6782133 L55.3222788,55.5373493 L20.2652979,55.5373493 L20.2652979,49.6782133 C20.2652979,47.4690743 18.4744369,45.6782133 16.2652979,45.6782133 L2,45.6782133 Z" fill="#E7E7E7" fill-rule="nonzero"/><path d="M2,45.6782133 L2,81.6782133 C2,83.8873523 3.790861,85.6782133 6,85.6782133 L70,85.6782133 C72.209139,85.6782133 74,83.8873523 74,81.6782133 L74,45.6782133 L59.3222788,45.6782133 C57.1131398,45.6782133 55.3222788,47.4690743 55.3222788,49.6782133 L55.3222788,55.5373493 L20.2652979,55.5373493 L20.2652979,49.6782133 C20.2652979,47.4690743 18.4744369,45.6782133 16.2652979,45.6782133 L2,45.6782133 Z" fill="#F9F9F9" fill-rule="nonzero"/><path d="M76.9510907,14.6666512 L77.4406333,15.5386306 L58.7565333,26.0281732 L58.2669906,25.1561939 L76.9510907,14.6666512 Z M1.1083314,7.68778752 L13.0987591,24.0782114 L12.2916686,24.6686391 L0.30124088,8.27821524 L1.1083314,7.68778752 Z M57.6299382,6.70261413 L58.5649696,7.05717886 L52.1431914,23.9922103 L51.2081599,23.6376456 L57.6299382,6.70261413 Z M23.9270836,0.778575879 L29.0269102,17.0052969 L28.0729164,17.3051235 L22.9730898,1.07840248 L23.9270836,0.778575879 Z" fill="#E7E7E7" fill-rule="nonzero"/><ellipse fill="#F8F8F6" cx="39.5" cy="101.678213" rx="29.5" ry="2"/></g></svg>