<svg xmlns="http://www.w3.org/2000/svg" viewBox="0 0 17 16"><path d="m12.1224166 8.52217114.0830975.06942654 3.9774756 3.97747562c.2343146.2343146.2343146.6142136 0 .8485282-.2082796.2082796-.5315889.2314218-.7654307.0694265l-.0830974-.0694265-.3284616-.3286015.00025 2.210819c0 .2982338-.2175896.5456468-.5026769.592147l-.0973231.007853h-1.8793863c-.3313709 0-.6-.2686291-.6-.6v-1.1759109h-.5299887v1.1759109c0 .3313709-.2686292.6-.6.6h-1.8731413c-.33137085 0-.6-.2686291-.6-.6l-.0007337-1.977819-.09496158.0956015c-.23431457.2343145-.61421356.2343145-.84852813 0-.20827963-.2082797-.23142181-.5315889-.06942654-.7654307l.06942654-.0830975 3.97747561-3.97747562c.2082797-.20827962.5315889-.2314218.7654307-.06942654zm-4.5599166-8.12217114c2.40243866 0 4.35 1.94756134 4.35 4.35s-1.94756134 4.35-4.35 4.35c-3.29299782 0-5.9625 2.6695022-5.9625 5.9625 0 .3313708-.26862915.6-.6.6s-.6-.2686292-.6-.6c0-3.0901412 1.95689623-5.72322478 4.69904604-6.72760811-1.13928035-.78314195-1.88654604-2.09675029-1.88654604-3.58489189 0-2.40243866 1.94756134-4.35 4.35-4.35zm4.21875 9.46438989-2.25825 2.25761011.0007337 2.577819h.6731413v-1.1759109c0-.3313709.2686292-.6.6-.6h1.7299887c.3313708 0 .6.2686291.6.6v1.1759109h.6793863v-2.7905349c0-.0060864.0000906-.0121517.0002706-.0181945zm-4.21875-8.26438989c-1.73969696 0-3.15 1.41030304-3.15 3.15s1.41030304 3.15 3.15 3.15 3.15-1.41030304 3.15-3.15-1.41030304-3.15-3.15-3.15z" fill="#38b2a6"/></svg>