<svg width="134" height="117" xmlns="http://www.w3.org/2000/svg" xmlns:xlink="http://www.w3.org/1999/xlink"><defs><path id="a" d="M0 0H160V160H0z"/></defs><g transform="translate(-9 -23)" fill="none" fill-rule="evenodd"><mask id="b" fill="#fff"><use xlink:href="#a"/></mask><g mask="url(#b)"><path d="M18.6487414,38.5611511 C26.6350172,38.5611511 33.109173,31.4984357 33.109173,22.7861347 C33.109173,14.0738338 26.6350172,0 18.6487414,0 C10.6624655,0 4.18830972,14.0738338 4.18830972,22.7861347 C4.18830972,31.4984357 10.6624655,38.5611511 18.6487414,38.5611511 Z" fill="#8BD0C9" transform="translate(9 73.13)"/><path d="M18.6487414,13.4964029 C19.1811598,13.4964029 19.6127701,14.0848236 19.6127701,14.8106772 L19.6127701,58.4555098 C19.6127701,59.1813635 19.1811598,59.7697842 18.6487414,59.7697842 C18.116323,59.7697842 17.6847126,59.1813635 17.6847126,58.4555098 L17.6845687,22.6254029 L13.3152219,19.0127212 C12.8517055,18.6294311 12.7250701,17.8500468 13.0323738,17.2719175 C13.3396775,16.6937883 13.9645507,16.53584 14.4280671,16.9191301 L17.6845687,19.6124029 L17.6847126,14.8106772 C17.6847126,14.0848236 18.116323,13.4964029 18.6487414,13.4964029 Z" fill="#90B6B0" fill-rule="nonzero" transform="translate(9 73.13)"/><path d="M46.6055759,60.7338129 C43.0164701,47.2374101 37.930413,40.4892086 31.3474048,40.4892086 C21.4728925,40.4892086 25.0225002,52.8810683 20.7774505,53.9167631 C16.5324008,54.9524579 15.9389301,45.6652435 10.1321537,45.6652435 C4.3253772,45.6652435 0.332194609,53.2673939 0.332194609,60.7338129 C0.332194609,60.7338129 15.756655,60.7338129 46.6055759,60.7338129 Z" fill="#8BD0C9" transform="translate(9 73.13)"/><g><path fill="#D1CCB7" transform="matrix(-1 0 0 1 57.179 83.158)" d="M0.178511396 5.8415105L29.1785114 23.1892233 29.1785114 25.2502521 29.1785114 29.3827767 26.0713947 29.3827767 26.0713947 43.3800961 29.1785114 43.3800961 29.1785114 55.8415105 0.178511396 55.8415105z"/><path fill-opacity=".461" fill="#FFF" d="M7.179 27.842H23.179000000000002V43.842H7.179z" transform="translate(27.821 83.158)"/><path fill="#E6E3D8" d="M.179 29.342H3.279V43.442H.179zM108.979 29.842H112.179V43.942H108.979z" transform="translate(27.821 83.158)"/><path fill="#63656A" transform="matrix(-1 0 0 1 54.179 83.158)" d="M0.178511396 0.841510503L0.178511396 7.73356315 26.1785114 22.8415105 26.1785114 17.1257572z"/><g><path fill="#D1CCB7" transform="translate(109.204 86.016)" d="M0.796342365 4.98436765L30.7963424 21.6381719 30.7963424 23.6167596 30.7963424 27.5839832 27.5820837 27.5839832 27.5820837 41.0214098 30.7963424 41.0214098 30.7963424 52.9843676 0.796342365 52.9843676z"/><path fill-opacity=".461" fill="#FFF" d="M8.796 26.984H24.796V41.984H8.796z" transform="matrix(-1 0 0 1 140.796 86.016)"/><path fill="#63656A" transform="translate(112.204 86.016)" d="M0.796342365 0.984367646L0.796342365 7.56314518 27.7963424 21.9843676 27.7963424 16.5284213z"/></g><g><path d="M29.0001066 0.664459087L0.198211524 23.4465052 0.198211524 114.419855 59.0039669 114.419855 59.0039669 23.4465052z" transform="translate(50.967 25.228)" fill="#FFF"/><g transform="translate(66.103 105.681)"><path d="M25.9476904,31.9120554 L-8.39104965e-14,31.9120554 L-8.39104965e-14,12.4102438 C-8.39104965e-14,5.55625539 5.80858836,2.73993458e-14 12.9738452,2.73993458e-14 C20.1391021,2.73993458e-14 25.9476904,5.55625539 25.9476904,12.4102438 L25.9476904,31.9120554 Z" fill="#FCCD00"/><ellipse fill="#4C4C4C" cx="20.182" cy="18.857" rx="1.802" ry="1.813"/></g><path d="M32.6813503,0 L65.2295394,26.389 L65.2296107,36.2636993 L32.6670631,10.0537071 L0.36038459,35.609 L0.36038459,25.567 L32.6813503,0 Z" fill="#63656A" fill-rule="nonzero" transform="translate(47.724 23)"/><path d="M30.9923062 40.6150554L30.9923062 46.1160554 20.9023062 46.1161226 20.9023062 40.6150554 30.9923062 40.6150554zM43.3673062 40.6150554L43.367839 46.1161226 33.8753062 46.1160554 33.8753062 40.6150554 43.3673062 40.6150554zM30.9923062 31.9120554L30.9923062 37.7140554 20.9023062 37.7140554 20.9023062 31.9120554 30.9923062 31.9120554zM43.367839 31.9120554L43.3673062 37.7140554 33.8753062 37.7140554 33.8753062 31.9120554 43.367839 31.9120554zM30.9923062 65.2743709L30.9923062 70.7753709 20.9023062 70.7754381 20.9023062 65.2743709 30.9923062 65.2743709zM43.3673062 65.2743709L43.367839 70.7754381 33.8753062 70.7753709 33.8753062 65.2743709 43.3673062 65.2743709zM30.9923062 56.5713709L30.9923062 62.3733709 20.9023062 62.3733709 20.9023062 56.5713709 30.9923062 56.5713709zM43.367839 56.5713709L43.3673062 62.3733709 33.8753062 62.3733709 33.8753062 56.5713709 43.367839 56.5713709z" fill="#FCCD00" transform="translate(47.724 23)"/></g></g><g transform="translate(119 36)"><path d="M24.0006311,12.0000853 C24.0006311,18.6275342 18.6276877,24.0000171 12.0000853,24.0000171 C5.37263637,24.0000171 0,18.6275342 0,12.0000853 C0,5.37263637 5.37263637,-6.37496286e-15 12.0000853,-6.37496286e-15 C18.6276877,-6.37496286e-15 24.0006311,5.37263637 24.0006311,12.0000853" fill="#F9A600"/><rect fill="#FFF" x="6" y="11" width="12" height="2" rx="1"/><rect fill="#FFF" x="11.143" y="6" width="2" height="12" rx="1"/></g><g transform="rotate(-28 203.246 -111.017)"><rect fill="#63656A" x="23.769" y="47.923" width="4.923" height="25.077" rx="2.462"/><g transform="translate(.91 .308)"><circle fill="#FFF" cx="24.09" cy="26.692" r="19.692"/><path fill="#EBE9E5" transform="rotate(28 22.5 31.266)" d="M45.057159 33.0331102L-0.0560615456 33.0524395 -0.056914764 29.5012248 43.0563057 29.4797478 43.057159 33.0331102"/><path fill="#EBE9E5" transform="rotate(28 20.492 39.303)" d="M41.0491806 41.0579489L-0.0631865275 41.0890065 -0.0648931304 37.5452305 35.0483273 37.5163148 35.0491806 41.0579489"/><path fill="#EBE9E5" transform="rotate(28 13.748 44.82)" d="M8.13742407 46.6072079L8.13656078 43.0452871 19.3581932 43.0345163 19.3590565 46.5975142z"/><path d="M24.0899131,5.69230769 C27.7738524,5.69230769 31.2362351,6.64090398 34.2461271,8.30716234 C34.5587227,10.9283716 34.1023811,13.667413 32.7695984,16.1740126 C29.2958437,22.707195 21.1836184,25.1873512 14.650436,21.7135965 C11.1969569,19.8773491 8.87599158,16.7450004 7.96831095,13.2349104 C11.8200773,8.62493664 17.6125191,5.69230769 24.0899131,5.69230769 Z" fill="#38B2A6"/><path d="M14.4925856,8.77053521 L20.4605426,3.3762864 C20.7285469,3.12180659 21.1301306,3.12180659 21.4129301,3.3762864 L24.373659,6.04990646 L24.373659,5.57258731 C24.373659,5.39766069 24.5076612,5.25437454 24.6712537,5.25437454 L25.4896391,5.25437454 C25.6528089,5.25437454 25.7872337,5.39766069 25.7872337,5.57258731 L25.7872337,7.33857776 L27.3800416,8.77053521 C27.6924315,9.05755951 27.7224446,9.55024689 27.4688128,9.86845966 C27.2008085,10.2024927 26.7396213,10.2350372 26.4420266,9.96383309 L26.3528327,9.8842799 L26.3528327,16.0898809 C26.3528327,16.3597289 26.1444319,16.5830202 25.8920682,16.5830202 L22.4841019,16.5830202 L22.4841019,10.8389182 L19.4189612,10.8389182 L19.4189612,16.5830202 L16.0109948,16.5830202 C15.7582085,16.5830202 15.5498076,16.3597289 15.5498076,16.0898809 L15.5498076,9.8842799 L15.4606138,9.96383309 C15.3266116,10.091751 15.1482239,10.1545799 14.9846314,10.1545799 C14.7762305,10.1545799 14.5678297,10.0592065 14.4190324,9.8842799 C14.1510281,9.53487866 14.1949909,9.04083526 14.4925856,8.77053521" fill="#FFF" transform="rotate(28 20.94 9.884)"/><path d="M24.0899131,2.69230769 C37.3447471,2.69230769 48.0899131,13.4374737 48.0899131,26.6923077 C48.0899131,39.9471417 37.3447471,50.6923077 24.0899131,50.6923077 C10.8350791,50.6923077 0.0899130698,39.9471417 0.0899130698,26.6923077 C0.0899130698,13.4374737 10.8350791,2.69230769 24.0899131,2.69230769 Z M24.0899131,7 C13.2141518,7 4.39760538,15.8165465 4.39760538,26.6923077 C4.39760538,37.5680689 13.2141518,46.3846154 24.0899131,46.3846154 C34.9656743,46.3846154 43.7822208,37.5680689 43.7822208,26.6923077 C43.7822208,15.8165465 34.9656743,7 24.0899131,7 Z" fill="#63656A"/></g></g></g></g></svg>