<svg xmlns="http://www.w3.org/2000/svg" viewBox="0 0 14 14">
    <path  d="M12.658 8.977h-2.78a15.864 15.864 0 0 0 0-3.955h2.78C12.876 5.643 13 6.306 13 7s-.124 1.357-.342 1.977zM8.71 12.748c.425-.688.767-1.627.994-2.725h2.472a6.022 6.022 0 0 1-3.466 2.726v-.001zm-6.884-2.725h2.472c.226 1.098.57 2.037.994 2.726a6.018 6.018 0 0 1-3.466-2.726zm-.483-5h2.781a15.86 15.86 0 0 0 0 3.954h-2.78A5.948 5.948 0 0 1 1 7c0-.692.124-1.356.342-1.976l.001-.001zm3.95-3.772c-.426.69-.769 1.629-.995 2.727H1.825A6.024 6.024 0 0 1 5.291 1.25l.002.001zm.038 2.727C5.761 2.096 6.515 1 7 1c.484 0 1.24 1.095 1.67 2.978H5.33h.001zM7 12.998c-.485 0-1.239-1.095-1.67-2.976h3.34c-.43 1.882-1.186 2.976-1.67 2.976zm2-6c0 .723-.06 1.372-.144 1.978H5.143A14.232 14.232 0 0 1 5 7c0-.72.06-1.37.143-1.976h3.713C8.94 5.63 9 6.279 9 7v-.002zm3.175-3.021H9.703c-.227-1.098-.569-2.037-.994-2.727a6.027 6.027 0 0 1 3.466 2.727zM7 0a7 7 0 1 0 0 14A7 7 0 0 0 7 0z"/>
</svg>
