<svg viewBox="0 0 247 204" xmlns="http://www.w3.org/2000/svg" xmlns:xlink="http://www.w3.org/1999/xlink"><defs><path d="M2,0 L245,0 C246.104569,-2.02906125e-16 247,0.8954305 247,2 L247,202 C247,203.104569 246.104569,204 245,204 L2,204 C0.8954305,204 1.3527075e-16,203.104569 0,202 L0,2 C-1.3527075e-16,0.8954305 0.8954305,2.02906125e-16 2,0 Z" id="a"/></defs><g fill="none" fill-rule="evenodd"><mask id="b" fill="#fff"><use xlink:href="#a"/></mask><g mask="url(#b)" fill="#F8F8F6" fill-rule="nonzero"><path d="M117.228119 51.382837C117.228119 51.382837-8.77192061 214.839275 155.265911 218.222222 155.265911 218.222222 316.21283 218.222222 159.272651 43.6409577 130.068766 41.0430431 117.228119 51.382837 117.228119 51.382837zM157.789203 130.722955C175.378314 136.861766 182.487892 144.903042 182.487892 158.071781 182.487892 171.077855 173.167452 182.186179 156.160273 185.116494L156.160273 200.020319 141.657306 200.020319 141.657306 186.137272C131.750165 185.698785 122.136375 183.067867 116.51263 179.857014L120.955818 162.746612C127.168649 166.105984 135.892848 169.177747 145.513793 169.177747 153.944641 169.177747 159.713869 165.962179 159.713869 160.115693 159.713869 154.559174 154.979716 151.046567 144.03273 147.390156 128.206108 142.128318 117.404606 134.820211 117.404606 120.640124 117.404606 107.770782 126.579563 97.687951 142.406185 94.6161881L142.406185 80.7189962 156.894842 80.7189962 156.894842 93.5883381C166.804368 94.029182 173.465573 96.0660223 178.345209 98.4140468L174.054659 114.937443C170.214867 113.329659 163.410564 109.963214 152.747389 109.963214 143.140754 109.963214 140.030761 114.055755 140.030761 118.15301 140.033146 122.971646 145.213288 126.043409 157.789203 130.722955zM156.657049 35.7995604C156.657049 35.7995604 167.595649 2.1216096 154.752816.698932523 143.938301-.497733854 127.394384-.255070008 110.506846 11.3380817 115.775701 18.0613008 121.691231 24.6536716 121.691231 24.6536716L107.335511 13.6552845C105.218902 15.2896976 103.104678 17.1001611 101 19.1271187L117.648912 43.2222222C117.646526 43.2198437 136.972818 32.9494484 156.657049 35.7995604z" transform="translate(-49 -.222)"/><path d="M63.8384447,147.609422 L30.7976345,147.609422 L30.7976345,137.571324 C37.3750279,134.849769 44.7003365,127.783647 44.7003365,119.366198 C44.7003365,117.632151 44.5819956,116.146163 44.3287456,114.414479 L32.1632898,114.414479 L32.1632898,101.650101 L42.0944673,101.650101 C41.4767272,98.5529139 41.1004029,94.9572478 41.1004029,91.6190899 C41.1004029,76.0032209 52.5203104,65.7265144 69.1472226,65.7265144 C75.9802325,65.7265144 81.0617956,67.2054151 83.7860057,68.6984907 L80.6831045,82.944132 C78.3304852,81.5809918 74.8536262,80.7116061 70.2690955,80.7116061 C61.4574238,80.7116061 58.72848,86.4145877 58.72848,92.3632652 C58.72848,95.5809373 59.0882368,98.5552761 59.8385188,101.652463 L76.8488558,101.652463 L76.8488558,102.054081 C82.5055561,89.0534569 89.1113514,77.0946781 95,67.4322116 C87.8711375,57.4579001 79.1044355,46.5338791 68.4371766,34.5514757 C45.7938076,32.5126717 35.8389618,40.6088263 35.8389618,40.6088263 C35.8389618,40.6088263 -61.4633843,168.080149 64.5863601,171.222222 C63.1260318,163.650534 62.9934899,155.691402 63.8384447,147.609422 Z" transform="translate(-49 -.222)"/><path d="M59.8498054 123.601711C58.7783289 126.55931 56.8610701 129.510151 54 131.99021L54 132.222222 65.7999195 132.222222C67.1791604 126.507501 68.9573555 120.80179 71 115.222222L60.9326807 115.222222C61.048947 118.173064 60.8141342 120.882882 59.8498054 123.601711zM66.6692651 28.5266557C66.6692651 28.5266557 75.0560796 2.67574908 65.2129283 1.58898723 56.9197688.668161085 44.234185.857468051 31.2887083 9.75489171 35.3322675 14.91292 39.8651745 19.9727893 39.8651745 19.9727893L28.8606999 11.5357787C27.2381252 12.788476 25.6155505 14.1767266 24 15.7309129L36.7651905 34.2222222C36.7651902 34.2222222 51.5814278 26.3437837 66.6692651 28.5266557zM242.719203 34.5514302C220.08278 32.5129078 210.12758 40.6079444 210.12758 40.6079444 210.12758 40.6079444 201.68684 51.6674609 193 67.3473133 198.324269 74.2990767 203.14214 81.035886 207.50804 87.5742758 208.783498 85.2971775 210.25063 83.1948773 211.897604 81.2957207 218.970599 73.3707575 228.890303 68.6606603 240.558734 68.6606603 248.123928 68.6606603 254.699991 70.3897431 259.17001 72.3786609L255.691488 86.4995043C252.470897 85.1389144 247.376164 83.5255762 241.921746 83.5255762 235.963298 83.5255762 230.506515 85.5026834 226.658843 90.2104184 224.921948 92.1969741 223.554203 95.0409848 222.685755 98.2558505L253.583078 98.2558505 253.583078 107.052442 219.162273 107.052442C219.808284 108.018555 221.961655 111.727107 222.548507 112.872743L253.583077 112.872743 253.583077 121.664609 226.770061 121.664609C227.619577 123.56849 228.431233 125.453474 229.174264 127.303026 230.120801 129.674609 230.960852 132.006037 231.739378 134.31148 234.95287 135.931905 238.675125 136.654718 242.539361 136.654718 248.246977 136.654718 254.077643 134.79808 256.685352 133.437491L259.666942 147.182755C255.443022 149.540165 248.249344 151.89049 240.307901 151.89049 238.878631 151.89049 237.465925 151.817263 236.067417 151.68026 237.110974 158.568245 237.212726 165.052306 236.410537 171.125355 237.465925 171.167874 238.530779 171.198582 239.616929 171.222222 239.616929 171.224565 364.384657 171.224565 242.719203 34.5514302zM240.669096 28.5266557C240.669096 28.5266557 249.056337 2.67574908 239.212685 1.58898723 230.923786.668161085 218.232873.857468051 205.291421 9.75489171 209.332844 14.91292 213.865982 19.9727893 213.865982 19.9727893L202.860947 11.5357787C201.23829 12.788476 199.613291 14.1767266 198 15.7309129L210.763499 34.2222222C210.761157 34.2222222 225.578149 26.3437837 240.669096 28.5266557z" transform="translate(-49 -.222)"/></g></g></svg>