<svg viewBox="0 0 57 61" xmlns="http://www.w3.org/2000/svg"><g fill-rule="nonzero" fill="none"><path d="M50.3412217,10.5186206 L47.0540405,10.5186206 C46.4545629,8.4874305 44.5723735,7.00077885 42.3495854,7.00077885 L21.5425134,7.00077885 C19.3197254,7.00077885 17.4378954,8.48767015 16.8381183,10.5188602 L13.5511168,10.5188602 C9.95982314,10.5185607 7.03822373,13.4404596 7.03822373,17.0314537 L7.03822373,53.8216785 C7.03822373,57.4129721 9.95982314,60.3345715 13.5511168,60.3345715 L50.3409821,60.3345715 C53.9322757,60.3345715 56.8538751,57.4129721 56.8538751,53.8216785 L56.8538751,17.0315136 C56.8538751,13.4404596 53.9322757,10.5186206 50.3412217,10.5186206 Z" fill="#E2F4F2"/><path d="M35.3495854,0.000778853528 C37.5723735,0.000778853528 39.4545629,1.4874305 40.0540405,3.51862059 L40.0540405,3.51862059 L43.3412217,3.51862059 C46.9322757,3.51862059 49.8538751,6.44045964 49.8538751,10.0315136 L49.8538751,10.0315136 L49.8538751,46.8216785 C49.8538751,50.4129721 46.9322757,53.3345715 43.3409821,53.3345715 L43.3409821,53.3345715 L6.55111676,53.3345715 C2.95982314,53.3345715 0.0382237347,50.4129721 0.0382237347,46.8216785 L0.0382237347,46.8216785 L0.0382237347,10.0314537 C0.0382237347,6.44045964 2.95982314,3.51856068 6.55111676,3.51886024 L6.55111676,3.51886024 L9.83811829,3.51886024 C10.4378954,1.48767015 12.3197254,0.000778853528 14.5425134,0.000778853528 L14.5425134,0.000778853528 Z M9.83811829,6.82497364 L6.55111676,6.82497364 C4.78305934,6.82497364 3.34457678,8.26369584 3.34457678,10.0315136 L3.34457678,10.0315136 L3.34457678,46.8216785 C3.34457678,48.5897359 4.78305934,50.0282185 6.55111676,50.0282185 L6.55111676,50.0282185 L43.3409821,50.0282185 C45.1090395,50.0282185 46.547522,48.5897359 46.547522,46.8216785 L46.547522,46.8216785 L46.547522,10.0315136 C46.547522,8.26345619 45.1090395,6.82497364 43.3409821,6.82497364 L43.3409821,6.82497364 L40.0540405,6.82497364 C39.4545629,8.8565232 37.5723735,10.3431149 35.3495854,10.3431149 L35.3495854,10.3431149 L14.5425134,10.3431149 C12.3197254,10.3431149 10.4375959,8.8565232 9.83811829,6.82497364 L9.83811829,6.82497364 Z M35.6118793,18.9695169 L37.9498778,21.3074554 L20.2043592,39.0527943 L11.9421611,30.7906562 L14.2802195,28.4527176 L20.2043592,34.3768573 L35.6118793,18.9695169 Z M35.3495854,3.3071319 L14.5425134,3.3071319 C13.6612706,3.3071319 12.9444857,4.02391679 12.9444857,4.90515961 L12.9444857,4.90515961 L12.9444857,5.43873418 C12.9444857,6.31997699 13.6615702,7.0368218 14.5425134,7.0368218 L14.5425134,7.0368218 L35.3495854,7.0368218 C36.2308282,7.0368218 36.9476131,6.31997699 36.9476131,5.43873418 L36.9476131,5.43873418 L36.9476131,4.90515961 C36.9476131,4.02391679 36.2308282,3.3071319 35.3495854,3.3071319 L35.3495854,3.3071319 Z" fill="#38B2A6"/></g></svg>