<svg viewBox="0 0 40 38" xmlns="http://www.w3.org/2000/svg"><g fill-rule="nonzero" fill="none"><path d="M14.281718,16.2777717 C13.931207,15.9574079 13.931207,15.4386758 14.281718,15.1182316 L25.0399524,5.28334433 C25.3894183,4.96382465 25.9583152,4.96382465 26.3087458,5.28334433 L35.1692367,13.3827602 C35.3374578,13.5359479 35.4315572,13.7452094 35.4315572,13.9625503 C35.4315572,14.180856 35.3374177,14.3891929 35.1692367,14.5433454 L33.2705285,16.2777717 C32.9200175,16.5982963 32.351201,16.5982963 32.0016949,16.2777717 C31.768021,16.0641958 26.2843065,16.0641824 15.5505516,16.2777315 C15.3762608,16.4380742 15.1459767,16.5181852 14.9165368,16.5181852 C14.6862527,16.5181852 14.4569735,16.4380742 14.281718,16.2777717 Z M10.7287749,16.4070025 C10.3001627,16.1796527 10.1548936,15.6769991 10.4031856,15.2864126 L16.6690513,5.43946644 C16.9164992,5.04996516 17.4622431,4.9158304 17.8908553,5.14004486 L23.1302706,7.88500389 C23.5608524,8.11026346 23.7090558,8.61203275 23.4627335,9.00450856 C23.2164111,9.39806966 13.4675996,17.3557033 13.1582094,17.3557033 C11.6326992,16.7733474 10.8228877,16.4571138 10.7287749,16.4070025 Z M35.4406415,37.8442848 L8.5226059,37.8442848 C6.04901148,37.8442848 4.03626664,36.0047052 4.03626664,33.7424625 L4.03626664,18.9786355 C4.03626664,16.717478 6.04901148,14.8778582 8.5226059,14.8778582 L35.4406415,14.8778582 C37.9140752,14.8778582 39.9269808,16.717478 39.9269808,18.9786355 L39.9269808,33.7424625 C39.9269808,36.0047454 37.9140751,37.8442848 35.4406415,37.8442848 L35.4406415,37.8442848 Z" fill="#E2F4F2"/><path d="M14.0741998,0.125706404 L18.625,2.50997267 L21.052469,0.291172302 C21.4592162,-0.080720169 22.1158262,-0.080720169 22.5236836,0.291161049 L31.3839646,8.39038538 C31.582715,8.57137405 31.6952905,8.8205969 31.6952905,9.08108137 C31.6952905,9.34194729 31.5831436,9.59021844 31.3841367,9.77262532 L31.303,9.84597267 L31.5543749,9.84638926 C34.107902,9.84638926 36.1907141,11.7501075 36.1907141,14.0971665 L36.1907141,28.8609935 C36.1907141,31.2089824 34.1081142,33.1128158 31.5543749,33.1128158 L4.63633926,33.1128158 C2.08250884,33.1128158 -9.59232693e-14,31.2090057 -9.59232693e-14,28.8609935 L-9.59232693e-14,14.0971665 C-9.59232693e-14,11.7500577 2.0827061,9.84638926 4.63633926,9.84638926 L6.694,9.84597267 L12.6561742,0.477562546 C12.9462789,0.0209162381 13.5777757,-0.133981654 14.0741998,0.125706404 Z M31.5543749,11.7866761 L4.63633926,11.7866761 C3.28823697,11.7866761 2.18598714,12.7448758 2.09996412,13.9458697 L2.09455982,14.0972067 L2.09455982,28.8610337 C2.09455982,30.0811563 3.14306652,31.0887694 4.4691844,31.1674263 L4.63633926,31.1723683 L31.5543749,31.1723683 C32.9021988,31.1723683 34.0047047,30.2135 34.0907487,29.0123832 L34.0961543,28.8610337 L34.0961543,14.0971665 C34.0961543,12.8263967 32.9585791,11.7866761 31.5543749,11.7866761 Z M28.8626356,18.0479437 C30.9214098,18.0479437 32.6015945,19.5841749 32.6015945,21.4795623 C32.6015945,23.3741828 30.9212436,24.9102163 28.8626356,24.9102163 C26.8038589,24.9102163 25.1234758,23.3742126 25.1234758,21.4795623 C25.1234758,19.5841574 26.8037193,18.0479437 28.8626356,18.0479437 Z M28.8626356,19.9882305 C27.9530679,19.9882305 27.2180356,20.6604153 27.2180356,21.4795624 C27.2180356,22.2978961 27.953194,22.9698893 28.8626356,22.9698893 C29.7719136,22.9698893 30.5070748,22.2978624 30.5070748,21.479569 C30.5070385,20.6604124 29.7720423,19.9882305 28.8626356,19.9882305 Z M13.9379523,2.28407328 L9.126,9.84597267 L10.6,9.84597267 L17.075,3.92697267 L13.9379523,2.28407328 Z M29.1570133,9.08113534 L21.7875456,2.34451909 L13.581,9.84597267 L28.32,9.84597267 L29.1570133,9.08113534 Z" fill="#38B2A6"/></g></svg>