<svg xmlns="http://www.w3.org/2000/svg" viewBox="0 0 30 31"><g fill="none" fill-rule="evenodd"><path d="M30,17.8025043 C29.9821551,18.1377348 29.4111187,25.8656801 16.9910776,31 C10.4420041,28.2828685 7.24776939,24.8423449 5.73095402,22.4251565 C4.16060398,19.9021059 4,17.9612977 4,17.820148 L4,4.60500854 C4,4.56972112 4.01784489,4.53443369 4.05353466,4.51678998 L16.8304736,0 L17.1695264,0 L29.9464653,4.51678998 C29.9821551,4.53443369 30,4.5520774 30,4.60500854 L30,17.8025043 Z" fill="#F8F8F6" fill-rule="nonzero"/><path d="M13.2251237,0 L12.5705209,0 L0.658168802,4.22662894 L0.604521542,4.25324766 C0.221285978,4.44340166 0,4.82769389 0,5.23007519 L0,17.3772794 C0.0297086617,18.4239136 0.557569752,20.2286984 1.73434238,22.1263461 C3.70738289,25.282143 7.18543904,28.1839488 12.5052405,30.3991834 L12.8889622,30.5589701 L13.2728884,30.3996755 C18.4442844,28.254014 21.9006275,25.4567299 23.9389127,22.3043784 C24.6764882,21.163666 25.1787659,20.0474173 25.4867111,18.9947062 C25.6855751,18.3148898 25.7750739,17.7674071 25.7942412,17.4060116 L25.7956446,17.3530493 L25.7956446,5.23007519 C25.7956446,4.7907017 25.5563141,4.43444831 25.1911231,4.25324766 L25.1374758,4.22662894 L13.2251237,0 Z M12.8978318,2.0060117 L23.7954985,5.87267836 L23.7970481,17.300087 C23.7942037,17.3537188 23.7828296,17.4599658 23.758696,17.6075962 C23.7190806,17.8499314 23.6568264,18.1266449 23.5671551,18.4331864 C23.3123068,19.3043856 22.8895927,20.2438143 22.2594149,21.2184286 L22.1676941,21.3583515 C20.4040001,24.0126282 17.4415846,26.422762 12.9814561,28.3511704 L12.8901651,28.3900117 L12.8088268,28.3551645 C8.13359171,26.3279068 5.12471288,23.7764311 3.43211545,21.0692022 L3.35338621,20.9405705 C2.42326174,19.4007142 2.01840064,18.0005786 1.99972207,17.3486299 L1.99972207,5.87267836 L12.8978318,2.0060117 Z" fill="#9E9E9E" fill-rule="nonzero"/><path d="M12,8 C12.5522847,8 13,8.44771525 13,9 L13,14 L18,14 C18.5522847,14 19,14.4477153 19,15 C19,15.5522847 18.5522847,16 18,16 L12,16 C11.4477153,16 11,15.5522847 11,15 L11,9 C11,8.44771525 11.4477153,8 12,8 Z" fill="#9E9E9E"/></g></svg>