<svg width="14" height="16" xmlns="http://www.w3.org/2000/svg"><path d="M40.625,38 L39.375,38 C39.16875,38 39,37.83125 39,37.625 L39,36.375 C39,36.16875 39.16875,36 39.375,36 L40.625,36 C40.83125,36 41,36.16875 41,36.375 L41,37.625 C41,37.83125 40.83125,38 40.625,38 Z M44,37.625 L44,36.375 C44,36.16875 43.83125,36 43.625,36 L42.375,36 C42.16875,36 42,36.16875 42,36.375 L42,37.625 C42,37.83125 42.16875,38 42.375,38 L43.625,38 C43.83125,38 44,37.83125 44,37.625 Z M47,37.625 L47,36.375 C47,36.16875 46.83125,36 46.625,36 L45.375,36 C45.16875,36 45,36.16875 45,36.375 L45,37.625 C45,37.83125 45.16875,38 45.375,38 L46.625,38 C46.83125,38 47,37.83125 47,37.625 Z M44,40.625 L44,39.375 C44,39.16875 43.83125,39 43.625,39 L42.375,39 C42.16875,39 42,39.16875 42,39.375 L42,40.625 C42,40.83125 42.16875,41 42.375,41 L43.625,41 C43.83125,41 44,40.83125 44,40.625 Z M41,40.625 L41,39.375 C41,39.16875 40.83125,39 40.625,39 L39.375,39 C39.16875,39 39,39.16875 39,39.375 L39,40.625 C39,40.83125 39.16875,41 39.375,41 L40.625,41 C40.83125,41 41,40.83125 41,40.625 Z M47,40.625 L47,39.375 C47,39.16875 46.83125,39 46.625,39 L45.375,39 C45.16875,39 45,39.16875 45,39.375 L45,40.625 C45,40.83125 45.16875,41 45.375,41 L46.625,41 C46.83125,41 47,40.83125 47,40.625 Z M50,32.5 L50,43.5 C50,44.328125 49.328125,45 48.5,45 L37.5,45 C36.671875,45 36,44.328125 36,43.5 L36,32.5 C36,31.671875 36.671875,31 37.5,31 L39,31 L39,29.375 C39,29.16875 39.16875,29 39.375,29 L40.625,29 C40.83125,29 41,29.16875 41,29.375 L41,31 L45,31 L45,29.375 C45,29.16875 45.16875,29 45.375,29 L46.625,29 C46.83125,29 47,29.16875 47,29.375 L47,31 L48.5,31 C49.328125,31 50,31.671875 50,32.5 Z M48.5,43.3125 L48.5,34 L37.5,34 L37.5,43.3125 C37.5,43.415625 37.584375,43.5 37.6875,43.5 L48.3125,43.5 C48.415625,43.5 48.5,43.415625 48.5,43.3125 Z" transform="translate(-36 -29)" fill="" fill-rule="evenodd"/></svg>