<svg xmlns="http://www.w3.org/2000/svg" viewBox="0 0 46 45"><path d="m31.2484689 25h-3.4969378c-.9676291 0-1.7515311.561267-1.7515311 1.2503473v17.4993054c0 .6890803.783902 1.2503473 1.7515311 1.2503473h3.4969378c.9676291 0 1.7515311-.561267 1.7515311-1.2503473v-17.4993054c0-.6946374-.783902-1.2503473-1.7515311-1.2503473zm-13-4h-3.4969378c-.9676291 0-1.7515311.8932735-1.7515311 2.0017937v19.9964126c0 1.103139.783902 2.0017937 1.7515311 2.0017937h3.4969378c.9676291 0 1.7515311-.8932735 1.7515311-2.0017937v-20.0017937c0-1.1031391-.783902-1.9964126-1.7515311-1.9964126zm-16.60052883-15.9082027h40.70411983c.9118602 0 1.6479401.86176298 1.6479401 1.9293201s-.7360799 1.9293201-1.6479401 1.9293201h-40.70411983c-.91186017 0-1.64794007-.86176298-1.64794007-1.9293201s.7360799-1.9293201 1.64794007-1.9293201zm39.32250193 1.44699007-3.2907268-3.24125777c-.7639187-.75243483-.7639187-1.98076863 0-2.73320347.7639188-.75243484 2.0109997-.75243484 2.7749185 0l4.6226876 4.55319544c.0718214.07074173.1371136.14791454.1958766.22508734.6137466.75886591.5680421 1.86500943-.1436429 2.5724268l-4.6292168 4.55319539c-.7639187.7524349-2.0109997.7524349-2.7749184 0-.7639187-.7524348-.7639187-1.9807686 0-2.73320343zm-39.220442 18.46121263c-.96678322 0-1.75.8947939-1.75 2.0010846v15.9978308c0 1.1062907.78321678 2.0010846 1.75 2.0010846h3.5c.96678322 0 1.75-.8947939 1.75-2.0010846v-15.9978308c0-1.1062907-.78321678-2.0010846-1.75-2.0010846zm42.4862205-8c1.0166229 0 1.7637795.7078958 1.7637795 1.5845974v24.8308052c0 .8930377-.783902 1.5845974-1.7515311 1.5845974h-3.4969378c-.9370079 0-1.7515311-.7078958-1.7515311-1.5845974v-24.8308052c0-.8930377.7900262-1.5845974 1.7637795-1.5845974z"/></svg>