<?xml version="1.0" encoding="UTF-8"?>
<svg width="230px" height="24px" viewBox="0 0 230 24" version="1.1" xmlns="http://www.w3.org/2000/svg" xmlns:xlink="http://www.w3.org/1999/xlink">
    <!-- Generator: Sketch 61.2 (89653) - https://sketch.com -->
    <title>logo</title>
    <desc>Created with Sketch.</desc>
    <g id="Page-1" stroke="none" stroke-width="1" fill="none" fill-rule="evenodd">
        <g id="003A-PMS-User-Guide-Homepage" transform="translate(-24.000000, -16.000000)">
            <g id="Group">
                <g id="logo" transform="translate(24.000000, 16.000000)">
                    <g id="logo-yellow-round" fill="#F9C631">
                        <path d="M18.9782128,5.20782979 C17.1137872,4.13370213 15.2042553,3.45812766 13.196766,3.57829787 C12.9031489,3.60221277 12.6189787,3.65846809 12.3493617,3.75293617 C11.5399149,4.01387234 10.9854468,4.53540426 10.9683404,5.24348936 C10.9514894,5.93897872 11.5493617,6.56238298 12.4448511,6.88451064 C12.6245106,6.964 12.8068085,7.03276596 12.9842553,7.0947234 C14.2910638,7.54195745 15.5787234,8.04417021 16.826383,8.65055319 C20.0675745,10.270383 23.3980426,13.0185532 22.3428085,17.2614468 C22.3117447,17.3861277 22.4948085,17.4476596 22.5517447,17.3315745 C25.3297872,11.6659574 23.1514894,7.81812766 18.9782128,5.20782979" id="Fill-3"></path>
                        <path d="M4.81648511,19.1854549 C6.68082554,20.2594975 8.59044256,20.9350719 10.5979319,20.8149868 C10.8915489,20.7910719 11.1757192,20.7348166 11.4453362,20.6403485 C12.2546979,20.3793272 12.809166,19.8577953 12.8263575,19.1497953 C12.8431234,18.454306 12.2453362,17.8309017 11.3498468,17.5087741 C11.1701872,17.4291996 10.9878043,17.3604336 10.8104426,17.2984762 C9.50354894,16.8513272 8.21588937,16.3491145 6.96822979,15.7426464 C3.7270383,14.1229017 0.396570216,11.3747315 1.45188937,7.13175278 C1.48286809,7.00715704 1.29980426,6.94562512 1.24286809,7.06171023 C-1.53508936,12.7272421 0.643123408,16.5750719 4.81648511,19.1854549" id="Fill-4"></path>
                        <path d="M17.8626383,1.48042553 C16.270383,0.554808511 14.2551489,0.00178723404 12.063234,0.00178723404 C6.91531915,0.00178723404 2.7413617,3.05165957 2.73412766,6.81591489 C2.73404255,7.81489362 3.02195745,8.75489362 3.53965957,9.60348936 C3.57676596,9.65914894 3.61480851,9.71412766 3.6547234,9.768 C4.28323404,10.6081702 5.29914894,11.3391489 6.40093617,11.9596596 C7.99957447,12.8530213 9.7413617,13.4985532 10.7613617,13.9243404 C13.7589787,15.1756596 16.5650213,16.0893617 16.6473191,18.9761702 C16.6910638,20.5085957 15.2234043,21.5861277 14.1140426,22.0362553 C12.8605957,22.4869787 11.8298723,22.5579574 10.3754043,22.4502979 C9.20944681,22.3294468 8.06178723,22.0750638 6.96408511,21.6717447 C5.43617021,21.0946383 4.09123404,20.2979574 2.94153191,19.292766 C2.25965957,18.6965957 1.64646809,18.0271489 1.10468085,17.2864681 C1.0052766,17.1504681 0.787914894,17.2777872 0.868765957,17.4245106 C2.05923404,19.5858723 3.79651064,21.3 5.97617021,22.4390638 C7.56851064,23.3645957 9.58374468,23.917617 11.7756596,23.917617 C16.9234894,23.917617 21.0974468,20.8677447 21.1046809,17.1034894 C21.104766,16.1045106 20.8168511,15.1645106 20.299234,14.316 C20.2621277,14.2603404 20.224,14.2052766 20.1841702,14.1514043 C19.5555745,13.3113191 18.5396596,12.5803404 17.4379574,11.9597447 C15.839234,11.066383 14.0974468,10.4208511 13.0775319,9.99514894 C10.0798298,8.74374468 7.27378723,7.83004255 7.19148936,4.94331915 C7.14774468,3.41080851 8.61540426,2.3332766 9.72485106,1.88323404 C10.9782979,1.43242553 12.0089362,1.36153191 13.4634043,1.46910638 C14.6294468,1.59004255 15.7771064,1.84434043 16.8748085,2.24765957 C18.4026383,2.82485106 19.7476596,3.62153191 20.8972766,4.6266383 C21.5791489,5.22280851 22.1924255,5.89225532 22.7341277,6.63293617 C22.8335319,6.76893617 23.0508936,6.64170213 22.9700426,6.49489362 C21.7795745,4.33353191 20.0422979,2.61948936 17.8626383,1.48042553 Z" id="Fill-5"></path>
                    </g>
                    <path d="M36.304,17.7 L36.304,15.316 L31.92,15.316 L31.92,6.372 L29.168,6.372 L29.168,17.7 L36.304,17.7 Z M39.168,17.7 L40,15.476 L44.384,15.476 L45.264,17.7 L48.304,17.7 L43.6,6.372 L40.944,6.372 L36.192,17.7 L39.168,17.7 Z M43.632,13.284 L40.784,13.284 L42.224,9.396 L43.632,13.284 Z M51.904,17.7 L51.84,10.292 L51.888,10.292 L56.448,17.7 L59.552,17.7 L59.552,6.372 L56.896,6.372 L56.96,13.764 L56.912,13.764 L52.368,6.372 L49.248,6.372 L49.248,17.7 L51.904,17.7 Z M66.112,17.7 C66.8906667,17.7 67.6586667,17.5906667 68.416,17.372 C69.1733333,17.1533333 69.8533333,16.812 70.456,16.348 C71.0586667,15.884 71.544,15.292 71.912,14.572 C72.28,13.852 72.464,12.996 72.464,12.004 C72.464,10.9373333 72.2773333,10.0413333 71.904,9.316 C71.5306667,8.59066667 71.04,8.012 70.432,7.58 C69.824,7.148 69.1306667,6.83866667 68.352,6.652 C67.5733333,6.46533333 66.784,6.372 65.984,6.372 L65.984,6.372 L61.888,6.372 L61.888,17.7 L66.112,17.7 Z M65.856,15.332 L64.56,15.332 L64.56,8.708 L65.92,8.708 C66.3893333,8.708 66.8453333,8.76133333 67.288,8.868 C67.7306667,8.97466667 68.1253333,9.15333333 68.472,9.404 C68.8186667,9.65466667 69.096,9.99066667 69.304,10.412 C69.512,10.8333333 69.616,11.364 69.616,12.004 C69.616,12.6333333 69.512,13.1613333 69.304,13.588 C69.096,14.0146667 68.8186667,14.356 68.472,14.612 C68.1253333,14.868 67.7253333,15.052 67.272,15.164 C66.8186667,15.276 66.3466667,15.332 65.856,15.332 L65.856,15.332 Z M81.408,17.7 L81.408,15.316 L77.024,15.316 L77.024,6.372 L74.272,6.372 L74.272,17.7 L81.408,17.7 Z M88.32,18.004 C89.2053333,18.004 90.0266667,17.86 90.784,17.572 C91.5413333,17.284 92.1946667,16.876 92.744,16.348 C93.2933333,15.82 93.7226667,15.1853333 94.032,14.444 C94.3413333,13.7026667 94.496,12.884 94.496,11.988 C94.496,11.0813333 94.3413333,10.2626667 94.032,9.532 C93.7226667,8.80133333 93.2933333,8.18 92.744,7.668 C92.1946667,7.156 91.5413333,6.76133333 90.784,6.484 C90.0266667,6.20666667 89.2053333,6.068 88.32,6.068 C87.4346667,6.068 86.616,6.20666667 85.864,6.484 C85.112,6.76133333 84.4613333,7.156 83.912,7.668 C83.3626667,8.18 82.9333333,8.80133333 82.624,9.532 C82.3146667,10.2626667 82.16,11.0813333 82.16,11.988 C82.16,12.884 82.3146667,13.7026667 82.624,14.444 C82.9333333,15.1853333 83.3626667,15.82 83.912,16.348 C84.4613333,16.876 85.112,17.284 85.864,17.572 C86.616,17.86 87.4346667,18.004 88.32,18.004 Z M88.32,15.508 C87.84,15.508 87.4026667,15.42 87.008,15.244 C86.6133333,15.068 86.2746667,14.8253333 85.992,14.516 C85.7093333,14.2066667 85.488,13.836 85.328,13.404 C85.168,12.972 85.088,12.5 85.088,11.988 C85.088,11.4973333 85.1653333,11.0386667 85.32,10.612 C85.4746667,10.1853333 85.696,9.82 85.984,9.516 C86.272,9.212 86.6133333,8.972 87.008,8.796 C87.4026667,8.62 87.84,8.532 88.32,8.532 C88.8,8.532 89.24,8.62 89.64,8.796 C90.04,8.972 90.3813333,9.212 90.664,9.516 C90.9466667,9.82 91.168,10.1853333 91.328,10.612 C91.488,11.0386667 91.568,11.4973333 91.568,11.988 C91.568,12.5 91.488,12.972 91.328,13.404 C91.168,13.836 90.944,14.2066667 90.656,14.516 C90.368,14.8253333 90.0266667,15.068 89.632,15.244 C89.2373333,15.42 88.8,15.508 88.32,15.508 Z M98.992,17.7 L98.992,13.204 L99.92,13.204 L102.368,17.7 L105.568,17.7 L102.608,12.852 C103.344,12.628 103.92,12.2546667 104.336,11.732 C104.752,11.2093333 104.96,10.564 104.96,9.796 C104.96,9.14533333 104.837333,8.60133333 104.592,8.164 C104.346667,7.72666667 104.018667,7.37466667 103.608,7.108 C103.197333,6.84133333 102.733333,6.652 102.216,6.54 C101.698667,6.428 101.168,6.372 100.624,6.372 L100.624,6.372 L96.304,6.372 L96.304,17.7 L98.992,17.7 Z M100.272,11.22 L98.976,11.22 L98.976,8.58 L100.432,8.58 C100.634667,8.58 100.845333,8.596 101.064,8.628 C101.282667,8.66 101.48,8.72133333 101.656,8.812 C101.832,8.90266667 101.976,9.03066667 102.088,9.196 C102.2,9.36133333 102.256,9.57733333 102.256,9.844 C102.256,10.132 102.194667,10.3666667 102.072,10.548 C101.949333,10.7293333 101.792,10.868 101.6,10.964 C101.408,11.06 101.194667,11.1266667 100.96,11.164 C100.725333,11.2013333 100.496,11.22 100.272,11.22 L100.272,11.22 Z M111.136,17.7 C111.914667,17.7 112.682667,17.5906667 113.44,17.372 C114.197333,17.1533333 114.877333,16.812 115.48,16.348 C116.082667,15.884 116.568,15.292 116.936,14.572 C117.304,13.852 117.488,12.996 117.488,12.004 C117.488,10.9373333 117.301333,10.0413333 116.928,9.316 C116.554667,8.59066667 116.064,8.012 115.456,7.58 C114.848,7.148 114.154667,6.83866667 113.376,6.652 C112.597333,6.46533333 111.808,6.372 111.008,6.372 L111.008,6.372 L106.912,6.372 L106.912,17.7 L111.136,17.7 Z M110.88,15.332 L109.584,15.332 L109.584,8.708 L110.944,8.708 C111.413333,8.708 111.869333,8.76133333 112.312,8.868 C112.754667,8.97466667 113.149333,9.15333333 113.496,9.404 C113.842667,9.65466667 114.12,9.99066667 114.328,10.412 C114.536,10.8333333 114.64,11.364 114.64,12.004 C114.64,12.6333333 114.536,13.1613333 114.328,13.588 C114.12,14.0146667 113.842667,14.356 113.496,14.612 C113.149333,14.868 112.749333,15.052 112.296,15.164 C111.842667,15.276 111.370667,15.332 110.88,15.332 L110.88,15.332 Z M126.032,17.7 L126.032,12.964 L130.448,12.964 L130.448,17.7 L133.184,17.7 L133.184,6.372 L130.448,6.372 L130.448,10.66 L126.032,10.66 L126.032,6.372 L123.296,6.372 L123.296,17.7 L126.032,17.7 Z M143.424,17.7 L143.424,15.364 L138.16,15.364 L138.16,13.012 L142.864,13.012 L142.864,10.82 L138.16,10.82 L138.16,8.692 L143.136,8.692 L143.136,6.372 L135.52,6.372 L135.52,17.7 L143.424,17.7 Z M152.368,17.7 L152.368,15.316 L147.984,15.316 L147.984,6.372 L145.232,6.372 L145.232,17.7 L152.368,17.7 Z M156.384,17.7 L156.384,13.428 L157.744,13.428 C158.330667,13.428 158.896,13.364 159.44,13.236 C159.984,13.108 160.464,12.9053333 160.88,12.628 C161.296,12.3506667 161.626667,11.9853333 161.872,11.532 C162.117333,11.0786667 162.24,10.5213333 162.24,9.86 C162.24,9.20933333 162.125333,8.66266667 161.896,8.22 C161.666667,7.77733333 161.352,7.42 160.952,7.148 C160.552,6.876 160.082667,6.67866667 159.544,6.556 C159.005333,6.43333333 158.426667,6.372 157.808,6.372 L157.808,6.372 L153.648,6.372 L153.648,17.7 L156.384,17.7 Z M157.536,11.252 L156.384,11.252 L156.384,8.58 L157.584,8.58 C157.829333,8.58 158.066667,8.596 158.296,8.628 C158.525333,8.66 158.730667,8.724 158.912,8.82 C159.093333,8.916 159.237333,9.04933333 159.344,9.22 C159.450667,9.39066667 159.504,9.60933333 159.504,9.876 C159.504,10.1426667 159.450667,10.364 159.344,10.54 C159.237333,10.716 159.090667,10.8573333 158.904,10.964 C158.717333,11.0706667 158.506667,11.1453333 158.272,11.188 C158.037333,11.2306667 157.792,11.252 157.536,11.252 L157.536,11.252 Z M173.456,18.004 C174.416,18.004 175.264,17.836 176,17.5 C176.736,17.164 177.354667,16.708 177.856,16.132 L177.856,16.132 L175.952,14.34 C175.706667,14.6813333 175.381333,14.9586667 174.976,15.172 C174.570667,15.3853333 174.096,15.492 173.552,15.492 C173.082667,15.492 172.650667,15.4066667 172.256,15.236 C171.861333,15.0653333 171.522667,14.828 171.24,14.524 C170.957333,14.22 170.736,13.8546667 170.576,13.428 C170.416,13.0013333 170.336,12.532 170.336,12.02 C170.336,11.5186667 170.416,11.0573333 170.576,10.636 C170.736,10.2146667 170.96,9.84933333 171.248,9.54 C171.536,9.23066667 171.88,8.988 172.28,8.812 C172.68,8.636 173.12,8.548 173.6,8.548 C174.037333,8.548 174.464,8.63333333 174.88,8.804 C175.296,8.97466667 175.632,9.236 175.888,9.588 L175.888,9.588 L177.744,7.732 C177.264,7.188 176.637333,6.77466667 175.864,6.492 C175.090667,6.20933333 174.304,6.068 173.504,6.068 C172.64,6.068 171.834667,6.20666667 171.088,6.484 C170.341333,6.76133333 169.690667,7.15866667 169.136,7.676 C168.581333,8.19333333 168.146667,8.82 167.832,9.556 C167.517333,10.292 167.36,11.1133333 167.36,12.02 C167.36,12.9053333 167.514667,13.716 167.824,14.452 C168.133333,15.188 168.56,15.82 169.104,16.348 C169.648,16.876 170.290667,17.284 171.032,17.572 C171.773333,17.86 172.581333,18.004 173.456,18.004 Z M186.928,17.7 L186.928,15.364 L181.664,15.364 L181.664,13.012 L186.368,13.012 L186.368,10.82 L181.664,10.82 L181.664,8.692 L186.64,8.692 L186.64,6.372 L179.024,6.372 L179.024,17.7 L186.928,17.7 Z M191.392,17.7 L191.328,10.292 L191.376,10.292 L195.936,17.7 L199.04,17.7 L199.04,6.372 L196.384,6.372 L196.448,13.764 L196.4,13.764 L191.856,6.372 L188.736,6.372 L188.736,17.7 L191.392,17.7 Z M206.224,17.7 L206.224,8.708 L209.424,8.708 L209.424,6.372 L200.288,6.372 L200.288,8.708 L203.488,8.708 L203.488,17.7 L206.224,17.7 Z M218.576,17.7 L218.576,15.364 L213.312,15.364 L213.312,13.012 L218.016,13.012 L218.016,10.82 L213.312,10.82 L213.312,8.692 L218.288,8.692 L218.288,6.372 L210.672,6.372 L210.672,17.7 L218.576,17.7 Z M223.072,17.7 L223.072,13.204 L224,13.204 L226.448,17.7 L229.648,17.7 L226.688,12.852 C227.424,12.628 228,12.2546667 228.416,11.732 C228.832,11.2093333 229.04,10.564 229.04,9.796 C229.04,9.14533333 228.917333,8.60133333 228.672,8.164 C228.426667,7.72666667 228.098667,7.37466667 227.688,7.108 C227.277333,6.84133333 226.813333,6.652 226.296,6.54 C225.778667,6.428 225.248,6.372 224.704,6.372 L224.704,6.372 L220.384,6.372 L220.384,17.7 L223.072,17.7 Z M224.352,11.22 L223.056,11.22 L223.056,8.58 L224.512,8.58 C224.714667,8.58 224.925333,8.596 225.144,8.628 C225.362667,8.66 225.56,8.72133333 225.736,8.812 C225.912,8.90266667 226.056,9.03066667 226.168,9.196 C226.28,9.36133333 226.336,9.57733333 226.336,9.844 C226.336,10.132 226.274667,10.3666667 226.152,10.548 C226.029333,10.7293333 225.872,10.868 225.68,10.964 C225.488,11.06 225.274667,11.1266667 225.04,11.164 C224.805333,11.2013333 224.576,11.22 224.352,11.22 L224.352,11.22 Z" id="LANDLORDHELPCENTER" fill="#9E9E9E" fill-rule="nonzero"></path>
                </g>
            </g>
        </g>
    </g>
</svg>