<svg width="63" height="62" xmlns="http://www.w3.org/2000/svg"><g fill-rule="nonzero" fill="none"><path d="M33.4165517,7.52 C41.5492346,7.52 48.1351724,14.1059378 48.1351724,22.2386207 C48.1351724,27.5195723 45.334314,32.1454308 41.1406078,34.730364 C43.135036,35.3425015 45.0252963,36.1933282 46.7787927,37.2483119 L47.8799841,36.2108632 C48.7496046,35.3955941 50.0691345,35.3945945 50.8963672,36.2185917 L62.4869975,47.4243885 C62.9157821,47.8531731 63.1406897,48.4013853 63.1406897,49.0037997 L63.1406897,60.2065583 C63.1406897,61.4123447 62.1561312,62.3969032 60.9503448,62.3969032 L59.0023511,62.3967015 C59.0022269,62.3976983 59.0021027,62.398695 59.0019784,62.3996917 L8.19802157,62.3996917 C8.06732546,61.351489 8,60.2836069 8,59.2 C8,50.4639017 12.3759348,42.7498577 19.0554594,38.1302132 C21.0239176,36.6271117 23.2133064,35.4548312 25.5628412,34.6491477 L25.1595273,34.3858984 C21.1761966,31.6922573 18.697931,27.1796199 18.697931,22.2386207 C18.697931,14.1341485 25.2983857,7.52 33.4165517,7.52 Z" fill="#E2F4F2" transform="translate(-1 -1)"/><path d="M39.7018844,29.5509558 L51.2925147,40.7567525 C51.7212993,41.1855371 51.9462069,41.7337494 51.9462069,42.3361638 L51.9462069,53.5389224 C51.9462069,54.7447087 50.9616484,55.7292672 49.7558621,55.7292672 L26.1958621,55.7292672 C24.9900757,55.7292672 24.0055172,54.7447087 24.0055172,53.5389224 L24.0055172,42.421681 C24.0055172,41.8158413 24.2768828,41.2128067 24.7120931,40.8324381 L36.6855014,29.5432273 C37.5551218,28.7279581 38.8746518,28.7269586 39.7018844,29.5509558 Z M25.8965517,1.6 C34.0292346,1.6 40.6151724,8.1859378 40.6151724,16.3186207 C40.6151724,24.2868456 34.2385611,30.7636441 26.3220937,30.9884477 L25.7892856,30.9941007 L25.2861141,30.9809898 C13.5306849,31.2761564 5.12551724,40.8068699 5.12551724,53.92375 C5.12551724,54.9157432 4.35475185,55.6865086 3.36275862,55.6865086 C2.37076539,55.6865086 1.6,54.9157432 1.6,53.92375 C1.6,46.5680474 4.04453697,39.8284361 8.48242486,34.9989699 C11.1325091,32.1150547 14.3946183,29.9801668 18.0428412,28.7291477 L17.6395273,28.4658984 C13.6561966,25.7722573 11.177931,21.2596199 11.177931,16.3186207 C11.177931,8.21414851 17.7783857,1.6 25.8965517,1.6 Z M38.163795,32.9516421 L27.5310345,42.9709741 L27.5310345,52.2037232 L36.4048516,52.2032268 L36.4055172,46.0092672 C36.4055172,45.017274 37.1762826,44.2465086 38.1682759,44.2465086 C39.0941362,44.2465086 39.8272825,44.9179309 39.9209204,45.814065 L39.9310345,46.0093704 L39.9297032,52.2032279 L48.4206897,52.2037232 L48.4206897,42.8816238 L38.163795,32.9516421 Z M25.8965517,5.12551724 C19.7328079,5.12551724 14.7034483,10.1421765 14.7034483,16.3186207 C14.7034483,22.1676009 19.1822666,26.9589144 24.9306437,27.4304002 L25.3157144,27.455397 L25.8537931,27.4465086 L25.9917898,27.4515525 L26.1278503,27.4666348 L26.5065114,27.4527071 C32.4132123,27.1369945 37.0896552,22.2626512 37.0896552,16.2758621 C37.0896552,10.1080646 32.0690731,5.12551724 25.8965517,5.12551724 Z" fill="#38B2A6" transform="translate(-1 -1)"/></g></svg>