<svg height="64" width="63" xmlns="http://www.w3.org/2000/svg"><g fill="none" fill-rule="evenodd" transform="translate(.011 .033)"><path d="m56.2120165 8.89750708c3.3137085 0 6 2.68629152 6 6.00000002 0 .0580928-.0008437.1161825-.0025308.1742508l-.878113 30.2577286c-4.3208804 3.7864662-11.4104225 9.9991611-21.2686262 18.6380846l-24.4738738-.0002966c-3.3137085 0-5.99999997-2.6862915-5.99999997-6v-43.0697674c0-3.3137085 2.68629147-6.00000002 5.99999997-6.00000002z" fill="#e2f4f2"/><path d="m40.7527084 0c5.3430349 0 8.6398968 2.64325407 8.7601705 7.52892959l.0034077.27893988v5.04188513c0 1.1845213-.786317 2.1448604-2.0596774 2.1448604-1.2179969 0-1.9900432-.8786467-2.0548752-1.9916895l-.0044326-.1531709v-5.04188513c0-2.61862847-1.6430526-3.89994253-4.3915738-3.97304869l-.2528959-.00332122h-31.98974635c-2.81502561 0-4.54064095 1.20429558-4.63971259 3.74199324l-.00451073.23437667v38.20393603c0 2.6186285 1.64282047 3.8999425 4.39132798 3.9730487l.25289534.0033212h10.95581435c1.2734836 0 2.3058481.7313431 2.3058481 1.9158644 0 1.13313-.9445452 1.8515271-2.1410662 1.9118544l-.1646587.0041246h-10.95593755c-5.34291394 0-8.63941751-2.6435853-8.75967796-7.5292731l-.00340739-.2789402v-38.20393603c0-4.97004001 3.19756072-7.70544227 8.4628494-7.80504906l.30023595-.00282041zm9.4026986 19.8771588c.4854377-.3350568 1.1743216-.2978283 1.614549.1116856l5.046872 4.6947646 1.9464934 1.7752899.120062.1293728c.360186.45157.3201653 1.0923923-.120062 1.5019061l-1.9464934 1.8106915-21.6565614 20.0334047-3.8748779.4369137-.3019906.026773c-3.1902875.2127442-5.3740693-1.8904945-4.9908721-4.8949639l.4695059-3.6031764 23.5542993-21.910976zm.799053 4.0967479-20.9698409 19.3927538-.103665.1979044-.3268495 2.5477002c-.0722289.7517239.2698231 1.0692172 1.0871311 1.0008168l2.7288722-.3027925.2112542-.0950437 20.9713384-19.3941385zm-33.4902632 13.0958229c1.27373 0 2.3060945.7311139 2.3060945 1.9156352 0 1.13313-.9445452 1.8515271-2.1413896 1.9118544l-.1647049.0041246h-4.7843115c-1.2733604 0-2.3057249-.7313431-2.3057249-1.915979 0-1.1330204.9445452-1.8512029 2.1410662-1.9115118l.1646587-.0041234zm9.6358263-11.6522056c1.2737301 0 2.3060945.7311138 2.3060945 1.9156352 0 1.13313-.9445452 1.851527-2.1413896 1.9118543l-.1647049.0041247h-14.5109425c-1.2733604 0-2.3057249-.7313431-2.3057249-1.915979 0-1.1330204.9445452-1.851203 2.1410662-1.9115118l.1646587-.0041234zm9.7007709-12.5032043c1.2736069 0 2.3060946.7312285 2.3060946 1.9156352 0 1.1332396-.9445453 1.8514317-2.1413897 1.911741l-.1647049.0041234h-24.2117134c-1.2733604 0-2.3057249-.7309993-2.3057249-1.9158644 0-1.1330204.9445452-1.851203 2.1410662-1.9115118l.1646587-.0041234z" fill="#38b2a6" fill-rule="nonzero"/></g></svg>