<svg xmlns="http://www.w3.org/2000/svg" viewBox="0 0 18 21">
 <path fill-rule="nonzero" d="M15.64 0a1.64 1.64 0 0 1 1.634 1.498l.006.142-.001 12.988.001.012a.64.64 0 0 1-.545.633l-.095.007H3.14l-.145.006a1.86 1.86 0 0 0 0 3.708L3.14 19h13.5l.095.007a.64.64 0 0 1 0 1.266l-.095.007H3.14l-.178-.005a3.14 3.14 0 0 1-2.957-2.957L0 17.14V3.64A3.64 3.64 0 0 1 3.447.005L3.64 0h12zm0 1.28h-12a2.36 2.36 0 0 0-2.355 2.198l-.005.162-.001 10.971a3.124 3.124 0 0 1 1.63-.603L3.14 14H16V1.64a.36.36 0 0 0-.287-.353l-.073-.007zm-6.864 8.996c.228 0 .426.078.598.235.17.155.252.342.252.567a.781.781 0 0 1-.249.581.825.825 0 0 1-.601.245.838.838 0 0 1-.324-.064.934.934 0 0 1-.274-.171.782.782 0 0 1-.184-.253.781.781 0 0 1 .181-.895.825.825 0 0 1 .601-.245zm.132-6.936c.333 0 .647.048.944.145.295.095.555.237.78.424.223.185.4.414.529.688.128.273.193.589.193.949 0 .246-.027.46-.08.641a1.87 1.87 0 0 1-.226.5c-.1.152-.221.3-.364.443a8.964 8.964 0 0 1-.316.3l-.397.352a4.18 4.18 0 0 0-.176.172 1.74 1.74 0 0 0-.256.333c-.044.076-.08.157-.106.24l-.033.13-.021.136c-.007.06-.012.126-.015.196l-.001.238-.001.098H8.166v-.347l.004-.179c.006-.115.018-.22.036-.317a1.76 1.76 0 0 1 .35-.78c.065-.083.14-.169.228-.259l.14-.137.54-.516.15-.147c.095-.102.18-.212.257-.33.12-.186.179-.41.179-.671 0-.34-.108-.628-.323-.86-.218-.237-.526-.354-.915-.354a1.289 1.289 0 0 0-1.18.731l-.051.121-.052.164-.019.083-.015.084-.005.056-1.25-.111.015-.106c.054-.284.14-.54.26-.771.15-.288.343-.53.58-.729.237-.199.509-.35.816-.454.309-.104.64-.156.997-.156z"/>
</svg>