<svg height="64" width="64" xmlns="http://www.w3.org/2000/svg"><g fill="none" transform="translate(.025 .025)"><path d="m60.204578 60.1946084v-33.5579399c0-2.0629471-1.6723892-3.7253219-3.7253219-3.7253219h-11.1959943v-11.18598c0-2.06294704-1.6723891-3.7253666-3.7253219-3.7253666h-26.0972818c-2.0629471-.00996958-3.7353362 1.66241956-3.7353362 3.7253666v48.4692418h-1.862661c-1.03147352 0-1.8626609.8311874-1.8626609 1.8626609 0 1.0314736.83118744 1.862661 1.8626609 1.862661h52.204578c1.0314735 0 1.8626609-.8311874 1.8626609-1.862661 0-1.0314735-.8311874-1.8626609-1.8626609-1.8626609z" fill="#e2f4f2"/><path d="m33.5579399 0c2.0529328 0 3.7253219 1.66241956 3.7253219 3.72536665v11.18597995h11.1959943c2.0529327 0 3.7253219 1.6623748 3.7253219 3.7253219v33.5579399h1.8626609c1.0314735 0 1.8626609.8311874 1.8626609 1.8626609 0 1.0314736-.8311874 1.862661-1.8626609 1.862661h-52.204578c-1.03147346 0-1.8626609-.8311874-1.8626609-1.862661 0-1.0314735.83118738-1.8626609 1.8626609-1.8626609h1.86266095v-48.46924175c0-2.06294709 1.67238914-3.73533623 3.73533623-3.72536665zm-1.6123033 3.71535233h-22.87267525c-.89127325 0-1.61230327.72103002-1.61230327 1.61230327v46.8669528h26.09728182v-46.8669528c0-.89127325-.72103-1.61230327-1.6123033-1.61230327zm14.9113019 14.92131617h-7.9613734c-.8912733 0-1.6123033.72103-1.6123033 1.6123033v31.9456366h11.1859799v-31.9456366c0-.8912733-.72103-1.6123033-1.6123032-1.6123033zm-18.8969957 14.9113018c1.0314735 0 1.8726752.8311875 1.8627494 1.862661 0 1.0314735-.8312759 1.8626609-1.8627494 1.8626609h-14.9113019c-1.0314735 0-1.862661-.8311874-1.862661-1.8626609s.8311875-1.862661 1.862661-1.862661zm0-11.1859799c1.0314735 0 1.8726752.8311874 1.8627494 1.8626609 0 1.0314735-.8312759 1.8626609-1.8627494 1.8626609h-14.9113019c-1.0314735 0-1.862661-.8311873-1.862661-1.8626609 0-1.0314735.8311875-1.8626609 1.862661-1.8626609zm0-11.18598c1.0314735 0 1.8726752.8311874 1.8627494 1.862661 0 1.0314735-.8312759 1.8626609-1.8627494 1.8626609h-14.9113019c-1.0314735 0-1.862661-.8311874-1.862661-1.8626609 0-1.0314736.8311875-1.862661 1.862661-1.862661z" fill="#38b2a6"/></g></svg>