<svg height="65" width="64" xmlns="http://www.w3.org/2000/svg"><g fill="none"><path d="m63.8823348 17.9922174v-.2059141c0-6.377599-13.0185098-9.7863033-25.2434967-9.7863033-12.2838195 0-25.2736305 3.4087043-25.2736305 9.7863033v5.7598565c-5.73115762 2.233487-6.9652076 4.9663337-6.9652076 6.9350739v9.3457761c0 2.9416308 2.79167932 5.2604968 6.9644902 6.8762413v8.0234772c.382412 5.4334073 10.285663 8.6397848 20.8949054 9.3450587h.1176653c.2452648-.004916.4906035.0049072.7346902.0294163.1679616-.0059402.33611.0039085.5022297.0294163.4405271 0 .8523554.0294163 1.2914476.0294163.5876086 0 1.1479534.0294163 1.7635435.0294163.5876086 0 1.1479534 0 1.762826-.0294163.4405272 0 .8523555-.0294164 1.2914477-.0294163.1679616.0059401.3361099-.0039086.5022296-.0294163.2452649.0049176.4906037-.0049055.7346902-.0294163h.1176652c10.8122867-.7346902 20.9221694-4.0551456 20.9221694-9.6686381v-9.3457761c0-2.9975935-2.8505119-5.2899131-7.1704043-6.9652076v-3.9955956c4.3198924-1.616462 7.1704043-3.9676142 7.1704043-6.9652076v-9.1391446z" fill="#e2f4f2"/><path d="m57.4823348 9.99221742v-.20591415c0-6.37759896-13.0185098-9.78630327-25.2434967-9.78630327-12.2838195 0-25.27363048 3.40870431-25.27363048 9.78630327v5.75985653c-5.73115764 2.233487-6.96520762 4.9663337-6.96520762 6.9350739v9.3457761c0 2.9416308 2.79167932 5.2604968 6.96449016 6.8762413v8.0234772c.38241203 5.4334073 10.28566304 8.6397848 20.89490544 9.3450587h.1176653c.2452648-.004916.4906035.0049072.7346902.0294163.1679616-.0059402.33611.0039085.5022297.0294163.4405271 0 .8523554.0294163 1.2914476.0294163.5876086 0 1.1479534.0294163 1.7635435.0294163.5876086 0 1.1479534 0 1.762826-.0294163.4405272 0 .8523555-.0294164 1.2914477-.0294163.1679616.0059401.3361099-.0039086.5022296-.0294163.2452649.0049176.4906037-.0049055.7346902-.0294163h.1176652c10.8122867-.7346902 20.9221694-4.0551456 20.9221694-9.6686381v-9.3457761c0-2.9975935-2.8505119-5.2899131-7.1704043-6.9652076v-3.9955956c4.3198924-1.616462 7.1704043-3.9676142 7.1704043-6.9652076v-9.13914458zm-25.3030468-6.99462395c13.8105977 0 22.2767544 3.96689669 22.2767544 6.7887098 0 2.82181313-8.4661567 6.78727493-22.2767544 6.78727493-13.8105976 0-22.27818935-3.9367629-22.27818935-6.78727493.05883261-2.85051193 8.52283705-6.7887098 22.27603695-6.7887098zm-25.24421411 15.83960543v.2934456c0 5.5840762 10.14073391 8.9346653 20.92432171 9.6693555h.1176653c.2452645-.0048814.4906011.0049416.7346902.0294163.1679616-.0059359.3361095.0039128.5022297.0294163.4405271 0 .8523554.0294164 1.2914476.0294163.4699434 0 .9700207 0 1.4399641.0294163-2.1459555.2051967-4.3507436.3551482-6.6136469.3551482h-1.7039934c-12.8133131-.2934457-20.6007424-4.0551457-20.6007424-6.7592936-.02941633-1.1752173 1.4105478-2.4982337 3.90878154-3.673451zm47.49083481 27.6549164c0 2.5269326-6.8475424 5.995187-18.1907576 6.6724795-.6457238.0294164-1.2914477.088249-1.9099076.088249h-.2059141c-.6457238 0-1.2914477.0294162-1.9099076.0294162-.6457238 0-1.2914477 0-1.9099076-.0294162h-.2066316c-.6457238 0-1.2914477-.0294164-1.9099076-.088249-11.3726314-.6758576-18.19075758-4.1139782-18.19075758-6.6724795v-4.526524c3.79111638 2.7034304 10.72619018 4.3493087 17.89731198 4.8192521h.1176652c.2452645-.0048797.490601.0049434.7346903.0294164.1679616-.0059402.3361099.0039085.5022296.0294162.4405271 0 .8523555.0294164 1.2914477.0294164.5876086 0 1.1479534.0294163 1.7635434.0294163.5581924 0 1.1479535 0 1.7628261-.0294163.4405271 0 .8523554-.0294164 1.2914476-.0294164.1679617.0059402.33611-.0039085.5022297-.0294162.2452645.0048814.4906011-.0049416.7346902-.0294164h.1176652c7.2292369-.4699434 14.1061957-2.145238 17.897312-4.8192521v4.4963902c-.1764978 0-.1764978 0-.1764978.0294163zm0-9.4333076v.0882489c0 2.5276501-6.8475424 5.995187-18.1907576 6.6724795-.6457238.0294164-1.2914477.088249-1.9099076.088249h-.2059141c-.6457238 0-1.2914477.0294163-1.9099076.0294163-.6457238 0-1.2914477 0-1.9099076-.0294163h-.2066316c-.6457238 0-1.2914477-.0294164-1.9099076-.088249-6.523963-.3816945-11.5512817-1.7047108-14.664388-3.2035076 1.7936773.3522782 3.6734511.5876087 5.6421912.8229392.096054.0243334.1951927.0342473.2941631.0294163 1.851075.1764978 3.7028674.2059141 5.6421913.2059141h.1764979c1.9099075 0 3.7911163-.0882489 5.6421913-.2059141.1176652 0 .2059141-.0294163.294163-.0294163 9.1979772-.8523555 17.5149-3.6440348 18.9254478-8.1698414 2.762263 1.1752174 4.2904761 2.5828953 4.2904761 3.7911164zm-7.1115717-5.2317979c0 2.8210957-8.4051717 6.7592935-22.1877881 6.7887098-13.7237837 0-22.12895543-3.9676141-22.18778804-6.7887098v-4.5258065c2.99759347 2.145238 7.90509454 3.5873546 13.37150544 4.3493087.1176652.0294163.2059142.0882489.3522783.0882489 2.3105029.2931876 4.6362616.4501068 6.9652076.4699434h2.9681772c2.298993-.0355026 4.5945079-.1923688 6.8769587-.4699434.0294163 0 .1176652-.0294163.1764978-.0294163 5.4656935-.6758576 10.5468225-2.0864055 13.5767022-4.1728109v4.3191749h.0882489zm-13.4009218-2.9177137c.2844359.0089284.5689359-.0088732.8523555-.0533334-.2647468.0533334-.4699435.0533334-.7346903.16-.0294163-.0533333-.0588326-.0533333-.1176652-.1066666zm20.5124935-9.7815215c0 2.52765-6.8475424 5.995187-18.1907576 6.6724795-.6457238.0294164-1.2914477.088249-1.9099076.0882489h-.2059141c-.6457238 0-1.2914477.0294163-1.9099076.0294163-.6457238 0-1.2914477 0-1.9099076-.0294163h-.2066316c-.6457238 0-1.2914477-.0294163-1.9099076-.0882489-11.3726314-.6758576-18.1613412-4.1433945-18.1613412-6.6724795v-4.5552228c4.5846391 3.2623402 13.5774196 4.9663336 22.2760369 4.9663337 8.6986174 0 17.6913979-1.7039935 22.276037-4.9663337v4.4963902c-.1470815.0294163-.1470815.0294163-.1470815.0588326z" fill="#38b2a6"/></g></svg>