<svg height="55" width="64" xmlns="http://www.w3.org/2000/svg"><g fill="none"><path d="m63.0035847 27.9216071-8.5430357 9.8578572c-.5682143.5682143-.8258929 1.3808928-.69375 2.1803571l2.0151786 12.0514286c.2642857 1.5923214-.9646429 2.8873214-2.3653572 2.8873214-.37 0-.7532143-.0925-1.1232143-.2907143l-10.5516071-5.68875c-.7003571-.3766071-1.5394643-.3766071-2.2398214-.0066071l-10.5582143 5.6821429c-.3435714.185-.7267857.2841071-1.1232143.2775-1.4007143 0-2.6428571-1.3082143-2.3719643-2.9005358l2.0217857-12.0448214c.0396429-2.4975-3.2242857-.9316071-3.9973214-.3501786l-6.2041071 3.9973215c-.3369643.2510714-1.9028572 1.1298214-2.26625 1.1298214-.9382143 0-1.1496429-1.1826786-1.1298215-2.26625v-7.9285714c.0132143-.60125-.5682143-1.1892857-1.0505357-1.5328572l-7.26785713-5.1932143c-1.21571429-.8655357-.90517857-2.775.52196428-3.2242857l8.54964285-2.6891071c.5682143-.1783929 1.0108929-.6342857 1.1892857-1.2091072l2.7023215-8.6289285c.2576785-.8258929.9976785-1.3148215 1.7376785-1.3148215.5483929 0 1.0967857.1783929 1.4601786.7003572l5.1205357 7.2216071c.3369643.4823215.87875.4955357 1.4667857.4955357h.0264286l4.8166071.2048215 5.3253572-8.3646429c.3898214-.8391071 1.2289286-1.3742857 2.1539286-1.3742857.8589285 0 1.71125.4558929 2.1539285 1.3742857l5.2791072 10.96125c.3435714.7201786 1.0175 1.2289286 1.8103571 1.3478572l11.8003572 1.7575c1.9755357.2973214 2.7617857 1.4601785 1.3346428 2.8807142z" fill="#e2f4f2"/><path d="m60.0479092 20.2654739-8.8137429 8.8069264c-.5862196.5862195-.8520633 1.4246498-.7157332 2.2494471l2.0790345 12.4333079c.2726602 1.6427781-.99521 2.9788134-2.4403093 2.9788134-.3817244 0-.7770818-.0954311-1.1588062-.2999263l-10.8859609-5.8690121c-.7225497-.3885409-1.588246-.3885409-2.3107957-.0068165l-10.8927774 5.8621956c-.3544583.1908622-.7498157.2931097-1.1588061.2862932-1.4450994 0-2.7266026-1.3496682-2.4471258-2.9924463l2.085851-12.4264914c.040899-2.5766395-3.3264552-.9611274-4.1239865-.3612748l-6.4006996 4.1239864c-.3476418.2590272-1.9631539 1.1656226-2.3380617 1.1656226-.96794395 0-1.18607216-1.2201547-1.16562264-2.3380617v-8.1798078c.01363301-.6203021-.58621956-1.2269712-1.08382454-1.5814295l-7.49815716-5.3577742c-1.2542372-.8929623-.9338614-2.8629327.53850401-3.3264551l8.82055943-2.7743182c.5862196-.1840457 1.0429255-.6543846 1.2269712-1.2474207l2.7879511-8.9023575c.2658438-.85206332 1.0292925-1.3564848 1.7927413-1.3564848.56577 0 1.13154.18404568 1.5064479.72254969l5.2827925 7.45044162c.3476419.49760498.9065954.51123799 1.5132645.51123799h.027266l4.9692333.2113117c-.3680914.7157332-1.0429255 1.4928149-1.8268238 1.615512l-6.7756075.7293662-4.2739495-6.55066272-1.5882461 6.72789192c.1431467-.4635224-.56577 2.6788871-3.5922989 3.6263815l-6.50294721 1.3292188 5.63043441 3.5650329c1.4859984 1.063375 2.5834559 2.7606851 2.5493734 4.6147749v5.8417461l4.3012156-3.605932c1.9631539-1.4723654 3.8291228-1.084899 3.8785922-1.0701915l-7.0073687-7.0073687c.7498157.7498157-2.9515473-2.113117 1.1656226-3.5036844l8.1798079-1.1656226c1.7008163-.3240743 2.864844-.683077 3.4920833-1.077008 1.2435171-.4901108 3.4812028-4.68293998 2.3496627-2.4266763l5.5145538-10.27247534c.4021739-.86569633 1.2678702-1.41783336 2.2221811-1.41783336.8861459 0 1.7654752.47033895 2.2221812 1.41783336l5.4463887 11.30858434c.3544583.7429992 1.049742 1.2678702 1.8677228 1.3905673l12.1742806 1.8131907c2.0381354.3067428 2.8492997 2.8697493 1.3769343 4.3352982zm-14.0624529-2.5084744c-1.9699704-.2931098-3.674097-1.5814295-4.5602429-3.4150698l-4.4648118-9.30453139-5.3986731 8.98415559c-.5656501.7513454-1.4318416 2.7762101-2.3749222 3.341462-.8393618.6157652-4.5716092 1.2446981-11.1967423 1.8867985l7.7844504 6.8437725c.4399448.5107567.7561164 1.3070257.9485149 2.3888071s.2670399 2.0078163.2239243 2.7781049c-.8588799 3.7831611-2.3994103 11.9697854-2.3994103 11.9697854l9.5090266-5.8962781c-.8452468.4567059.3885408-.4294399 2.8220337-.4362564-2.6857036.0340825 1.7995577-.1772292 2.8833822.4089904l9.3249809 4.751105-2.3380617-12.8491148c.1499631.8861459-.6884672-.1022476 1.9972364-2.7879511l7.1777814-7.1777814z" fill="#38b2a6"/></g></svg>