<svg width="63" height="65" xmlns="http://www.w3.org/2000/svg"><g fill="none" fill-rule="evenodd"><path d="M39.8182036,19.2 C49.5384152,19.2 57.4182036,27.0797884 57.4182036,36.8 C57.4182036,43.6392417 53.5171759,49.5673497 47.818841,52.4806034 L47.8182036,63 C47.8182036,63.5522847 47.3704883,64 46.8182036,64 L34.4182036,64 C33.8659188,64 33.4182036,63.5522847 33.4182036,63 L33.4181549,53.200172 C26.8624096,50.6399383 22.2182036,44.2623254 22.2182036,36.8 C22.2182036,27.0797884 30.097992,19.2 39.8182036,19.2 Z" fill="#E2F4F2" transform="translate(-.818 .4)"/><path d="M31.8182036,13.92 C21.8328953,13.92 13.7382036,22.0146917 13.7382036,32 C13.7382036,41.9853083 21.8328953,50.08 31.8182036,50.08 C41.8035118,50.08 49.8982036,41.9853083 49.8982036,32 C49.8982036,22.0146917 41.8035118,13.92 31.8182036,13.92 Z M31.8182036,18.08 C39.5060073,18.08 45.7382036,24.3121963 45.7382036,32 C45.7382036,39.6878037 39.5060073,45.92 31.8182036,45.92 C24.1303998,45.92 17.8982036,39.6878037 17.8982036,32 C17.8982036,24.3121963 24.1303998,18.08 31.8182036,18.08 Z" fill="#38B2A6" fill-rule="nonzero" transform="translate(-.818 .4)"/><path d="M40.2982036,45.92 L24.9382036,45.92 L24.9382036,56 C24.9382036,58.0324079 26.5857957,59.68 28.6182036,59.68 L36.6182036,59.68 C38.6506114,59.68 40.2982036,58.0324079 40.2982036,56 L40.2982036,45.92 Z M36.1376,50.08 L36.1376,55.52 L29.0976,55.52 L29.0976,50.08 L36.1376,50.08 Z" fill="#38B2A6" fill-rule="nonzero" transform="translate(-.818 .4)"/><path d="M32.721362 33.12C33.7983173 33.12 34.6841064 33.9384794 34.7906232 34.9873321L34.801362 35.2 34.801362 47.2685251C34.801362 48.4172774 33.8701143 49.3485251 32.721362 49.3485251 31.6444067 49.3485251 30.7586176 48.5300456 30.6521008 47.481193L30.641362 47.2685251 30.64 37.28 27.0182036 37.28C25.9412483 37.28 25.0554591 36.4615206 24.9489424 35.4126679L24.9382036 35.2C24.9382036 34.1230447 25.756683 33.2372556 26.8055356 33.1307388L27.0182036 33.12 32.721362 33.12zM32.6182036 56.32C33.6951588 56.32 34.580948 57.1384794 34.6874647 58.1873321L34.6982036 58.4 34.6982036 61.6C34.6982036 62.7487523 33.7669558 63.68 32.6182036 63.68 31.5412483 63.68 30.6554591 62.8615206 30.5489424 61.8126679L30.5382036 61.6 30.5382036 58.4C30.5382036 57.2512477 31.4694513 56.32 32.6182036 56.32zM32.6182036.32C33.6951588.32 34.580948 1.13847944 34.6874647 2.18733208L34.6982036 2.4 34.6982036 7.2C34.6982036 8.34875228 33.7669558 9.28 32.6182036 9.28 31.5412483 9.28 30.6554591 8.46152056 30.5489424 7.41266792L30.5382036 7.2 30.5382036 2.4C30.5382036 1.25124772 31.4694513.32 32.6182036.32zM52.5464113 10.730228C53.3587019 9.9179375 54.675685 9.9179375 55.4879755 10.730228 56.2461134 11.4883658 56.2966559 12.686147 55.6396031 13.502904L55.4879755 13.6717922 52.093863 17.0659048C51.2815725 17.8781953 49.9645893 17.8781953 49.1522988 17.0659048 48.3941609 16.307767 48.3436184 15.1099858 49.0006712 14.2932288L49.1522988 14.1243406 52.5464113 10.730228z" fill="#38B2A6" fill-rule="nonzero" transform="translate(-.818 .4)"/><path d="M12.5464113,10.730228 C13.3587019,9.9179375 14.675685,9.9179375 15.4879755,10.730228 C16.2461134,11.4883658 16.2966559,12.686147 15.6396031,13.502904 L15.4879755,13.6717922 L12.093863,17.0659048 C11.2815725,17.8781953 9.9645893,17.8781953 9.15229877,17.0659048 C8.39416095,16.307767 8.34361843,15.1099858 9.00067121,14.2932288 L9.15229877,14.1243406 L12.5464113,10.730228 Z" fill="#38B2A6" fill-rule="nonzero" transform="matrix(-1 0 0 1 23.822 .4)"/><path d="M52.5464113,47.530228 C53.3587019,46.7179375 54.675685,46.7179375 55.4879755,47.530228 C56.2461134,48.2883658 56.2966559,49.486147 55.6396031,50.302904 L55.4879755,50.4717922 L52.093863,53.8659048 C51.2815725,54.6781953 49.9645893,54.6781953 49.1522988,53.8659048 C48.3941609,53.107767 48.3436184,51.9099858 49.0006712,51.0932288 L49.1522988,50.9243406 L52.5464113,47.530228 Z" fill="#38B2A6" fill-rule="nonzero" transform="matrix(1 0 0 -1 -.818 101.796)"/><path d="M12.5464113,47.530228 C13.3587019,46.7179375 14.675685,46.7179375 15.4879755,47.530228 C16.2461134,48.2883658 16.2966559,49.486147 15.6396031,50.302904 L15.4879755,50.4717922 L12.093863,53.8659048 C11.2815725,54.6781953 9.9645893,54.6781953 9.15229877,53.8659048 C8.39416095,53.107767 8.34361843,51.9099858 9.00067121,51.0932288 L9.15229877,50.9243406 L12.5464113,47.530228 Z" fill="#38B2A6" fill-rule="nonzero" transform="rotate(180 11.911 50.898)"/><path d="M60.8,30.3588954 C61.9487523,30.3588954 62.88,31.2901432 62.88,32.4388954 C62.88,33.5158507 62.0615206,34.4016399 61.0126679,34.5081566 L60.8,34.5188954 L56,34.5188954 C54.8512477,34.5188954 53.92,33.5876477 53.92,32.4388954 C53.92,31.3619402 54.7384794,30.476151 55.7873321,30.3696342 L56,30.3588954 L60.8,30.3588954 Z" fill="#38B2A6" fill-rule="nonzero" transform="translate(-.818 .4)"/><path d="M8,30.3588954 C9.14875228,30.3588954 10.08,31.2901432 10.08,32.4388954 C10.08,33.5158507 9.26152056,34.4016399 8.21266792,34.5081566 L8,34.5188954 L3.2,34.5188954 C2.05124772,34.5188954 1.12,33.5876477 1.12,32.4388954 C1.12,31.3619402 1.93847944,30.476151 2.98733208,30.3696342 L3.2,30.3588954 L8,30.3588954 Z" fill="#38B2A6" fill-rule="nonzero" transform="matrix(-1 0 0 1 10.382 .4)"/></g></svg>