<svg xmlns="http://www.w3.org/2000/svg" viewBox="0 0 38 41">
    <path d="M35.86 0v37.274H38V41H0v-3.726h9.634v-8.692H8.296v4.167H.134V2.184h8.162v4.214h1.338V0h26.225zm-8.848 32.772h-8.311v4.692h8.311v-4.692zM3.977 26.429h-.983v4.306h2.704v-.818H3.977v-3.488zM9.634 7.82H8.296V27.16h1.338V7.82zM18.7 22.047h-4.718v4.692H18.7v-4.692zm6.514 0h-4.717v4.692h4.717v-4.692zm6.515 0h-4.718v4.692h4.718v-4.692zM5.592 20.839H2.92v4.306h2.762v-.798H3.903v-1.023h1.593v-.792H3.903v-.894h1.69v-.799zm.283-5.59H2.548v.818h1.163v3.488h.983v-3.488h1.181v-.817zm12.826-1.246h-4.718v4.692H18.7v-4.692zm6.514 0h-4.717v4.692h4.717v-4.692zm6.515 0h-4.718v4.692h4.718v-4.692zM4.24 9.59c-1.278 0-2.107.965-2.107 2.256 0 1.226.752 2.191 2.037 2.191 1.265 0 2.126-.856 2.126-2.268 0-1.188-.726-2.179-2.056-2.179zm.013.708c.856 0 1.329.707 1.328 1.528 0 .89-.48 1.556-1.32 1.556-.831 0-1.336-.632-1.336-1.528 0-.838.433-1.477 1.184-1.55l.144-.006zm14.448-4.338h-4.718v4.692H18.7V5.96zm6.514 0h-4.717v4.692h4.717V5.96zm6.515 0h-4.718v4.692h4.718V5.96zM3.405 4.07h-.982v4.306h.982V6.575h1.612v1.801h.977V4.07h-.977v1.655H3.405V4.07z"/>
</svg>
