<svg viewBox="0 0 18 20" xmlns="http://www.w3.org/2000/svg"><path d="M17.162 1.703h-1.255V3.83c0 2.68-1.22 5.086-3.316 6.392 2.095 1.305 3.316 3.693 3.316 6.373v1.702h1.255c.43 0 .826.304.826.878 0 .455-.348.825-.778.825H.778C.348 20 0 19.63 0 19.175c0-.455.304-.878.838-.878h1.255v-1.702c0-2.68 1.3-5.068 3.396-6.373-2.095-1.304-3.396-3.71-3.396-6.39v-2.13H.838c-.43 0-.826-.422-.826-.877S.408 0 .838 0h16.384c.43 0 .778.396.778.851-.002.457-.41.852-.838.852zm-2.93 0H3.768V3.83c0 2.645 1.379 4.947 3.8 5.592a.777.777 0 0 1 .27.135l.004.002.018.014.014.012c.002.002.006.004.008.009a.853.853 0 0 1 .205.965l-.012.023-.006.013c-.002.006-.006.012-.01.018l-.012.022-.006.01c-.012.022-.026.043-.04.065v.002c-.006.01-.014.018-.022.028l-.004.004-.02.024c-.001.002-.003.004-.003.007l-.02.024c-.002.002-.002.004-.004.004-.008.008-.016.018-.026.026a.693.693 0 0 1-.058.05s-.002.003-.004.003a.241.241 0 0 1-.028.02l-.002.002a.743.743 0 0 1-.276.123c-2.401.658-3.766 2.933-3.766 5.568v1.702h10.464v-1.702c0-2.646-1.388-4.929-3.81-5.574l-.037-.01-.01-.004a.096.096 0 0 1-.022-.008c-.006-.002-.012-.004-.018-.008l-.012-.004a.8.8 0 0 1-.257-.176l-.004-.004c-.006-.006-.01-.012-.016-.016l-.01-.012-.011-.015-.014-.018-.006-.008-.02-.028a.691.691 0 0 1-.076-.136v-.002l-.014-.034-.002-.004-.012-.032-.002-.007a.201.201 0 0 1-.01-.032l-.002-.004-.012-.04-.006-.029-.002-.008-.005-.032c0-.002 0-.006-.002-.008-.002-.012-.004-.025-.004-.035v-.004c-.04-.402.202-.782.582-.883 2.426-.643 3.814-2.945 3.814-5.59zm-4.13 6.485a2.02 2.02 0 0 0-1.104.76 2.106 2.106 0 0 0-.284-.313l-.056-.049-.044-.04-.05-.034a1.956 1.956 0 0 0-.674-.326C6.637 7.852 5.706 6.87 5.282 5.531h7.44c-.428 1.339-1.363 2.323-2.62 2.657zm-1.514 4.789l.074-.06.01-.009.046-.04.007-.009c.034-.03.066-.06.096-.093l.042-.044.055-.067.058-.073s.02-.028.02-.03l.115.178.05.028.016.014a1.589 1.589 0 0 0 .563.38 1.326 1.326 0 0 0 .143.049c1.403.4 2.258 1.582 2.258 3.456v.362h-6.28v-.362c0-1.86.841-3.035 2.222-3.448.167-.044.326-.115.473-.216z"/></svg>