<svg width="16" height="16" xmlns="http://www.w3.org/2000/svg"><path d="M14.5714286,0 C15.3604068,-1.44932947e-16 16,0.639593215 16,1.42857143 L16,14.5714286 C16,15.3604068 15.3604068,16 14.5714286,16 L1.42857143,16 C0.639593215,16 -1.2542264e-16,15.3604068 0,14.5714286 L0,1.42857143 C-9.66219644e-17,0.639593215 0.639593215,-7.71116583e-17 1.42857143,0 L14.5714286,0 Z M12,10.2857143 L4.34285714,10.2857143 C4.02726586,10.2857143 3.77142857,10.5415516 3.77142857,10.8571429 C3.77142857,11.1727341 4.02726586,11.4285714 4.34285714,11.4285714 L4.34285714,11.4285714 L12,11.4285714 C12.3155913,11.4285714 12.5714286,11.1727341 12.5714286,10.8571429 C12.5714286,10.5415516 12.3155913,10.2857143 12,10.2857143 L12,10.2857143 Z M12,7.42857143 L4.34285714,7.42857143 C4.02726586,7.42857143 3.77142857,7.68440871 3.77142857,8 C3.77142857,8.31559129 4.02726586,8.57142857 4.34285714,8.57142857 L4.34285714,8.57142857 L12,8.57142857 C12.3155913,8.57142857 12.5714286,8.31559129 12.5714286,8 C12.5714286,7.68440871 12.3155913,7.42857143 12,7.42857143 L12,7.42857143 Z M12,4.57142857 L4.34285714,4.57142857 C4.02726586,4.57142857 3.77142857,4.82726586 3.77142857,5.14285714 C3.77142857,5.45844843 4.02726586,5.71428571 4.34285714,5.71428571 L4.34285714,5.71428571 L12,5.71428571 C12.3155913,5.71428571 12.5714286,5.45844843 12.5714286,5.14285714 C12.5714286,4.82726586 12.3155913,4.57142857 12,4.57142857 L12,4.57142857 Z" fill="" fill-rule="evenodd"/></svg>