<svg width="20" height="20" xmlns="http://www.w3.org/2000/svg"><path d="M17.8223767,5.79932623 L15.3192162,7.24456959 L15.3192162,4.26387772 C15.3192162,3.57165125 14.7579607,3.00884956 14.0676359,3.00884956 L2.49051833,3.00884956 C1.80019358,3.00884956 1.23893805,3.57165125 1.23893805,4.26387772 L1.23893805,15.5591311 C1.23893805,16.2513576 1.80019358,16.8141593 2.49051833,16.8141593 L14.0676359,16.8141593 C14.7579607,16.8141593 15.3192162,16.2513576 15.3192162,15.5591311 L15.3192162,12.5784393 L17.8223767,14.0236826 C18.2389183,14.2648833 18.7610619,13.9628922 18.7610619,13.4824517 L18.7610619,6.3425181 C18.7610619,5.86011665 18.2389183,5.5581255 17.8223767,5.79932623 Z M13.9111884,15.4022526 L2.64696587,15.4022526 L2.64696587,4.42075623 L13.9111884,4.42075623 L13.9111884,15.4022526 Z M17.3530341,12.1274135 L15.3192162,10.9547466 L15.3192162,8.87022325 L17.3530341,7.69559533 L17.3530341,12.1274135 Z M4.05499368,6.93081255 L6.24525917,6.93081255 C6.33130531,6.93081255 6.4017067,6.86021722 6.4017067,6.77393403 L6.4017067,5.83266291 C6.4017067,5.74637973 6.33130531,5.67578439 6.24525917,5.67578439 L4.05499368,5.67578439 C3.96894753,5.67578439 3.89854614,5.74637973 3.89854614,5.83266291 L3.89854614,6.77393403 C3.89854614,6.86021722 3.96894753,6.93081255 4.05499368,6.93081255 Z" fill="" fill-rule="nonzero"/></svg>