<svg  viewBox="0 0 13 17"  xmlns="http://www.w3.org/2000/svg">
<path d="M1009.80255,313 C1009.89013,313 1009.96178,313.071656 1009.96178,313.159236 L1009.96178,313.159236 L1009.96178,314.273885 C1009.96178,314.361465 1009.89013,314.433121 1009.80255,314.433121 L1009.80255,314.433121 L1003.43312,314.433121 L1003.43312,327.490446 L1016.49045,327.490446 L1016.49045,321.121019 C1016.49045,321.033439 1016.5621,320.961783 1016.64968,320.961783 L1016.64968,320.961783 L1017.76433,320.961783 C1017.85191,320.961783 1017.92357,321.033439 1017.92357,321.121019 L1017.92357,321.121019 L1017.92357,328.286624 C1017.92357,328.638933 1017.63893,328.923567 1017.28662,328.923567 L1017.28662,328.923567 L1002.63694,328.923567 C1002.28463,328.923567 1002,328.638933 1002,328.286624 L1002,328.286624 L1002,313.636943 C1002,313.284634 1002.28463,313 1002.63694,313 L1002.63694,313 Z M1015.29021,313 C1015.33201,313 1015.37182,313.013933 1015.40366,313.04578 L1015.40366,313.04578 L1017.87779,315.517914 C1017.93949,315.579618 1017.93949,315.681131 1017.87779,315.742834 L1017.87779,315.742834 L1009.59952,324.003185 C1009.57166,324.031051 1009.53185,324.046975 1009.49204,324.048965 L1009.49204,324.048965 L1007.14331,324.106688 C1006.9582,324.106688 1006.81489,323.961385 1006.81686,323.784236 L1006.81686,323.784236 L1006.8547,321.417596 C1006.8547,321.375796 1006.87261,321.335987 1006.90048,321.306131 L1006.90048,321.306131 L1015.17675,313.04578 C1015.2086,313.015924 1015.24841,313 1015.29021,313 Z M1015.29021,314.731688 L1008.11863,321.887341 L1008.1047,322.810908 L1009.01433,322.789013 L1016.18989,315.629379 L1015.29021,314.731688 Z" 
transform="translate(-1002 -313)"  /></svg>