<svg width="214" height="174" xmlns="http://www.w3.org/2000/svg"><g fill="none" fill-rule="evenodd"><path d="M194.616512,170.166681 C188.41097,176.379987 176.645258,173.892592 169.275598,168.305917 C162.915797,163.484149 158.438883,155.471248 151.955741,150.87961 C141.105536,143.197657 127.019541,146.629879 114.943629,152.494902 C106.400296,156.643814 97.0417535,161.987209 88.7161964,158.156096 C82.857471,155.460289 78.9124674,148.598037 76.8368597,141.262375 C75.8347093,137.720568 75.1332041,133.876304 73.1366121,131.103787 C71.9494493,129.45562 70.3806985,128.307162 68.7676218,127.347192 C54.045647,118.580342 35.1088589,124.059623 20.8359246,114.27801 C11.1998631,107.672188 5.2023784,94.8528616 2.71049289,81.376021 C0.218607385,67.8991804 0.835315322,53.6727741 1.82782966,39.6896479 C2.53318936,29.7524231 3.64904529,19.1335757 8.90262603,11.3245039 C14.4587791,3.06832261 23.771069,-0.212671107 32.0985533,1.08043931 C40.4260377,2.37354973 47.8920581,7.63365989 54.4233806,13.9129164 C62.5928336,21.7460971 70.1089616,31.5803114 80.2692248,34.5544654 C87.1898442,36.5796078 94.5421592,35.1462278 101.736443,34.5128228 C113.762247,33.4564174 125.745654,34.6728179 137.655826,36.0470216 C149.057214,37.3620492 160.537617,38.8304966 171.335788,43.1415952 C178.977185,46.1924591 202.460814,57.6027612 210.242327,75.7586593 C212.097511,80.0871916 223.348033,141.399214 194.616512,170.166681 Z" fill="#E2F4F2" transform="matrix(-1 0 0 1 214.921 0)"/><path d="M19,96 C19,96 19.9037776,68.7149267 34.3888684,53.2972973 C40.468827,46.8276983 44.461881,38.6109168 45.519027,29.7187069 C46.0132077,25.4986095 46.1268834,21.2412402 45.8586283,17" stroke="#4C4C4C" transform="translate(145 54)"/><path d="M54.6932513 7.77742433C53.644678 10.8782723 44.8795327 18 44.8795327 18 44.8795327 18 42.1943741 7.14987177 43.2429474 4.05186342 43.9212978 2.04671816 45.6393272.548660864 47.7498706.121995222 49.8604139-.30467042 52.0428295.404876253 53.4750225 1.98335587 54.9072155 3.5618355 55.3716017 5.76943946 54.6932513 7.77458473L54.6932513 7.77742433zM58.5954157 27.6512898C56.0462753 29.6911133 45 31 45 31 45 31 48.6820918 20.48641 51.2312322 18.4494196 52.864081 17.0278136 55.1443771 16.6153607 57.1715566 17.3749519 59.198736 18.1345431 60.6468721 19.9440527 60.9440483 22.0888458 61.2412246 24.2336389 60.3396614 26.3688791 58.5954157 27.6512898zM48.0908465 55.9635857C44.9486016 56.4492495 35 51.9163872 35 51.9163872 35 51.9163872 43.2670311 44.550486 46.4092761 44.0648222 48.4414281 43.7503335 50.4794668 44.5947817 51.7556827 46.2800714 53.0318986 47.9653611 53.3524041 50.2354567 52.596468 52.235235 51.8405318 54.2350133 50.1229986 55.6606605 48.0908465 55.9751491L48.0908465 55.9635857zM35.9244673 76.7644548C32.8247845 77.8014042 22 75.0786878 22 75.0786878 22 75.0786878 29.1494057 66.3399269 32.2490886 65.3029775 35.3479075 64.2631749 38.6852974 65.9859873 39.7033577 69.1509868 40.721418 72.3159863 39.0346299 75.724652 35.9358111 76.7644548L35.9244673 76.7644548z" fill="#38B2A6" fill-rule="nonzero" transform="translate(145 54)"/><path d="M33.6537835 27.5379439C35.1562994 30.3988313 44.7486321 36 44.7486321 36 44.7486321 36 45.6201479 25.0080219 44.117632 22.1443298 43.1461403 20.2935332 41.2523244 19.097068 39.1495665 19.0056308 37.0468086 18.9141937 35.0545676 19.9416761 33.9233014 21.7010355 32.7920353 23.4603949 32.6936102 25.6843426 33.6651019 27.5351391L33.6537835 27.5379439zM18.7354785 51.1317402C21.0567697 53.4560704 32 56 32 56 32 56 29.4871736 45.0713698 27.1687411 42.7470396 24.8486435 40.423793 21.0799827 40.4167703 18.7512015 42.7313539 16.4224203 45.0459375 16.4153809 48.8056417 18.7354785 51.1288882L18.7354785 51.1317402zM8.15455634 76.1993744C9.98458754 78.790614 20 83 20 83 20 83 19.3973613 72.1801963 17.5645657 69.5862001 16.4099693 67.835147 14.3900707 66.8508436 12.2952391 67.0184393 10.2004074 67.186035 8.363718 68.4788824 7.50385167 70.3911014 6.64398534 72.3033203 6.89765962 74.5308706 8.16561393 76.202131L8.15455634 76.1993744z" fill="#38B2A6" fill-rule="nonzero" transform="translate(145 54)"/><path d="M8.88330015,34.260925 C9.39965626,35.9846016 8.03519192,42 8.03519192,42 C8.03519192,42 3.66623061,38.0227327 3.1498745,36.3019678 C2.63271678,34.5789518 3.49694857,32.7259203 5.08019028,32.163106 C6.66343199,31.6002917 8.36614224,32.5408208 8.88330015,34.2638367 L8.88330015,34.260925 Z" fill="#6C63FF" fill-rule="nonzero" transform="translate(145 54)"/><path d="M8.88330015,34.260925 C9.39965626,35.9846016 8.03519192,42 8.03519192,42 C8.03519192,42 3.66623061,38.0227327 3.1498745,36.3019678 C2.63271678,34.5789518 3.49694857,32.7259203 5.08019028,32.163106 C6.66343199,31.6002917 8.36614224,32.5408208 8.88330015,34.2638367 L8.88330015,34.260925 Z" fill="#FFF" fill-rule="nonzero" opacity=".5" transform="translate(145 54)"/><path fill="#4C4C4C" fill-rule="nonzero" d="M5.9990625 118L29.998125 118 36 82 0 82z" transform="translate(145 54)"/><path fill="#000" fill-rule="nonzero" opacity=".1" d="M4.53359245 82L10.0666297 115.640206 30 115.640206 29.611327 118 5.92171016 118 0 82z" transform="translate(145 54)"/><g fill-rule="nonzero"><path stroke="#E7E7E7" fill="#FFF" d="M0 0H128V156H0z" transform="translate(34 17)"/><path d="M12,0 C5.37600001,0 0,5.37600001 0,12 C0,18.624 5.37600001,24 12,24 C18.624,24 24,18.624 24,12 C24,5.37600001 18.624,0 12,0 Z M12,3.6 C13.992,3.6 15.6,5.20799999 15.6,7.19999999 C15.6,9.192 13.992,10.8 12,10.8 C10.008,10.8 8.4,9.192 8.4,7.19999999 C8.4,5.20799999 10.008,3.6 12,3.6 Z M12,20.64 C9.10410613,20.64 6.40078578,19.1892315 4.80000001,16.776 C4.83600001,14.388 9.60000001,13.08 12,13.08 C14.388,13.08 19.164,14.388 19.2,16.776 C17.5992142,19.1892315 14.8958939,20.64 12,20.64 Z" transform="translate(47 34)" fill="#FCCE01"/><path d="M12,0 C5.37600001,0 0,5.37600001 0,12 C0,18.624 5.37600001,24 12,24 C18.624,24 24,18.624 24,12 C24,5.37600001 18.624,0 12,0 Z M12,3.6 C13.992,3.6 15.6,5.20799999 15.6,7.19999999 C15.6,9.192 13.992,10.8 12,10.8 C10.008,10.8 8.4,9.192 8.4,7.19999999 C8.4,5.20799999 10.008,3.6 12,3.6 Z M12,20.64 C9.10410613,20.64 6.40078578,19.1892315 4.80000001,16.776 C4.83600001,14.388 9.60000001,13.08 12,13.08 C14.388,13.08 19.164,14.388 19.2,16.776 C17.5992142,19.1892315 14.8958939,20.64 12,20.64 Z" transform="translate(47 83)" fill="#FCCE01"/><path d="M12,0 C5.37600001,0 0,5.37600001 0,12 C0,18.624 5.37600001,24 12,24 C18.624,24 24,18.624 24,12 C24,5.37600001 18.624,0 12,0 Z M12,3.6 C13.992,3.6 15.6,5.20799999 15.6,7.19999999 C15.6,9.192 13.992,10.8 12,10.8 C10.008,10.8 8.4,9.192 8.4,7.19999999 C8.4,5.20799999 10.008,3.6 12,3.6 Z M12,20.64 C9.10410613,20.64 6.40078578,19.1892315 4.80000001,16.776 C4.83600001,14.388 9.60000001,13.08 12,13.08 C14.388,13.08 19.164,14.388 19.2,16.776 C17.5992142,19.1892315 14.8958939,20.64 12,20.64 Z" transform="translate(47 135)" fill="#FCCE01"/><path fill="#9E9E9E" d="M51 18H102V21H51zM51 26H102V29H51zM51 35H78V38H51zM51 69H102V72H51zM51 76H102V79H51zM51 85H78V88H51zM51 119H102V122H51zM51 128H102V131H51zM51 137H78V140H51z" transform="translate(34 17)"/></g><g fill="#E82127" fill-rule="nonzero"><path d="M2.43,0.0466666667 C2.3816556,0.317652549 2.23773464,0.5283153 2.05425,0.596666667 L1.46925,0.596666667 L1.44,0.613333333 L1.44,2.8 L1.08,2.8 L1.08,0.613333333 L1.04625,0.596666667 L0.46125,0.596666667 C0.278492957,0.526409521 0.135121944,0.316551751 0.0855,0.0466666667 L0.0855,0.0466666667 L2.43,0.0466666667 L2.43,0.0466666667" transform="translate(126.192 111)"/></g><path d="M137,105.800837 C137,105.800837 131.513064,106.2 130,105 C131.992478,106.607481 134.345447,107.64115 136.828979,108 L137,105.800837 Z" fill="#000" fill-rule="nonzero" opacity=".1"/></g></svg>