<svg viewBox="0 0 16 16" xmlns="http://www.w3.org/2000/svg"><g fill="none" fill-rule="evenodd"><path d="M8,16 C3.581722,16 0,12.418278 0,8 C0,3.581722 3.581722,0 8,0 C12.418278,0 16,3.581722 16,8 C16,12.418278 12.418278,16 8,16 Z" fill="#F5A623" transform="matrix(1 0 0 -1 0 16)"/><path d="M8.23883047,10.5 C8.66454602,10.5 9.00965665,10.8447407 9.00965665,11.27 L9.00965665,11.27 L9.00965665,11.73 C9.00965665,12.1552593 8.66454602,12.5 8.23883047,12.5 L8.23883047,12.5 L7.77833691,12.5 C7.35187983,12.5 7.00751073,12.156 7.00751073,11.73 L7.00751073,11.73 L7.00751073,11.27 C7.00751073,10.8447407 7.35262137,10.5 7.77833691,10.5 L7.77833691,10.5 Z M8.23883047,3.5 C8.66454602,3.5 9.00965665,3.84474074 9.00965665,4.27 L9.00965665,4.27 L9.00965665,8.73 C9.00965665,9.15525926 8.66454602,9.5 8.23883047,9.5 L8.23883047,9.5 L7.77833691,9.5 C7.35187983,9.5 7.00751073,9.156 7.00751073,8.73 L7.00751073,8.73 L7.00751073,4.27 C7.00751073,3.84474074 7.35262137,3.5 7.77833691,3.5 L7.77833691,3.5 Z" fill="#FFF" transform="matrix(1 0 0 -1 0 16)"/></g></svg>