<svg width="53" height="53" xmlns="http://www.w3.org/2000/svg"><g fill="none" fill-rule="evenodd"><path fill="#ED9B1E" d="M0 0L0.0124189586 53 53 1.07125316e-15z"/><path d="M5.85290323,14.8382393 C5.59277289,14.4852052 5.25367951,14.2274014 4.8356129,14.0648199 C4.4175463,13.9022385 4.00877619,13.8209489 3.60929032,13.8209489 C3.09832003,13.8209489 2.63380854,13.9138512 2.21574194,14.0996586 C1.79767533,14.285466 1.43767893,14.5409473 1.13574194,14.8661102 C0.833804942,15.1912731 0.6015492,15.5721726 0.438967742,16.0088199 C0.276386284,16.4454673 0.195096774,16.919269 0.195096774,17.4302393 C0.195096774,17.9690807 0.274063726,18.4614628 0.432,18.9074006 C0.589936274,19.3533383 0.815224343,19.7365602 1.10787097,20.057078 C1.40051759,20.3775957 1.75122376,20.6261093 2.16,20.8026264 C2.56877624,20.9791434 3.02864261,21.0674006 3.5396129,21.0674006 C4.06916394,21.0674006 4.53832054,20.9628855 4.94709677,20.7538522 C5.35587301,20.5448189 5.68567617,20.2684345 5.93651613,19.9246909 L7.344,20.9141102 C6.90735266,21.462242 6.37316445,21.88727 5.74141935,22.189207 C5.10967426,22.491144 4.371101,22.6421102 3.52567742,22.6421102 C2.75457679,22.6421102 2.04619678,22.5143696 1.40051613,22.2588844 C0.754835481,22.0033993 0.199744258,21.6457254 -0.264774194,21.1858522 C-0.729292645,20.7259789 -1.0916116,20.1778553 -1.35174194,19.5414651 C-1.61187227,18.9050748 -1.74193548,18.2013399 -1.74193548,17.4302393 C-1.74193548,16.6405579 -1.6049046,15.9275328 -1.33083871,15.2911425 C-1.05677282,14.6547522 -0.680518521,14.1135963 -0.202064516,13.6676586 C0.276389489,13.2217209 0.840770942,12.8779824 1.49109677,12.6364328 C2.14142261,12.3948832 2.84748006,12.2741102 3.60929032,12.2741102 C3.92516287,12.2741102 4.25496602,12.3043035 4.59870968,12.3646909 C4.94245333,12.4250783 5.27225649,12.5179806 5.58812903,12.6434006 C5.90400158,12.7688205 6.20128893,12.9244319 6.48,13.1102393 C6.75871107,13.2960466 6.99561193,13.5190122 7.19070968,13.7791425 L5.85290323,14.8382393 Z M7.95716129,19.0188844 C7.95716129,18.4893334 8.05238614,18.008564 8.24283871,17.5765618 C8.43329127,17.1445597 8.69109515,16.7752731 9.01625806,16.4686909 C9.34142098,16.1621087 9.72696551,15.9252078 10.1729032,15.7579812 C10.6188409,15.5907546 11.0926427,15.5071425 11.5943226,15.5071425 C12.0960025,15.5071425 12.5698042,15.5907546 13.0157419,15.7579812 C13.4616796,15.9252078 13.8472242,16.1621087 14.1723871,16.4686909 C14.49755,16.7752731 14.7553539,17.1445597 14.9458065,17.5765618 C15.136259,18.008564 15.2314839,18.4893334 15.2314839,19.0188844 C15.2314839,19.5484355 15.136259,20.0315274 14.9458065,20.4681747 C14.7553539,20.9048221 14.49755,21.2787538 14.1723871,21.5899812 C13.8472242,21.9012086 13.4616796,22.1450771 13.0157419,22.3215941 C12.5698042,22.4981111 12.0960025,22.5863683 11.5943226,22.5863683 C11.0926427,22.5863683 10.6188409,22.4981111 10.1729032,22.3215941 C9.72696551,22.1450771 9.34142098,21.9012086 9.01625806,21.5899812 C8.69109515,21.2787538 8.43329127,20.9048221 8.24283871,20.4681747 C8.05238614,20.0315274 7.95716129,19.5484355 7.95716129,19.0188844 Z M9.65729032,19.0188844 C9.65729032,19.2790148 9.6967738,19.5391412 9.77574194,19.7992715 C9.85471007,20.0594019 9.9731605,20.2916576 10.1310968,20.4960457 C10.289033,20.7004338 10.488773,20.867658 10.7303226,20.9977231 C10.9718722,21.1277883 11.2598693,21.1928199 11.5943226,21.1928199 C11.9287759,21.1928199 12.216773,21.1277883 12.4583226,20.9977231 C12.6998722,20.867658 12.8996121,20.7004338 13.0575484,20.4960457 C13.2154847,20.2916576 13.3339351,20.0594019 13.4129032,19.7992715 C13.4918714,19.5391412 13.5313548,19.2790148 13.5313548,19.0188844 C13.5313548,18.7587541 13.4918714,18.5009502 13.4129032,18.2454651 C13.3339351,17.9899799 13.2154847,17.7600467 13.0575484,17.5556586 C12.8996121,17.3512705 12.6998722,17.1863689 12.4583226,17.0609489 C12.216773,16.935529 11.9287759,16.8728199 11.5943226,16.8728199 C11.2598693,16.8728199 10.9718722,16.935529 10.7303226,17.0609489 C10.488773,17.1863689 10.289033,17.3512705 10.1310968,17.5556586 C9.9731605,17.7600467 9.85471007,17.9899799 9.77574194,18.2454651 C9.6967738,18.5009502 9.65729032,18.7587541 9.65729032,19.0188844 Z M15.8446452,15.7022393 L17.6701935,15.7022393 L19.4260645,20.5796586 L19.4539355,20.5796586 L21.2237419,15.7022393 L22.9935484,15.7022393 L20.331871,22.3912715 L18.548129,22.3912715 L15.8446452,15.7022393 Z M28.7070968,18.3778522 C28.7070968,18.1641737 28.6769035,17.9597886 28.6165161,17.7646909 C28.5561287,17.5695931 28.4609039,17.3977239 28.3308387,17.249078 C28.2007735,17.1004321 28.035872,16.9819816 27.836129,16.8937231 C27.6363861,16.8054646 27.4018078,16.761336 27.1323871,16.761336 C26.6307072,16.761336 26.2056792,16.9123023 25.8572903,17.2142393 C25.5089015,17.5161763 25.3161292,17.9040433 25.2789677,18.3778522 L28.7070968,18.3778522 Z M30.3793548,19.1303683 L30.3793548,19.353336 C30.3793548,19.427659 30.3747097,19.5019808 30.3654194,19.5763038 L25.2789677,19.5763038 C25.2975485,19.8178534 25.3602575,20.0384963 25.4670968,20.2382393 C25.573936,20.4379822 25.715612,20.6098514 25.892129,20.7538522 C26.068646,20.8978529 26.268386,21.0116582 26.4913548,21.0952715 C26.7143237,21.1788848 26.9465794,21.2206909 27.188129,21.2206909 C27.6061956,21.2206909 27.9592244,21.1440465 28.2472258,20.9907554 C28.5352272,20.8374643 28.7721281,20.6261116 28.9579355,20.3566909 L30.0727742,21.2485618 C29.413158,22.1404373 28.4562643,22.5863683 27.2020645,22.5863683 C26.6818039,22.5863683 26.203357,22.5050788 25.7667097,22.3424973 C25.3300623,22.1799159 24.9514855,21.9499827 24.6309677,21.6526909 C24.31045,21.3553991 24.0596138,20.9907576 23.8784516,20.5587554 C23.6972894,20.1267532 23.6067097,19.6366936 23.6067097,19.0885618 C23.6067097,18.5497204 23.6972894,18.0596608 23.8784516,17.6183683 C24.0596138,17.1770758 24.3081275,16.8008215 24.624,16.4895941 C24.9398725,16.1783667 25.3138043,15.9368208 25.7458065,15.7649489 C26.1778086,15.5930771 26.6446427,15.5071425 27.1463226,15.5071425 C27.610841,15.5071425 28.0405142,15.5837869 28.4353548,15.737078 C28.8301955,15.8903691 29.1716115,16.1179797 29.4596129,16.4199167 C29.7476143,16.7218537 29.9729024,17.098108 30.1354839,17.5486909 C30.2980653,17.9992738 30.3793548,18.5264943 30.3793548,19.1303683 Z M31.995871,15.7022393 L33.5984516,15.7022393 L33.5984516,16.817078 L33.6263226,16.817078 C33.81213,16.4268825 34.0722564,16.1110147 34.4067097,15.8694651 C34.741163,15.6279155 35.1313526,15.5071425 35.5772903,15.5071425 C35.6423229,15.5071425 35.7119996,15.509465 35.7863226,15.5141102 C35.8606455,15.5187554 35.9256771,15.5303682 35.9814194,15.5489489 L35.9814194,17.0818522 C35.8699349,17.0539811 35.7747101,17.0354006 35.6957419,17.0261102 C35.6167738,17.0168199 35.5401294,17.0121747 35.4658065,17.0121747 C35.0849013,17.0121747 34.7783237,17.0818515 34.5460645,17.221207 C34.3138053,17.3605625 34.1326458,17.5277867 34.0025806,17.7228844 C33.8725155,17.9179822 33.7842583,18.1177221 33.7378065,18.3221102 C33.6913546,18.5264984 33.668129,18.6890774 33.668129,18.8098522 L33.668129,22.3912715 L31.995871,22.3912715 L31.995871,15.7022393 Z" fill="#FFF" fill-rule="nonzero" transform="rotate(-45 17.12 17.458)"/></g></svg>