<svg width="60" height="41" xmlns="http://www.w3.org/2000/svg"><path d="M5.504,31.288 C5.792,31.288 6.084,31.316 6.38,31.372 C6.676,31.428 6.96,31.512 7.232,31.624 C7.504,31.736 7.752,31.874 7.976,32.038 C8.2,32.202 8.392,32.392 8.552,32.608 L8.552,32.608 L7.616,33.328 L7.50483333,33.1881667 C7.30761111,32.9620556 7.05066667,32.7706667 6.734,32.614 C6.354,32.426 5.944,32.332 5.504,32.332 C5.008,32.332 4.562,32.422 4.166,32.602 C3.77,32.782 3.432,33.028 3.152,33.34 C2.872,33.652 2.656,34.014 2.504,34.426 C2.352,34.838 2.276,35.276 2.276,35.74 C2.276,36.22 2.35,36.668 2.498,37.084 C2.646,37.5 2.858,37.862 3.134,38.17 C3.41,38.478 3.746,38.72 4.142,38.896 C4.538,39.072 4.98,39.16 5.468,39.16 C5.948,39.16 6.384,39.064 6.776,38.872 C7.168,38.68 7.492,38.4 7.748,38.032 L7.748,38.032 L8.696,38.68 L8.54587755,38.8701633 C8.23338776,39.2399592 7.84742857,39.5465714 7.388,39.79 C6.852,40.074 6.208,40.216 5.456,40.216 C4.808,40.216 4.21,40.106 3.662,39.886 C3.114,39.666 2.642,39.358 2.246,38.962 C1.85,38.566 1.54,38.094 1.316,37.546 C1.092,36.998 0.98,36.396 0.98,35.74 C0.98,35.076 1.094,34.47 1.322,33.922 C1.55,33.374 1.866,32.906 2.27,32.518 C2.674,32.13 3.152,31.828 3.704,31.612 C4.256,31.396 4.856,31.288 5.504,31.288 Z M12.536,34.156 C12.968,34.156 13.372,34.23 13.748,34.378 C14.124,34.526 14.45,34.732 14.726,34.996 C15.002,35.26 15.218,35.574 15.374,35.938 C15.53,36.302 15.608,36.704 15.608,37.144 C15.608,37.584 15.53,37.988 15.374,38.356 C15.218,38.724 15.002,39.042 14.726,39.31 C14.45,39.578 14.124,39.786 13.748,39.934 C13.372,40.082 12.968,40.156 12.536,40.156 C12.104,40.156 11.7,40.082 11.324,39.934 C10.948,39.786 10.624,39.578 10.352,39.31 C10.08,39.042 9.866,38.724 9.71,38.356 C9.554,37.988 9.476,37.584 9.476,37.144 C9.476,36.704 9.554,36.302 9.71,35.938 C9.866,35.574 10.08,35.26 10.352,34.996 C10.624,34.732 10.948,34.526 11.324,34.378 C11.7,34.23 12.104,34.156 12.536,34.156 Z M41.024,34.156 C41.44,34.156 41.818,34.224 42.158,34.36 C42.498,34.496 42.786,34.692 43.022,34.948 C43.258,35.204 43.44,35.514 43.568,35.878 C43.696,36.242 43.76,36.652 43.76,37.108 L43.76,37.108 L43.76,37.3 L43.757,37.396 L43.757,37.396 L43.748,37.492 L39.236,37.492 L39.250625,37.669375 C39.273875,37.844125 39.323,38.011 39.398,38.17 C39.498,38.382 39.632,38.566 39.8,38.722 C39.968,38.878 40.162,39 40.382,39.088 C40.602,39.176 40.836,39.22 41.084,39.22 C41.468,39.22 41.8,39.136 42.08,38.968 C42.36,38.8 42.58,38.596 42.74,38.356 L42.74,38.356 L43.532,38.992 L43.3984082,39.1569388 C43.1246122,39.4738367 42.8111429,39.7128571 42.458,39.874 C42.046,40.062 41.588,40.156 41.084,40.156 C40.652,40.156 40.252,40.084 39.884,39.94 C39.516,39.796 39.2,39.594 38.936,39.334 C38.672,39.074 38.464,38.76 38.312,38.392 C38.16,38.024 38.084,37.616 38.084,37.168 C38.084,36.728 38.158,36.322 38.306,35.95 C38.454,35.578 38.66,35.26 38.924,34.996 C39.188,34.732 39.5,34.526 39.86,34.378 C40.22,34.23 40.608,34.156 41.024,34.156 Z M58.052,34.156 C58.46,34.156 58.854,34.236 59.234,34.396 C59.614,34.556 59.908,34.788 60.116,35.092 L60.116,35.092 L59.336,35.752 L59.25296,35.63176 C59.13392,35.47752 58.9816,35.3476 58.796,35.242 C58.564,35.11 58.304,35.044 58.016,35.044 C57.888,35.044 57.76,35.058 57.632,35.086 C57.504,35.114 57.39,35.158 57.29,35.218 C57.19,35.278 57.11,35.354 57.05,35.446 C56.99,35.538 56.96,35.652 56.96,35.788 C56.96,36.028 57.068,36.206 57.284,36.322 C57.5,36.438 57.824,36.544 58.256,36.64 C58.528,36.704 58.78,36.78 59.012,36.868 C59.244,36.956 59.446,37.066 59.618,37.198 C59.79,37.33 59.924,37.488 60.02,37.672 C60.116,37.856 60.164,38.072 60.164,38.32 C60.164,38.656 60.1,38.94 59.972,39.172 C59.844,39.404 59.674,39.594 59.462,39.742 C59.25,39.89 59.008,39.996 58.736,40.06 C58.464,40.124 58.184,40.156 57.896,40.156 C57.464,40.156 57.042,40.072 56.63,39.904 C56.218,39.736 55.876,39.48 55.604,39.136 L55.604,39.136 L56.408,38.452 L56.50616,38.58208 C56.64632,38.74976 56.8236,38.8944 57.038,39.016 C57.306,39.168 57.6,39.244 57.92,39.244 C58.064,39.244 58.202,39.23 58.334,39.202 C58.466,39.174 58.586,39.128 58.694,39.064 C58.802,39 58.888,38.916 58.952,38.812 C59.016,38.708 59.048,38.576 59.048,38.416 C59.048,38.152 58.922,37.956 58.67,37.828 C58.418,37.7 58.048,37.58 57.56,37.468 C57.368,37.42 57.174,37.362 56.978,37.294 C56.782,37.226 56.604,37.132 56.444,37.012 C56.284,36.892 56.154,36.742 56.054,36.562 C55.954,36.382 55.904,36.16 55.904,35.896 C55.904,35.592 55.966,35.33 56.09,35.11 C56.214,34.89 56.376,34.71 56.576,34.57 C56.776,34.43 57.004,34.326 57.26,34.258 C57.516,34.19 57.78,34.156 58.052,34.156 Z M53.588,32.68 L53.588,34.312 L55.1,34.312 L55.1,35.236 L53.588,35.236 L53.588,38.2 L53.5919184,38.3414286 C53.6075918,38.6122857 53.6702857,38.8111429 53.78,38.938 C53.908,39.086 54.112,39.16 54.392,39.16 C54.496,39.16 54.608,39.148 54.728,39.124 C54.848,39.1 54.956,39.064 55.052,39.016 L55.052,39.016 L55.088,39.94 L54.9473333,39.9846667 C54.8504444,40.0122222 54.7473333,40.0353333 54.638,40.054 C54.474,40.082 54.304,40.096 54.128,40.096 C53.592,40.096 53.182,39.948 52.898,39.652 C52.614,39.356 52.472,38.912 52.472,38.32 L52.472,38.32 L52.472,35.236 L51.38,35.236 L51.38,34.312 L52.472,34.312 L52.472,32.68 L53.588,32.68 Z M23.78,34.156 C24.148,34.156 24.464,34.218 24.728,34.342 C24.992,34.466 25.212,34.632 25.388,34.84 C25.564,35.048 25.694,35.292 25.778,35.572 C25.862,35.852 25.904,36.152 25.904,36.472 L25.904,36.472 L25.904,40 L24.776,40 L24.776,36.844 L24.7693333,36.616 C24.7604444,36.4666667 24.7426667,36.3226667 24.716,36.184 C24.676,35.976 24.608,35.792 24.512,35.632 C24.416,35.472 24.288,35.344 24.128,35.248 C23.968,35.152 23.764,35.104 23.516,35.104 C23.26,35.104 23.04,35.158 22.856,35.266 C22.672,35.374 22.522,35.514 22.406,35.686 C22.29,35.858 22.206,36.052 22.154,36.268 C22.102,36.484 22.076,36.704 22.076,36.928 L22.076,36.928 L22.076,40 L20.948,40 L20.948,36.616 L20.9413333,36.3986667 C20.9324444,36.2582222 20.9146667,36.1266667 20.888,36.004 C20.848,35.82 20.78,35.662 20.684,35.53 C20.588,35.398 20.464,35.294 20.312,35.218 C20.16,35.142 19.972,35.104 19.748,35.104 C19.332,35.104 18.986,35.274 18.71,35.614 C18.434,35.954 18.296,36.408 18.296,36.976 L18.296,36.976 L18.296,40 L17.168,40 L17.168,35.536 L17.16725,35.41375 C17.16575,35.28325 17.162,35.128 17.156,34.948 C17.148,34.708 17.136,34.496 17.12,34.312 L17.12,34.312 L18.188,34.312 L18.2026667,34.462 C18.2115556,34.566 18.2186667,34.678 18.224,34.798 C18.232,34.978 18.236,35.128 18.236,35.248 L18.236,35.248 L18.272,35.248 L18.3511667,35.0998333 C18.4950556,34.8592778 18.6986667,34.6506667 18.962,34.474 C19.278,34.262 19.652,34.156 20.084,34.156 C20.468,34.156 20.814,34.244 21.122,34.42 C21.43,34.596 21.672,34.888 21.848,35.296 C22.04,34.928 22.308,34.646 22.652,34.45 C22.996,34.254 23.372,34.156 23.78,34.156 Z M34.424,34.156 C34.792,34.156 35.108,34.218 35.372,34.342 C35.636,34.466 35.856,34.632 36.032,34.84 C36.208,35.048 36.338,35.292 36.422,35.572 C36.506,35.852 36.548,36.152 36.548,36.472 L36.548,36.472 L36.548,40 L35.42,40 L35.42,36.844 L35.4133333,36.616 C35.4044444,36.4666667 35.3866667,36.3226667 35.36,36.184 C35.32,35.976 35.252,35.792 35.156,35.632 C35.06,35.472 34.932,35.344 34.772,35.248 C34.612,35.152 34.408,35.104 34.16,35.104 C33.904,35.104 33.684,35.158 33.5,35.266 C33.316,35.374 33.166,35.514 33.05,35.686 C32.934,35.858 32.85,36.052 32.798,36.268 C32.746,36.484 32.72,36.704 32.72,36.928 L32.72,36.928 L32.72,40 L31.592,40 L31.592,36.616 L31.5853333,36.3986667 C31.5764444,36.2582222 31.5586667,36.1266667 31.532,36.004 C31.492,35.82 31.424,35.662 31.328,35.53 C31.232,35.398 31.108,35.294 30.956,35.218 C30.804,35.142 30.616,35.104 30.392,35.104 C29.976,35.104 29.63,35.274 29.354,35.614 C29.078,35.954 28.94,36.408 28.94,36.976 L28.94,36.976 L28.94,40 L27.812,40 L27.812,35.536 C27.812,35.384 27.808,35.188 27.8,34.948 C27.792,34.708 27.78,34.496 27.764,34.312 L27.764,34.312 L28.832,34.312 L28.8466667,34.462 C28.8555556,34.566 28.8626667,34.678 28.868,34.798 C28.876,34.978 28.88,35.128 28.88,35.248 L28.88,35.248 L28.916,35.248 L28.9951667,35.0998333 C29.1390556,34.8592778 29.3426667,34.6506667 29.606,34.474 C29.922,34.262 30.296,34.156 30.728,34.156 C31.112,34.156 31.458,34.244 31.766,34.42 C32.074,34.596 32.316,34.888 32.492,35.296 C32.684,34.928 32.952,34.646 33.296,34.45 C33.64,34.254 34.016,34.156 34.424,34.156 Z M48.284,34.156 C48.652,34.156 48.968,34.218 49.232,34.342 C49.496,34.466 49.716,34.632 49.892,34.84 C50.068,35.048 50.198,35.292 50.282,35.572 C50.366,35.852 50.408,36.152 50.408,36.472 L50.408,36.472 L50.408,40 L49.28,40 L49.28,36.844 L49.274,36.616 C49.266,36.4666667 49.25,36.3226667 49.226,36.184 C49.19,35.976 49.124,35.792 49.028,35.632 C48.932,35.472 48.8,35.344 48.632,35.248 C48.464,35.152 48.248,35.104 47.984,35.104 C47.536,35.104 47.17,35.274 46.886,35.614 C46.602,35.954 46.46,36.408 46.46,36.976 L46.46,36.976 L46.46,40 L45.332,40 L45.332,35.536 C45.332,35.384 45.328,35.188 45.32,34.948 C45.312,34.708 45.3,34.496 45.284,34.312 L45.284,34.312 L46.352,34.312 L46.3666667,34.462 C46.3755556,34.566 46.3826667,34.678 46.388,34.798 C46.396,34.978 46.4,35.128 46.4,35.248 L46.4,35.248 L46.436,35.248 L46.5166667,35.0993333 C46.5762222,35.0024444 46.6473333,34.91 46.73,34.822 C46.854,34.69 46.996,34.574 47.156,34.474 C47.316,34.374 47.492,34.296 47.684,34.24 C47.876,34.184 48.076,34.156 48.284,34.156 Z M12.536,35.092 C12.232,35.092 11.962,35.148 11.726,35.26 C11.49,35.372 11.292,35.522 11.132,35.71 C10.972,35.898 10.85,36.116 10.766,36.364 C10.682,36.612 10.64,36.872 10.64,37.144 C10.64,37.416 10.682,37.676 10.766,37.924 C10.85,38.172 10.972,38.392 11.132,38.584 C11.292,38.776 11.49,38.928 11.726,39.04 C11.962,39.152 12.232,39.208 12.536,39.208 C12.84,39.208 13.11,39.152 13.346,39.04 C13.582,38.928 13.78,38.776 13.94,38.584 C14.1,38.392 14.222,38.172 14.306,37.924 C14.39,37.676 14.432,37.416 14.432,37.144 C14.432,36.872 14.39,36.612 14.306,36.364 C14.222,36.116 14.1,35.898 13.94,35.71 C13.78,35.522 13.582,35.372 13.346,35.26 C13.11,35.148 12.84,35.092 12.536,35.092 Z M41.024,35.044 C40.784,35.044 40.558,35.086 40.346,35.17 C40.134,35.254 39.95,35.368 39.794,35.512 C39.638,35.656 39.51,35.826 39.41,36.022 C39.31,36.218 39.252,36.428 39.236,36.652 L39.236,36.652 L42.62,36.652 C42.612,36.428 42.574,36.218 42.506,36.022 C42.438,35.826 42.338,35.656 42.206,35.512 C42.074,35.368 41.91,35.254 41.714,35.17 C41.518,35.086 41.288,35.044 41.024,35.044 Z M31.1731721,1.3500312e-13 L40.3365199,3.27222885 L40.377787,3.2928369 C40.6587032,3.43312127 40.8428036,3.70893035 40.8428036,4.04909047 L40.8428036,4.04909047 L40.8428036,13.4346188 L40.841724,13.4756219 C40.8269799,13.7554119 40.7581347,14.1792695 40.6051624,14.705579 C40.3682815,15.5205811 39.981914,16.3847737 39.4145482,17.2679059 C37.8466366,19.7084361 35.1879111,21.8740754 31.2099142,23.5352326 L31.2099142,23.5352326 L30.9145863,23.6585575 L30.6194158,23.5348517 C26.5272608,21.8198313 23.851833,19.573272 22.3341095,17.1300744 C21.4288998,15.6609278 21.0228528,14.263675 21,13.4533776 L21,13.4533776 L21,4.04909047 C21,3.73756946 21.17022,3.4400529 21.4650166,3.2928369 L21.4650166,3.2928369 L21.5062837,3.27222885 L30.6696315,1.3500312e-13 L31.1731721,1.3500312e-13 Z M30.9214091,1.55304131 L22.5382477,4.5465897 L22.5382477,13.4311973 C22.5526159,13.9359318 22.8640475,15.0199078 23.5795279,16.2120546 L23.5795279,16.2120546 L23.6400888,16.3116404 C24.9420868,18.4075596 27.256609,20.3828956 30.8529437,21.9523854 L30.8529437,21.9523854 L30.9155117,21.9793639 L30.9857355,21.9492932 C34.4166035,20.4563319 36.6953847,18.5904218 38.0520724,16.5354979 L38.0520724,16.5354979 L38.1226268,16.4271705 C38.607379,15.6726304 38.9325437,14.9453308 39.1285808,14.270854 C39.1975588,14.0335315 39.2454466,13.8193017 39.27592,13.6316874 C39.2944843,13.5173929 39.3032336,13.4351371 39.3054216,13.3936157 L39.3054216,13.3936157 L39.3042296,4.5465897 L30.9214091,1.55304131 Z M28.2885919,7.5013428 L30.712116,9.92545657 L33.1135776,7.52461443 C33.4477444,7.19044763 33.9895358,7.19044763 34.3237026,7.52461443 C34.6578694,7.85878123 34.6578694,8.40057265 34.3237026,8.73473945 L31.9219757,11.1353163 L34.3469742,13.5597251 C34.6789989,13.8917498 34.6789989,14.4300682 34.3469742,14.7620929 C34.0149495,15.0941176 33.4766311,15.0941176 33.1446064,14.7620929 L30.7198942,12.3373978 L28.3196208,14.7388213 C27.985454,15.0729881 27.4436626,15.0729881 27.1094958,14.7388213 C26.775329,14.4046545 26.775329,13.862863 27.1094958,13.5286962 L29.5100345,11.1275381 L27.0862241,8.7037106 C26.7541994,8.3716859 26.7541994,7.8333675 27.0862241,7.5013428 C27.4182488,7.16931809 27.9565672,7.16931809 28.2885919,7.5013428 Z" transform="translate(-1)" fill="" fill-rule="nonzero"/></svg>