<svg viewBox="0 0 23 19" xmlns="http://www.w3.org/2000/svg"><path d="M12,0.8 C12.3865993,0.8 12.7,1.11340068 12.7,1.5 L12.7,1.5 L12.7,17.5 C12.7,17.8865993 12.3865993,18.2 12,18.2 L12,18.2 L1,18.2 C0.613400675,18.2 0.3,17.8865993 0.3,17.5 L0.3,17.5 L0.3,1.5 C0.3,1.11340068 0.613400675,0.8 1,0.8 L1,0.8 Z M11.3,2.2 L1.7,2.2 L1.7,16.8 L11.3,16.8 L11.3,2.2 Z M9.2,11.6 C9.58659932,11.6 9.9,11.9134007 9.9,12.3 C9.9,12.6543827 9.63665638,12.9472582 9.29498585,12.9936098 L9.2,13 L3.8,13 C3.41340068,13 3.1,12.6865993 3.1,12.3 C3.1,11.9456173 3.36334362,11.6527418 3.70501415,11.6063902 L3.8,11.6 L9.2,11.6 Z M19.1517182,5.91395152 L19.2234019,5.97659813 L22.051829,8.80502525 C22.3024154,9.05561167 22.3232976,9.448918 22.1144756,9.72329107 L22.051829,9.79497475 L19.2234019,12.6234019 C18.9500349,12.8967689 18.5068194,12.8967689 18.2334524,12.6234019 C17.982866,12.3728155 17.9619838,11.9795091 18.1708058,11.7051361 L18.2334524,11.6334524 L19.866,9.999 L14.8,10 C14.4134007,10 14.1,9.68659932 14.1,9.3 C14.1,8.94561729 14.3633436,8.65274177 14.7050141,8.60639017 L14.8,8.6 L19.867,8.599 L18.2334524,6.96654762 C17.982866,6.7159612 17.9619838,6.32265488 18.1708058,6.04828181 L18.2334524,5.97659813 C18.4840388,5.72601171 18.8773451,5.70512951 19.1517182,5.91395152 Z M9.2,5.6 C9.58659932,5.6 9.9,5.91340068 9.9,6.3 C9.9,6.65438271 9.63665638,6.94725823 9.29498585,6.99360983 L9.2,7 L3.8,7 C3.41340068,7 3.1,6.68659932 3.1,6.3 C3.1,5.94561729 3.36334362,5.65274177 3.70501415,5.60639017 L3.8,5.6 L9.2,5.6 Z" fill="" fill-rule="nonzero"/></svg>