<svg viewBox="0 0 40 40" xmlns="http://www.w3.org/2000/svg"><g fill-rule="nonzero" fill="none"><path d="M37.6278612,37.6216302 L37.6278612,16.6479178 C37.6278612,15.3585759 36.582618,14.3195916 35.299535,14.3195916 L28.3020386,14.3195916 L28.3020386,7.32835415 C28.3020386,6.03901223 27.2567954,5 25.9737124,5 L9.6629113,5 C8.37356937,4.99376901 7.32832616,6.03901223 7.32832616,7.32835415 L7.32832616,37.6216302 L6.16416306,37.6216302 C5.51949211,37.6216302 5,38.1411224 5,38.7857933 C5,39.4304643 5.51949215,39.9499564 6.16416306,39.9499564 L38.7920243,39.9499564 C39.4366953,39.9499564 39.9561874,39.4304643 39.9561874,38.7857933 C39.9561874,38.1411224 39.4366952,37.6216302 38.7920243,37.6216302 L37.6278612,37.6216302 Z" fill="#F8F8F6" transform="translate(.016 .016)"/><path d="M4.6629113,0 L20.9737124,0 C22.2033336,0 23.2145221,0.954231714 23.2966531,2.16854727 L23.3020386,2.32835415 L23.3020386,9.31959161 L30.299535,9.31959161 C31.5291562,9.31959161 32.5403447,10.2737976 32.6224757,11.4881111 L32.6278612,11.6479178 L32.6278612,32.6216302 L33.7920243,32.6216302 C34.4366952,32.6216302 34.9561874,33.1411224 34.9561874,33.7857933 C34.9561874,34.3874862 34.503652,34.8801345 33.9191726,34.9431467 L33.7920243,34.9499564 L1.16416306,34.9499564 C0.519492148,34.9499564 -2.48689958e-14,34.4304643 -2.48689958e-14,33.7857933 C-2.48689958e-14,33.1841005 0.452535353,32.6914522 1.03701476,32.62844 L1.16416306,32.6216302 L2.32832616,32.6216302 L2.32832616,2.32835415 C2.32832616,1.09273481 3.28828043,0.0812963965 4.50307286,0.00463915084 L4.6629113,0 L20.9737124,0 Z M19.9660229,2.3220952 L5.67060084,2.3220952 C5.15069145,2.3220952 4.72347003,2.71465599 4.66881788,3.21989629 L4.6629113,3.32978475 L4.6629113,32.6216302 L20.9737124,32.6216302 L20.9737124,3.32978475 C20.9737124,2.77273897 20.5230687,2.3220952 19.9660229,2.3220952 Z M29.2855865,11.6479178 L24.3097282,11.6479178 C23.7898188,11.6479178 23.3625974,12.0404786 23.3079452,12.5457189 L23.3020386,12.6556073 L23.3020386,32.6216302 L30.2932761,32.6216302 L30.2932761,12.6556073 C30.2932761,12.0985616 29.8426323,11.6479178 29.2855865,11.6479178 Z M17.4749642,20.9674814 C18.1196352,20.9674814 18.6453863,21.4869736 18.6391826,22.1316445 C18.6391826,22.7763155 18.1196352,23.2958076 17.4749642,23.2958076 L17.4749642,23.2958076 L8.15540055,23.2958076 C7.5107296,23.2958076 6.99123746,22.7763155 6.99123746,22.1316445 C6.99123746,21.4869736 7.5107296,20.9674814 8.15540055,20.9674814 L8.15540055,20.9674814 Z M8.15540055,13.976244 L17.4749642,13.976244 C18.1196352,13.976244 18.6453863,14.4957361 18.6391826,15.1404071 C18.6391826,15.7420999 18.1865991,16.2347482 17.6021132,16.2977604 L17.4749642,16.3045702 L8.15540055,16.3045702 C7.5107296,16.3045702 6.99123746,15.785078 6.99123746,15.1404071 C6.99123746,14.5387142 7.44377284,14.046066 8.02825225,13.9830537 L8.15540055,13.976244 L17.4749642,13.976244 Z M8.15540055,6.9850065 L17.4749642,6.9850065 C18.1196352,6.9850065 18.6453863,7.50449865 18.6391826,8.1491696 C18.6391826,8.75086248 18.1865991,9.24351072 17.6021132,9.30652297 L17.4749642,9.31333269 L8.15540055,9.31333269 C7.5107296,9.31333269 6.99123746,8.79384055 6.99123746,8.1491696 C6.99123746,7.54747671 7.44377284,7.05482847 8.02825225,6.99181623 L8.15540055,6.9850065 L17.4749642,6.9850065 Z" fill="#C8C9CB" transform="translate(.016 .016)"/></g></svg>