<svg xmlns="http://www.w3.org/2000/svg" width="199" height="34"><g fill="none" fill-rule="evenodd"><path fill="#F9C631" d="M27.22 7.378c-2.675-1.522-5.414-2.479-8.293-2.309a4.912 4.912 0 0 0-1.215.248c-1.161.37-1.956 1.108-1.98 2.111-.025.986.832 1.869 2.117 2.325.258.113.519.21.773.298 1.875.633 3.722 1.345 5.511 2.204 4.649 2.295 9.425 6.188 7.912 12.199-.045.176.218.264.3.1 3.984-8.027.86-13.478-5.126-17.176M6.971 26.508c2.674 1.522 5.413 2.479 8.292 2.309a4.912 4.912 0 0 0 1.216-.248c1.16-.37 1.956-1.108 1.98-2.111.024-.986-.833-1.869-2.117-2.325-.258-.113-.52-.21-.774-.298-1.874-.633-3.721-1.345-5.51-2.204-4.65-2.295-9.426-6.188-7.912-12.199.044-.176-.218-.264-.3-.1-3.984 8.027-.86 13.478 5.125 17.176"/><path fill="#F9C631" d="M32.944 9.201a17.5 17.5 0 0 0-7.325-7.104C23.336.786 20.445.003 17.302.003c-7.384 0-13.37 4.32-13.38 9.653v.014c0 1.401.412 2.733 1.155 3.935.053.079.107.157.165.233.901 1.19 2.358 2.226 3.938 3.105 2.293 1.265 4.791 2.18 6.254 2.783 4.3 1.773 8.324 3.067 8.442 7.157.063 2.17-2.042 3.697-3.633 4.335-1.798.639-3.276.74-5.362.587a20.434 20.434 0 0 1-4.893-1.103c-2.191-.818-4.12-1.947-5.77-3.37a17.526 17.526 0 0 1-2.634-2.843c-.142-.193-.454-.012-.338.196a17.5 17.5 0 0 0 7.325 7.104c2.284 1.31 5.174 2.094 8.318 2.094 7.383 0 13.37-4.32 13.38-9.653v-.014c0-1.401-.413-2.733-1.155-3.935a5.85 5.85 0 0 0-.165-.233c-.902-1.19-2.359-2.226-3.939-3.105-2.293-1.266-4.791-2.18-6.254-2.783-4.3-1.773-8.324-3.067-8.442-7.157-.062-2.171 2.043-3.698 3.634-4.335 1.797-.639 3.276-.74 5.362-.587a20.44 20.44 0 0 1 4.892 1.103c2.192.818 4.12 1.947 5.77 3.37a17.52 17.52 0 0 1 2.634 2.843c.143.192.454.012.338-.196"/><path fill="#4C4C4C" d="M182.143 8.8h3.886l4.31 6.846 4.307-6.845h3.886v16.188h-3.582V14.42l-4.612 6.915h-.094l-4.566-6.845v10.5h-3.535V8.8M38.915 22.63l2.131-2.52c1.475 1.202 3.02 1.965 4.894 1.965 1.475 0 2.364-.578 2.364-1.526v-.046c0-.902-.562-1.365-3.301-2.058-3.301-.833-5.432-1.735-5.432-4.95v-.046c0-2.937 2.388-4.88 5.736-4.88 2.389 0 4.426.74 6.088 2.059l-1.873 2.682c-1.452-.994-2.88-1.595-4.261-1.595-1.382 0-2.108.624-2.108 1.41v.047c0 1.064.703 1.41 3.536 2.127 3.325.856 5.198 2.035 5.198 4.857v.046c0 3.215-2.482 5.019-6.018 5.019-2.482 0-4.987-.856-6.954-2.59M57.62 12.085h-4.987V8.8h13.58v3.284h-4.987v12.904H57.62V12.085m10.374 5.966v-9.25h3.605v9.158c0 2.636 1.335 4 3.536 4 2.2 0 3.535-1.318 3.535-3.885V8.801h3.606v9.135c0 4.903-2.786 7.308-7.188 7.308-4.402 0-7.094-2.429-7.094-7.193m22.586 3.724c2.95 0 4.941-1.966 4.941-4.834v-.046c0-2.868-1.99-4.88-4.94-4.88h-2.786v9.76h2.786zM84.19 8.8h6.392c5.15 0 8.71 3.492 8.71 8.048v.046c0 4.556-3.56 8.094-8.71 8.094H84.19V8.801zm16.734-.02h12.362v3.169h-8.78v3.284h7.726V18.4h-7.726v3.4h8.897v3.168h-12.48V8.78m14.264.02h3.325l7.68 9.968V8.801h3.558v16.188h-3.066l-7.938-10.291v10.291h-3.559V8.801m21.463 3.284h-4.986V8.8h13.58v3.284h-4.988v12.904h-3.606V12.085m24.845 8.225c-1.188 1.027-2.305 1.673-4.054 1.673-2.809 0-4.753-2.313-4.753-5.088v-.046c0-2.775 1.99-5.042 4.753-5.042 1.583 0 2.84.652 4.062 1.718.396-1.14.987-2.19 1.745-3.11-1.4-1.144-3.136-1.892-5.784-1.892-5.034 0-8.545 3.77-8.545 8.372v.046c0 4.649 3.582 8.326 8.405 8.326 2.594 0 4.32-.748 5.788-2a9.951 9.951 0 0 1-1.617-2.957"/><path fill="#4C4C4C" d="M176.604 16.941v-.046c0-2.775-2.06-5.088-4.963-5.088-2.904 0-4.918 2.267-4.918 5.042v.046c0 2.775 2.06 5.088 4.964 5.088 2.903 0 4.917-2.266 4.917-5.042zm-13.65 0v-.046c0-4.602 3.676-8.372 8.733-8.372s8.686 3.724 8.686 8.326v.046c0 4.602-3.675 8.372-8.732 8.372-5.059 0-8.688-3.723-8.688-8.326zM147.84 23.33c0 1.123-.92 2.033-2.057 2.033s-2.057-.91-2.057-2.033c0-1.122.92-2.032 2.057-2.032 1.136 0 2.058.91 2.058 2.032"/></g></svg>