<svg width="16" height="15" xmlns="http://www.w3.org/2000/svg"><g fill="" fill-rule="nonzero"><path d="M3.63333333,8.38333333 L3.63333333,6.28333333 C3.63333333,5.28333333 4.45,4.48333333 5.43333333,4.48333333 L9.76666667,4.48333333 L9.76666667,0.783333333 C9.76666667,0.383333333 9.43333333,0.05 9.03333333,0.05 L0.816666667,0.05 C0.416666667,0.05 0.0833333333,0.383333333 0.0833333333,0.783333333 L0.0833333333,13.8833333 C0.0833333333,14.2833333 0.416666667,14.6166667 0.816666667,14.6166667 L9.06666667,14.6166667 C9.46666667,14.6166667 9.8,14.2833333 9.8,13.8833333 L9.8,10.1833333 L5.46666667,10.1833333 C4.45,10.1833333 3.63333333,9.36666667 3.63333333,8.38333333 Z"/><path d="M15.7166667,6.91666667 L11.9,2.83333333 C11.55,2.55 11.0333333,2.8 11.0333333,3.25 L11.0333333,5.76666667 L5.43333333,5.76666667 C5.13333333,5.76666667 4.9,6 4.9,6.3 L4.9,8.4 C4.9,8.7 5.13333333,8.93333333 5.43333333,8.93333333 L11.0333333,8.93333333 L11.0333333,11.45 C11.0333333,11.9 11.55,12.1333333 11.9,11.8666667 L15.7166667,7.76666667 C15.9833333,7.53333333 15.9833333,7.13333333 15.7166667,6.91666667 Z"/></g></svg>