<svg width="10" height="11" viewBox="0 0 10 11" xmlns="http://www.w3.org/2000/svg"><path d="M1124.5,1390.5 C1125.32843,1390.5 1126,1391.17157 1126,1392 L1126,1392 L1126,1397 C1126,1397.82843 1125.32843,1398.5 1124.5,1398.5 L1124.5,1398.5 L1121.159,1398.5 L1118.50298,1400.4552 L1118.50298,1398.5 L1117.5,1398.5 C1116.67157,1398.5 1116,1397.82843 1116,1397 L1116,1397 L1116,1392 C1116,1391.17157 1116.67157,1390.5 1117.5,1390.5 L1117.5,1390.5 Z M1124.5,1391.5 L1117.5,1391.5 C1117.22386,1391.5 1117,1391.72386 1117,1392 L1117,1392 L1117,1397 C1117,1397.27614 1117.22386,1397.5 1117.5,1397.5 L1117.5,1397.5 L1118.50298,1397.5 C1119.05526,1397.5 1119.50298,1397.94772 1119.50298,1398.5 L1119.501,1398.478 L1120.83182,1397.5 L1124.5,1397.5 C1124.77614,1397.5 1125,1397.27614 1125,1397 L1125,1397 L1125,1392 C1125,1391.72386 1124.77614,1391.5 1124.5,1391.5 L1124.5,1391.5 Z M1123.21563,1394 C1123.54531,1394 1123.825,1394.27969 1123.825,1394.625 C1123.825,1394.97031 1123.54531,1395.25 1123.21563,1395.25 C1122.85469,1395.25 1122.575,1394.97031 1122.575,1394.625 C1122.575,1394.27969 1122.85469,1394 1123.21563,1394 Z M1118.84063,1394 C1119.17031,1394 1119.45,1394.27969 1119.45,1394.625 C1119.45,1394.97031 1119.17031,1395.25 1118.84063,1395.25 C1118.47969,1395.25 1118.2,1394.97031 1118.2,1394.625 C1118.2,1394.27969 1118.47969,1394 1118.84063,1394 Z M1121.02813,1394 C1121.35781,1394 1121.6375,1394.27969 1121.6375,1394.625 C1121.6375,1394.97031 1121.35781,1395.25 1121.02813,1395.25 C1120.66719,1395.25 1120.3875,1394.97031 1120.3875,1394.625 C1120.3875,1394.27969 1120.66719,1394 1121.02813,1394 Z" transform="translate(-1116 -1390)" fill="" fill-rule="nonzero"/></svg>