<svg width="14" height="16" xmlns="http://www.w3.org/2000/svg"><path d="M39,15.5 L36.5,15.5 C36.5,14.1192881 35.3807119,13 34,13 C32.6192881,13 31.5,14.1192881 31.5,15.5 L29,15.5 C28.1715729,15.5 27.5,16.1715728 27.5,17 L27.5,27.5 C27.5,28.3284271 28.1715729,29 29,29 L39,29 C39.8284271,29 40.5,28.3284271 40.5,27.5 L40.5,17 C40.5,16.1715728 39.8284271,15.5 39,15.5 Z M34.8357135,22.8471365 C36.2178022,22.8471365 37.25,23.7795124 37.25,25.1330463 L37.25,25.1330463 L37.25,25.2787349 C37.25,25.9863457 36.0885503,25.9863457 34.7435954,25.9863457 L33.0671889,25.9862793 C31.7578483,25.9848837 30.75,25.9541816 30.75,25.2787349 L30.75,25.2787349 L30.75,25.1330463 C30.75,23.7793105 31.782015,22.8471365 33.1642865,22.8471365 L33.1642865,22.8471365 Z M33.9255255,18.6 C35.01994,18.6 35.9106233,19.472679 35.9106233,20.5453768 C35.9106233,21.6182573 35.01994,22.4909555 33.9255255,22.4909555 C32.831111,22.4909555 31.9406009,21.6180553 31.9406009,20.5453768 C31.9406009,19.4728714 32.831111,18.6 33.9255255,18.6 Z M34,14.7499999 C34.4142136,14.7499999 34.75,15.0857864 34.75,15.4999999 C34.75,15.9142135 34.4142136,16.2499999 34,16.2499999 C33.5857864,16.2499999 33.25,15.9142135 33.25,15.4999999 C33.2509166,15.0861666 33.5861667,14.7509165 34,14.7499999 Z" transform="translate(-27 -13)" fill="" fill-rule="nonzero"/></svg>