<svg xmlns="http://www.w3.org/2000/svg" viewBox="0 0 16 16"><path d="M8,0 C12.418278,0 16,3.22648231 16,7.20654995 C16,11.1866176 12.418278,14.4130999 8,14.4130999 C6.99359049,14.4130999 6.03058584,14.2456933 5.14343,13.9401061 C4.47823271,13.7109741 1.0433655,15.6393649 0.477131458,15.2671795 C-0.180131846,14.8351605 2.0508019,12.0798588 1.56669667,11.4909627 C0.582199985,10.2933587 2.84217094e-12,8.81120102 2.84217094e-12,7.20654995 C2.84217094e-12,3.22648231 3.581722,0 8,0 Z M8.29324228,3.23474415 C8.09514082,3.13697524 7.85529049,3.21831084 7.75752157,3.4164123 L7.75752157,3.4164123 L6.73809793,5.4819902 L4.45859738,5.81322102 C4.37154256,5.82587083 4.2910856,5.8668657 4.22968216,5.92985915 C4.07548167,6.08805258 4.07871859,6.34129789 4.23691203,6.49549837 L4.23691203,6.49549837 L5.88637412,8.10332655 L5.49698894,10.3736164 C5.4821182,10.4603194 5.49624407,10.5495066 5.5371797,10.6273708 C5.63998003,10.8229087 5.88183089,10.8980873 6.07736872,10.7952869 L6.07736872,10.7952869 L8.116216,9.7234015 L10.1550633,10.7952869 C10.2329275,10.8362226 10.3221147,10.8503484 10.4088178,10.8354777 C10.6265523,10.7981333 10.7727875,10.5913509 10.7354431,10.3736164 L10.7354431,10.3736164 L10.3460579,8.10332655 L11.99552,6.49549837 C12.0585134,6.43409493 12.0995083,6.35363797 12.1121581,6.26658316 C12.1439252,6.04796521 11.9924526,5.84498807 11.7738346,5.81322102 L11.7738346,5.81322102 L9.49433407,5.4819902 L8.47491043,3.4164123 C8.43597833,3.33752726 8.37212733,3.27367625 8.29324228,3.23474415 Z"/></svg>