<svg xmlns="http://www.w3.org/2000/svg" viewBox="0 0 384 174"><g fill="none" fill-rule="evenodd"><path d="M103.473054 26.025L103.473054 172.65 92.5500299 172.649 92.5508982 43.275 83.9281437 43.275 83.9280299 172.649 74.7300299 172.649 74.7305389 43.275 66.1077844 43.275 66.1070299 172.649 57.4850299 172.65 57.4850299 26.025 103.473054 26.025zM350 56L350 173 339 173 339 71 333 71 333 173 324 173 324 71 318 71 318 173 309 173 309 56 350 56zM300.988024 1.03170805e-11L300.988024 173.075 288.885 173.074 288.885912 17.0637324 281.624645 17.0637324 281.624 173.074 271.942 173.074 271.942956 17.0637324 264.681689 17.0637324 264.681 173.074 255 173.075 255 1.03170805e-11 300.988024 1.03170805e-11z" fill="#F8F8F8"/><path d="M54.5029626 128.95C76.8433652 128.95 96.119752 142.090261 105.048917 161.075558 111.265192 151.210308 122.076302 144.681807 134.372584 144.681807 151.016239 144.681807 164.938907 156.64269 168.430921 172.649005L100.314248 172.649005 100.314157 172.648.000156779921 172.648529C5.57164063 147.64178 27.8580486 128.95 54.5029626 128.95zM285.403038 134.125C304.699207 134.125 321.399268 145.272329 329.44973 161.496029 334.949952 153.414731 344.044986 148.133921 354.333785 148.133921 368.831057 148.133921 380.958256 158.618325 384.000028 172.64882L333.392557 172.648446C333.392631 172.64878 333.392706 172.649114 333.39278 172.649448L237.413297 172.649448C242.318779 150.603636 261.942049 134.125 285.403038 134.125z" fill="#E2F4F2"/><g fill-rule="nonzero"><path fill="#3F3D56" d="M39.945 44.333H42.244V133H39.945z" transform="translate(82 39)"/><path d="M62.9348726,56.0353016 C63.0771854,87.0385569 41.3525967,112.272727 41.3525967,112.272727 C41.3525967,112.272727 19.3972722,87.240686 19.2549569,56.2374257 C19.1126417,25.2341653 40.8372328,0 40.8372328,0 C40.8372328,0 62.7925548,25.0320463 62.9348726,56.0353016 Z" fill="#FCCE01" transform="translate(82 39)"/><path fill="#3F3D56" d="M14.081 74.273H15.231V133H14.081z" transform="translate(82 39)"/><path d="M29.5993665,81.6912375 C29.6948724,102.042093 15.1165246,118.606061 15.1165246,118.606061 C15.1165246,118.606061 0.383334676,102.174772 0.287844096,81.8239165 C0.192353515,61.4730613 14.770686,44.9090909 14.770686,44.9090909 C14.770686,44.9090909 29.5038657,61.3403873 29.5993665,81.6912375 Z" fill="#FFC107" transform="translate(82 39)"/></g><g fill-rule="nonzero"><path fill="#4C4C4C" d="M5.22001024 30.9854565L0 26.7944013 29.2335715 0.603534935 103.361502 0.603534935 103.361502 23.6516797 55.3351369 56.128749z" transform="translate(140 26)"/><path fill="#E7E7E7" d="M116.508787 1.07931125L106.710429 1.07931125 106.710429 4.5453247 103.05338 0.556525947 79.1461405 26.7162776 69.7917235 32.9950126 55.286385 124.637512 77.1615962 146.658989 128 146.658989 128 27.762607 116.508787 15.2309349z" transform="translate(140 26)"/><path fill="#F8F8F6" d="M0 27.763H79.324V146.659H0z" transform="translate(140 26)"/><path fill="#CCC" d="M24.038 113.465H51.681V146.659H24.038z" transform="translate(140 26)"/><path d="M101.558685,110.446893 L101.558685,115.878708 L95.5492958,115.878708 L95.5492958,110.446893 L101.558685,110.446893 Z M111.774648,110.446893 L111.774648,115.878708 L105.765258,115.878708 L105.765258,110.446893 L111.774648,110.446893 Z M101.558685,101.393869 L101.558685,106.825684 L95.5492958,106.825684 L95.5492958,101.393869 L101.558685,101.393869 Z M111.774648,101.393869 L111.774648,106.825684 L105.765258,106.825684 L105.765258,101.393869 L111.774648,101.393869 Z M101.558685,81.4772162 L101.558685,86.9090307 L95.5492958,86.9090307 L95.5492958,81.4772162 L101.558685,81.4772162 Z M111.774648,81.4772162 L111.774648,86.9090307 L105.765258,86.9090307 L105.765258,81.4772162 L111.774648,81.4772162 Z M101.558685,71.8206573 L101.558685,77.2524717 L95.5492958,77.2524717 L95.5492958,71.8206573 L101.558685,71.8206573 Z M111.774648,71.8206573 L111.774648,77.2524717 L105.765258,77.2524717 L105.765258,71.8206573 L111.774648,71.8206573 Z M101.558685,51.9040044 L101.558685,57.3358188 L95.5492958,57.3358188 L95.5492958,51.9040044 L101.558685,51.9040044 Z M111.774648,51.9040044 L111.774648,57.3358188 L105.765258,57.3358188 L105.765258,51.9040044 L111.774648,51.9040044 Z M101.558685,42.2474455 L101.558685,47.6792599 L95.5492958,47.6792599 L95.5492958,42.2474455 L101.558685,42.2474455 Z M111.774648,42.2474455 L111.774648,47.6792599 L105.765258,47.6792599 L105.765258,42.2474455 L111.774648,42.2474455 Z" fill="#9E9E9E" transform="translate(140 26)"/><path fill="#C8C9CB" d="M9.014 43.455H69.709V56.129H9.014zM9.014 65.785H69.709V78.459H9.014zM9.014 88.116H69.709V100.78999999999999H9.014z" transform="translate(140 26)"/></g><g transform="translate(238 3)" fill-rule="nonzero"><circle fill="#38B2A6" cx="30.5" cy="30.5" r="30.5"/><path d="M32.5873347,49.0831321 L32.5873347,45.1611755 C34.8751426,44.703614 36.6400231,43.6332467 37.881976,41.9500736 C39.1239289,40.2669006 39.7449053,38.2487272 39.7449053,35.8955533 C39.7449053,34.1960388 39.279173,32.7253051 38.3477083,31.4833522 C37.4162436,30.2413993 34.9078256,28.6889581 30.8224542,26.8260288 C28.7307441,25.8782226 27.684889,24.6852942 27.684889,23.2472435 C27.684889,22.1033395 28.0770846,21.1718748 28.861476,20.4528494 C29.6458673,19.7338241 30.6263564,19.3743114 31.8029433,19.3743114 C33.6658727,19.3743114 35.2836798,20.2240686 36.6563645,21.9235831 L36.6563645,21.9235831 L38.8134406,18.7860179 C37.2119751,16.7923567 35.1366064,15.6647942 32.5873347,15.4033304 L32.5873347,15.4033304 L32.5873347,11.6774717 L29.6948917,11.6774717 L29.6948917,15.3543059 C27.5704986,15.7465016 25.9036671,16.6943078 24.6943971,18.1977244 C23.4851272,19.7011411 22.8804922,21.5640704 22.8804922,23.7865125 C22.8804922,26.8260288 24.7597631,29.2282272 28.5183048,30.9931076 C30.479283,31.9082308 31.8846508,32.5700609 32.734408,32.9785981 C33.5841653,33.3871352 34.1561173,33.869209 34.450264,34.4248196 C34.7444107,34.9804301 34.8914841,35.617748 34.8914841,36.3367734 C34.8914841,39.5397045 33.3553845,41.1411701 30.2831852,41.1411701 C27.9626942,41.1411701 26.001716,39.588729 24.4002504,36.4838467 L24.4002504,36.4838467 L21.2136607,39.523363 C23.174639,43.0204409 26.001716,44.9650777 29.6948917,45.3572734 L29.6948917,45.3572734 L29.6948917,49.0831321 L32.5873347,49.0831321 Z" fill="#FFF"/></g></g></svg>