<svg xmlns="http://www.w3.org/2000/svg" viewBox="0 0 215 190"><g fill="none" fill-rule="evenodd"><path d="M189.854349,183.635006 C183.783027,189.711679 36.6848655,193.201517 22.7206412,183.635006 C13.2929985,177.174449 4.53706238,109.977372 2.09907398,96.796893 C-0.338914425,83.6164142 0.264454707,69.7028529 1.23550191,56.027222 C1.92560535,46.3085212 3.01732637,35.9231871 8.15727717,28.2858402 C13.593256,20.2112161 22.7206412,3.55271368e-15 50.7800318,1 C78.8394223,2 89.7585365,27.0906906 99.6990429,29.9994415 C106.469976,31.9800502 109.603118,63.4639172 147.780032,59.0081864 C155.915974,58.0586185 197.417984,77.3877683 206.695517,94.5386119 C219.461249,118.137888 217.964434,155.500149 189.854349,183.635006 Z" fill="#E2F4F2" transform="matrix(-1 0 0 1 214.78 0)"/><path d="M19,96 C19,96 19.9037776,68.7149267 34.3888684,53.2972973 C40.468827,46.8276983 44.461881,38.6109168 45.519027,29.7187069 C46.0132077,25.4986095 46.1268834,21.2412402 45.8586283,17" stroke="#4C4C4C" transform="matrix(-1 0 0 1 61 72)"/><path d="M54.6932513 7.77742433C53.644678 10.8782723 44.8795327 18 44.8795327 18 44.8795327 18 42.1943741 7.14987177 43.2429474 4.05186342 43.9212978 2.04671816 45.6393272.548660864 47.7498706.121995222 49.8604139-.30467042 52.0428295.404876253 53.4750225 1.98335587 54.9072155 3.5618355 55.3716017 5.76943946 54.6932513 7.77458473L54.6932513 7.77742433zM58.5954157 27.6512898C56.0462753 29.6911133 45 31 45 31 45 31 48.6820918 20.48641 51.2312322 18.4494196 52.864081 17.0278136 55.1443771 16.6153607 57.1715566 17.3749519 59.198736 18.1345431 60.6468721 19.9440527 60.9440483 22.0888458 61.2412246 24.2336389 60.3396614 26.3688791 58.5954157 27.6512898zM48.0908465 55.9635857C44.9486016 56.4492495 35 51.9163872 35 51.9163872 35 51.9163872 43.2670311 44.550486 46.4092761 44.0648222 48.4414281 43.7503335 50.4794668 44.5947817 51.7556827 46.2800714 53.0318986 47.9653611 53.3524041 50.2354567 52.596468 52.235235 51.8405318 54.2350133 50.1229986 55.6606605 48.0908465 55.9751491L48.0908465 55.9635857zM35.9244673 76.7644548C32.8247845 77.8014042 22 75.0786878 22 75.0786878 22 75.0786878 29.1494057 66.3399269 32.2490886 65.3029775 35.3479075 64.2631749 38.6852974 65.9859873 39.7033577 69.1509868 40.721418 72.3159863 39.0346299 75.724652 35.9358111 76.7644548L35.9244673 76.7644548z" fill="#38B2A6" fill-rule="nonzero" transform="matrix(-1 0 0 1 61 72)"/><path d="M33.6537835 27.5379439C35.1562994 30.3988313 44.7486321 36 44.7486321 36 44.7486321 36 45.6201479 25.0080219 44.117632 22.1443298 43.1461403 20.2935332 41.2523244 19.097068 39.1495665 19.0056308 37.0468086 18.9141937 35.0545676 19.9416761 33.9233014 21.7010355 32.7920353 23.4603949 32.6936102 25.6843426 33.6651019 27.5351391L33.6537835 27.5379439zM18.7354785 51.1317402C21.0567697 53.4560704 32 56 32 56 32 56 29.4871736 45.0713698 27.1687411 42.7470396 24.8486435 40.423793 21.0799827 40.4167703 18.7512015 42.7313539 16.4224203 45.0459375 16.4153809 48.8056417 18.7354785 51.1288882L18.7354785 51.1317402zM8.15455634 76.1993744C9.98458754 78.790614 20 83 20 83 20 83 19.3973613 72.1801963 17.5645657 69.5862001 16.4099693 67.835147 14.3900707 66.8508436 12.2952391 67.0184393 10.2004074 67.186035 8.363718 68.4788824 7.50385167 70.3911014 6.64398534 72.3033203 6.89765962 74.5308706 8.16561393 76.202131L8.15455634 76.1993744z" fill="#38B2A6" fill-rule="nonzero" transform="matrix(-1 0 0 1 61 72)"/><path d="M8.88330015,34.260925 C9.39965626,35.9846016 8.03519192,42 8.03519192,42 C8.03519192,42 3.66623061,38.0227327 3.1498745,36.3019678 C2.63271678,34.5789518 3.49694857,32.7259203 5.08019028,32.163106 C6.66343199,31.6002917 8.36614224,32.5408208 8.88330015,34.2638367 L8.88330015,34.260925 Z" fill="#6C63FF" fill-rule="nonzero" transform="matrix(-1 0 0 1 61 72)"/><path d="M8.88330015,34.260925 C9.39965626,35.9846016 8.03519192,42 8.03519192,42 C8.03519192,42 3.66623061,38.0227327 3.1498745,36.3019678 C2.63271678,34.5789518 3.49694857,32.7259203 5.08019028,32.163106 C6.66343199,31.6002917 8.36614224,32.5408208 8.88330015,34.2638367 L8.88330015,34.260925 Z" fill="#FFF" fill-rule="nonzero" opacity=".5" transform="matrix(-1 0 0 1 61 72)"/><path fill="#4C4C4C" fill-rule="nonzero" d="M5.9990625 118L29.998125 118 36 82 0 82z" transform="matrix(-1 0 0 1 61 72)"/><path fill="#000" fill-rule="nonzero" opacity=".1" d="M4.53359245 82L10.0666297 115.640206 30 115.640206 29.611327 118 5.92171016 118 0 82z" transform="matrix(-1 0 0 1 61 72)"/><path d="M58.1517387,34 C51.4436816,34.0072444 46.0076298,39.1687274 46,45.5379681 L46,178.462176 C46.0076955,184.831368 51.4437334,189.992773 58.1517387,190 L160.848414,190 C167.556366,189.992709 172.992321,184.831318 173,178.462176 L173,45.5379585 C172.992383,39.1687707 167.556415,34.0073068 160.848414,34 L58.1517387,34 Z" fill="#63656A" fill-rule="nonzero"/><rect fill="#FFF" fill-rule="nonzero" x="55" y="42" width="109" height="139" rx="4"/><path fill="#38B2A6" fill-rule="nonzero" d="M67 65H152V71H67zM67 79H152V85H67zM67 94H152V100H67zM67 109H152V115H67zM67 123H152V129H67zM67 138H152V144H67zM67 153H152V159H67z"/><path fill="#E2F4F2" fill-rule="nonzero" transform="rotate(-10.371 121.041 90.446)" d="M78.3544296 35.7908189L163.649533 35.8520913 163.728311 145.10116 78.4332085 145.039888z"/><path fill="#38B2A6" fill-rule="nonzero" transform="rotate(-10.371 115.081 58.008)" d="M83.5823895 55.9242566L146.576615 55.969509 146.579588 60.0921162 83.5853622 60.0468638z"/><path fill="#38B2A6" fill-rule="nonzero" transform="rotate(-10.371 117.068 68.82)" d="M85.5691819 66.7368583L148.563408 66.7821107 148.566381 70.904718 85.5721547 70.8594655z"/><path fill="#38B2A6" fill-rule="nonzero" transform="rotate(-10.371 119.055 79.633)" d="M87.5559764 77.5494596L150.550202 77.5947121 150.553175 81.7173193 87.5589492 81.6720669z"/><path fill="#38B2A6" fill-rule="nonzero" transform="rotate(-10.371 121.041 90.446)" d="M89.5427684 88.3620589L152.536994 88.4073113 152.539967 92.5299186 89.5457412 92.4846661z"/><path fill="#38B2A6" fill-rule="nonzero" transform="rotate(-10.37 123.027 101.259)" d="M91.5288246 99.1746332L154.522755 99.2198848 154.525727 103.342473 91.5317974 103.297221z"/><path fill="#38B2A6" fill-rule="nonzero" transform="rotate(-10.371 125.015 112.071)" d="M93.5163604 109.987259L156.510586 110.032511 156.513559 114.155119 93.5193332 114.109866z"/><path fill="#38B2A6" fill-rule="nonzero" transform="rotate(-10.371 127.002 122.884)" d="M95.5031529 120.799861L158.497379 120.845113 158.500352 124.96772 95.5061257 124.922468z"/><path d="M131.318497,22.7127676 L121.172414,22.7127676 L121.172414,20.6479279 C121.172414,17.5286635 118.628717,15 115.490908,15 L104.509089,15 C101.371283,15 98.8275899,17.5286658 98.8275914,20.6479279 L98.8275914,22.7127676 L88.6815032,22.7127676 C87.1746745,22.7127676 85.7295615,23.3078155 84.6640729,24.3670075 C83.5985843,25.4261995 83,26.8627721 83,28.3606955 L83,44 L137,44 L137,28.3606955 C137,26.8627721 136.401416,25.4261995 135.335927,24.3670075 C134.270439,23.3078155 132.825326,22.7127676 131.318497,22.7127676 Z" fill="#FCCD00" fill-rule="nonzero"/></g></svg>