<svg xmlns="http://www.w3.org/2000/svg" viewBox="0 0 42 46"><g><path d="m14.6235571 4.6h10.7008245c1.246172 0 2.2756184-1.02765957 2.2756184-2.3s-1.0565371-2.3-2.3568905-2.3h-10.6195524c-1.3003533 0-2.3568904 1.02765957-2.3568904 2.3s1.0565371 2.3 2.3568904 2.3z"/><path d="m9.0596817 3.06666667c0 2.72395252.60172211 5.07931741 3.6439693 5.18993345l.2269856.00406054h15.5387268c3.189191 0 3.8406844-1.73762742 3.8698999-4.95587388l.001055-.23812011h5.1612732c2.3670134 0 3.8065033 1.29639405 3.8941599 3.68824107l.0042486.23488205v36.01021021c0 1.5976809-1.24892 2.9036609-2.8237272 2.9949073l-.1762728.0050927h-34.52904509c-2.39360909 0-3.78240103-1.2445383-3.86686301-3.658262l-.0040919-.2372335v-35.14234234c0-2.22143393 1.59740162-3.79467084 3.66903184-3.89082878l.20192307-.00466671zm13.4403183 30.93333333h-14c-.82842712 0-1.5.6715729-1.5 1.5s.67157288 1.5 1.5 1.5h14c.8284271 0 1.5-.6715729 1.5-1.5s-.6715729-1.5-1.5-1.5zm10-9h-24c-.82842712 0-1.5.6715729-1.5 1.5 0 .7796961.59488808 1.4204487 1.35553999 1.4931334l.14446001.0068666h24c.8284271 0 1.5-.6715729 1.5-1.5s-.6715729-1.5-1.5-1.5zm0-9h-24c-.82842712 0-1.5.6715729-1.5 1.5 0 .7796961.59488808 1.4204487 1.35553999 1.4931334l.14446001.0068666h24c.8284271 0 1.5-.6715729 1.5-1.5s-.6715729-1.5-1.5-1.5z"/></g></svg>