<svg width="14" height="14" viewBox="0 0 14 14" xmlns="http://www.w3.org/2000/svg"><path d="M6.43333333,13.8333333 L3,13.8333333 C2.9,13.8333333 2.83333333,13.7666667 2.83333333,13.6666667 L2.83333333,2.33333333 C2.83333333,2.23333333 2.9,2.16666667 3,2.16666667 L12,2.16666667 C12.1,2.16666667 12.1666667,2.23333334 12.1666667,2.33333333 L12.1666667,5.76666667 C12.1666667,6.03333334 12.4,6.26666667 12.6666667,6.26666667 C12.9333333,6.26666667 13.1666667,6.03333334 13.1666667,5.76666667 L13.1666667,2.33333333 C13.1666667,1.7 12.6333333,1.16666667 12,1.16666667 L3,1.16666667 C2.36666667,1.16666667 1.83333333,1.7 1.83333333,2.33333333 L1.83333333,13.6666667 C1.83333333,14.3 2.36666666,14.8333333 3,14.8333333 L6.43333333,14.8333333 C6.7,14.8333333 6.93333333,14.6 6.93333333,14.3333333 C6.93333333,14.0666667 6.7,13.8333333 6.43333333,13.8333333 Z M11,7.16666667 C8.9,7.16666667 7.16666667,8.9 7.16666667,11 C7.16666667,13.1 8.9,14.8333333 11,14.8333333 C13.1,14.8333333 14.8333333,13.1 14.8333333,11 C14.8333333,8.9 13.1,7.16666667 11,7.16666667 Z M11,13.8333333 C9.43333333,13.8333333 8.16666667,12.5666667 8.16666667,11 C8.16666667,9.43333334 9.43333334,8.16666667 11,8.16666667 C12.5666667,8.16666667 13.8333333,9.43333334 13.8333333,11 C13.8333333,12.5666667 12.5666667,13.8333333 11,13.8333333 Z M12.5333333,11.2 L11.5,10.7333333 L11.5,9.33333333 C11.5,9.06666666 11.2666667,8.83333333 11,8.83333333 C10.7333333,8.83333333 10.5,9.06666666 10.5,9.33333333 L10.5,11.0666667 C10.5,11.2666667 10.6333333,11.4333333 10.8,11.5333333 L12.1333333,12.1333333 C12.2,12.1666667 12.2666667,12.1666667 12.3333333,12.1666667 C12.5333333,12.1666667 12.7,12.0666667 12.8,11.8666667 C12.9,11.6 12.8,11.3333333 12.5333333,11.2 L12.5333333,11.2 Z M10.8333333,4.16666667 L4.16666667,4.16666667 L4.16666667,5.16666667 L10.8333333,5.16666667 L10.8333333,4.16666667 Z M4.16666667,6.83333333 L4.16666667,7.83333333 L6.96666667,7.83333333 L6.96666667,6.83333333 L4.16666667,6.83333333 Z" transform="translate(-1 -1)" fill="" fill-rule="evenodd"/></svg>