<svg xmlns="http://www.w3.org/2000/svg" viewBox="0 0 19 18"><g fill="#38B2A6" fill-rule="nonzero"><path d="M13.5255985,0.0205161731 L1.37238422,0.0205161731 C0.622562786,0.0205161731 0.0152413538,0.627837605 0.0152413538,1.37765904 L0.0152413538,16.0178376 C0.0152413538,16.767659 0.622562786,17.3749805 1.37238422,17.3749805 L9.53559849,17.3749805 C9.55595563,17.3749805 9.57291992,17.3715876 9.58988422,17.3648019 C9.37952708,17.028909 9.25738422,16.6319448 9.25738422,16.2078376 L9.25738422,15.4987305 C9.25738422,14.297659 10.2379199,13.3171233 11.4389914,13.3171233 L11.6493485,13.3171233 L12.4873842,12.2992662 C12.1650628,11.9735519 11.9207771,11.5731947 11.7748842,11.138909 C11.2489914,9.56462333 12.0972056,7.85801617 13.6714914,7.32873047 C13.9802414,7.2235519 14.3025628,7.17265904 14.6282771,7.17265904 C14.7130985,7.17265904 14.7979199,7.1760519 14.8827414,7.1828376 L14.8827414,1.37765904 C14.8827414,0.627837605 14.2754199,0.0205161731 13.5255985,0.0205161731 Z M3.30970563,3.5490876 L6.77041992,3.5490876 C7.14363422,3.5490876 7.44899135,3.85444474 7.44899135,4.22765904 C7.44899135,4.60087333 7.14363422,4.90623047 6.77041992,4.90623047 L3.30970563,4.90623047 C2.93649133,4.90623047 2.63113422,4.60087333 2.63113422,4.22765904 C2.63113422,3.85444474 2.93649135,3.5490876 3.30970563,3.5490876 Z M8.87399135,12.9133733 L3.30970563,12.9133733 C2.93649133,12.9133733 2.63113422,12.6080162 2.63113422,12.2348019 C2.63113422,11.8615876 2.93649135,11.5562305 3.30970563,11.5562305 L8.87399135,11.5562305 C9.24720565,11.5562305 9.55256279,11.8615876 9.55256279,12.2348019 C9.55256279,12.6080162 9.25059849,12.9133733 8.87399135,12.9133733 Z M9.89184849,8.9098019 L3.30970563,8.9098019 C2.93649133,8.9098019 2.63113422,8.60444476 2.63113422,8.23123047 C2.63113422,7.85801617 2.93649135,7.55265904 3.30970563,7.55265904 L9.89184849,7.55265904 C10.2650628,7.55265904 10.5704199,7.85801617 10.5704199,8.23123047 C10.5704199,8.60444476 10.2684556,8.9098019 9.89184849,8.9098019 Z"/><path d="M17.8175628,14.3349805 L17.1254199,14.3349805 L15.2593485,12.0719448 C16.3009556,11.7224805 16.8641699,10.5926591 16.5147056,9.5510519 C16.2364913,8.7198019 15.4595271,8.19390904 14.6282771,8.19390904 C14.4179199,8.19390904 14.2041699,8.2278376 13.9938128,8.2990876 C12.9522056,8.6485519 12.3889914,9.77837331 12.7384556,10.8199805 C12.9352413,11.4103376 13.4000628,11.875159 13.9938128,12.0753376 L12.1311342,14.3417662 L11.4389914,14.3417662 C10.7943485,14.3417662 10.2752414,14.8642662 10.2752414,15.5055162 L10.2752414,16.2112305 C10.2752414,16.8558733 10.7977414,17.3749805 11.4389914,17.3749805 L17.8175628,17.3749805 C18.4588128,17.3749805 18.9813128,16.8524805 18.9813128,16.2112305 L18.9813128,15.5021233 C18.9813128,14.8574805 18.4588128,14.3383733 17.8175628,14.3349805 L17.8175628,14.3349805 Z"/></g></svg>