<svg xmlns="http://www.w3.org/2000/svg" viewBox="0 0 18 17"><path d="M0.814144737,0.0208796138 L17.0547462,0.0208796138 C17.5032181,0.0208796138 17.8667763,0.37984748 17.8667763,0.822656784 L17.8667763,12.8493143 C17.8667763,13.2921236 17.5032181,13.6510915 17.0547462,13.6510915 L0.814144737,13.6510915 C0.36567291,13.6510915 0.00211466165,13.2921236 0.00211466165,12.8493143 L0.00211466165,0.822656784 C0.00211466165,0.610012257 0.0876675847,0.406077097 0.239952764,0.25571471 C0.392237944,0.105352323 0.598780971,0.0208796138 0.814144737,0.0208796138 Z M1.62617481,1.62443395 L1.62617481,12.0475372 L16.2427162,12.0475372 L16.2427162,1.62443395 L1.62617481,1.62443395 Z M8.12241541,15.2546458 L8.12241541,13.6510915 L9.74647556,13.6510915 L9.74647556,15.2546458 L12.9945959,15.2546458 L12.9945959,16.8582002 L4.87429511,16.8582002 L4.87429511,15.2546458 L8.12241541,15.2546458 Z" fill="#38B2A6" fill-rule="nonzero"/></svg>