<svg viewBox="0 0 58 65" xmlns="http://www.w3.org/2000/svg"><g fill-rule="nonzero" fill="none"><path d="M55.7921117,60.6657252 L53.840611,60.6657252 L53.840611,23.5704187 C53.840611,18.4640845 50.9254063,16.2687628 49.1023995,15.9068967 L36.6063705,12.2560687 L36.6063705,8.24337462 C36.6063705,7.51160074 36.2449814,7.14973452 35.8755616,6.77982687 C35.5141725,6.41796071 34.7833636,6.41796071 34.4139437,6.41796071 L9.15686695,13.3497088 C9.15686695,13.3497088 4.78004445,14.4433489 4.78004438,20.281457 L4.78004438,60.6576837 L2.84460543,60.6576837 C1.75240749,60.6576837 1.02159866,61.3894575 1.02159866,62.4830976 C1.02159866,63.5767377 1.75240755,64.3085116 2.84460543,64.3085116 L55.7921117,64.3085116 C56.8843097,64.3085116 57.6151186,63.5767377 57.6151186,62.4830976 C57.6151186,61.3894575 56.8923406,60.6657252 55.7921117,60.6657252 Z" fill="#E2F4F2"/><path d="M33.4139437,0.00951000211 C33.7833636,0.00951000211 34.5141725,0.00951000211 34.8755616,0.371376168 C35.2449814,0.741283812 35.6063705,1.10315004 35.6063705,1.83492391 L35.6063705,1.83492391 L35.6063705,5.84761803 L48.1023995,9.49844597 C49.9254063,9.86031214 52.840611,12.0556338 52.840611,17.161968 L52.840611,17.161968 L52.840611,54.2572744 L54.7921117,54.2572744 C55.8923406,54.2572744 56.6151186,54.9810068 56.6151186,56.0746469 C56.6151186,57.168287 55.8843097,57.9000609 54.7921117,57.9000609 L54.7921117,57.9000609 L1.84460543,57.9000609 C0.752407555,57.9000609 0.0215986587,57.168287 0.0215986587,56.0746469 C0.0215986587,54.9810068 0.752407492,54.249233 1.84460543,54.249233 L1.84460543,54.249233 L3.78004438,54.249233 L3.78004438,13.8730063 C3.78004445,8.03489823 8.15686695,6.94125813 8.15686695,6.94125813 L8.15686695,6.94125813 Z M31.9603568,4.38407028 L9.2570957,10.592086 C8.89570672,10.592086 7.43408893,11.3158184 7.43408893,13.8730063 L7.43408893,13.8730063 L7.43408893,54.2572744 L31.9603568,54.2572744 L31.9603568,4.38407028 Z M35.6063705,9.49844597 L35.6063705,54.2572744 L49.1945974,54.2572744 L49.1945974,17.161968 C49.1945974,13.5111401 47.7329796,13.1492739 47.3715906,13.1492739 L47.3715906,13.1492739 L47.0102016,13.1492739 L35.6063705,9.49844597 Z M43.902256,39.2197234 C44.8258057,39.2197234 45.5726764,39.9675802 45.5726764,40.8923494 L45.5726764,44.2376014 C45.5726764,45.1623706 44.8258057,45.9102274 43.902256,45.9102274 L40.5614154,45.9102274 C39.6378657,45.9102274 38.890995,45.1623706 38.890995,44.2376014 L38.890995,40.8923494 C38.890995,39.9675802 39.6378657,39.2197234 40.5614154,39.2197234 L43.902256,39.2197234 Z M16.3322895,35.8744714 C17.2558392,35.8744714 18.0027099,36.6223282 18.0027099,37.5470974 L18.0027099,40.8923494 C18.0027099,41.8171186 17.2558392,42.5649754 16.3322895,42.5649754 L12.9914489,42.5649754 C12.0678992,42.5649754 11.3210285,41.8171186 11.3210285,40.8923494 L11.3210285,37.5470974 C11.3210285,36.6223282 12.0678992,35.8744714 12.9914489,35.8744714 L16.3322895,35.8744714 Z M27.1900218,35.8744714 C28.1135715,35.8744714 28.8604422,36.6223282 28.8604422,37.5470974 L28.8604422,40.8923494 C28.8604422,41.8171186 28.1135715,42.5649754 27.1900218,42.5649754 L23.8491811,42.5649754 C22.9256314,42.5649754 22.1787608,41.8171186 22.1787608,40.8923494 L22.1787608,37.5470974 C22.1787608,36.6223282 22.9256314,35.8744714 23.8491811,35.8744714 L27.1900218,35.8744714 Z M43.902256,28.3476544 C44.8258057,28.3476544 45.5726764,29.0955112 45.5726764,30.0202804 L45.5726764,33.3655324 C45.5726764,34.2903016 44.8258057,35.0381584 43.902256,35.0381584 L40.5614154,35.0381584 C39.6378657,35.0381584 38.890995,34.2903016 38.890995,33.3655324 L38.890995,30.0202804 C38.890995,29.0955112 39.6378657,28.3476544 40.5614154,28.3476544 L43.902256,28.3476544 Z M16.3322895,24.9943609 C17.2558392,24.9943609 18.0027099,25.7422177 18.0027099,26.6669869 L18.0027099,30.0202804 C18.0027099,30.9450496 17.2558392,31.6929064 16.3322895,31.6929064 L12.9914489,31.6929064 C12.0678992,31.6929064 11.3210285,30.9450496 11.3210285,30.0202804 L11.3210285,26.6669869 C11.3210285,25.7422177 12.0678992,24.9943609 12.9914489,24.9943609 L16.3322895,24.9943609 Z M27.1900218,24.9943609 C28.1135715,24.9943609 28.8604422,25.7422177 28.8604422,26.6669869 L28.8604422,30.0202804 C28.8604422,30.9450496 28.1135715,31.6929064 27.1900218,31.6929064 L23.8491811,31.6929064 C22.9256314,31.6929064 22.1787608,30.9450496 22.1787608,30.0202804 L22.1787608,26.6669869 C22.1787608,25.7422177 22.9256314,24.9943609 23.8491811,24.9943609 L27.1900218,24.9943609 Z M43.902256,17.4675438 C44.8258057,17.4675438 45.5726764,18.2154007 45.5726764,19.1401699 L45.5726764,22.4854219 C45.5726764,23.410191 44.8258057,24.1580479 43.902256,24.1580479 L40.5614154,24.1580479 C39.6378657,24.1580479 38.890995,23.410191 38.890995,22.4854219 L38.890995,19.1401699 C38.890995,18.2154007 39.6378657,17.4675438 40.5614154,17.4675438 L43.902256,17.4675438 Z M16.3322895,14.1222919 C17.2558392,14.1222919 18.0027099,14.8701487 18.0027099,15.7949179 L18.0027099,19.1401699 C18.0027099,20.064939 17.2558392,20.8127959 16.3322895,20.8127959 L12.9914489,20.8127959 C12.0678992,20.8127959 11.3210285,20.064939 11.3210285,19.1401699 L11.3210285,15.7949179 C11.3210285,14.8701487 12.0678992,14.1222919 12.9914489,14.1222919 L16.3322895,14.1222919 Z M27.1900218,14.1222919 C28.1135715,14.1222919 28.8604422,14.8701487 28.8604422,15.7949179 L28.8604422,19.1401699 C28.8604422,20.064939 28.1135715,20.8127959 27.1900218,20.8127959 L23.8491811,20.8127959 C22.9256314,20.8127959 22.1787608,20.064939 22.1787608,19.1401699 L22.1787608,15.7949179 C22.1787608,14.8701487 22.9256314,14.1222919 23.8491811,14.1222919 L27.1900218,14.1222919 Z" fill="#38B2A6"/></g></svg>