<svg viewBox="0 0 44 47" xmlns="http://www.w3.org/2000/svg"><g fill="none" fill-rule="evenodd"><path d="M0 0h48v48H0z"/><path d="M10.118 28.138l15.3-12.934c.688-.61 1.718-.61 2.442 0l7.591 6.41V20.47c0-.42.344-.764.763-.764h2.099c.419 0 .763.344.763.764v4.234l4.083 3.434c.801.687.878 1.87.23 2.633-.689.8-1.871.878-2.634.228l-.229-.19v14.879c0 .647-.534 1.182-1.182 1.182h-8.737V33.098h-7.859V46.87h-8.737a1.188 1.188 0 0 1-1.182-1.182v-14.88l-.229.19a1.863 1.863 0 0 1-1.22.458c-.535 0-1.07-.229-1.45-.647-.688-.839-.575-2.024.188-2.671" fill="#FBCE20"/><path d="M24.93 8.709a.614.614 0 0 1-.615-.614V.883a.614.614 0 1 1 1.229 0v7.212c0 .34-.275.614-.615.614M19.707 10.122a.615.615 0 0 1-.578-.405l-1.766-4.852a.615.615 0 0 1 1.155-.42l1.766 4.852a.615.615 0 0 1-.577.825M15.115 12.364a.613.613 0 0 1-.471-.22l-1.958-2.332a.615.615 0 0 1 .941-.79l1.958 2.332a.615.615 0 0 1-.47 1.01M34.744 12.364a.614.614 0 0 1-.47-1.01l1.957-2.332a.615.615 0 1 1 .942.79l-1.958 2.332a.613.613 0 0 1-.47.22M30.152 10.122a.615.615 0 0 1-.577-.824l1.766-4.853a.615.615 0 0 1 1.155.42l-1.767 4.852a.615.615 0 0 1-.577.405M29.736 45.053h7.962a.368.368 0 0 0 .363-.363V29.725a.825.825 0 0 1 1.355-.633l.23.192c.43.366 1.122.297 1.493-.134.368-.433.306-1.1-.142-1.484l-3.428-3.042a.827.827 0 0 1-.277-.618v-6.281h-2.684v2.753a.826.826 0 0 1-1.358.63l-7.634-6.446c-.402-.338-1-.346-1.376-.013L8.837 27.67c-.436.37-.474 1.057-.084 1.532.342.375 1.097.457 1.497.1l.252-.21a.824.824 0 1 1 1.354.634V44.69c0 .197.166.363.363.363h7.962V32.028c0-.456.37-.825.826-.825h7.903c.456 0 .826.369.826.825v13.025zm7.962 1.65H28.91a.825.825 0 0 1-.825-.824V32.853h-6.253V45.88c0 .456-.37.825-.825.825h-8.788a2.016 2.016 0 0 1-2.014-2.014V31.127c-.96.23-2.023-.102-2.701-.846-.985-1.2-.853-2.921.266-3.87L23.16 13.4c.935-.83 2.511-.85 3.52-.002l6.277 5.302v-1.034c0-.879.714-1.593 1.593-1.593h2.8c.878 0 1.592.714 1.592 1.593v5.969l3.141 2.786c1.125.966 1.268 2.675.31 3.8a2.767 2.767 0 0 1-2.681.89V44.69c0 1.11-.903 2.014-2.014 2.014z" fill="#4D4E4C"/><path d="M3.759 20.607a.893.893 0 0 0 .766-.767l.312-3.164c.039-.384.1-.384.138 0l.312 3.164a.893.893 0 0 0 .767.767l3.164.312c.384.037.384.1 0 .137l-3.164.312a.893.893 0 0 0-.767.767l-.312 3.164c-.038.384-.1.384-.138 0l-.312-3.164a.893.893 0 0 0-.766-.767l-3.164-.312c-.384-.038-.384-.1 0-.138l3.164-.311" fill="#FBCE20"/><path d="M10.608 18.059a.427.427 0 0 0 .367-.366l.149-1.513c.018-.183.047-.183.065 0l.15 1.513a.426.426 0 0 0 .366.366l1.512.149c.184.018.184.048 0 .066l-1.512.15a.427.427 0 0 0-.367.366l-.149 1.512c-.018.183-.047.183-.065 0l-.15-1.512a.427.427 0 0 0-.366-.367l-1.513-.149c-.183-.018-.183-.048 0-.066l1.513-.15" fill="#4D4E4C"/></g></svg>