<svg width="124" height="125" xmlns="http://www.w3.org/2000/svg" xmlns:xlink="http://www.w3.org/1999/xlink"><defs><path id="a" d="M0 0H160V160H0z"/></defs><g transform="translate(-16 -19)" fill="none" fill-rule="evenodd"><mask id="b" fill="#fff"><use xlink:href="#a"/></mask><g mask="url(#b)"><path d="M82.358379 53.3157245L39.9842537 82.8825761 1.44366071e-14 25.5784835 36.6572273 -5.77464285e-14 40.9640757 0.468323406 45.8540425 0.999631739 82.358379 53.3157245" transform="translate(16 28.59)" fill="#FCFBFC"/><path fill="#9EA0A0" d="M36.6572273 -7.21830357e-14L40.1376525 4.98799984 45.8540425 0.999631739 36.6572273 -7.21830357e-14" transform="translate(16 28.59)"/><path fill="#CCCDC9" d="M28.3477885 32.9847997L16.4436373 41.2911909 8.13775411 29.3870398 20.0413973 21.0811565 28.3477885 32.9847997M41.5715754 9.16125917L25.2513682 20.5488323 24.2283711 19.0834169 40.5490863 7.69584374 41.5715754 9.16125917M43.7100153 12.226187L27.390316 23.6142681 26.3673189 22.1483447 42.6875261 10.7607715 43.7100153 12.226187M45.8489631 15.2916227L29.5287559 26.6791959 28.5062667 25.2137804 44.8264739 13.8262073 45.8489631 15.2916227M47.9879109 18.3570585L31.6677037 29.7446316 30.6452145 28.2792162 46.9654217 16.8911351 47.9879109 18.3570585M39.7348537 49.304499L27.8312105 57.6108902 19.5248193 45.706739 31.4289705 37.4008558 39.7348537 49.304499M52.9586406 25.4804505L36.6384334 36.8685316 35.6159443 35.4031162 51.9361515 24.0150351 52.9586406 25.4804505M55.0975884 28.5458862L38.7773812 39.9334594 37.754892 38.468044 54.0750993 27.0804708 55.0975884 28.5458862M57.2365362 31.611322L40.9158211 42.9988951 39.8933319 41.5334797 56.214047 30.1459066 57.2365362 31.611322M59.3749761 34.6762498L43.0547689 46.0638229 42.0322797 44.5989155 58.3524869 33.2108344 59.3749761 34.6762498M51.1219189 65.6241983L39.2182757 73.9305894 30.9118845 62.0264383 42.8160357 53.7205551 51.1219189 65.6241983M64.3457058 41.8001498L48.0254986 53.1882309 47.0030095 51.7223075 63.3232167 40.3347343 64.3457058 41.8001498M66.4846536 44.8655855L50.1644464 56.2531587 49.1419573 54.7872353 65.4621645 43.3996621 66.4846536 44.8655855M68.6236014 47.9305133L52.3033942 59.3180865 51.2809051 57.852671 67.6011123 46.4650979 68.6236014 47.9305133M70.7625492 50.9954411L54.442342 62.3835222 53.4193449 60.9181068 69.74006 49.5305336 70.7625492 50.9954411" transform="translate(16 28.59)"/><g><path d="M6,11.0844616 L65.6000855,11.0844616 C68.913794,11.0844616 71.6000855,13.7707531 71.6000855,17.0844616 L71.6000855,105.711251 C71.6000855,110.129529 68.0183635,113.711251 63.6000855,113.711251 L8,113.711251 C3.581722,113.711251 2.27914758e-13,110.129529 2.27373675e-13,105.711251 L2.27373675e-13,17.0844616 C2.26967863e-13,13.7707531 2.6862915,11.0844616 6,11.0844616 Z" fill="#F9CA5B" transform="rotate(20 16.66 212.63)"/><path d="M37.5813978,0.295899455 C34.9434457,-0.644486922 32.042532,0.73085657 31.1020843,3.36863657 C30.1616366,6.0056588 31.5370698,8.90638326 34.1742641,9.8475274 C36.8122161,10.7879138 39.7131298,9.41181252 40.6535775,6.77479029 C41.5940252,4.13701029 40.218592,1.23628583 37.5813978,0.295899455 Z M35.1526025,7.1036603 C34.0310371,6.70280261 33.4460044,5.46916117 33.8461304,4.3469112 C34.2462564,3.22466122 35.4799783,2.63966663 36.6030593,3.03976655 C37.7246247,3.44062424 38.3096575,4.67426568 37.9095314,5.79575789 C37.5094054,6.91800787 36.2756835,7.50300246 35.1526025,7.1036603 L35.1526025,7.1036603 Z" fill="#F9A600" transform="rotate(20 16.66 212.63)"/><path fill="#F9A600" d="M16.11 7.504H56.086999999999996V14.664H16.11z" transform="rotate(20 16.66 212.63)"/><path fill="#E5E6E3" d="M11.2920321 17.1239577L0.0656614503 101.236207 58.8659593 109.010734 69.2790774 24.4068002z" transform="rotate(20 16.66 212.63)"/><path fill="#FFF" d="M6.563 20.631H65.633V104.761H6.563z" transform="rotate(20 16.66 212.63)"/><path fill="#EBE9E5" d="M15.813 65.108H57.619V71.075H15.813zM15.506 77.381H57.312V83.348H15.506zM15.506 90.298H57.312V96.265H15.506z" transform="rotate(20 16.66 212.63)"/><g transform="rotate(20 -70.573 238.908)"><circle fill="#38B2A6" cx="11.255" cy="11.255" r="11.255"/><path d="M5.83828315,10.3190493 L10.8516433,5.7876306 C11.0767793,5.57385578 11.4141282,5.57385578 11.6516929,5.7876306 L14.1388422,8.03359523 L14.1388422,7.63262504 C14.1388422,7.48567858 14.2514103,7.36531158 14.3888356,7.36531158 L15.0763172,7.36531158 C15.2133874,7.36531158 15.3263105,7.48567858 15.3263105,7.63262504 L15.3263105,9.11613878 L16.6643428,10.3190493 C16.9267648,10.560163 16.9519772,10.9740432 16.7389147,11.2413567 C16.5137787,11.5219599 16.1263601,11.5492988 15.8763668,11.3214748 L15.8014398,11.2546464 L15.8014398,16.4676385 C15.8014398,16.6943234 15.6263735,16.8818985 15.4143763,16.8818985 L12.5515268,16.8818985 L12.5515268,12.0565868 L9.97666671,12.0565868 L9.97666671,16.8818985 L7.11381719,16.8818985 C6.90146492,16.8818985 6.72639858,16.6943234 6.72639858,16.4676385 L6.72639858,11.2546464 L6.65147161,11.3214748 C6.5389036,11.4289318 6.38904966,11.481711 6.25162436,11.481711 C6.07655802,11.481711 5.90149168,11.4015929 5.77649503,11.2546464 C5.55135901,10.9611332 5.58828984,10.5461139 5.83828315,10.3190493" fill="#FFF"/></g></g><g><path d="M11.1292815,71.0338907 C9.11138079,71.0338907 7.47530464,69.398255 7.47530464,67.3803543 L7.47530464,3.65397682 C7.47530464,1.63563576 9.11138079,-1.8149426e-13 11.1292815,-1.8149426e-13 L112.105348,-1.8149426e-13 C114.123689,-1.8149426e-13 115.759325,1.63563576 115.759325,3.65397682 L115.759325,67.3803543 C115.759325,69.398255 114.123689,71.0338907 112.105348,71.0338907 L11.1292815,71.0338907 Z" fill="#2C312F" transform="translate(16.679 67.005)"/><path d="M109.396904,67.5415397 L13.8377252,67.5415397 C11.9277219,67.5415397 10.3792848,66.0662086 10.3792848,64.2464868 L10.3792848,6.78740397 C10.3792848,4.96768212 11.9277219,3.49235099 13.8377252,3.49235099 L109.396904,3.49235099 C111.306907,3.49235099 112.855344,4.96768212 112.855344,6.78740397 L112.855344,64.2464868 C112.855344,66.0662086 111.306907,67.5415397 109.396904,67.5415397" fill="#8BD0C9" transform="translate(16.679 67.005)"/><path fill="#EEF1EF" d="M0 73.5230166L123.234629 73.5230166 123.234629 69.095702 0 69.095702z" transform="translate(16.679 67.005)"/><path d="M61.6173146,73.5230166 L0,73.5230166 L2.50850331,74.321457 C6.96003974,75.739096 12.0796589,76.4895331 17.3010099,76.4895331 L105.933619,76.4895331 C111.15497,76.4895331 116.274589,75.739096 120.726126,74.321457 L123.234629,73.5230166 L61.6173146,73.5230166" fill="#C7C7C4" transform="translate(16.679 67.005)"/></g><path fill="#FCFBFC" d="M18.0207748 127.546823L106.57147 127.546823 106.57147 55.7620544 18.0207748 55.7620544z" transform="translate(16 7)"/><path d="M18.0207748,55.7149318 L106.57147,55.7149318 C106.57147,52.0074571 103.565968,49.001955 99.8584934,49.001955 L24.7337517,49.001955 C21.0262769,49.001955 18.0207748,52.0074571 18.0207748,55.7149318 L18.0207748,55.7149318 L18.0207748,55.7149318 Z" fill="#3A3B39" transform="translate(16 7)"/><path d="M31.0063311 52.1375842C31.0063311 52.7898126 30.4778543 53.3182895 29.8256258 53.3182895 29.1733974 53.3182895 28.6444801 52.7898126 28.6444801 52.1375842 28.6444801 51.4853557 29.1733974 50.9564385 29.8256258 50.9564385 30.4778543 50.9564385 31.0063311 51.4853557 31.0063311 52.1375842M35.8731623 52.1375842C35.8731623 52.7898126 35.344245 53.3182895 34.6920166 53.3182895 34.0397881 53.3182895 33.5113113 52.7898126 33.5113113 52.1375842 33.5113113 51.4853557 34.0397881 50.9564385 34.6920166 50.9564385 35.344245 50.9564385 35.8731623 51.4853557 35.8731623 52.1375842" fill="#B5B7B4" transform="translate(16 7)"/><path d="M26.1399404,52.1375842 C26.1399404,52.7898126 25.6110232,53.3182895 24.9592351,53.3182895 C24.3065662,53.3182895 23.7780894,52.7898126 23.7780894,52.1375842 C23.7780894,51.4853557 24.3065662,50.9564385 24.9592351,50.9564385 C25.6110232,50.9564385 26.1399404,51.4853557 26.1399404,52.1375842" fill="#E05E55" transform="translate(16 7)"/><g><path fill="#EBE9E5" d="M63.3699503 10.0656799L27.3703884 10.0981415 27.3699503 4.13421006 63.3695122 4.09814153 63.3699503 10.0656799" transform="translate(47.679 73.01)"/><path fill="#38B2A6" fill-rule="nonzero" d="M15.7689351 -1.687539e-14L18 2.6417487 5.98498701 12.7889188 0 5.65787109 2.6485974 3.43494093 6.40322577 7.90880909z" transform="translate(47.679 73.01)"/></g><g><path fill="#EBE9E5" d="M63.3699503 10.0459833L27.3708266 10.0981415 27.3699503 4.14670268 63.3695122 4.09814153 63.3699503 10.0459833" transform="translate(47.679 92.01)"/><path fill="#38B2A6" fill-rule="nonzero" d="M15.7689351 -1.24344979e-14L18 2.6417487 5.98498701 12.7889188 0 5.65787109 2.6485974 3.43494093 6.40322577 7.90880909z" transform="translate(47.679 92.01)"/></g><g><path fill="#EBE9E5" d="M63.3699503 10.0459833L27.3708266 10.0981415 27.3699503 4.14670268 63.3695122 4.09814153 63.3699503 10.0459833" transform="translate(47.679 111.01)"/><path fill="#38B2A6" fill-rule="nonzero" d="M15.7689351 -1.24344979e-14L18 2.6417487 5.98498701 12.7889188 0 5.65787109 2.6485974 3.43494093 6.40322577 7.90880909z" transform="translate(47.679 111.01)"/></g></g></g></svg>