<svg xmlns="http://www.w3.org/2000/svg" viewBox="0 0 40 43"><g fill="none" fill-rule="evenodd"><path d="M34,7 C36.209139,7 38,8.790861 38,11 L38,27.363 L24.4818012,27.3626967 L24.4958494,27.2799967 C24.6779861,25.8868772 24.2409154,24.4257997 23.1846613,23.3573048 C21.3956541,21.5475651 18.5052513,21.547565 16.7162442,23.357305 L11.8443289,28.2834639 L11.8143378,28.3059151 C10.6894132,29.1691047 10,30.526625 10,32.0107642 L10.0080112,32.2872965 C10.0825026,33.5702747 10.6725595,34.7422067 11.6137025,35.5525134 L11.7182209,35.6384784 L16.6674799,40.6427749 C17.5370399,41.5224122 18.7007806,42 19.9016096,42 C21.1023898,42 22.266003,41.5224489 23.1356695,40.6428455 L23.315657,40.4502886 C24.2413068,39.4025862 24.6184159,38.0311697 24.4468677,36.7198386 L24.4369358,36.6568841 L38,36.657 L38,39 C38,41.209139 36.209139,43 34,43 L10,43 C7.790861,43 6,41.209139 6,39 L6,11 C6,8.790861 7.790861,7 10,7 L34,7 Z" fill="#F8F8F6"/><path d="M17.7998992,27.3726366 C18.300515,26.8757878 19.1115675,26.8757878 19.6121834,27.3726366 C20.0794248,27.8363621 20.1105743,28.5688259 19.7056317,29.068058 L19.6121834,29.1712835 L17.4269158,31.3398672 L33.9331335,31.3398672 C34.6406937,31.3398672 35.2147778,31.8971122 35.2147778,32.599748 C35.2147778,33.2584691 34.7102471,33.7894404 34.0641691,33.8532387 L33.9331738,33.8596688 L17.4042265,33.8596688 L19.571923,36.0108536 C20.0725388,36.5073023 20.0725388,37.3126517 19.571923,37.8095005 C19.3215747,38.0579249 18.9936879,38.1821571 18.6657607,38.1821571 C18.3846803,38.1821571 18.1035999,38.0908844 17.8713992,37.9083644 L17.7595985,37.8095005 L13.5627193,33.6446023 C13.2231855,33.4193764 13,33.0378804 13,32.599788 C13,32.1823942 13.2026188,31.816416 13.5154294,31.5879866 L13.623654,31.517056 L17.7998992,27.3726366 Z M25.4773973,0.0219874332 C28.7947415,0.0219874332 30.8500624,1.77454545 30.9507551,5.01565228 L30.9546337,5.26789973 L30.9546337,24.928212 C30.9546337,25.7240623 30.4631856,26.3692901 29.6673353,26.3692901 C28.9182997,26.3692901 28.4391123,25.7977388 28.3853291,25.066992 L28.3802679,24.928212 L28.3802679,5.26789973 C28.3802679,3.52233111 27.3694321,2.66120808 25.6758937,2.59981566 L25.4774743,2.5962762 L5.48388289,2.5962762 C3.73831426,2.5962762 2.6629706,3.39274853 2.58570999,5.0704082 L2.58124332,5.26789973 L2.58124332,30.9361693 C2.58124332,32.6817379 3.59193628,33.5428609 5.28546415,33.6042533 L5.48388289,33.6077928 L7.36075184,33.6077928 C8.15667912,33.6077928 8.80190692,34.0991639 8.80190692,34.8950142 C8.80190692,35.6441222 8.23035565,36.1234504 7.49960879,36.1772499 L7.36082885,36.1823126 L5.48388289,36.1823126 C2.1666138,36.1823126 0.111514428,34.4295349 0.0108327525,31.1884171 L0.00695454545,30.9361693 L0.00695454545,5.26789973 C0.00695454545,1.95070572 1.97912219,0.115144652 5.2312095,0.0254398452 L5.48388289,0.0219874332 L25.4773973,0.0219874332 Z M16.5636364,5.968 L16.5636364,8.15474699 L16.9155522,8.19626845 C17.9431283,8.33522648 18.8361478,8.6157978 19.5946109,9.03798241 L19.8727273,9.20293976 L18.5272727,11.8053494 L18.316003,11.6516603 C17.6127724,11.1637582 16.9195592,10.9198072 16.2363636,10.9198072 C15.7757576,10.9198072 15.4,11.0252289 15.1090909,11.2360723 C14.8181818,11.4469157 14.6727273,11.6848675 14.6727273,11.9499277 C14.6727273,12.1908916 14.7878788,12.4198072 15.0181818,12.6366747 C15.2024242,12.8101687 15.4332121,12.9566747 15.7105455,13.0761928 L15.9272727,13.1607711 L17,13.5222169 L17.2930556,13.6265718 C18.3421296,14.0163392 19.1111111,14.4845663 19.6,15.031253 C20.1333333,15.6276386 20.4,16.4017349 20.4,17.3535422 C20.4,17.9318554 20.3333333,18.4439036 20.2,18.8896867 C20.0666667,19.3354699 19.8484848,19.7330602 19.5454545,20.0824578 C19.2424242,20.4318554 18.8454545,20.7390843 18.3545455,21.0041446 C17.9454545,21.2250281 17.4627104,21.429178 16.9063131,21.6165944 L16.5636364,21.7270361 L16.5636364,23.968 L14.8909091,23.968 L14.8909091,21.8173976 L14.6045455,21.8089262 C14.3136364,21.7919834 14.0090909,21.7496265 13.6909091,21.6818554 C13.2666667,21.591494 12.8484848,21.471012 12.4363636,21.3204096 C12.0242424,21.1698072 11.6393939,20.9951084 11.2818182,20.7963133 C10.9957576,20.6372771 10.7504242,20.4724578 10.5458182,20.3018554 L10.4,20.1728193 L11.8727273,17.4439036 L12.100202,17.6372369 C13.1598653,18.5083481 14.1931313,18.9439036 15.2,18.9439036 C15.6484848,18.9439036 16.0393939,18.8234217 16.3727273,18.5824578 C16.7060606,18.341494 16.8727273,18.028241 16.8727273,17.6426988 C16.8727273,17.1533568 16.5370629,16.7820729 15.8657343,16.5288469 L15.6909091,16.468 L14.6545455,16.1426988 L14.3530303,16.0448072 C13.8631313,15.8791446 13.4363636,15.7009317 13.0727273,15.5101687 C12.6363636,15.281253 12.2787879,15.0161928 12,14.714988 C11.7212121,14.4137831 11.5151515,14.0734217 11.3818182,13.6939036 C11.2484848,13.3143855 11.1818182,12.8776386 11.1818182,12.3836627 C11.1818182,11.8655904 11.2575758,11.3655904 11.4090909,10.8836627 C11.5606061,10.4017349 11.7909091,9.97101205 12.1,9.59149398 C12.4090909,9.2119759 12.7939394,8.8926988 13.2545455,8.63366265 C13.6493506,8.41163167 14.1064935,8.26262749 14.625974,8.18665011 L14.8909091,8.15474699 L14.8909091,5.968 L16.5636364,5.968 Z" fill="#C8C9CB"/></g></svg>