<svg xmlns="http://www.w3.org/2000/svg" width="16" height="16" viewBox="0 0 16 16">
    <g fill="none" fill-rule="evenodd">
        <g fill="#9E9E9E">
            <g>
                <g>
                    <path d="M11.2 6.4c-.883 0-1.6-.717-1.6-1.6 0-.884.717-1.6 1.6-1.6.883 0 1.6.716 1.6 1.6 0 .883-.717 1.6-1.6 1.6M15.235 0h-6.12c-.42 0-1.009.243-1.305.54L.224 8.128c-.299.299-.299.784 0 1.083l6.567 6.567c.297.297.784.297 1.08 0L15.46 8.19c.298-.298.541-.886.541-1.306V.765c0-.42-.345-.765-.765-.765" transform="translate(-26 -311) translate(26 309) translate(0 2)"/>
                </g>
            </g>
        </g>
    </g>
</svg>
