<svg xmlns="http://www.w3.org/2000/svg" viewBox="0 0 16 19"><g fill="#D21E1F" fill-rule="evenodd"><path d="M8.13853767,1.36779477e-13 L7.73570518,1.36779477e-13 L0.405026955,2.60100242 L0.372013257,2.61738317 C0.136175986,2.73440102 2.48689958e-13,2.97088855 2.48689958e-13,3.21850781 L2.48689958e-13,10.6937104 C0.0182822534,11.337793 0.343119847,12.4484298 1.06728762,13.616213 C2.2814664,15.5582419 4.42180864,17.3439685 7.6955326,18.7071898 L7.93166903,18.8055201 L8.16793133,18.7074926 C11.3503289,17.3870856 13.4773093,15.66568 14.7316386,13.7257713 C15.1855312,13.0237944 15.4946252,12.3368722 15.6841299,11.68905 C15.8065077,11.2707014 15.861584,10.933789 15.8733792,10.7113917 L15.8742429,10.6787996 L15.8742429,3.21850781 C15.8742429,2.94812412 15.7269625,2.72889127 15.5022296,2.61738317 L15.4692159,2.60100242 L8.13853767,1.36779477e-13 Z M7.93712727,1.23446874 L14.6433837,3.61395592 L14.6443373,10.6462074 C14.6425869,10.6792115 14.6355875,10.7445943 14.620736,10.8354438 C14.5963573,10.9845732 14.558047,11.1548584 14.5028647,11.3434993 C14.3460349,11.8796219 14.0859032,12.4577319 13.6981015,13.0574945 L13.6416579,13.1436009 C12.5563077,14.777002 10.7332828,16.2601613 7.98858839,17.4468741 L7.93240932,17.4707764 L7.88235495,17.449332 C5.0052872,16.2017888 3.15366946,14.6316499 2.11207105,12.9656629 L2.06362228,12.8865049 C1.49123799,11.9389011 1.2420927,11.0772791 1.2305982,10.6760799 L1.2305982,3.61395592 L7.93712727,1.23446874 Z" fill-rule="nonzero"/><path d="M4.88759662,5.96260581 C5.15321638,5.69698605 5.5838711,5.69698605 5.84949086,5.96260581 L7.77261232,7.88591622 L9.69706784,5.96260581 C9.9626876,5.69698605 10.3933423,5.69698605 10.6589621,5.96260581 C10.9245818,6.22822557 10.9245818,6.6588803 10.6589621,6.92450006 L8.73498465,8.84828855 L10.6589621,10.772077 C10.9245818,11.0376968 10.9245818,11.4683515 10.6589621,11.7339713 C10.3933423,11.999591 9.9626876,11.999591 9.69706784,11.7339713 L7.77261232,9.81066088 L5.84949086,11.7339713 C5.5838711,11.999591 5.15321638,11.999591 4.88759662,11.7339713 C4.62197686,11.4683515 4.62197686,11.0376968 4.88759662,10.772077 L6.81024,8.84828855 L4.88759662,6.92450006 C4.62197686,6.6588803 4.62197686,6.22822557 4.88759662,5.96260581 Z"/></g></svg>