<svg viewBox="0 0 40 35" xmlns="http://www.w3.org/2000/svg"><g fill-rule="nonzero" fill="none"><path d="M39.3772404,17.4510045 L34.0378431,23.6121652 C33.6827092,23.9672991 33.5216601,24.4752232 33.6042494,24.9748884 L34.863736,32.5070312 C35.0289146,33.5022321 34.2608342,34.3116071 33.3853878,34.3116071 C33.1541378,34.3116071 32.9146288,34.2537946 32.6833788,34.1299107 L26.0886244,30.574442 C25.6509012,30.3390625 25.1264592,30.3390625 24.688736,30.5703125 L18.0898521,34.1216518 C17.8751199,34.2372768 17.635611,34.2992187 17.3878431,34.2950893 C16.5123967,34.2950893 15.7360574,33.4774554 15.9053654,32.4822545 L17.1689815,24.9542411 C17.1937583,23.3933036 15.1538029,24.3719866 14.6706556,24.7353795 L10.7930887,27.2337054 C10.582486,27.390625 9.60380294,27.9398437 9.37668241,27.9398437 C8.79029848,27.9398437 8.65815562,27.2006696 8.67054402,26.5234375 L8.67054402,21.5680804 C8.67880294,21.1922991 8.31541009,20.8247768 8.01395919,20.6100446 L3.47154848,17.3642857 C2.71172705,16.8233259 2.90581187,15.6299107 3.79777616,15.3491071 L9.14130294,13.6684152 C9.49643687,13.5569196 9.77311098,13.2719866 9.88460652,12.9127232 L11.5735574,7.51964286 C11.7346065,7.00345982 12.1971065,6.69787946 12.6596065,6.69787946 C13.0023521,6.69787946 13.3450976,6.809375 13.5722181,7.13560268 L16.7725529,11.6491071 C16.9831556,11.950558 17.3217717,11.958817 17.689294,11.958817 L17.7058119,11.958817 L20.7161913,12.0868304 L24.0445396,6.85892857 C24.2881779,6.33448661 24.8126199,6 25.3907449,6 C25.9275753,6 26.4602762,6.28493304 26.7369503,6.85892857 L30.0363922,13.7097098 C30.2511244,14.1598214 30.6723297,14.4777902 31.1678654,14.5521205 L38.5430887,15.650558 C39.7777985,15.8363839 40.2692047,16.5631696 39.3772404,17.4510045 Z" fill="#F8F8F6"/><path d="M37.5299433,12.6659212 L32.0213539,18.1702502 C31.6549667,18.5366374 31.4888144,19.0606563 31.5740207,19.5761546 L32.8734172,27.3469721 C33.0438299,28.3737084 32.251411,29.2087304 31.3482239,29.2087304 C31.1096462,29.2087304 30.8625478,29.149086 30.6239701,29.0212765 L23.8202445,25.3531439 C23.368651,25.1103059 22.8275908,25.1103059 22.3759972,25.3488836 L15.5680113,29.0127559 C15.3464749,29.1320447 15.0993765,29.1959495 14.8437575,29.1916892 C13.9405704,29.1916892 13.1396309,28.3481465 13.3143039,27.3214102 L14.6179607,19.5548531 C14.6435226,17.9444534 12.5389262,18.9541484 12.0404692,19.3290563 L8.04003194,21.9065478 C7.8227558,22.0684398 6.81306077,22.6350619 6.57874336,22.6350619 C5.9737784,22.6350619 5.83744827,21.8724653 5.85022922,21.1737734 L5.85022922,16.0613935 C5.85874986,15.6737047 5.483842,15.2945365 5.17283889,15.073 L0.48649066,11.7243912 C-0.297407589,11.1662897 -0.0971727103,9.93505825 0.823055669,9.64535672 L6.33590531,7.91140787 C6.70229254,7.79637933 6.98773375,7.50241748 7.1027623,7.13176994 L8.84523177,1.5677965 C9.01138412,1.03525693 9.48853958,0.719993501 9.96569503,0.719993501 C10.3193013,0.719993501 10.6729076,0.835022048 10.907225,1.17158706 L14.2089703,5.82811307 C14.4262465,6.13911618 14.7755924,6.14763681 15.1547606,6.14763681 L15.1718019,6.14763681 L18.2775727,6.27970663 C18.0475156,6.72703987 17.6257442,7.21271596 17.1358078,7.28940165 L12.9010532,7.74525553 L10.2298347,3.6510913 L9.2371809,7.85602376 C9.32664755,7.56632223 8.88357462,9.53032817 6.99199407,10.1225122 L2.92765206,10.9532739 L6.44667354,13.1814195 C7.37542256,13.8460289 8.06133353,14.9068477 8.04003194,16.0656538 L8.04003194,19.7167451 L10.7282917,17.4630376 C11.9552629,16.5428092 13.1214934,16.7849758 13.1524118,16.7941679 L8.77280639,12.4145625 C9.24144122,12.8831973 6.92808932,11.0938644 9.50132053,10.2247598 L14.6137004,9.49624564 C15.6767106,9.29369917 16.404228,9.0693225 16.7962525,8.82311562 C17.5734507,8.51679638 18.9720043,5.89627814 18.2647917,7.30644292 L21.7113878,0.886145847 C21.9627465,0.345085642 22.5038067,2.13162821e-14 23.100251,2.13162821e-14 C23.6540922,2.13162821e-14 24.203673,0.293961843 24.4891142,0.886145847 L27.8931072,7.95401104 C28.1146436,8.41838555 28.5491959,8.74642992 29.0604339,8.82311562 L36.6693593,9.95635983 C37.943194,10.1480741 38.4501716,11.7499531 37.5299433,12.6659212 Z M28.7409102,11.0981247 C27.5096787,10.9149311 26.4445995,10.1097312 25.8907584,8.96370607 L23.100251,3.14837395 L19.7260803,8.76347119 C19.372549,9.23306209 18.8311793,10.4986025 18.2417539,10.851885 C17.7171528,11.2367382 15.3844982,11.6298212 11.24379,12.031134 L16.1090715,16.3084918 C16.384037,16.6277147 16.5816442,17.1253829 16.7018933,17.8014962 C16.8221424,18.4776096 16.8687933,19.0563815 16.841846,19.5378118 C16.3050461,21.9022875 15.3422145,27.0189277 15.3422145,27.0189277 L21.2853562,23.3337539 C20.7570769,23.6191951 21.5281942,23.0653539 23.0491272,23.0610936 C21.3705625,23.0823952 24.1738508,22.9503254 24.8512411,23.3167126 L30.6793542,26.2861532 L29.2180656,18.2554565 C29.3117926,18.8092977 28.7877736,18.1915518 30.4663384,16.512987 L34.9524517,12.0268737 L28.7409102,11.0981247 Z" fill="#C8C9CB"/></g></svg>