<svg width="41" height="41" xmlns="http://www.w3.org/2000/svg"><path d="M13.9699257,21.5344394 L25.01,21.941 L25.01,26.576 L25.0064394,26.5768433 L25.0064394,28.993991 L23.0436392,28.993991 C22.4913544,28.9939911 22.0436392,29.4417063 22.0436391,29.993991 L22.043639,32.072195 L20.016706,32.072195 C19.4644213,32.072195 19.016706,32.5199103 19.016706,33.072195 L19.016706,40.2797169 C19.0356103,40.4867532 19.1384099,40.6349101 19.2975609,40.7407122 C18.3674231,40.7570456 17.5087016,40.7651809 16.7207598,40.7651809 L16.0661412,40.7651037 C12.9640157,40.7640627 7.87826052,40.7489674 5.95181835,40.5300862 C5.95181835,40.5300862 0.00303628262,40.2949916 0.00303628262,36.41593 C0.00303628262,36.41593 -0.232093443,30.6796208 3.43593028,26.5654647 L3.47186904,26.5206064 C3.87803279,26.0219897 7.70746384,21.5344394 13.9699257,21.5344394 Z M33.418907,21.8 C33.8770143,21.8 34.3351216,22.22 34.3351216,22.64 L34.3351216,27.96 C34.3351216,28.38 33.8770143,28.8 33.418907,28.8 L31.299,28.799 L31.299,30.299 L36.5141652,30.3 C36.9220062,30.3 37.2585667,30.6051881 37.307932,30.9996497 L37.3141652,31.1 L37.314,33.362 L39.33916,33.3624029 C39.7972673,33.3624029 40.2553746,33.7824029 40.2553746,34.2024029 L40.2553746,39.5224029 C40.2553746,39.9424029 39.7972673,40.3624029 39.33916,40.3624029 L33.5364676,40.3624029 C33.0783603,40.3624029 32.620253,39.9424029 32.620253,39.5224029 L32.620253,34.2024029 C32.620253,33.7824029 33.0783603,33.3624029 33.5364676,33.3624029 L35.714,33.362 L35.714,31.9 L25.314,31.9 L25.314,33.362 L27.418907,33.3624029 C27.8770143,33.3624029 28.3351216,33.7824029 28.3351216,34.2024029 L28.3351216,39.5224029 C28.3351216,39.9424029 28.0297167,40.3624029 27.418907,40.3624029 L21.6162146,40.3624029 C21.1581073,40.3624029 20.7,39.9424029 20.7,39.5224029 L20.7,34.2024029 C20.7,33.7824029 21.1581073,33.3624029 21.6162146,33.3624029 L23.714,33.362 L23.7141652,31.1 C23.7141652,30.692159 24.0193533,30.3555984 24.4138149,30.3062331 L24.5141652,30.3 L29.699,30.299 L29.699,28.799 L27.6162146,28.8 C27.1581073,28.8 26.7,28.38 26.7,27.96 L26.7,22.64 C26.7,22.22 27.1581073,21.8 27.6162146,21.8 L33.418907,21.8 Z M37.9648385,35.3938832 L35.0634923,35.3938832 C34.7580874,35.3938832 34.605385,35.5138832 34.605385,35.7538832 L34.605385,38.0338832 C34.605385,38.2738832 34.7580874,38.3938832 35.0634923,38.3938832 L37.9648385,38.3938832 C38.2702433,38.3938832 38.4229458,38.2738832 38.4229458,38.0338832 L38.4229458,35.7538832 C38.4229458,35.5138832 38.2702433,35.3938832 37.9648385,35.3938832 Z M26.0445855,35.3938832 L23.1432393,35.3938832 C22.8378344,35.3938832 22.685132,35.5138832 22.685132,35.7538832 L22.685132,38.0338832 C22.685132,38.2738832 22.8378344,38.3938832 23.1432393,38.3938832 L26.0445855,38.3938832 C26.3499903,38.3938832 26.5026928,38.2738832 26.5026928,38.0338832 L26.5026928,35.7538832 C26.5026928,35.5138832 26.3499903,35.3938832 26.0445855,35.3938832 Z M18.0847418,1.13686838e-13 C23.5865478,1.13686838e-13 27.9364477,4.34925083 27.9364477,9.85046538 C27.9366773,15.1165853 23.5867774,19.7009308 18.0847418,19.7009308 C12.5827062,19.7009308 8.23280631,15.3516799 8.23280631,9.85046538 C8.23280631,4.34925083 12.5827062,1.13686838e-13 18.0847418,1.13686838e-13 Z" fill="" fill-rule="nonzero"/></svg>