<svg viewBox="0 0 78 77" xmlns="http://www.w3.org/2000/svg"><g fill="none" fill-rule="evenodd"><path d="M52.748 74.514c-.245-.248-1.777-.126-2.343.655.135.009.268.012.391.013-.146.047-.287.092-.436.134a.111.111 0 0 0-.04-.092 1.453 1.453 0 0 1-.065.123l-.08.024a.2.2 0 0 0 .015-.259c-.05.095-.091.193-.126.294a39.635 39.635 0 0 1-9.352 1.556l-.2-.417.099.417c-.727.036-1.46.044-2.193.033l-.032-.252c-.162-.762-.622-.965-2.619.123C23.51 75.851 12.454 69.193 5.934 58.9a38.084 38.084 0 0 1-1.663-37.933l.925-1.595.266.135-.19.43.082-.046c.139-.09.29-.162.448-.213l.23.12c.337.216.687.467 1.051.718l.213.13c.008.003.015.01.018.018l-.005.003.072.023.157.096.325.33-.75 1.286a36.194 36.194 0 0 0-1.493 3.3c-.092.238-.18.474-.266.71-.57-.22-1.102-.074-1.623.237l-1.162.977-.167.755.563-.028a4.07 4.07 0 0 0 1.946-.679 34.748 34.748 0 0 0 .499 23.033c-.364-.2-.722-.39-1.084-.563l-.82-.263a41.002 41.002 0 0 0 3.206 7.182l.178.278 1.431-.33c.05-.013.102-.036.152-.05a36.87 36.87 0 0 0 1.88 2.73c.282.742.731 1.424 1.097 1.38a35.37 35.37 0 0 0 5.957 5.619c-.437.297-.949.47-1.478.499 1.112.417 2.268.71 3.446.87a35.136 35.136 0 0 0 3.17 1.824c-.417.4-.7.916-.81 1.479a1.767 1.767 0 0 1-.4.543l-.037.049 1.195.68.83-.653c1.23-.564 2.766-.28 2.401 1.253.716.071 3.008.541 3.58-.215.154-.209.011-.378-.197-.56a.014.014 0 0 1-.017-.005l-.036-.037a.577.577 0 0 0 .053.042 35.24 35.24 0 0 0 4.154.926l-.005-.07.476.145a36.17 36.17 0 0 0 15.989-1.25c-.022.065-.04.13-.053.196.098.028.2.043.3.043a.593.593 0 0 0-.131-.275c.501-.157.998-.325 1.494-.508a.5.5 0 0 0 .063.63c-.1.014-.19.022-.288.027.146.125.112.13.244-.017.25.13.365.129.406.062.072-.126-.12-.49-.263-.76a35.98 35.98 0 0 0 3.705-1.602l-.011.043c.956.171.849.683 1.296.456-.038.11-.093.213-.16.307.123.032.251.05.38.055a.492.492 0 0 1-.128.166.267.267 0 0 0 .156-.068c.3-.256.045-1.113-.278-1.616.34-.187.677-.38 1.011-.578.01.103.01.216.07.182a.631.631 0 0 0 .127-.093.343.343 0 0 0 .096-.27c.489-.293.968-.601 1.444-.916a.22.22 0 0 0 .068.104c.126.03.018.377.145.347a.07.07 0 0 0 .025-.02c.131-.218.196-.47.186-.723a1.21 1.21 0 0 0 .138-.1.954.954 0 0 0 .263.03c.006-.004.003-.009 0-.023a.5.5 0 0 0 .279.092c.054-.031-.173-.21-.302-.157l-.044-.075c.097-.07.188-.138.285-.206l-.058.062c.165.17.221.253.217.234a2.508 2.508 0 0 1-.106-.355l.121-.09c0 .15.104.871.19.25a.621.621 0 0 0 .306-.133c.074-.084-.017-.14-.314.008l-.067-.213-.005.003a.188.188 0 0 1-.166.194.187.187 0 1 1-.076-.365.19.19 0 0 1 .23.114l.017.055.746-.583c1.21-.93 2.354-1.94 3.423-3.024a35.07 35.07 0 0 0 4.04-4.92l.17.167.066.063.01-.02c.014-.037.037-.072.052-.109l.066-.123.049-.114-.013-.035-.047-.217-.016-.127a34.835 34.835 0 0 0 1.836-3.159c.047-.005.098-.005.154-.009a1.513 1.513 0 0 0-.106-.082c.25-.488.489-.987.717-1.49.087-.042.17-.091.247-.148a.166.166 0 0 0-.183-.003l.047-.105-.1.064c-.084.055-.093.053.09-.058l.004-.003-.116-.008c-.017-.004-.015-.012-.005-.019l.125.015.008.003.102-.237c.114-.251.16-.37.001-.022l-.109.247.232-.547-.019-.033c-.019-.032-.01-.03.028.013l-.01.02.112.18c.111-.043.195-.076.302-.116-.02.028-.035.063-.059.098a.09.09 0 0 0 .039.028 2.088 2.088 0 0 0-.316.774 1.59 1.59 0 0 0-.074.085 2.15 2.15 0 0 1-.184.22c.058.056.14.082.221.067.016.382.192.74.485.99.296.455.493.593.624.533a.17.17 0 0 0 .09-.08c.1-.175.158-.37.168-.57l.037-.593-.093.04c.02-.063.042-.123.067-.183l.03-.06.016-.295a7.766 7.766 0 0 1 .036-.844c.195-1.028-.38-.935-.866-.402-.013-.035-.045-.039-.087 0a.95.95 0 0 0-.117.16c-.234-.067-.44-.192-.388-.13l.109-.262.156-.19-.063-.035-.005.017c-.091-.07-.13-.097-.05-.05l.055.033.104-.23a35.158 35.158 0 0 0 2.145-8.324.246.246 0 0 0 .082-.047c.167-.137.111-.415-.003-.636.095-.841.154-1.684.188-2.52a.77.77 0 0 1 .702.173c.266.243.655.687 1.119 1.182l.182.175.2-.886.226-1.833-.689.113c-.321.033-.689.049-1.063.055l-.172-.01a.169.169 0 0 0-.01-.201 1.553 1.553 0 0 0-.095.197l-.378-.028c0-.4-.007-.805-.017-1.207.032.032.058.039.071.024a.306.306 0 0 0-.085-.345c-.01-.316-.025-.638-.05-.953l1.33.588c.314.15.616.322.904.516l.364.3.074-.606c.04-.575.067-1.149.078-1.727a.532.532 0 0 0 .377-.122c.35 3.925.083 7.881-.791 11.726l-.608.686c.143.014.285.04.424.08a38.9 38.9 0 0 1-1.521 4.776c-.13.324-.263.643-.398.957a4.124 4.124 0 0 1-.486.148c.107.096.202.185.306.275a40.558 40.558 0 0 1-.83 1.768l-.138-.05c-.148.308-.26.632-.335.964a37.71 37.71 0 0 1-3.524 5.432 9.508 9.508 0 0 0-2.232-2.093c-.09.738.008 1.487.287 2.178a2.42 2.42 0 0 0 .198-.207.61.61 0 0 0 .129-.201c.214.453.52.858.9 1.19l-.775.871-.143-.742-.14.158a8.158 8.158 0 0 0-.807-.985c-.693.774-1.037 1.922-.548 2.61-.202 0-.404-.027-.599-.081.053.4.09.687.151 1.088a8.47 8.47 0 0 1 .543-.324 39.4 39.4 0 0 1-.924.899c-.07-.132-.156-.29-.258-.49-.53.481-.585.612-.838.464.481-.825 1.016-1.647 1.497-2.45-.294-.019-.503-.028-.791-.05.716-1.69-.76-1-1.27-.15-.36.599.07 1.62-.344 2.264a2.992 2.992 0 0 0-.588 1.71l.042.183.051.05c.12.118.242.228.362.345a39.23 39.23 0 0 1-11.105 6.349zm2.328-1.155c.087-.086.078-.188.048-.45-.046.305-.185.291-.453.502l.13.112c.099-.043.19-.098.275-.164zm8.91-5.335l.44-.924.017.14c.492-.458.41-.476.954-.45.015.004.03.005.046.003-.16.149-.326.3-1.456 1.23zm-9.812 5.183a.775.775 0 0 0 .348.124c.06-.034-.229-.256-.348-.124zm1.914-.833c.092-.137-.014-.271-.388.142a.387.387 0 0 0 .388-.142zm-1.306.694l.493-.596-.426.128c.128-.252.287-.6.441-.895a1.49 1.49 0 0 0-.344.082.156.156 0 0 0-.022-.173c-.046.078-.085.16-.117.246-.127.082-.262.15-.404.201.032-.069 1.028-1.975.469-1.355a2.293 2.293 0 0 1-.026-.28c-.223.25-.157.275-.026.538a8.67 8.67 0 0 1-.603.036c.233-.62-.566-.15-.26.671.187-.165.336-.306.513-.45a3.031 3.031 0 0 0-.129 1.677.595.595 0 0 1 .161.015l.042.22c.036.087.085.11.164.021a.436.436 0 0 0 .074-.086zm2.463-1.518a.249.249 0 0 0 .065-.323c-.181.347-.134.392-.065.323zm-3.548 1.685c.1.074.221.115.346.118.057-.025-.232-.247-.346-.117zm.712-.234a3.187 3.187 0 0 0-.36.091c.044.036.086.074.125.115.13-.124.211-.184.235-.205zm2.256-1.586a.07.07 0 0 0 .034-.005c.054-.03-.235-.252-.348-.124.071.04.145.074.22.104a.483.483 0 0 0-.45.149c.182.075.315.128.497.204a.315.315 0 0 0 .21-.099c.063-.078-.024-.177-.163-.229zm.5-.535a.657.657 0 0 0 .348.124c.06-.034-.23-.256-.349-.124zm-1.75.94c.1.076.222.119.348.123.06-.033-.235-.252-.348-.123zm-1.15.834a2.7 2.7 0 0 0-.36.091c.044.04.085.073.13.112.13-.125.205-.18.23-.203zm-5.15 2.641a.651.651 0 0 0 .348.124c.063-.029-.226-.25-.348-.124zm8.687-5.88c-.018.367-.011.614.33.491.061.03.116.05.156.069.014.035.022.073.036.122a.35.35 0 0 0 .328-.022c.088-.135-.452-.536-.85-.66zm-1.1 1.729c-.08-.013-.15-.022-.216-.035l-.097-.03.055.033c.174.123.112.201.198.102.018-.018.034-.041.06-.07zm-.452.157a.013.013 0 0 1 0-.014.242.242 0 0 0 .006-.053c.012-.028.026-.08.047-.142a.08.08 0 0 1 .03-.024l.055.01-.043-.025a.272.272 0 0 1 .087-.05l.01-.005-.024.007c-.09.003-.18.002-.27-.004a3.166 3.166 0 0 1-.82-.606c.083.37.226.723.425 1.047a.88.88 0 0 1 .431-.253.408.408 0 0 0 .042.17.129.129 0 0 0 .024-.057v-.001zm.229-.317l-.036.014.033-.005c.025-.007.022-.012.003-.008zm11.457-6.749c.019.01.039.015.06.016-.008.012-.019.018-.026.029-.01-.015-.026-.029-.034-.045zm.175-.194l.009.002c.953-1.022.505-.488.033.032a.401.401 0 0 1-.041-.034h-.001zm-.726.321a.066.066 0 0 0 .033.083.371.371 0 0 1-.033-.083zM51.56 73.328a.261.261 0 0 0 .07-.326c-.185.35-.142.39-.07.326zm7.865-4.967a.73.73 0 0 0 .342.126c.06-.034-.229-.256-.342-.126zm-.816.7c.015-.036-.774-.518-.358-.153.107.075.23.127.358.153zm-7.938 4.309l.01-.07-.05.1c-.106.217-.082.248-.035.177a.614.614 0 0 0 .075-.207zm-.878.658a.261.261 0 0 0 .07-.327c-.186.35-.138.394-.07.327zm-1.47.128c-.155.167-.298.184-.102.357.1.028.203.042.307.04a1.044 1.044 0 0 0-.202-.397h-.002zm2.354-.862l.01-.07a1.19 1.19 0 0 0-.019-.168c-.1.114-.125.121-.068.168l.077.07zm9.646-5.94a.649.649 0 0 0 .348.124c.06-.034-.235-.252-.348-.124zm-1.296.438l-.044.298c-.52-.184-.515.321-.297.075a1 1 0 0 0 .382.083c.059-.025.04-.144-.04-.456h-.001zM55.604 69.8l.114-.065c.004.07.003.142.005.22a1.92 1.92 0 0 1-.118-.154V69.8zm-9.812 5.098c-1.375-.712-1.493-.394-2.184 1.016 1.17.4 1.146.235 1.794-.107.147-.333.245-.575.39-.909zm4.109-1.84a.912.912 0 0 0-.313.185c-.172.2.283-.138.314-.185H49.9zm-.999.19a.249.249 0 0 0 .065-.323c-.18.346-.133.39-.064.323zm-1.568.492a.714.714 0 0 0 .348.124c.055-.032-.234-.252-.347-.124h-.001zm1.511-.925a.714.714 0 0 0 .348.124c.055-.031-.234-.253-.347-.124h-.001zm.418.034c.013-.015.037-.036.058-.062-.53-.272-.71-.26-1.2.068.205.177.492-.187.831-.165.31.153.216.278.312.159h-.001zm-.483.29a.255.255 0 0 0 .064-.324c-.185.35-.135.385-.063.323h-.001zM69.689 59.97l-.045-.275-.112-.015-.232.26c.409.427.53.63.523.583.003-.035-.068-.216-.132-.552h-.002zm.8-.12l.024-.02-.063-.008-.178-.02-.15-.021.209.06a.395.395 0 0 0 .16.01h-.002zm1.814-3.903c.118-.282-.187-.889-.554-1.417l-.209-.246c.011-.006.025-.007.036-.013.278-.13.172-.858-.279-.314a1.293 1.293 0 0 0-.13.174c.074.07.164.122.263.151.167.557.306 1.107.412 1.648l.02.16.177.014c.05 0 .1-.012.146-.033a.212.212 0 0 0 .12-.124h-.002zm2.952-3.802l.01-.034c.068-.254.025-.687.114-.982l.016-.073-.42.039c.139.412-.092.525-.007.956l.07.06.013.007c.007.01.003.005-.006.003.016.013.039.028.08.062l.13-.038zm-.487-.188a.19.19 0 0 0-.063-.122l-.221-.117.006.01c.047.081.088.166.13.235l.013.035.045.003a.102.102 0 0 0 .067-.01.036.036 0 0 0 .026-.034h-.003zM71.89 53.01a2.496 2.496 0 0 1-.17.254c.039.04.08.076.122.11.028-.12.044-.241.048-.364zm2.196-1.194l-.003-.006c-.032-.055-.066-.098-.102-.149l-.123.063.228.092zM33.898 74.574a4.483 4.483 0 0 0 .4-.53l.16-.37-.728-.215a12.892 12.892 0 0 0-.471-.075l.116.979c.073.41.198.56.523.21zm40.194-23.456c.02.122.078.235.167.322.116-.124-.145-.384-.167-.322zm1.386-1.498a.27.27 0 0 0 .238-.014.109.109 0 0 0 .022-.062c.022-.15-.185-.454-.426-.79l-.02-.023v.036c-.01.156-.086.165-.429.173h-.05l.01.03v.013l.006.011c.202.544.43.114.424.203 0 .094-.005.188-.017.281l-.005.053.04.02c-.083.091.023.002.216.271.048.13.084.217.137.345-.008-.324.003-.381-.145-.547h-.001zm-.388.65a1.878 1.878 0 0 0-.268-.47c.108-.025.183-.047.297-.075-.394-.091-.57-.155-.62-.042a.947.947 0 0 0 .035.432c.397.168.546.212.557.157v-.002zm-1.008-1.673c-.521-.555-.126-.35-.5-.21-.423.478.176.274.5.21zm1.03-1.97c-.015.024-.066.11-.173.25.042.034.083.071.122.11.024-.285.084-.406.053-.36h-.002zm-.815.4c-.021.028-.067.11-.18.253l.131.112c.024-.12.04-.242.049-.364zm1.228-6.49a1.232 1.232 0 0 0-.482.03l.128.107c.187.122.17.29.197.238.015-.022.05-.135.157-.375zm-.252-.172a2.635 2.635 0 0 0-.36.09c.044.04.085.073.13.112.13-.123.206-.18.23-.201v-.001zm1.575-2.33a.241.241 0 0 0 .064-.323c-.178.354-.134.393-.064.325v-.001zm-1.35-.025c.107-.09-.112-.366-.381-.069.107.085.25.11.38.07zm-.183-1.342c.032-.082-.195-.075-.506.102.039.04.08.076.122.11a.732.732 0 0 0 .384-.21v-.002zm2.163-1.77c-.003-.054.002-.108 0-.164.042.033.091.07.167.134-.056.011-.114.023-.167.032v-.001zm-.003-.463v-.15c.039.028.08.062.14.114-.048.01-.094.023-.14.038v-.002zm-2.682.82l-.188-.445C72.644 16.426 56.665 2.635 37.941 3.168l-5.928.751-.616-1.237a5.92 5.92 0 0 0-.653-.967l-.79-.645.42-.11a38.976 38.976 0 0 1 8.76-.96c.175.278.445.485.762.583l.314.042-.063-.107a.407.407 0 0 1 .226 0l.095.039.039-.008a.562.562 0 0 0 .306-.504c.174-.013 1.254.059 2.335.172l.084.303-.364-.1-.532.082c-.212.035-.36.055-.385.062l-.701.485 1.74.384L42.8.65c.167-.038.286-.07.443-.11.18.256.695.12 1.237-.082l.148-.055c.669.09 1.341.21 2.013.342.213.623.16 1.498.22 2 .957-.323 2.97-.417 2.647.769l-.105.217.755.165.172-.241-.836-2.231c1.211.334 2.414.73 3.61 1.186.282.11.565.223.842.337l-.111.565c-.234.492-.496.972-.785 1.435l-.143.189.255.112 1.305.746.295-.204a.348.348 0 0 1 .364.214l.01.017-.41.118 2.862 1.62.478.343.764-.478c-.566-.644-.515-1.289-.52-1.93l-.068-.613a54.267 54.267 0 0 1 5.046 3.404.68.68 0 0 1-.159.634c-.213.23-.668.06-1.128-.194l-.298-.174.025.029c.181.338.302.705.358 1.084l-.2.973.987.855.173.038.363-.014-.034-.281c.034-.785.18-1.56.437-2.304l.072-.198.616.472c-.319 2.28.119 2.173 2.247 2.041a39.022 39.022 0 0 1 4.105 4.849c-.39-.021-.913.027-1.594.064.786 1.542.923 1.392-.724.807l-.007.025.25.266.96 1.23.276-.309.486.77.633 1.256.018-.302-.018-.019.005-.016.01-.479.019.032c.295.355 1.009-.023 1.532-.293-.081.379-.184.753-.308 1.12.435.039.634-.017.706-.13.126-.208-.19-.622-.32-1.042a37.617 37.617 0 0 1 2.195 4.384l.204.98a2.55 2.55 0 0 1-.972-.049c-.476-.143-1.267-1.125-1.887-1.602l-.08-.04 1.57 4.696.777 5.966.053.063c.411.728.496 2.348.157 1.582v-.001zm1.348-.51l-.115.014c-.366.044-.544-.012-.266-.256.116.062.236.13.359.204l.022.037zm1.555-1.023l-.126-.143-.112.007-.15-1.919-.815.578-.09.044.743-.825.157.133-.047-.553c.177.889.324 1.786.44 2.678zm-.473-2.672l-.34-.222a2.354 2.354 0 0 1-.593-.442l-.066-.077.052-.008c1.059-.21-.69-1.39-1.16-2.79-.195-.583-.007-.869.328-1.002l.6-.028a39.078 39.078 0 0 1 1.177 4.57l.002-.001zm-1.491-.267l-.011-.044c-.04-.242-.096-.41-.087-.409h.152l-.007.297-.047.156zm-3.117-8.404a.16.16 0 0 0 .016-.046c.017-.095-.078-.27-.35-.574l-.634-.34.224.446.164.479.536.06a.138.138 0 0 0 .042-.024l.002-.001zm-.98-3.472l-1.449-.715c.245-.24.409-.269.774-.104.245.256.47.53.673.82l.002-.001zm-.607.166l-.06-.08.058-.012.002.092zm-10.81-9.455l-.002-.077-.015-.028.005.097.012.008zm1.486-.868l-.295-.404.01.238.285.166zm-1.504.764l-.005-.033c-.076-.33-.45-.796-.953-1.505-.18.168-.375.318-.585.449l-.08.038.815.574.328-.122c.143.136.273.284.39.443l.09.156zm1.223-.711l-.005-.22-.09-.055a3.163 3.163 0 0 0-.518-.264c-.178-.055.593.343.413.359.062.058.133.118.199.18zM45.702 2.26l-.017-.24c-.077-.465-.24-.867-.608-.642l-.377.558 1.002.324zm-2.018.842l.199-.306c.147-.442-.648-.426-1.153-.174l-.382.39 1.336.09zm-7.201.087c.873-1.385.83-1.196 1.993-1.43.303-.337.188-.236.334-.769-.35-.115-.674-.21-.966-.287L37.145.55l-1.15.204-.133.205c-.107.419.092 1.13.62 2.231h.001zM10.718 16.97l.032-.02-.078.19-.34.422c.115-.205.244-.403.385-.591v-.001zm.848-.943l-.181-.025.293-.403-.24-.25a1.224 1.224 0 0 0-1.314.047c.025-.057.111-.342.188-.608l.083-.219-.05.014c-.243.032.925-.763-.832-1.1.135 1.485.143 1.323-1.26 1.406.067.213.118.399.159.568a1.175 1.175 0 0 1-.149-.08l-.28-.183.49-.674a38.452 38.452 0 0 1 5.282-5.374l2.421-1.838-.223.214.16.173c-.05.236-.414.495-1.27.78l-.235.106-1 .757a16.223 16.223 0 0 0-2.104 1.921c1.006.072 2.019.117 3.035.154a6.137 6.137 0 0 1-.677 1.273l-.606.625.24-.11 1.805-2.023.09-.352-.303-.271a1.074 1.074 0 0 1-.195-.72c.048-.563.418-.352.926-.004l.519.341.927-.857.504-1.147c.313.138.639.188.565-.1a1.406 1.406 0 0 0-.32-.584c.134-.39.262-.793.38-1.197l.063-.229.592.615c.362.32.755.604 1.172.85l-.6-2.414.303-.188a45.422 45.422 0 0 1 1.609-.845c.035.222.081.442.14.658l.317.965 2.015-1.241.025-.107.153-.345.06.002c.217-.102.427-.22.628-.351l.278.205.945-.467-.699-.303a17.58 17.58 0 0 0-.84-.308l.225-.086.418.02c.623.024 1.239.06 1.86.129l.054.055.076-.043c1.112.127 2.203.396 3.245.799l.743.364-.095.011c-.611.134-1.218.287-1.821.458a2.664 2.664 0 0 0-.49-.737l-.601-.595-.14.072-.043.397c.044.396.17.78.37 1.127a38.69 38.69 0 0 0-2.104.719c-.622-.147-1.147-.177-1.46.008a.83.83 0 0 0-.334.72c-.748.333-1.486.682-2.214 1.061l.281-.969-.84.636-.062.165a3.003 3.003 0 0 1-.14.58 35.742 35.742 0 0 0-8.197 6.222l-1.72 2.13zM25 5.975l.064-.165-.011.142c-.017.01-.037.015-.053.024zm-.445-2.882l-.49-.057-.114-.021.102-.036.557.033-.055.081zm-2.39 1.283l-.011-.043-.093-.506c.028-.016.063-.028.09-.044a.468.468 0 0 1 0 .086l.014.507z" fill="#4C4C4C" opacity=".24"/><path d="M52.705 67.605l-1.832.853a32.275 32.275 0 0 1-7.158 2.078l-.074.012-.04.002.005.007c-.351.06-.698.107-1.046.154l-.058.004c-.195.03-.387.05-.575.075l-.031-.001c-.567.071-1.131.111-1.695.152l-.005-.008h-.02c-.427.032-.861.05-1.346.055l-.37.01-.134-.005a.493.493 0 0 1-.084-.003l-.058.004h.173c-.18.01-.36.008-.54-.004l-.288-.007.008-.004-.525-.013-.007.004-.012-.003.095.007-.095-.007-.008.005h-.02l-.114-.005.103.002-.036-.01h-.193l-.223-.014c-.316-.02-.494-.03-.036-.01l-2.054-.165-.56-.073-.008-.015a21.757 21.757 0 0 1-.778-.099l-.382-.064a17.232 17.232 0 0 0-.577-.102l-.255-.055-.195-.04-.116-.024-.383-.082.008-.005-.244-.052.714-1.24a.369.369 0 0 1-.101-.052c-.21.18-.465.384-.758.612a.383.383 0 0 1-.005-.338l-1.528.591-.089-.03.01-1.3c.012-.091.03-.182.054-.272-.054-.04-.103-.071-.157-.11a.96.96 0 0 1 .107-.112l-.18-.309c.112.038.225.07.34.097.04-.122.089-.23.129-.334l.15-.247.384.124.156.041c-.018-.05.102-.018.245.072.083.022.164.037.24.064l.008-.005.396.106c1.04.251 2.092.455 3.152.603l.575.064.1.014.015-.009.365.053 2.095.132.498.018.007-.074.658.017-.087.059c.008-.004.015-.009.02 0l.118-.007.04.259c.063.004.134.003.196.008-.902.935-.615 1.233.591 1.13l.037-.042.022.038a20.99 20.99 0 0 0 2.133-.462c.116-.156.263-.288.432-.387a4.177 4.177 0 0 1-.256-.506l-.034-.232.015-.008.221.135c.113.106.256.246.404.412.205-.117.445-.243.73-.415l.74-.452.128-.022.009.205c-.051.22-.127.435-.224.64 1.589-.473 3.31-1.032 4.867-1.508.155-.261.294-.532.417-.81l-.308.116 1.112-.423a34.844 34.844 0 0 0 1.943-.906 29.056 29.056 0 0 0 4.857-3.116l.421-.37-.15.176c-.556.575-1.174 1.18-1.406 1.442a85.486 85.486 0 0 0 1.605-.201c-.877-.373-1.062-1.644.968-.149l.26-.058c.093-.082.217-.114.254-.034.116-.028.23-.04.333-.07.13.02.26.006.384-.038a.166.166 0 0 0 .052-.05c.194-.05.38-.096.546-.14l.263-.089-.652.603c-.404.35-.811.693-1.228 1.02l-.52.376-.047.057-.004.013-.017-.03-.791.57-.016.01c-1.865.52-2.13-1.198-3.568.866-.027.056-.066.128-.105.2.38.025.534.168.398.456.06.045.121.087.185.126a.607.607 0 0 1-.353.14 4.188 4.188 0 0 1-.306.345l-.426.393zm1.784-1.126l-.149-.236a8.11 8.11 0 0 1-.403-.724c-.02-.089.161.119.667.774a.798.798 0 0 0-.115.186zm6.433-4.737l.05-.138c.257-.689.309-.929.43-.948a7.14 7.14 0 0 0-1.04-.822l-.762-.54 1.287-1.385 1.524-2.022.031.002c.478.09.893.175 1.293.268-.08.106-.093.274.12.464.07-.122.116-.257.132-.397.192.051.377.107.578.173a.123.123 0 0 0-.045.046c-.087.11-.013.168.445-.143a.182.182 0 0 0-.206-.023 47.3 47.3 0 0 1 .147-.475c.026-.025.04-.053.074-.083a.128.128 0 0 1-.048-.012c.043-.135.07-.261.096-.356a.57.57 0 0 0 .228.06c.017.081.05.173.085.283l.145.37-.158.25-.139.21-.03.018a.186.186 0 0 0-.294.017c.06.085.11.157.154.212l-.133.207-.246.34-.11-.017.078.066-.67.934a28.84 28.84 0 0 1-1.02 1.273c-.358.425-.715.838-1.092 1.233l-.027.036-.244.26c-.189.197-.381.387-.574.578l-.059.061zm-4.064 1.633a.93.93 0 0 0 .488.174c.083-.049-.33-.356-.488-.174zm-5.527 2.715a.913.913 0 0 1-.27-.097c-1.467.594-.956.132-1.947 1.038.139-.04.271-.074.398-.117.39-.301.62-.343.816-.233.214-.052.415-.106.617-.16.133-.137.254-.277.386-.432zm8.238-5.533l-1.25.01.134-.117.585.048c.237.024.42.04.53.058zm4.958-3.255l-.282-.22.23.22h.052zm-1.223.425c.195-.272.023-.515-.713.305a.772.772 0 0 0 .714-.306zm-18.164 9.93v-.14l.837-.216-.011.067c-.131.17-.286.318-.46.443-.21.128-.321.04-.365-.155zM64.244 57.08l-.117-.114a1.887 1.887 0 0 0-.508-.384l.625.498zM38.242 70.99l-.296-.001-.007.004c.08-.005.174 0 .304-.003h-.001zm24.33-14.012c.097-.095.227-.34.09-.453-.252.485-.185.547-.089.452zm3.536-2.013l-.107-.2c-.055-.13-.114-.247-.165-.368a.358.358 0 0 1-.017-.22c.013.023.019.05.027.065.016-.009.034-.03.056-.042.049.222.158.427.316.593l-.11.172zm-1.051.246c.002-.03.016-.058.014-.078.04.017.077.027.105.04.02.05.03.104.065.215a.486.486 0 0 0-.183-.177h-.001zm.936-1.084a1.08 1.08 0 0 1 .254-.155.556.556 0 0 0-.041.224c-.024.064-.013.098.014.093.008.094.062.18.144.229a.045.045 0 0 1-.002.03l-.058.094a1.975 1.975 0 0 0-.31-.516h-.001zm-.885.895l-.01.035.01-.035zm-1.702.607a1.02 1.02 0 0 1-.537.035l-.149-.186.18-.264.398-.618.175-.29.647-.49-.433.127.175-.29.007-.004.25.168c.327.557.249 1.014.009 1.33a1.484 1.484 0 0 1-.721.483v-.001zm3.494-2.12c-.582-.11-1.147-.09-1.342.202a.118.118 0 0 0-.021.032 3.277 3.277 0 0 0-.167-.336l-.031-.053-1.392.15.215-.393.058-.093.448-1.088.12.051c.243-.479.456-.971.638-1.476l.023-.063.01-.036.11-.263v-.02l.107-.3-.088-.082.513-1.236.041.59c.109-.213.21-.421.33-.65l-.312.108.053-.151c.073-.222.141-.452.214-.674l.026-.095-.004-.007 1.077-5.432.015-4.546.056.06c.154.24.293.49.417.746.3.11.606.2.917.27-.116.287-.22.527-.317.773.047.056.1.106.158.15.267.171.569.283.883.33l.226.021c.071-.31.07-.571-.132-.657-.202-.346-.055-.77.306-1.228l.219-.214.023.75c.006.287.008.566.007.858L70.3 39.5l-.002.101.004.008c-.004.443-.012.88-.035 1.325l-.011.206-.042.015-.035.772-.893-.244a.53.53 0 0 0-.517.364l.42.302.89.707-.008.055c.245-.119.591-.236.964-.448.085.404.153.746.218 1.03l.018.1-.151.297-.334.641-.839-.445-.053-.09-.023.184.028-.006-.021.122-.03.018-.08.527v-.312l.012-.187-.215.082a4.22 4.22 0 0 1-.3.13.754.754 0 0 1 .022.21c.707-.092.528.432-.146.754.039.053.081.103.127.149l.257.315-.089.352.035-.01-.108.473-.203.658.065-.147-.055.232-.043.135.031-.189-.02.052-.056.202.024.006-.034.13h-.02l-.105.412-.077.214c.047-.127.028-.036-.037.162.18.144.326.324.43.527a.5.5 0 0 0-.153.118l-.022.033.153.053-.153-.053-.068-.031a1.922 1.922 0 0 1-.265-.192c-.072-.14-.217-.268-.234-.209.012.11.058.214.133.296.03-.087.017-.04-.003.012l-.004-.007-.043.134c-.043.135-.093.274-.144.413l-.084.22c-.09.262-.195.532-.297.791-.009-.015-.025-.027-.034-.041a.45.45 0 0 0-.008-.066.064.064 0 0 1-.022.033.277.277 0 0 0-.116-.094c.012.057.04.111.08.154-.047.057-.087.11-.132.156-.953-.33-.644.336-.453.127.079.046.152.085.201.117a.995.995 0 0 1-.32.162c-.021-.018-.035-.04-.056-.059.1-.087.153-.137.175-.15.037-.04-.034.01-.244.068l-.093-.107c.047-.006.082-.016.121-.019a.94.94 0 0 0-.105-.11c-.01.036-.015.08-.024.115-.24-.255-.487-.416-.573-.337-.055.042-.063.186.028.446.068.011.116.024.183.036.03.07.068.136.115.196l.004.007a.459.459 0 0 1-.066.008c.02 0 .04-.002.059-.003a.358.358 0 0 0 .053.35c-.057.214-.118.44-.166.668l.087.01-.287.324c.263.051.383.134.406.121a1.34 1.34 0 0 0-.084-.435l.468.068-.376.795zm-3.218 1.31a.553.553 0 0 0-.13.556c.523-.579.314-.71.13-.555v-.001zm2.001-.757a1.393 1.393 0 0 0-.105-.231.425.425 0 0 1 .124-.101.81.81 0 0 0 .075.318.274.274 0 0 0-.094.015v-.001zm1.973-2.138l-.123-.21-.008.004-.031-.053c-.176.01-.37.01-.111.003l.033-.03c.027-.024.011-.016-.055.012a.302.302 0 0 0-.052-.071c.185-.016.37-.043.55-.083l-.034.08-.013.047h-.019l-.018.04.012.003-.04.104-.018.04-.016-.01-.057.124zm-2.29.713c.038.167.118.322.233.45.162-.173-.196-.542-.233-.45zm-.28.32c-.133-.125-.363.036-.444.142-.081.105-.017.16.444-.142zm1.776-1.523l-.005-.008c-.123-.02-.068-.011 0 0l.005.008zm1.95-2.556l.007-.024.053-.15a1.221 1.221 0 0 0-.06.175zm-1.705-.073l.06-.035a.178.178 0 0 0-.06.036v-.001zm2.246-2.242l-.04-.068-.273.156.313-.088zM27.263 68.88l-.28.11-.508-.193c-.185-.075-.367-.142-.553-.217l-.004-.007-.238-.096.92-.523.024-.235.022.209.365-.208c-.019.141-.034.27-.047.388.745-.044 1.37.263.3.772zM68.42 45.229l.037-.092a.309.309 0 0 1-.042.014l-.04-.068-.048-.012s-.002.082-.019.211c.038-.021.073-.031.11-.053h.002zm1.44-1.09c-.188-.355-.218-.58-.137-.736-.267.152-.521.287-.754.41.076.217.149.426.203.606.13-.003.248-.01.35-.008l.282-.02a3.4 3.4 0 0 1 .055-.254v.001zm-.114-.75l-.009-.014c-.003.012-.011.016-.014.027l.023-.012zM28.324 66.692l-.731.137c-.3.04-.648.087-1.029.132a1.047 1.047 0 0 1-.179-.72l.16-.232.38.165c.335.14.674.268 1.012.397l.387.12zm-3.462 1.359l-.72-.364.1-.157c-.177-.08-.363-.154-.546-.241l-.088.23-.386-.191c-.18-.1-.354-.19-.522-.286l-.012-.003a8.419 8.419 0 0 0-.387-.211c-.05-.032-.094-.057-.131-.086l-.13-.066c-.062-.036-.123-.07-.189-.114l-.2-.117c-.2-.117-.393-.238-.646-.395a13.87 13.87 0 0 1-.39-.25l-.098-.064a7.789 7.789 0 0 1-.366-.243l-.044-.025-.445-.31.025-.043-.12-.274a3.443 3.443 0 0 1-.178-.842c-.186.116-.326.206-.44.27l-.314.14-.021-.019-.326-.246-.044-.055-.603-.46-.372-.34.006.028-.262-.222c-.334-.293-.662-.576-.98-.877l-.113-.107c-.42-.404-.83-.812-1.226-1.23l-.034-.04a25.01 25.01 0 0 1-.55-.59l-.063-.075.022-.032-.331-.374-.006.044-.148-.167-.055-.06.136-.217c.066-.101.126-.206.181-.314l-.076.495a.882.882 0 0 0 .316-.24c.147-.272.36-.504.62-.674.012-.048.027-.076.03-.087l-.004.062c.2-.132.411-.246.632-.34l.326-.065.056-.062.034.041.035-.01 1.282 1.428 1.82 1.654.409.37 1.554 1.182-.007.004.252.188.846.563-.066.217.152-.157.012.004.016-.06.795.562-.008.004.127.078.727.41-.062.085c-.079.125-.158.25-.244.38.285.484.438 1.033.445 1.593 1.022-.09 1.2.18 1.14.666l-.143.704zm1.647-2.052l-.115.045a.255.255 0 0 1-.19-.153l-.039-.048.26.114.084.042zm-2.358.318c-.37-.632.024-.997.542-1.15l.028-.006.216.108c.17.084.329.165.495.24l.337.16-.28.18c-.433.19-.88.347-1.338.469zM73.825 36.42l-.876.027a1.016 1.016 0 0 1-.752-.505L74 35.557l-.092.484-.083.378zM20.892 65.322l.446-.485c-.081.016-.134-.004-.142-.07a7.49 7.49 0 0 1-.475.401c.062.055.12.103.17.154zm47.097-28.049l-.454-.203-.002-.47-.064-.456.455.483a.97.97 0 0 1 .14.603.092.092 0 0 1-.034.03.064.064 0 0 1-.041.013zm4.005-3.444l-.316-.523.018-.21c.025-.236.05-.471.067-.702l.023-.254.167-.095c.268 1.253.544 2.16.584 2.449.012.073.01.104-.014.098a3.19 3.19 0 0 1-.53-.763zm-1.886 2.007l-.167.095c-.062.015-.068-.011.004-.113l.144-.152.019.17zM18.96 64.656l-.202-.156.135-.168.067.323zM68.406 35.51c.131-.175.254-.345.373-.523-.712.325-.757.301-.531.131.233-.156.474-.3.722-.43a.457.457 0 0 1 .036-.06c-.53.081-1.27.2-1.421-.195l-.006-.027-.156.41-.003.011.005.028-.101.259-.183-1.281-.3-1.224.045.043c-.069-.291-.138-.583-.22-.878l-.025-.076-.03-.123.532-.493c.126-.112.252-.244.4-.389l-.08-.137c.058.02.115.038.174.052.107-.11.222-.226.344-.346.115.195.205.365.288.508.192.052.387.091.59.126l.125-.151c.014-.03.03-.06.05-.089l.03-.068.015.042.035.111.042.177.055.199.026.096c.021.088.055.18.075.268l.09.36-.049-.032.371 1.535.106.682-.41-.058a.678.678 0 0 0-.328.649c.182-.104.36-.196.518-.274l.12-.038c-.007-.047 0-.07.03-.068l.05.032.077-.024.02.12.022.107.05.363-.179-.34c-.267.133-.504.247-.703.34.033.333.103.645-.039.766-.098.076-.283.07-.652-.091zm-.254-1.732l-.097.025.147.147a1.07 1.07 0 0 0-.05-.171v-.001zm-.526.139l.013-.027-.026.005.013.022zm-50.1 28.202l-.506-.224c.036.13.072.261.095.388l.01.034.394-.193.296-.17-.289.165zM67.771 32.85a3.103 3.103 0 0 1-.047-.133 6.94 6.94 0 0 0-.365.398l.03.034c.054-.011.113-.015.166-.026a2.59 2.59 0 0 1 .216-.273zM16.762 61.04c-.01-.225-.12-.413-.087-.202a.31.31 0 0 1 .087.202zm51.91-29.785a4.158 4.158 0 0 1-.216-.198.157.157 0 0 0-.042.014c.066.12.112.25.134.385l.095.006a.8.8 0 0 1 .028-.207h.002zm.155-.308l.021-.033a.164.164 0 0 0-.172.068c.026-.005.088-.02.15-.035h.001zm-.151.035c-.054-.04-.06-.016-.003.012-.049.007-.041.002.001-.012h.002zm3.38-2.226a7.13 7.13 0 0 1-.17.158l-.024.013-.02-.38a25.01 25.01 0 0 0-.17-2.092l-.012-.073.414.015c.554.167.957.63.728 1.312.126-.131.275-.276.438-.43.326.557-.413 1.27-.864 1.486-.178.08-.308.084-.321-.009h.001zm-5.855.493l-.407-.159-.25-.65-.231-.552 1.1-.024a3.714 3.714 0 0 1 1.457.445l.488.124.172.484.067.183.055.18-.125.392c-.316.259-1.077.24-2.327-.423h.001zm-51.067 28.16l-.342.075a.936.936 0 0 1-.187-.024l-.18.073a3.348 3.348 0 0 1-1.464.01c.365-.208.693-.375.983-.52l.276-.118a.82.82 0 0 1-.008-.135.546.546 0 0 1-.07-.101 8.553 8.553 0 0 1-.886-.32c-.522.148-1.25-.3-1.963-.547.303.182.533.463.648.794l-.099.82-.198-.289a31.65 31.65 0 0 1-.865-1.304l-.208-.354-.197-.32a21.768 21.768 0 0 1-.384-.674l-.183-.329 1.046-.103c.25.055.49.149.71.278.188-.007.298-.009.33-.007.024.007.009.015-.037.041a1.54 1.54 0 0 0-.142.051c.163.11.32.228.47.354a1.76 1.76 0 0 0 .397-.275l.33-.268.505.846a26.84 26.84 0 0 0 1.713 2.337l.005.01zm50.442-29.692l-.277.129-.028-.065-.12-.274.39-.01c.36-.025.58-.05.63-.048.025.006.014.022-.044.045-.081.037-.266.102-.55.223zm-.22-1.14l-.787-.233-.218-.478a28.7 28.7 0 0 0-1.458-2.473l-1.033-1.419 1.02-.42c-.57-.228-.965-.384-1.528-.617l-.187.097-.45-.546-.234-.26-.072-.088.206-.67a1.87 1.87 0 0 1-.176-.06l-.626.075-.084-.092a30.33 30.33 0 0 0-1.054-1.056l-.03-.033 1.119-.065c.475.01.949.055 1.417.137.165-.19.347-.368.541-.53l.084-.066.392.428.124.141.143.16.111.137-.152.137c.055.027.11.067.155.091a.752.752 0 0 0 0-.1l.016-.06.233.259-.007.004-.062.035c.04.033.078.069.113.106l.036-.06.326.366 1.275 1.743-.228.321a5.039 5.039 0 0 1-.957.826l2.32.586.34.58.03-.037.305.539.017.03.012.073.34.58.355.781.04-.002.127.268c.054.11.111.227.164.349l.06.137-.036.01.032.071-.398.358c-.34.164-.832.153-1.676-.06zm-52.83 27.038l-.892-.365.552-.234.11.207.23.392zm-.756-1.397l-.528.02c-.5-.007-.934-.02-1.223-.028-.038.454-.047.63-.125.634a1.124 1.124 0 0 1-.367-.263l-.136-.093c-.03.082-.064.161-.103.24l-.094.203-.261-.534a4.505 4.505 0 0 1-.151-.325l-.013-.023-.068-.152a26.61 26.61 0 0 1-1.502-4.192l-.297-1.097-.14-.672.442-.252c.251.69.517 1.352.802 2.013.183.09.348.209.49.353.034-.1.067-.2.108-.302 0-.502.101-.97.306-1.087l.035.11.113-.326a6.056 6.056 0 0 1-1.14-.977h-.141L6.64 45.36l-.063-.246a36.175 36.175 0 0 1-.274-1.68l-.028-.205c-.016-.132-.035-.251-.051-.383l-.018-.22-.012-.004-.011-.174-.015-.112c-.012-.124-.026-.236-.033-.352l-.005-.008-.017-.2.005.007a2.747 2.747 0 0 1-.015-.183l-.018-.27-.031-.384v-.032c-.038-.62-.05-1.246-.054-1.876l.36.267-.14-.132c.358-.203.777.01 1.087.315a.408.408 0 0 0 .04-.053l-1.342-.872v-.12l1.17.146a8.387 8.387 0 0 1-.633-.613.75.75 0 0 1 .779.079 7.358 7.358 0 0 1-.116-.456.958.958 0 0 1 .774-.15c.08-.677.118-1.27.463-1.548l-.054.011a.673.673 0 0 1 .01-.85c-1.456-.094-.47 1.763-1.976-.811l-.032-.053.212-1.215.006-.023c.007-.024 0-.05.008-.075.02-.102.046-.197.067-.3l.004-.011.294-.017c.365-.017.584-.042.635-.04.024.006.009.014-.044.045-.08.036-.266.1-.55.222l-.236.115 1.225.085c.327.005.52-.015.568 0 .023.006.008.015-.042.033-.103.049-.393.143-.875.358.247.11.483.237.744.37l.67.381-.128.735-.038.333c-.02.122-.04.243-.053.361l-.021.223-.105.03.13.046-.07.332-.229-.321-.007.004.216.438-.053.654a30.576 30.576 0 0 0-.078 2.101l.002.54-.579.05c-.194 0-.398-.005-.608-.016.226.263.37.543.325.658-.04.122-.272.054-.553-.167l-.004.012c.165.177.361.407.563.633.277.34.524.704.738 1.086l.271.568.033-.049.008.137.04.068.293 2.041.143.591-.023.013.022.088.018.1.02.07.02.068-.41.184c.091.092.174.193.247.301l.16-.472.092.379.064.957c.022.298.018.551.02.762l.409.058.09.31.085.232-.59-.386c-.016.13-.021.242-.042.344.08.015.156.042.228.061l.137-.077c-.01.035-.007.074-.017.11.081.034.17.063.27.097l.07.03.086.253.094.246-.167.096c-.155.098-.28.179-.374.243l-.137.078c-.047.508-.037.803-.06.867-.022.082-.094-.246-.426-1.022a.295.295 0 0 1-.354-.19c-.063.016-.13.023-.199.043.356.711.755 1.427 1.21 2.171-.11-1.16-.295-1.578.364-2.133l.162-.103.387 1.024a.15.15 0 0 0 .024.057l.372.792-.03.017.197.44.439.894zm59.886-35.45l-.312.057c-.472.027-.896.027-1.13.06-.921-1.572-.625-1.741.137-1.653l.596.082.305.59c.111.238.223.465.331.704l.073.16zm-9.476 3.347a4.1 4.1 0 0 1-.542.148l-.344.036c.278.023.494.03.66.035.078-.074.155-.148.226-.219zm-1.117-.538l-.023-.007c.241-.228.114-.116-.008.005l.031.002zm-.5-2.486c-.293.157-.692.153-1.216-.171l-.286.203a.133.133 0 0 0 .048.013 17.68 17.68 0 0 0-.676.405l-.223.137-.053.17-.016-.01.061-.156-.133.085-.504-.446a24.697 24.697 0 0 0-.582-.491l-.222-.174.494.03c.372.031.739.101 1.095.209a8.995 8.995 0 0 0-1.511-1.578 2.546 2.546 0 0 1-.578.399c-.409.203-.598.07.167-.737-.079-.066-.162-.137-.253-.207.14.011.282.03.412.046.197-.202.445-.435.75-.709a.746.746 0 0 1-.126.805c.72.088 1.424.284 2.084.58l.054-.08.558.485.005.007c.154.144.304.278.45.426.248.23.495.462.73.708l.017.011-.007.005c-.317.19-.403.199-.54.035zm-1.5.032c-.424-.15-.666-.234-.01.005l.01-.005zm8.308-6.308l.41-.424.158.2.142.193-.024.044a2.14 2.14 0 0 1-.726.614c-.34.163-.52.045.04-.627zM56.49 16.438l-.1-.084c-.094-.077-.197-.149-.297-.232l-.21-.151.134.003c.466.087.677.257.528.433l-.055.03zm8.6-5.99l-.635.06-.017-.03-.321-.34 1.074-.019c.5.026.579.122.383.204a2.059 2.059 0 0 1-.484.126v-.001zm-9.417 5.37l-.409-.298.302-.403.107.702zm-.565-.41l-.544-.373c-.18-.119-.361-.237-.542-.354l-.083-.055a.034.034 0 0 1-.024-.007l-.023.013-.617-.36.026-.026a14.557 14.557 0 0 0-.634-.372l-.118-.063.582-.27a.36.36 0 0 1 .042-.015l.17-.177a3.666 3.666 0 0 0-1.987-.676c.053-.29.205-.708.304-1.126a2.072 2.072 0 0 1-.537.035c-.055-.44-.093-.85-.127-1.222-.07.053-.145.1-.225.137a3.824 3.824 0 0 1-1.048.305c.85.048 1.136.017.744.23-.206.117-.604.303-1.207.606l-.058.576-.5-.197c-.036-.01-.07-.032-.106-.04l-.12.088-1.143-.464.45-.236c.118-.013.236-.013.354 0l.222-.297a52.22 52.22 0 0 0-.76-.501c.375.068.723.11 1.029.147l.065-.078.037-.041a6.22 6.22 0 0 1 .223-.748.29.29 0 0 1-.111-.157l.017-.351.294.103.022-.032.414.155.065.024.065.023.097.045.008-.004.197.078.105.04-.01.017.265.09.178.079-.608.035c-.04.002-.071 0-.111.002l-.038.022c.184-.015.34-.023.478-.032l.411.028.29.115.022.018.077.028.027.014c.27.116.534.237.797.358l.643.318.027.013c.228.112.46.23.684.354l.512.27c.302.17.593.335.887.51l.127.078-.75.206.044 1.15a.6.6 0 0 1 .42.423c.285-.223.62-.464 1.062-.766.14.326.156.692.044 1.029l-.496 1.278zm1.682-1.61l.23-.232.016.011c.107.08.223.154.33.234l.074.058-.735.58c-.393.194-.581.08.085-.65v-.002zm-.848-.22l.386-.5.038.027c.114.075.23.15.336.23l.005.008-.443.352c-.26.13-.437.12-.322-.116zm7.426-4.91c-.732-1.25.173-1.142.861-2.007-.892.137-1.69.591-2.193-.267.52-.185.912-.328 1.235-.452l.177-.08.057.047c.621.54 1.223 1.1 1.79 1.672l.071.07-.333.28c-.538.281-1.094.528-1.665.738v-.001zm-7.803 4.04l.069-.089.061.036.083.054-.178.112c-.07.021-.088-.01-.035-.111v-.001zm-2.203.602l-.075.184a.698.698 0 0 1 .194-.05 1.169 1.169 0 0 0-.118-.133zM7.63 36.348c.33.564-.408 1.276-.867 1.497-.456.209-.619-.07.867-1.497zM6.189 37.8l-.15-.116.006-.164c.02-.384.046-.77.078-1.149l.016-.18.281-.16c-.163 1.299-.111 1.75-.232 1.77zm2.242-2.732l-.024-.007-.008.004a.04.04 0 0 0 .03.003h.002zm-1.902-.132l-.234-.088.056-.373.024-.184.188.235c.079.101.113.23.096.356a.109.109 0 0 1-.13.054zM57.81 4.977l-.082-.055.16-.16.04-.155-.253-.417c-.191-.343-.053-.332.617-.712l-.363 1.13.04.068-.081.086-.078.215zM9.64 31.59l-.997.497a3.244 3.244 0 0 1-.99.213c.748-.697 1.278-1.21 1.858-1.71l.128-.093a3.688 3.688 0 0 1-.143-.14c-3.543.512-2.275-.11.29-1.41l.896-.46-.35.892-.293.9-.013-.003-.032.118c-.116.338-.213.674-.305 1.018l-.049.178zm35.528-20.67l-.12-.032-.467-.106a35.482 35.482 0 0 0-2.108-.395l-.007.004.025-.045c.35-.45.842-.773 1.399-.916a.48.48 0 0 1-.042-.107c-.608-.086-.72-.052-1.679.735-.136-1.117-.104-1.788-.001-1.666a.294.294 0 0 1 .018-.21l.066-.149.025-.094.034-.03.076-.164.29.046-.021.032.866.13.568.328c.09.069.201.137.304.208.866-.322 2.291 0 .915.644-.096.045-.2.093-.322.143a.78.78 0 0 1 .27.6c-.029.075-.129.092-.327-.005a.414.414 0 0 0 .009.015c.278.354.373.62.333.814l-.201.174.097.046zm12.414-9.085l-.225.048-.028-.185.139.082.114.055zM10.72 28.365l-.089-.03a7.864 7.864 0 0 1-1.195-1.088l.917-1.375c-.177.06-.374.122-.602.182-.273-.466-.129-.79.182-.987l-.51.17-.055-.27.028-.054c.02-.048.044-.095.07-.14l.11-.213.038-.072a2.78 2.78 0 0 1 .152-.278l.017-.04.328-.166c.996-.326 2.358-.078.84.656a5.73 5.73 0 0 1-.452.197c.84-.157 1.81.164.594.736a7.29 7.29 0 0 1-.562.22c.044.57.132 1.138.264 1.696l.08.466-.027.076-.128.313zm-1.493.688l-.123-.02-.134-.004a3.23 3.23 0 0 0-.698.107l-.728.263.294-.9c.183-.485.365-.97.571-1.45l.145-.323-.007.005.172-.4.326-.707.003.249a1.774 1.774 0 0 1-.316.672l.167.146c.143.14.306.317.524.565-.57.4-1.092.865-1.552 1.385.376.156.763.285 1.158.384l.075.007.103.002c.044.006.053.021.022.019h-.002zM53.41 2.764l-.202-.085.098-.197c.088-.16.145-.274.155-.29l-.051.572zm.811-1.004L53.777 1c.65.081 1.307.113 1.963.097.024.006.009.015-.042.033-.145.063-.626.227-1.475.63h-.002zM12.044 25.533l-.111-.538a.933.933 0 0 1 .412-.506l.366-.137-.264.45c-.12.21-.237.427-.358.636l-.045.095zm39.213-23.54l-.334-.101.338.039-.004.062zm-14.754 8.119l-.384.018-.028-.064c-.136-.335-.005-.32.232-.123l.18.169zm-.897.06l-.212.02a.454.454 0 0 0-.067.007l-.273.036-.009-.016c-.285.032-.57.064-.86.108l-.039.002.034.022-.816.113-.014-.023c-.1.018-.194.031-.283.052l-.176.03-.242.037c-.109.022-.21.04-.136.027l-.136.028-.003.011-1.793.42.013-.792a3.46 3.46 0 0 1 .223-1.11l-.095-.076.123.02a.69.69 0 0 1 .454-.419c.287-.063.674.078 1.111.321.076-.183.19-.42.324-.676l.244-.45.644-.095.472-.059.139.755c.13-.105.242-.208.359-.305.009-.06.02-.121.035-.18l.157-.34.139-.02.045.094a.694.694 0 0 1 .157-.009l.142-.12.27-.024.028.255c.509.263.9.863.822 1.058-.044.115-.278.078-.782-.298a.214.214 0 0 1 0 .051v1.545zM10.953 23.064l-.42-.112.305-.516 1.103-.438a1.335 1.335 0 0 1 1.63.688c-1.144.471-1.736.567-2.618.378zm4.136-2.115l-.015-.041c-.087-.202-.189-.444-.32-.72l.63-.36c-.123-.16-.271-.378-.513-.722l1.593.278-.042.034c-.173.189-.339.373-.504.558l-.103.118-.234-.087-.075.444-.083.098c-.077.094-.161.192-.245.29l-.09.11zm1.466-1.616l-.39-.783-.107-.08.008-.004c-.285-1.163-.778-1.154-1.25-1.045l-.075.012.564-.612-.016-.01.041-.034.066-.078c.078-.075.153-.137.223-.207l-.008.004.145-.133.74-.693.045-.045-.079.125.079-.074.497-.032c.329.037.642.155.912.344a5.88 5.88 0 0 0 .234-1.539c1.057.281 1.013.397 1.278-.727 1.208.677.156.975.339 1.011l.044.005-.11.143c-.13.175-.264.362-.294.398a.949.949 0 0 1 .979.286l.11.24-.855.617c-.76.602-1.5 1.245-2.214 1.932l-.906.979zM37.079 7.477l-.088.04-.038-.03.126-.01zm-6.6 3.567l-.647.178c-.224.067-.448.134-.68.206l-.445.142-.203-.226c.083-.257.162-.503.231-.712a3.237 3.237 0 0 1-.68-.416l-.27.385c-.108.162-.213.312-.326.466.165.131.32.274.464.428l.233.26-.016.008c-.11.034-.227.08-.333.12l-.108.042-.083-.074a6.164 6.164 0 0 1-.312-.584c-.134.186-.28.37-.417.548l-.023.013c.062.054.117.113.18.168l.106.13-.007.004a4.415 4.415 0 0 0-.327.137l-.107.041-.103-.191-.394.435-.9.402-.295-.384c-.056-.059-.107-.13-.15-.186-.03.018-.049.038-.08.055a6.526 6.526 0 0 1-.179.785l-.027.055-.039.022c-.076.043-.156.079-.225.118l-.018.02-1.828 1.051-.204.016.603-.303c.144-.106.28-.22.408-.343l-.44-.301.333-.192c-.188-.114-.397-.247-.633-.372-.355-.14-.703-.283-1.058-.422.65-.36 1.33-.664 2.034-.907l.917-.301.2-.023c.19-.001.38-.012.569-.033.077-.074.159-.161.252-.244.032.053.055.11.07.17a.436.436 0 0 0 .242-.157l-.077-.168 1.316-.608c.245-.154.466-.341.657-.557-.155.028-.211-.05-.05-.292l.3-.371.065-.027c.247-.083.499-.154.738-.23l.124-.03-.003.011.243-.088-.362.527c.671-.1 1.45.952 1.362 1.202-.031.068-.117.076-.297-.022.178.114.343.245.493.392l.206.227zm-17.06 8.89c2.433-1.386-.185.758-1.238 1.437-.631.409-.69.291 1.238-1.439v.002zm17.618-9.821l.015-.028-.012-.003-.003.03zm.08-.247l.042-.134c.05-.14.104-.29.166-.446l.114-.255-.3.37-.072.484a.11.11 0 0 0 .05-.019zM13.26 19.06l-.012-.003.14-.18.238-.266.094.056c.33.285.546.673.489.816-.055.132-.333.07-.948-.424zm-.736 1.272l-.265-.02.105-.15c.088-.11.167-.216.256-.326l.236-.305.114.176a.582.582 0 0 1-.148.475.556.556 0 0 1-.297.15zm8.538-6.528a3.103 3.103 0 0 1-.855-.647l-.056-.059.428-.082c.312.066.596.228.808.463.074-.082.152-.157.238-.235.102.178.11.393.024.578l.053.09.035.181-.077-.027c-.04-.017-.076-.027-.105-.04a2.14 2.14 0 0 1-.794.703c-.39.181-.561.008.302-.925zm3.265-1.436l.072-.102c.02-.071-.028-.014-.07.09l-.002.012zM28.6 9.412l-.024.044a.031.031 0 0 1 .027-.005l.04-.003c-.017-.01-.026-.025-.042-.036zm.757-.682l-.004-.007.03-.087.007-.005-.033.1z" fill="#4C4C4C" opacity=".24"/><path d="M51.999 61.768c.003-.063.015-.13.022-.206l-.805.462a.017.017 0 0 0-.016-.01c.022-.014.042-.015.057-.024.267-.133.697-.542.502-.877a3.34 3.34 0 0 0-.662.776c-.063-.075-.139-.153-.225-.266.077.094.147.192.212.295-.03.088.003.11.07.102l.017.03-.038.022.073.04.031.053a27.04 27.04 0 0 1-4.424 1.75c1.01-.733-.404-.154-1.556.336l.036.061c-2.27.526-4.6.752-6.93.673a3.73 3.73 0 0 0-1.182-.277c.081.087.152.157.216.232a25.33 25.33 0 0 1-2.275-.245c.252-.176.555-.524.384-.82-.096.095-.17.178-.247.253.318-.985-1.623-1.23-1.498.19l.052.143A26.982 26.982 0 0 1 22.8 59.488l-.054-.04.152-.454c.079-.248.038-.386-.548-.335-.91.087.194.04-.055.287l-.084.048-1.337-1.12.02-.104a.583.583 0 0 1 .151-.23.515.515 0 0 1 .43-.113c.339.027.755.205 1.162.174a2.554 2.554 0 0 0-.717-.573c-.3-.16-.584-.346-.849-.558-.02-.019-.06.035-.105.132-.132.278-.34.896-.36.928l-.045.046-1.78-1.83a27.046 27.046 0 0 1-1.395-34.108l1.713-2.031.77-.087c1.105-.168 2.581-.499 3.636-1.034.27-.122.522-.28.749-.47.407-.273.637-.742.601-1.23a.913.913 0 0 1 .653.184c.56.41.885 1.37 1.725 1.772a1.518 1.518 0 0 1-.33-.796c-.036-.69.737-1.013 1.588-1.167-1.407 1.428.277.846 1.137.25.06.082.129.154.207.217a1.767 1.767 0 0 0-.52-.615c-.554-.433-1.203-.385-1.724-.97-.334-.366-.263-.488-.11-.575.082-.048.183-.085.261-.14a.331.331 0 0 0 .16-.265c.064-.728-.536-.769-.338-1.177l.04-.053.312-.16.222-.087.06.312c.065.15.185.269.335.335l-.218-.708 2.056-.796.769-.208.033.022c.38.022.752.119 1.095.284.25.151.454.958.66 1.226.124.162.378.372.396.178a.817.817 0 0 0-.105-.427c-.226-.388-.705-.69-.83-1.047a.531.531 0 0 1 .075-.307l.043-.309.394-.105.257-.045.12.174c.236.596.313 1.323.988 2.103a7.465 7.465 0 0 0 .124-1.513 4.939 4.939 0 0 0-.094-.738l-.065-.216.552-.095.115.077c1.927 1.126 3.658 1.025 5.365 3.01-.05-.276-.062-.665-.139-1.038a1.942 1.942 0 0 0-.426-.997c-.878-.887-1.922-.124-2.816-1.022l-.169-.238 1.333-.106a27.212 27.212 0 0 1 21.173 9.24l1.047 1.317-.007.005a1.879 1.879 0 0 0-.97-.327.072.072 0 0 0-.089.072c.076.201.164.399.262.59.083.299 1.557 1.36 1.952 1.57l.305.16.694 1.075.921 1.816-.312.037a.278.278 0 0 0-.207.13c-.036.112.168.289.832.598l.064.024.879 2.247.07.224-.49.291a2.93 2.93 0 0 1-.434.453c-.117.078-.172.089-.19.058-.044-.095.26-.585.3-.913.106-.813-.394.085-.536.226a.129.129 0 0 1-.224-.003c-.171-.226-.194-1.035-.261-1.15-.234-.383-.619-.264-.986-.042a6.856 6.856 0 0 0-.523.372 2.94 2.94 0 0 1-.353.263.57.57 0 0 1-.297-.042c-.096-.028-.171-.034-.154.048.123.58 1.1 1.043.91 1.499.115.25.154.528.11.8a.442.442 0 0 1-.248.112l-.291.055-.02.122c-.342-.067-.237-.076-.034-.112l.054-.01.04-.227c.05-.14.119-.302.145-.378-.704-.011-2.082-.225-1.19.512-1.248 1.053-.525.454.147.828.494.277.314.958.881 1.241-.097.127-1.151 1.413-.274 1.042.918-.387 2.746-.737 3.34-.57.184.057.494.173.64.059a.3.3 0 0 0 .056-.216c-.032-.51-.318-1.107-.53-1.595a3.8 3.8 0 0 1 .727.192l.53.458.263 1.503c.491 3.724.2 7.509-.854 11.115a3.482 3.482 0 0 0-1.163.07l.26.449c.256-.005.51-.026.763-.062a26.704 26.704 0 0 1-12.307 15.27c-.16.095-.313.182-.468.262zm2.93-5.463c-.146.308-.254.522-.404.822-.823-.636-.615-.835-1.64-.247.813.722 1.63 1.45 2.455 2.175.806-1.225.415-.015-.412-2.75zm-7.564 6.522h-.05l.059.016c.015-.01.015-.01-.01-.016zm-.05 0l-.05-.013a3.558 3.558 0 0 1-.613-.257c.4-.514.935-.446.502-1.192-.716.543-.895.707-.883 1.563l-.004-.007.066.114a1.98 1.98 0 0 1 .906-.216l.075.008zm14.05-10.819c-.864.831-.767.999-.503.878.259-.129.696-.543.502-.88v.002zm-2.243 1.4c-.383.01-.767-.01-1.148-.061l.266.457c.499-.237.776-.335.864-.375.022-.014.03-.018.018-.022v.001zm-6.236 3.474a3.554 3.554 0 0 0-1.415-.385c.69.72.52.93.856.727.112-.067.278-.182.558-.344v.002zm3.498-3.21c.623.657.878.765.911.665.056-.166-.502-.901-.912-.666v.001zM55 53.868c-.063.26-.113.45-.187.706a6.641 6.641 0 0 0-1.637-.258c.349.602.27 1.043.968.642.558-.066 1.343-.09 1.712-.22.358-.137.295-.385-.856-.871zm-3.345 1.922c.636.661.886.76.912.665.06-.158-.495-.906-.912-.666v.001zm.895-.514c.636.66.878.765.911.665.061-.158-.502-.901-.91-.666v.001zm-15.703 7.828c.631.653.883.774.916.672.056-.164-.499-.913-.916-.673v.001zm14.734-8.47c.632.653.883.774.916.673.056-.166-.498-.914-.916-.674v.001zm-.94-1.256c.092.038.182.088.291.138.087.175.148.363.181.556l-.002.032.007-.076a4.45 4.45 0 0 1 .262-.77 44.172 44.172 0 0 0-.824-.095c-.124-.335-.228-.62-.273-.767-.548.782-.822.848-1.783 1.024.86.37 1.696.787 2.506 1.252.262.54.36.707.356.648-.008-.12-.41-1.127-.722-1.943zm6.291-1.687a10.734 10.734 0 0 1-1.14-.066l.256.442c.493-.232.774-.323.862-.363.026-.007.03-.019.022-.014zm5.035-4.814c.312.155.523.257.836.414.121.61.268.811.388.793.341-.078.414-2.15-1.224-1.208zm-12.872 8.597c-.87.836-.773 1.003-.51.882.267-.134.705-.548.51-.883v.001zm9.373-5.388c-.87.836-.773 1.003-.51.882.26-.13.705-.548.51-.883v.001zm-4.644 3.117c-.019-.173-.186-.706-.344-1.448-.463.266-.46.234-.187.706.147.283.32.55.515.801.025.006.024-.014.017-.06zm4.57-4.274c.632.653.879.765.916.672.052-.172-.505-.907-.915-.672zm-7.276 5.29l-.007-.118-.01.107c-.008.036-.003.063.005.058.004.008.01-.016.013-.048zm2.55-3.172c.635.66.878.765.915.672.057-.164-.498-.911-.915-.672zm-2.84-.155l.272-.157c-.2-.17-.53-.478-.862-.754l.213-.366a4.784 4.784 0 0 0-.71-.038.973.973 0 0 0-.37-.184c.067-.059.15-.126.247-.203a2.665 2.665 0 0 0-1.803-.74.866.866 0 0 1-.008.004l.008-.004.015-.009c.114-.065.28-.18.56-.342a3.546 3.546 0 0 0-1.249-.36c-.024-.198-.106-.568-.236-1.174-.236.36-.4.617-.634.964.5.232.765.464.844.41a.08.08 0 0 0 .024-.046c.148.174.284.357.409.548-.228-.011-.48-.009-.756-.013 1.268 2.186 1.493-.39 1.677 1.758-.281.02-.431.39.144 1.381.75-.483.53-1.037.194-1.27a1.93 1.93 0 0 1 .638-.103l.083.003-.048-.013a3.908 3.908 0 0 1-.622-.252.096.096 0 0 1 .03-.037.69.69 0 0 0 .602.08c.05.104.12.225.205.37.67.702.522.919.832.74.185.317.257.687.204 1.05.583.6.863.773.952.682.174-.15-.345-1.202-.856-1.925zm10.87-4.34a8.832 8.832 0 0 1-1.148-.06c.088.152.173.296.26.449.493-.233.77-.331.858-.371.035-.01.042-.014.03-.018zm-6.018-.248c.183.159.329.288.446.404a.322.322 0 0 0-.185.046c.188.203.392.392.61.563.076.254.132.514.168.777.534.556.846.64.994.495.447-.45-.622-3.096-2.033-2.284v-.001zm-.753 2.82l-.888.51c.51.286.687.54.758.54.064-.016.043-.278.13-1.05zm-3.38 1.353c.63.653.885.76.918.66.05-.159-.5-.899-.917-.66h-.002zm-4.01 2.308c.593.623.957.658 1.109.5.223-.261-.162-1.046-1.11-.5zm17.571-9.401c.08-.107-1.725-2.279-.868-.801.61.634.847.833.868.8zM35.667 59.009c.357.231.603.394.964.633.354-.173.59-.288.712-.359.36-.196-.27-.027-1.676-.274zm7.33-4.814c-.237.36-.405.608-.634.964.21.24.446.455.705.641a.126.126 0 0 0 .1.034c.175-.03-.15-.818-.17-1.639zm11.604-5.045c.17-.15.312-.329.422-.527l.046-.148-.39.407c-.222.26-.257.36-.18.337a.207.207 0 0 0 .102-.069zm-1.643.69c.736-.493-1.51-.563-.962.381.266-.074.526-.169.777-.283a1.93 1.93 0 0 0 .186-.098zm5.202-3.06c.08-.107-1.733-2.275-.876-.797.61.634.847.833.876.796zm-3.091 1.695l.052-.05-.022-.038-.03.088zm-2.7.333l.262.45c.828-.02 1.24-.094 1.35-.166.17-.14-.516-.315-1.611-.285v.001zm2.73-.42l.208-.67c-.106.062-.194.102-.254.137-.219-.22-1.509-.108-1.08.631.264-.07.522-.162.773-.272a.897.897 0 0 0 .19-.109l.017.03.146.252zm-7.082 1.125l-.635.964c.207.242.444.457.705.64.03.024.067.039.105.042.175-.03-.155-.826-.175-1.647v.001zm1.553.69l-.044-.005.048.013c.025.007.016-.008-.004-.007zm11.724-7.47c.217-.036.428-.1.629-.189a.44.44 0 0 0 .166-.116c.111-.124-.069-.224-.714-.168.493-.354 1.34-1.105.833-.884a.875.875 0 0 0-.164-.524c-.875.635-1.104.868-1.331 1.82l-.005-.007.01.015a7.968 7.968 0 0 1-.644-.097c.358.25.612.41.961.646.358-.186.586-.297.712-.36.235-.135.056-.114-.453-.136zm-22.21 11.915c.637.648.89.767.922.667.057-.164-.506-.907-.923-.667zm2.684-1.544c.601.62.97.662 1.113.508.23-.264-.165-1.052-1.113-.508zm7.335-3.464c.064-.066.132-.13.204-.188a.342.342 0 0 0 .022.16c-.075.012-.153.016-.226.028zm6.31-3.658a8.39 8.39 0 0 1-1.147-.062l.26.45c.493-.232.782-.327.87-.368l.022-.013c.007-.004.003-.012-.005-.007zm-19.84 11.332a.555.555 0 0 0-.062-.613c-1.092.627-2.855-.827-1.782 1.024.317-.03 1.258.008 1.693-.272a.512.512 0 0 0 .152-.139zm16.238-13.569c-.396.451-.674.774-1.074 1.216.817.729 1.63 1.45 2.454 2.174.517-1.097.584-1.187-1.38-3.39zM32.387 58.497c-.858.838-.766.998-.502.877.268-.133.701-.535.502-.877zm24.555-14.114c-.86.838-.766.998-.502.877.259-.13.7-.536.502-.878zm4.16-2.087c.061-.073.132-.138.211-.193-.06.058-.115.12-.166.186a.143.143 0 0 0-.046.006v.001zm-10.89 5.355c1.131-.143.976-.043 1.434-1.12-.372-.1-1.317-.562-1.59-.476.1-.216.221-.421.36-.615-.475-.052-.816-.099-1.283-.155.75.736 1.137 1.104 2.065 1.504l-.857.248c.627-.4-.471-.43-1.842-.79.416.37.724.64 1.125 1-.5.134-.993.275-1.491.41.56.966 1.09-.109 1.824.007.183.037-.18.876-.217.967-.027.058.07-.16.472-.98zm2.01-1.156c-.866.844-.769 1.011-.51.882.271-.125.705-.547.51-.882zm2.863-2.245l-.447.257c.314.663.391.954.403.886a5.716 5.716 0 0 1 .045-1.143zm2.238-1.286c-.59.43-.6.325-.642.967-.64.622-.753.828-.638.783a3.408 3.408 0 0 0 1.28-1.75zm-1.159.077l-.887.51c.505.278.682.532.753.532.074-.013.042-.278.135-1.042zM33.586 55.42c.631.652.886.76.91.664.057-.164-.5-.9-.91-.664zm-2.715.027l-.035-.253-.25.58c-.086.201-.171.403-.25.6l-.212.558.597.734c1.267-.8.487-.646.15-2.22v.001zm14.882-8.808c-.628.696-.967 1.47-1.585 2.394l.071.122.062.107c.345-.016.804-.046 1.155-.066-.094-1.298-.154-.877.297-2.559v.002zm14.494-6.636l-.425-.193-.128-.027c-.217-.028-.432-.067-.643-.098l-.606-.068.266.213a5.32 5.32 0 0 1 1.026 1.157c.673-.408.805-.738.51-.985v.001zM53.6 42.718c.636.66.886.76.916.673.056-.166-.499-.914-.915-.674v.001zm-13.13 8.148c-.87.835-.774 1.003-.514.875.275-.12.708-.54.514-.876v.001zm12.54-10.195c-.024.045-.936.792-1.685 1.487-.183-.16-.521-.219-.991.052.15.163.319.308.503.431-.36.37-.58.659-.43.725.053.02 1.382-.703 2.171-.354.13.626.23.833.303.8.226-.1.219-2.483.13-3.142zm-2.085 3.586a3.75 3.75 0 0 0-1.413-.377c.691.72.513.935.857.727.114-.067.275-.191.556-.351zm-3.202.652l-.44.253c.314.663.387.945.395.89a6.366 6.366 0 0 1 .045-1.144v.001zm-4.778 3.04c-.682-.095-1.296-.23-1.992-.348.43.585.325.595.969.641.298.131.537.365.675.659.035.06.01-.158.348-.952zm14.385-8.167l.096-.269-.308-.028-.386-.02-.025.236c.042.183.113.358.21.52.159-.126.297-.273.412-.44zM32.549 53.63c-.875.829-.778.995-.507.87.263-.12.696-.542.506-.87zm3.124-1.795c-.875.829-.777.994-.507.87.263-.121.696-.543.506-.87zm18.933-11.483a3.519 3.519 0 0 0-1.409-.389c.69.72.52.93.856.727.114-.066.28-.181.552-.338zM35.15 50.936c-.87.836-.773 1.003-.502.878.264-.122.692-.551.502-.879v.001zm11.35-7.123l-.895.514c.505.278.687.54.753.532.074-.013.041-.278.142-1.047zm2.416-1.989c.631.653.878.765.915.672.056-.164-.506-.908-.915-.672zm-4.019 2.31c-.866.843-.773 1.003-.502.878.259-.128.696-.541.502-.878zm2.23-1.281c-.86.838-.766.998-.503.877.258-.128.697-.542.502-.877zm-6.77 2.693c.632.653.891.768.916.672.055-.165-.5-.912-.917-.672h.002zm9.455-4.236l1.206-1.303.358-.307-.081.016-.343.055-.107.164c-.049.127.038.138.17.072l-1.203 1.303zM20.19 19.987c-.133.015-.208-.114-.267-.304l-.12-.643.093-.082a27.204 27.204 0 0 1 4.433-3.168l.377-.186.32.466c.066.09.073.21.016.306a.364.364 0 0 1-.257.045 2.995 2.995 0 0 0-.73-.057c-.585.143-1.299 1.092-1.582 1.406-.27.318-1.028.387-1.362.774-.277.342-.403 1.065-.649 1.287a.736.736 0 0 1 .2-1.263.744.744 0 0 1 .732.115l-1.204 1.304z" fill="#4C4C4C" opacity=".24"/><path d="M20.213 35.618a2.36 2.36 0 0 0-1.1-.144 2.502 2.502 0 0 0-1.467.611c-.14.116-.25.246-.33.392-.081.146-.13.302-.145.47a.883.883 0 0 0 .136.525c.09.158.2.27.327.337s.277.102.45.107c.174.005.368-.01.583-.047.215-.037.453-.084.714-.141a35.87 35.87 0 0 1 1.195-.226c.418-.072.83-.085 1.234-.038.404.047.788.172 1.153.376.366.204.682.538.95 1.002.309.534.476 1.053.502 1.558.027.504-.055.98-.244 1.428-.19.448-.465.859-.827 1.231a5.648 5.648 0 0 1-1.233.957 6.436 6.436 0 0 1-2.15.778c-.761.13-1.473.1-2.136-.089l.62-2.355c.391.148.829.207 1.313.179.485-.029.912-.15 1.284-.365.167-.097.32-.209.46-.336a1.42 1.42 0 0 0 .319-.411.99.99 0 0 0 .103-.48 1.137 1.137 0 0 0-.167-.534.858.858 0 0 0-.391-.37 1.49 1.49 0 0 0-.571-.117 3.53 3.53 0 0 0-.77.076 34.4 34.4 0 0 0-.983.21 9.194 9.194 0 0 1-1.08.167 3.41 3.41 0 0 1-1.06-.062 2.706 2.706 0 0 1-.976-.435c-.306-.214-.58-.531-.824-.952-.298-.516-.447-1.02-.448-1.51 0-.49.104-.953.312-1.389.208-.435.497-.833.867-1.192a6.16 6.16 0 0 1 1.217-.923 5.672 5.672 0 0 1 1.791-.648 4.837 4.837 0 0 1 1.945.015l-.573 2.345zm13.927-5.117c.424.736.684 1.482.78 2.239a5.3 5.3 0 0 1-.165 2.179 5.49 5.49 0 0 1-1.043 1.943 6.632 6.632 0 0 1-1.837 1.533 6.57 6.57 0 0 1-2.24.82c-.76.124-1.492.1-2.197-.07a5.3 5.3 0 0 1-1.97-.947c-.608-.46-1.124-1.059-1.549-1.795-.43-.744-.69-1.49-.78-2.238a5.097 5.097 0 0 1 .184-2.147 5.5 5.5 0 0 1 1.055-1.906 6.796 6.796 0 0 1 1.838-1.516 6.86 6.86 0 0 1 2.239-.838 5.485 5.485 0 0 1 2.185.035 5.097 5.097 0 0 1 1.95.914c.603.452 1.12 1.05 1.55 1.794zm-2.426 1.401a3.655 3.655 0 0 0-.852-1.015 3.103 3.103 0 0 0-1.07-.582 2.933 2.933 0 0 0-1.189-.101 3.126 3.126 0 0 0-1.219.415 3.08 3.08 0 0 0-.962.844 3.039 3.039 0 0 0-.507 1.081 2.948 2.948 0 0 0-.03 1.218c.074.424.227.838.46 1.24.243.42.533.77.87 1.048a3.17 3.17 0 0 0 1.078.595 2.9 2.9 0 0 0 1.187.112c.41-.044.814-.181 1.212-.411a2.983 2.983 0 0 0 1.495-3.167 3.806 3.806 0 0 0-.473-1.277zm6.632 2.424l-5.371-9.3 2.28-1.317 4.24 7.343 3.632-2.098 1.13 1.957-5.911 3.415zM51.38 20.562c.47.815.724 1.606.76 2.373a4.918 4.918 0 0 1-.364 2.155c-.28.669-.681 1.274-1.205 1.816s-1.108 1-1.753 1.372l-3.5 2.02-5.37-9.3 3.393-1.959a9.77 9.77 0 0 1 2.095-.903 5.711 5.711 0 0 1 2.163-.233c.708.063 1.39.304 2.042.72.654.417 1.233 1.064 1.739 1.94zm-2.36 1.363c-.303-.525-.64-.911-1.013-1.158a2.546 2.546 0 0 0-1.167-.43 3.198 3.198 0 0 0-1.235.127c-.418.124-.82.299-1.21.523l-1.126.651 3.14 5.438 1.074-.62a5.677 5.677 0 0 0 1.094-.815c.322-.309.566-.651.732-1.027.166-.377.234-.79.204-1.24-.03-.45-.194-.932-.493-1.449zm-9.269 27.63c.425.735.685 1.481.78 2.238a5.3 5.3 0 0 1-.164 2.18 5.49 5.49 0 0 1-1.043 1.942 6.632 6.632 0 0 1-1.837 1.533 6.57 6.57 0 0 1-2.24.82c-.76.124-1.492.1-2.197-.07a5.3 5.3 0 0 1-1.97-.947c-.608-.46-1.124-1.059-1.549-1.794-.43-.745-.69-1.49-.78-2.239a5.097 5.097 0 0 1 .183-2.146 5.5 5.5 0 0 1 1.056-1.906 6.796 6.796 0 0 1 1.838-1.517 6.86 6.86 0 0 1 2.238-.837 5.485 5.485 0 0 1 2.186.034 5.097 5.097 0 0 1 1.95.914c.603.452 1.12 1.05 1.55 1.794zm-2.425 1.4a3.655 3.655 0 0 0-.852-1.015 3.103 3.103 0 0 0-1.07-.582 2.933 2.933 0 0 0-1.19-.1 3.126 3.126 0 0 0-1.218.414c-.398.23-.718.511-.962.844a3.039 3.039 0 0 0-.507 1.082 2.948 2.948 0 0 0-.03 1.217c.074.424.227.838.46 1.24.243.421.533.77.87 1.048.337.279.697.477 1.077.596a2.9 2.9 0 0 0 1.187.111c.41-.044.815-.181 1.213-.41a3.08 3.08 0 0 0 .961-.845 2.983 2.983 0 0 0 .533-2.322 3.806 3.806 0 0 0-.472-1.278zm12.56-5.677c.323.56.523 1.126.598 1.695a3.84 3.84 0 0 1-.132 1.653 4.349 4.349 0 0 1-.836 1.507 5.523 5.523 0 0 1-1.504 1.237c-.618.357-1.228.587-1.83.689a4.196 4.196 0 0 1-1.703-.041 3.85 3.85 0 0 1-1.478-.723 4.681 4.681 0 0 1-1.162-1.37l-3.345-5.793 2.253-1.301 3.24 5.609c.146.254.318.475.516.665.198.19.417.334.658.435.24.1.504.138.79.113.286-.025.588-.13.906-.314.318-.183.56-.393.724-.628.165-.235.266-.483.304-.745a1.956 1.956 0 0 0-.048-.786 3.17 3.17 0 0 0-.324-.776l-3.24-5.61 2.267-1.309 3.346 5.793zm3.608-7.25l4.263 7.382-2.267 1.309-4.263-7.383-2.651 1.531-1.108-1.917 7.57-4.372 1.107 1.918-2.651 1.531z" fill="#FFF" fill-rule="nonzero"/></g></svg>