<svg xmlns="http://www.w3.org/2000/svg" viewBox="0 0 18 20"><g fill="#38B2A6"><path d="M17.688 16h-.625a.322.322 0 0 0-.313.316v2.105a.322.322 0 0 1-.313.316H9.564a.322.322 0 0 1-.313-.316v-2.105A.322.322 0 0 0 8.937 16h-.624a.322.322 0 0 0-.313.316v2.842a.84.84 0 0 0 .833.842h8.334a.84.84 0 0 0 .833-.842v-2.842a.322.322 0 0 0-.313-.316zm-4.898 1.9c.12.133.3.133.42 0l2.7-2.996a.347.347 0 0 0 0-.466l-.42-.466a.27.27 0 0 0-.42 0l-1.12 1.243c-.12.133-.34.044-.34-.155v-4.727c-.02-.178-.18-.333-.32-.333h-.6c-.16 0-.3.155-.3.333v4.704c0 .2-.22.289-.34.156l-1.12-1.243a.27.27 0 0 0-.42 0l-.42.488a.347.347 0 0 0 0 .466l2.7 2.996z"/><path d="M15.118.25a2.635 2.635 0 0 1 2.627 2.472l.005.167v7.549h-1.5v-7.55c0-.587-.442-1.07-1.01-1.131l-.122-.007H2.882c-.583 0-1.064.444-1.125 1.015l-.007.124V16.11c0 .588.442 1.07 1.01 1.132l.122.007H5.86v1.5H2.882a2.635 2.635 0 0 1-2.627-2.472L.25 16.11V2.89C.25 1.489 1.34.34 2.716.255L2.882.25h12.236z"/><path d="M13.5 4.75a.75.75 0 0 1 .102 1.493l-.102.007h-9a.75.75 0 0 1-.102-1.493L4.5 4.75h9zm-3.8 4a.75.75 0 0 1 .102 1.493l-.102.007H4.3a.75.75 0 0 1-.102-1.493L4.3 8.75h5.4zm-2.85 4a.75.75 0 0 1 .102 1.493l-.102.007h-2.7a.75.75 0 0 1-.102-1.493l.102-.007h2.7z"/></g></svg>