<svg xmlns="http://www.w3.org/2000/svg" viewBox="0 0 40 40"><g transform="translate(0 -1)" fill="none" fill-rule="evenodd"><rect fill="#F8F8F6" x="6" y="11" width="31" height="27" rx="2"/><path d="M15.2819296,18.5502205 L7.27914499,18.5502205 C6.57227442,18.5502205 6.0000228,19.0989711 6.0000228,19.7770701 C5.9958383,20.4473297 6.56806685,20.9921607 7.27914499,21 L15.2819296,21 C15.9930078,20.9960804 16.5694439,20.4473297 16.5652592,19.7770701 C16.5652592,19.0989711 15.9888002,18.5502205 15.2819296,18.5502205 Z M22.7124857,13 L7.27914499,13 C6.57227442,13 6.0000228,13.5487506 6.0000228,14.2229299 C5.9958383,14.8931896 6.56806685,15.4419402 7.27914499,15.4458599 L22.7166933,15.4458599 C23.4235639,15.4458599 24,14.8971093 24,14.2229299 C24,13.5487506 23.4193563,13 22.7124857,13 Z" fill="#C8C9CB" fill-rule="nonzero"/><path d="M31.7511978,5.39904007 L29.0940053,5.39904007 L29.0940053,1.21888604 C29.0940053,0.546936042 28.5371823,0 27.8452477,0 L4.00830723,0 C1.88337214,0 0.159677203,1.62908807 0.0245657236,3.67228485 C0.00818857453,3.75041857 0,3.83245898 0,3.91840607 L0,31.0815939 C0,31.167541 0.00818857453,31.2534881 0.0245657236,31.3316218 C0.159677203,33.3748186 1.88337214,35 4.00830723,35 L31.7511978,35 C32.4472266,34.9960933 33.0040497,34.4491573 32.9999778,33.781114 L32.9999778,6.61792611 C32.9999778,5.94597611 32.4431323,5.39904007 31.7511978,5.39904007 Z M4.00830723,2.44167876 L26.5964901,2.44167876 L26.5964901,5.39904007 L4.00830723,5.39904007 C3.17307263,5.39904007 2.49744157,4.73490345 2.49744157,3.92231276 C2.48932666,3.10972207 3.16488406,2.44558544 4.00830723,2.44167876 Z M4.00830723,32.5622279 C3.17307263,32.5622279 2.49751523,31.8980913 2.49751523,31.0815939 L2.49751523,7.54381069 C2.96426398,7.73133162 3.47604989,7.83681214 4.01240152,7.83681214 L30.5024401,7.83681214 L30.5024401,32.5622279 L4.00830723,32.5622279 Z" fill="#C8C9CB" fill-rule="nonzero"/></g></svg>