<svg xmlns="http://www.w3.org/2000/svg" viewBox="0 0 78 78"><g fill="none" fill-rule="evenodd"><circle fill="#FFFCEB" cx="39" cy="39" r="39"/><path d="M45,23 C47.209139,23 49,24.790861 49,27 L49.0006129,42.5318632 C47.8792247,42.3859128 46.7048584,42.7413605 45.8415163,43.598206 C44.9704338,44.4627335 44.6099859,45.6449029 44.7601923,46.7720868 L44.7601923,46.7720868 L44.7717778,46.839 L33.2816442,46.8398672 C31.2674708,46.8398672 29.6067739,48.404385 29.5049473,50.4048333 L29.5049473,50.4048333 L29.5,50.599748 C29.5,52.6925115 31.2024251,54.3596688 33.281604,54.3596688 L33.281604,54.3596688 L44.8087778,54.359 L44.800587,54.409937 C44.7297584,54.9411279 44.7723409,55.4845042 44.9283225,56.001098 L27,56 C24.790861,56 23,54.209139 23,52 L23,27 C23,24.790861 24.790861,23 27,23 L45,23 Z M37.424,27 L35.952,27 L35.952,28.936 C35.3973333,28.9893333 34.9173333,29.1306667 34.512,29.36 C34.1066667,29.5893333 33.768,29.872 33.496,30.208 C33.224,30.544 33.0213333,30.9253333 32.888,31.352 C32.7546667,31.7786667 32.688,32.2213333 32.688,32.68 C32.688,33.1173333 32.7466667,33.504 32.864,33.84 C32.9813333,34.176 33.1626667,34.4773333 33.408,34.744 C33.6533333,35.0106667 33.968,35.2453333 34.352,35.448 C34.6592,35.6101333 35.0176,35.7620267 35.4272,35.90368 L35.744,36.008 L36.656,36.296 C37.3493333,36.52 37.696,36.8666667 37.696,37.336 C37.696,37.6773333 37.5493333,37.9546667 37.256,38.168 C36.9626667,38.3813333 36.6186667,38.488 36.224,38.488 C35.3424762,38.488 34.4379592,38.1063129 33.510449,37.3429388 L33.296,37.16 L32,39.576 C32.2026667,39.768 32.4613333,39.952 32.776,40.128 C33.0906667,40.304 33.4293333,40.4586667 33.792,40.592 C34.1546667,40.7253333 34.5226667,40.832 34.896,40.912 C35.176,40.972 35.444,41.0095 35.7,41.0245 L35.952,41.032 L35.952,42.936 L37.424,42.936 L37.424,40.952 C38.0426667,40.76 38.568,40.5466667 39,40.312 C39.432,40.0773333 39.7813333,39.8053333 40.048,39.496 C40.3146667,39.1866667 40.5066667,38.8346667 40.624,38.44 C40.7413333,38.0453333 40.8,37.592 40.8,37.08 C40.8,36.2373333 40.5653333,35.552 40.096,35.024 C39.6693333,34.544 39.0002424,34.1323196 38.0887273,33.7889587 L37.808,33.688 L36.864,33.368 C36.5333333,33.2506667 36.2666667,33.096 36.064,32.904 C35.8613333,32.712 35.76,32.5093333 35.76,32.296 C35.76,32.0613333 35.888,31.8506667 36.144,31.664 C36.4,31.4773333 36.7306667,31.384 37.136,31.384 C37.7312,31.384 38.33504,31.59568 38.94752,32.01904 L39.152,32.168 L40.336,29.864 C39.6256,29.4128 38.76832,29.11712 37.76416,28.97696 L37.424,28.936 L37.424,27 Z" fill="#FCCE01"/><path d="M52.9331335,49.3398672 L36.4269158,49.3398672 L38.6121834,47.1712835 C39.1127992,46.6748347 39.1127992,45.8694853 38.6121834,45.3726366 C38.1115675,44.8757878 37.300515,44.8757878 36.7998992,45.3726366 L32.623654,49.517056 C32.2501467,49.7357223 32,50.1360171 32,50.599788 C32,51.0378804 32.2231855,51.4193764 32.5627193,51.6446023 L36.7595985,55.8095005 C37.0099064,56.0579249 37.3378335,56.1821571 37.6657607,56.1821571 C37.9936879,56.1821571 38.3215747,56.0579249 38.571923,55.8095005 C39.0725388,55.3126517 39.0725388,54.5073023 38.571923,54.0108536 L36.4042265,51.8596688 L52.9331738,51.8596688 C53.640734,51.8596688 54.2147778,51.3023838 54.2147778,50.599748 C54.2147778,49.8971122 53.6406937,49.3398672 52.9331335,49.3398672 Z" fill="#FCCE01" transform="matrix(-1 0 0 1 86.215 0)"/></g></svg>