<svg xmlns="http://www.w3.org/2000/svg" viewBox="0 0 40 43"><g fill="none" fill-rule="evenodd"><path d="M34,7 C36.209139,7 38,8.790861 38,11 L38.0008872,30.1113995 C37.8237271,29.8863569 37.6256282,29.6776859 37.4087374,29.4884961 L37.1856622,29.3059151 L37.1556711,29.2834639 L32.2837558,24.357305 C30.4947487,22.547565 27.6043459,22.5475651 25.8153387,24.3573048 C24.8212171,25.362947 24.3755765,26.7163442 24.4784366,28.0335404 L24.5041506,28.2799967 L24.5181988,28.3626967 L10.5855329,28.3637684 C8.21502702,28.3637684 6.24829654,30.1853312 6.02176195,32.5530937 L6.00599901,32.769814 L6,33.0107149 C6,35.5253749 7.95122898,37.5428332 10.3764791,37.6529739 L10.5854841,37.6577106 L24.5630642,37.6568841 L24.5531323,37.7198386 C24.3923059,38.9492115 24.7136977,40.2313939 25.5172119,41.2501446 L25.684343,41.4502886 L25.8643305,41.6428455 C26.6760193,42.4638087 27.7437682,42.9345396 28.858806,42.993655 L29.0983904,43 L10,43 C7.790861,43 6,41.209139 6,39 L6,11 C6,8.790861 7.790861,7 10,7 L34,7 Z M38.0019278,35.908862 L38,39 C38,41.209139 36.209139,43 34,43 L29.0983904,43 C30.2191641,43 31.3076299,42.5839679 32.1547619,41.8133193 L32.3325201,41.6427749 L37.2817791,36.6384784 L37.3862975,36.5525134 C37.6125619,36.3577039 37.8185339,36.1419928 38.0019278,35.908862 Z" fill="#F8F8F6"/><path d="M30.4148785,27.3726366 L34.5911237,31.517056 C34.9646311,31.7357223 35.2147778,32.1360171 35.2147778,32.599788 C35.2147778,33.0378804 34.9915922,33.4193764 34.6520585,33.6446023 L30.4551793,37.8095005 C30.2048713,38.0579249 29.8769442,38.1821571 29.549017,38.1821571 C29.2210899,38.1821571 28.893203,38.0579249 28.6428548,37.8095005 C28.1422389,37.3126517 28.1422389,36.5073023 28.6428548,36.0108536 L30.8105512,33.8596688 L14.281604,33.8596688 C13.5740438,33.8596688 13,33.3023838 13,32.599748 C13,31.8971122 13.5740841,31.3398672 14.2816442,31.3398672 L30.7878619,31.3398672 L28.6025944,29.1712835 C28.1019785,28.6748347 28.1019785,27.8694853 28.6025944,27.3726366 C29.1032102,26.8757878 29.9142627,26.8757878 30.4148785,27.3726366 Z M25.4773973,0.0219874332 C28.7947415,0.0219874332 30.8500624,1.77454545 30.9507551,5.01565228 L30.9546337,5.26789973 L30.9546337,22 C30.9546337,22.7958503 30.4631856,23.4410781 29.6673353,23.4410781 C28.9182997,23.4410781 28.4391123,22.8695268 28.3853291,22.1387799 L28.3802679,22 L28.3802679,5.26789973 C28.3802679,3.52233111 27.3694321,2.66120808 25.6758937,2.59981566 L25.4774743,2.5962762 L5.48388289,2.5962762 C3.73831426,2.5962762 2.6629706,3.39274853 2.58570999,5.0704082 L2.58124332,5.26789973 L2.58124332,30.9361693 C2.58124332,32.6817379 3.59193628,33.5428609 5.28546415,33.6042533 L5.48388289,33.6077928 L7.36075184,33.6077928 C8.15667912,33.6077928 8.80190692,34.0991639 8.80190692,34.8950142 C8.80190692,35.6441222 8.23035565,36.1234504 7.49960879,36.1772499 L7.36082885,36.1823126 L5.48388289,36.1823126 C2.1666138,36.1823126 0.111514428,34.4295349 0.0108327525,31.1884171 L0.00695454545,30.9361693 L0.00695454545,5.26789973 C0.00695454545,1.95070572 1.97912219,0.115144652 5.2312095,0.0254398452 L5.48388289,0.0219874332 L25.4773973,0.0219874332 Z M16.5636364,5.968 L16.5636364,8.15474699 L16.9155522,8.19626845 C17.9431283,8.33522648 18.8361478,8.6157978 19.5946109,9.03798241 L19.8727273,9.20293976 L18.5272727,11.8053494 L18.316003,11.6516603 C17.6127724,11.1637582 16.9195592,10.9198072 16.2363636,10.9198072 C15.7757576,10.9198072 15.4,11.0252289 15.1090909,11.2360723 C14.8181818,11.4469157 14.6727273,11.6848675 14.6727273,11.9499277 C14.6727273,12.1908916 14.7878788,12.4198072 15.0181818,12.6366747 C15.2024242,12.8101687 15.4332121,12.9566747 15.7105455,13.0761928 L15.9272727,13.1607711 L17,13.5222169 L17.2930556,13.6265718 C18.3421296,14.0163392 19.1111111,14.4845663 19.6,15.031253 C20.1333333,15.6276386 20.4,16.4017349 20.4,17.3535422 C20.4,17.9318554 20.3333333,18.4439036 20.2,18.8896867 C20.0666667,19.3354699 19.8484848,19.7330602 19.5454545,20.0824578 C19.2424242,20.4318554 18.8454545,20.7390843 18.3545455,21.0041446 C17.9454545,21.2250281 17.4627104,21.429178 16.9063131,21.6165944 L16.5636364,21.7270361 L16.5636364,23.968 L14.8909091,23.968 L14.8909091,21.8173976 L14.6045455,21.8089262 C14.3136364,21.7919834 14.0090909,21.7496265 13.6909091,21.6818554 C13.2666667,21.591494 12.8484848,21.471012 12.4363636,21.3204096 C12.0242424,21.1698072 11.6393939,20.9951084 11.2818182,20.7963133 C10.9957576,20.6372771 10.7504242,20.4724578 10.5458182,20.3018554 L10.4,20.1728193 L11.8727273,17.4439036 L12.100202,17.6372369 C13.1598653,18.5083481 14.1931313,18.9439036 15.2,18.9439036 C15.6484848,18.9439036 16.0393939,18.8234217 16.3727273,18.5824578 C16.7060606,18.341494 16.8727273,18.028241 16.8727273,17.6426988 C16.8727273,17.1533568 16.5370629,16.7820729 15.8657343,16.5288469 L15.6909091,16.468 L14.6545455,16.1426988 L14.3530303,16.0448072 C13.8631313,15.8791446 13.4363636,15.7009317 13.0727273,15.5101687 C12.6363636,15.281253 12.2787879,15.0161928 12,14.714988 C11.7212121,14.4137831 11.5151515,14.0734217 11.3818182,13.6939036 C11.2484848,13.3143855 11.1818182,12.8776386 11.1818182,12.3836627 C11.1818182,11.8655904 11.2575758,11.3655904 11.4090909,10.8836627 C11.5606061,10.4017349 11.7909091,9.97101205 12.1,9.59149398 C12.4090909,9.2119759 12.7939394,8.8926988 13.2545455,8.63366265 C13.6493506,8.41163167 14.1064935,8.26262749 14.625974,8.18665011 L14.8909091,8.15474699 L14.8909091,5.968 L16.5636364,5.968 Z" fill="#C8C9CB"/></g></svg>