<svg width="156" height="120" xmlns="http://www.w3.org/2000/svg" xmlns:xlink="http://www.w3.org/1999/xlink"><defs><path id="a" d="M0 0H160V160H0z"/></defs><g transform="translate(-2 -23)" fill="none" fill-rule="evenodd"><mask id="b" fill="#fff"><use xlink:href="#a"/></mask><g mask="url(#b)"><g transform="translate(-1 20)"><path d="M66.2364926,83.4015991 L6.30363398,70.7430022 C2.01131985,69.8369499 -0.733517851,65.6219551 0.173079008,61.3301855 L10.0661471,14.4893478 L85.5434664,30.4312954 L75.6498539,77.2715886 C74.743257,81.5639028 70.5293513,84.308196 66.2364926,83.4015991" fill="#FFF" transform="translate(70.806 38.916)"/><path fill="#C8C9CB" d="M57.8756549 74.3862693L58.4081785 74.4989813 67.2911942 32.4394211 76.7034664 34.4274002 67.9326183 75.9538923 57.9878225 73.8537457 57.8756549 74.3862693 58.4081785 74.4989813 57.8756549 74.3862693 57.7629429 74.9193373 68.7733303 77.244908 77.9944821 33.5872326 66.4510267 31.1489499 57.2304193 74.8066253 57.7629429 74.9193373 57.8756549 74.3862693" transform="translate(70.806 38.916)"/><path fill="#C8C9CB" d="M68.3529743 76.5996724L68.4656863 76.0666043 7.35561304 63.1597143 16.1264612 21.6326776 76.7034664 34.4274002 67.8204507 76.4869604 68.3529743 76.5996724 68.4656863 76.0666043 68.3529743 76.5996724 68.8854979 76.7118399 77.9944821 33.5872326 15.2862937 20.3422064 6.06514184 63.9998818 68.7733303 77.244908 68.8854979 76.7118399 68.3529743 76.5996724" transform="translate(70.806 38.916)"/><path fill="#C8C9CB" d="M75.1358434 44.4854525L75.2485554 43.9523844 14.1384821 31.0454944 16.1264612 21.6326776 76.7034664 34.4274002 74.6033198 44.3727405 75.1358434 44.4854525 75.2485554 43.9523844 75.1358434 44.4854525 75.668367 44.59762 77.9944821 33.5872326 15.2862937 20.3422064 12.8480109 31.8856619 75.5561994 45.1306881 75.668367 44.59762 75.1358434 44.4854525M70.6284507 65.8261436L70.7406183 65.29362 9.63108948 52.3861855 11.6190685 42.9744577 72.1960738 55.7686358 70.0953827 65.7139761 70.6284507 65.8261436 70.7406183 65.29362 70.6284507 65.8261436 71.1609743 65.9388557 73.486545 54.9279237 10.7783565 41.683442 8.34061827 53.2268975 71.0482623 66.4713792 71.1609743 65.9388557 70.6284507 65.8261436" transform="translate(70.806 38.916)"/><path fill="#C8C9CB" d="M37.5172465 70.0863321L38.0503146 70.1984996 46.9333303 28.1400284 56.3461471 30.127463 47.5747544 71.6539551 37.6299586 69.553264 37.5172465 70.0863321 38.0503146 70.1984996 37.5172465 70.0863321 37.4045345 70.6188557 48.4154664 72.9444263 57.6366183 29.2872954 46.0931628 26.8490127 36.8720109 70.5061436 37.4045345 70.6188557 37.5172465 70.0863321M17.1076549 65.7755049L17.6401785 65.8876724 26.5231942 23.8286567 35.9354664 25.8166358 27.1646183 67.3431279 17.2198225 65.2424368 17.1076549 65.7755049 17.6401785 65.8876724 17.1076549 65.7755049 16.9949429 66.3080284 28.0053303 68.6335991 37.2259376 24.9764682 25.6824821 22.5381855 16.4624193 66.1953164 16.9949429 66.3080284 17.1076549 65.7755049" transform="translate(70.806 38.916)"/><path d="M85.5434664,30.4312954 L10.0661471,14.4893478 L12.0693722,5.00683471 C12.554524,2.70740015 14.8120319,1.23778759 17.1114664,1.72293942 L84.2627963,15.9061436 C86.5616863,16.3918399 88.0318434,18.6493478 87.5461471,20.9482379 L85.5434664,30.4312954" fill="#38B2A6" transform="translate(70.806 38.916)"/><path d="M79.5953198,20.3852221 C79.2887649,21.8384996 77.862168,22.7674211 76.4088905,22.4603216 C74.9561575,22.1537666 74.0272361,20.7271698 74.333791,19.2738923 C74.6408905,17.8211593 76.0674874,16.8922379 77.5202204,17.1987928 C78.9734979,17.5058923 79.9024193,18.9324892 79.5953198,20.3852221" fill="#2B948A" transform="translate(70.806 38.916)"/><path d="M75.8714664,18.7261227 L77.1510476,12.6668975 C77.2991523,11.9655782 77.9874036,11.516908 78.6892675,11.6650127 C79.3905869,11.8136619 79.839257,12.5019132 79.6911523,13.2032326 L78.4115712,19.2624577 C78.2629219,19.9637771 77.5746706,20.4124473 76.8728068,20.2643426 C76.1714874,20.1162379 75.7228172,19.427442 75.8714664,18.7261227 Z" fill="#E2F4F2" transform="translate(70.806 38.916)"/><path d="M24.4987335,8.7481122 C24.191634,10.2013897 22.7650371,11.1303111 21.3117596,10.8237562 C19.8590267,10.5166567 18.9301052,9.09005984 19.2372047,7.63732686 C19.5437596,6.18404937 20.970901,5.2551279 22.4230895,5.56168288 C23.876367,5.86878235 24.8052884,7.29537921 24.4987335,8.7481122" fill="#2B948A" transform="translate(70.806 38.916)"/><path d="M20.7743356,7.08901272 L22.0539167,1.02978759 C22.2020214,0.328468217 22.8908172,-0.12020194 23.5921366,0.0284472744 C24.293456,0.176551986 24.7421261,0.864803295 24.5940214,1.56612267 L23.3138958,7.6253478 C23.1663356,8.32666717 22.4775397,8.77533733 21.7762204,8.62723261 C21.0743565,8.4791279 20.6262308,7.79033209 20.7743356,7.08901272 Z" fill="#E2F4F2" transform="translate(70.806 38.916)"/><path d="M38.4799272,11.7014944 C38.1728277,13.1542274 36.7462308,14.0836933 35.2929534,13.7765939 C33.8402204,13.4694944 32.9112989,12.0428975 33.2183984,10.5901646 C33.5249534,9.13743157 34.9515502,8.2079656 36.4042832,8.51506508 C37.8575607,8.82162005 38.7864821,10.2482169 38.4799272,11.7014944" fill="#2B948A" transform="translate(70.806 38.916)"/><path d="M34.7555293,10.0418504 L36.0356549,3.98262528 C36.1832151,3.28130591 36.8720109,2.83263576 37.5738748,2.98074047 C38.2751942,3.12938968 38.7233198,3.81818549 38.5757596,4.51950487 L37.295634,10.57873 C37.1469848,11.2800494 36.4587335,11.728175 35.7574141,11.5800703 C35.0560947,11.4319656 34.6068801,10.7431698 34.7555293,10.0418504 Z" fill="#E2F4F2" transform="translate(70.806 38.916)"/><path d="M66.0339376,17.5211384 C65.7273827,18.9744159 64.3007858,19.9033373 62.8480528,19.5962379 C61.3947753,19.2896829 60.4658539,17.863086 60.7724089,16.4098085 C61.0795083,14.9570755 62.5061052,14.0281541 63.9593827,14.3347091 C65.4121157,14.641264 66.3410371,16.0684054 66.0339376,17.5211384" fill="#2B948A" transform="translate(70.806 38.916)"/><path d="M62.3095397,15.8620389 L63.5896654,9.80281377 C63.7372256,9.10149439 64.4265659,8.65282424 65.1278853,8.80092895 C65.8292047,8.94903366 66.2773303,9.63782947 66.1297701,10.3391488 L64.8496445,16.398374 C64.7015397,17.0996933 64.0127439,17.5483635 63.3114246,17.4002588 C62.6101052,17.2516096 62.161435,16.5633583 62.3095397,15.8620389 Z" fill="#E2F4F2" transform="translate(70.806 38.916)"/><path d="M71.6424612,49.4869185 C71.2901681,51.1552745 69.6517597,52.2219551 67.9834037,51.8696619 C66.3150476,51.5173687 65.2478225,49.8789604 65.6006602,48.2106043 C65.9529534,46.5422483 67.5913618,45.4755677 69.2591733,45.8278609 C70.9280738,46.1801541 71.9947544,47.818018 71.6424612,49.4869185" fill="#FCCE01" transform="translate(70.806 38.916)"/><path d="M67.2603254,70.8664368 L66.9940636,70.810353 C66.7152783,72.1356724 65.5445976,73.0444473 64.2426919,73.0444473 C64.0499379,73.0444473 63.8544615,73.0248452 63.6578961,72.9829185 C62.3325767,72.7041331 61.4238018,71.5334525 61.4238018,70.2320913 C61.4238018,70.0393373 61.4434039,69.8433164 61.4853306,69.6467509 C61.764116,68.3214316 62.9347966,67.4126567 64.2361578,67.4126567 C64.4289118,67.4126567 64.6249327,67.4322588 64.8214982,67.4741855 C66.1468175,67.7529708 67.0555924,68.9236515 67.0555924,70.2250127 C67.0555924,70.4177666 67.0354458,70.6137876 66.9940636,70.810353 L67.2603254,70.8664368 L67.5265872,70.9225206 C67.5761369,70.6889289 67.600095,70.4553373 67.600095,70.2250127 C67.600095,68.6699132 66.5154458,67.275442 64.9336657,66.9411174 C64.7000741,66.8915677 64.4664825,66.8681541 64.2361578,66.8681541 C62.6810584,66.8681541 61.2865872,67.9528033 60.9522626,69.5345834 C60.9027128,69.768175 60.8792992,70.0017666 60.8792992,70.2320913 C60.8792992,71.7871907 61.9639484,73.1816619 63.545184,73.5159865 C63.7787756,73.5649918 64.0123673,73.5889499 64.2426919,73.5889499 C65.7983359,73.5889499 67.1928071,72.5043007 67.5265872,70.9225206 L67.2603254,70.8664368" fill="#38B2A6" transform="translate(70.806 38.916)"/><g><path d="M20.2308985,10.1151257 C20.2308985,15.7016141 15.7018729,20.2302515 10.1152551,20.2302515 C4.52876678,20.2302515 0,15.7016141 0,10.1151257 C0,4.52863738 4.52876678,3.22419588e-14 10.1152551,3.22419588e-14 C15.7018729,3.22419588e-14 20.2308985,4.52863738 20.2308985,10.1151257" fill="#F9A600" transform="rotate(-20 112.38 18.289)"/><path d="M14.2034124,12.4451153 C14.1425941,12.7788398 14.0869518,13.07245 14.0351915,13.3262049 C13.9834312,13.5802185 13.9368469,13.8445842 13.8967327,14.119302 C13.8579125,14.3942785 13.8139162,14.6376813 13.767332,14.8489927 C13.4477122,14.9525133 13.1889107,15.0218721 12.9909276,15.057069 C12.7941091,15.092266 12.5730926,15.1099939 12.3289134,15.1099939 C11.9480871,15.1099939 11.5627317,15.0733735 11.1725885,15.0006503 C10.7824453,14.9276683 10.3796208,14.8339822 9.96359748,14.7186861 C9.54770353,14.6035195 9.24464702,14.5284671 9.05416914,14.4931407 C8.86382067,14.4576849 8.65600309,14.4400864 8.43032822,14.4400864 C8.20931177,14.4400864 7.99321255,14.4566497 7.78164235,14.4895174 C7.57020156,14.5225146 7.3821823,14.5646993 7.21771397,14.6164596 C7.05324564,14.6682199 6.91931588,14.7197213 6.8159247,14.7714816 C6.71253352,14.8233713 6.57847436,14.900753 6.41413543,15.0042736 L6.44933243,14.4682957 C6.46343711,14.2899815 6.47508317,14.0714237 6.48452943,13.8127516 L6.51985583,12.9386497 C6.71719194,12.8775725 6.87454323,12.8127428 6.99216849,12.744678 C7.10953496,12.6766132 7.21771397,12.5767158 7.31644673,12.4451153 C7.41505008,12.3136442 7.49631374,12.148917 7.5597201,11.9515809 C7.62312646,11.7543742 7.65482964,11.5521209 7.65482964,11.3452091 C7.65482964,11.2794735 7.65004181,11.190187 7.64072496,11.077479 C7.06269189,11.0914542 6.52438485,11.1128054 6.02632144,11.1410147 C6.08739858,10.8025024 6.14731112,10.4418626 6.20605905,10.058707 C6.26480699,9.67581025 6.31760248,9.35722565 6.36483375,9.10360022 L6.66789026,9.11058786 C6.76662302,9.11058786 6.88864791,9.10812925 7.03448253,9.10360022 C7.0109316,9.04239368 6.97806382,8.94844874 6.93587918,8.82150663 L6.82291234,8.49011136 C6.79470298,8.391508 6.77361066,8.31179715 6.75950598,8.2503318 C6.7454013,8.18951346 6.73491984,8.12351909 6.7278028,8.05312509 C6.72081516,7.98273109 6.71719194,7.90754927 6.71719194,7.82757961 C6.71719194,7.42811956 6.82174773,7.04276418 7.03098871,6.67151348 C7.2401003,6.30026279 7.55260306,5.98646601 7.96849701,5.73038197 C8.38452036,5.47403912 8.82150663,5.30853558 9.27984402,5.23322436 C9.7379226,5.15817194 10.23728,5.12038692 10.7779163,5.12038692 C11.1397207,5.12038692 11.5016546,5.13591501 11.8635884,5.16619478 C12.2253929,5.19699215 12.6907179,5.26376293 13.2587871,5.36702472 C13.2639631,5.7008786 13.3131354,6.49281107 13.4075979,7.74295154 C12.9094051,7.55493227 12.4980402,7.41970851 12.173762,7.33766845 C11.8494837,7.25536958 11.5393102,7.21422015 11.2432413,7.21422015 C10.79655,7.21422015 10.4347455,7.30842388 10.1575692,7.49644314 C9.88013401,7.68472121 9.74154582,7.93317061 9.74154582,8.24205015 C9.74154582,8.32913685 9.75202728,8.41583534 9.7733784,8.50279263 C9.79447072,8.58962052 9.8250093,8.69702312 9.86499412,8.82500045 C9.90484955,8.95284837 9.92943569,9.04549929 9.93888194,9.10360022 L10.2772649,9.10360022 C10.8413226,9.09234236 11.3465031,9.07526146 11.793065,9.05274573 L12.9559894,9.01884274 C12.9003471,9.26819795 12.8409521,9.5783715 12.7800044,9.9493634 C12.7189272,10.3207435 12.6484038,10.7015698 12.5684342,11.0914542 C12.2112882,11.0821374 11.9128901,11.077479 11.6731105,11.077479 C11.1656009,11.077479 10.6908296,11.077479 10.2490555,11.077479 L10.2209755,11.5195119 C10.2113999,11.6694873 10.202083,11.7781839 10.1927662,11.8457311 C10.1833199,11.9132783 10.1692152,11.9787551 10.1504521,12.0415144 C10.131689,12.1044032 10.1069735,12.1696211 10.0764349,12.2371683 C10.0457669,12.3048449 9.9858544,12.4329516 9.8966973,12.6214885 C10.1456643,12.6776484 10.3479176,12.7177626 10.5029397,12.7410548 C10.5545706,12.7506304 10.6756897,12.7658997 10.8659088,12.7868626 C11.0563867,12.8082137 11.2490643,12.8317647 11.4440712,12.8576448 C11.6390781,12.883525 11.7648557,12.8987943 11.8212744,12.9034527 C11.9245362,12.9081111 12.0514783,12.9104403 12.2019713,12.9104403 C12.5966436,12.9104403 12.9585774,12.8669617 13.2872553,12.779875 C13.6159331,12.6931765 13.9226128,12.5816331 14.2034124,12.4451153" fill="#FFF" transform="rotate(-20 112.38 18.289)"/></g><path fill="#FCFBFC" d="M34.4443202 93.4916265L124.239459 93.4916265 124.239459 20.698034 34.4443202 20.698034z"/><path d="M34.4443202,20.6502493 L124.239459,20.6502493 C124.239459,16.8906717 121.191719,13.8429319 117.432142,13.8429319 L41.2516376,13.8429319 C37.49206,13.8429319 34.4443202,16.8906717 34.4443202,20.6502493 L34.4443202,20.6502493 L34.4443202,20.6502493 Z" fill="#3A3B39"/><path d="M47.6123685 17.0226275C47.6123685 17.6840221 47.0764648 18.2199258 46.4150702 18.2199258 45.7536757 18.2199258 45.2173253 17.6840221 45.2173253 17.0226275 45.2173253 16.361233 45.7536757 15.8248826 46.4150702 15.8248826 47.0764648 15.8248826 47.6123685 16.361233 47.6123685 17.0226275M52.5475954 17.0226275C52.5475954 17.6840221 52.0112451 18.2199258 51.3498506 18.2199258 50.688456 18.2199258 50.1525523 17.6840221 50.1525523 17.0226275 50.1525523 16.361233 50.688456 15.8248826 51.3498506 15.8248826 52.0112451 15.8248826 52.5475954 16.361233 52.5475954 17.0226275" fill="#B5B7B4"/><path d="M42.6775882,17.0226275 C42.6775882,17.6840221 42.1412378,18.2199258 41.4802899,18.2199258 C40.8184487,18.2199258 40.282545,17.6840221 40.282545,17.0226275 C40.282545,16.361233 40.8184487,15.8248826 41.4802899,15.8248826 C42.1412378,15.8248826 42.6775882,16.361233 42.6775882,17.0226275" fill="#E05E55"/><path fill="#EBE9E5" d="M114.58292 67.1924706L44.4696997 67.2117999 44.4688464 63.6605852 114.582067 63.6391082 114.58292 67.1924706M114.58292 75.2192985L44.470553 75.2503561 44.4688464 71.7065801 114.582067 71.6776644 114.58292 75.2192985M67.6913422 83.2792185L44.4697097 83.2889123 44.4688464 79.7269915 67.6904789 79.7162207 67.6913422 83.2792185M96.2728754 83.2792185L73.051243 83.2889123 73.0503797 79.7269915 96.2720121 79.7162207 96.2728754 83.2792185"/><circle fill="#38B2A6" cx="81.167" cy="43.318" r="13.398"/><path d="M74.7194489,42.2039499 L80.6874058,36.8097011 C80.9554101,36.5552213 81.3569938,36.5552213 81.6397933,36.8097011 L84.6005222,39.4833211 L84.6005222,39.006002 C84.6005222,38.8310754 84.7345244,38.6877892 84.8981169,38.6877892 L85.7165023,38.6877892 C85.8796721,38.6877892 86.014097,38.8310754 86.014097,39.006002 L86.014097,40.7719924 L87.6069049,42.2039499 C87.9192947,42.4909742 87.9493078,42.9836616 87.695676,43.3018743 C87.4276717,43.6359074 86.9664845,43.6684518 86.6688898,43.3972478 L86.5796959,43.3176946 L86.5796959,49.5232955 C86.5796959,49.7931436 86.3712951,50.0164349 86.1189315,50.0164349 L82.7109651,50.0164349 L82.7109651,44.2723329 L79.6458244,44.2723329 L79.6458244,50.0164349 L76.2378581,50.0164349 C75.9850717,50.0164349 75.7766709,49.7931436 75.7766709,49.5232955 L75.7766709,43.3176946 L75.687477,43.3972478 C75.5534749,43.5251657 75.3750871,43.5879946 75.2114946,43.5879946 C75.0030938,43.5879946 74.794693,43.4926212 74.6458956,43.3176946 C74.3778913,42.9682934 74.4218542,42.47425 74.7194489,42.2039499" fill="#FFF"/><g><path d="M21.9168067,10.9581931 C21.9168067,17.0102221 17.0103623,21.9162459 10.9581931,21.9162459 C4.90616401,21.9162459 0,17.0102221 0,10.9581931 C0,4.90616401 4.90616401,-5.82146478e-15 10.9581931,-5.82146478e-15 C17.0103623,-5.82146478e-15 21.9168067,4.90616401 21.9168067,10.9581931" fill="#F9A600" transform="rotate(16 67.85 495.32)"/><path d="M7.3877034,13.0661418 C7.88675888,13.290156 8.3448806,13.4529098 8.76248911,13.5546834 C9.17981725,13.6565973 9.5388288,13.7076243 9.83924338,13.7076243 C10.1040512,13.7076243 10.3305887,13.6427191 10.5189962,13.5129086 C10.7072635,13.3833784 10.8016074,13.2038026 10.8016074,12.9748819 C10.8016074,12.9190886 10.7951589,12.8618935 10.7825424,12.8035769 C10.7696454,12.7449799 10.7505804,12.6901679 10.725207,12.6394213 C10.6996935,12.5883943 10.6590401,12.5236292 10.6031067,12.4448457 C10.5468928,12.365922 10.4985293,12.3062036 10.4578759,12.2655502 C10.4170823,12.2248968 10.2543286,12.0669093 9.96919406,11.7924288 C9.15444392,11.0041735 8.61221173,10.4470817 8.34235729,10.121434 C8.13362313,9.8672802 7.97199083,9.58368772 7.8574604,9.27065656 C7.74278978,8.95790578 7.68559466,8.6513231 7.68559466,8.35118889 C7.68559466,8.11736177 7.71993977,7.88731962 7.78877018,7.66092226 C7.8574604,7.43452489 7.95797242,7.21948245 8.09044642,7.01607528 C8.22278023,6.81266811 8.38174903,6.62958765 8.56777336,6.46655351 C8.75351733,6.30393992 8.95720486,6.17034445 9.17869578,6.06632783 C9.4001867,5.96203084 9.72975957,5.85366851 10.1676948,5.74180158 C10.177788,5.57904781 10.1829749,5.48232077 10.1829749,5.45176063 L10.1752647,4.95522846 L10.1752647,4.08468504 C10.7302537,4.09505866 11.1911791,4.09982492 11.5577606,4.09982492 C11.9649955,4.09982492 12.4232574,4.09505866 12.9324061,4.08468504 C12.9068926,4.64976725 12.8941358,4.98088215 12.8941358,5.0776092 L12.8941358,5.73423164 C13.3982379,5.80572554 13.8946299,5.90974216 14.3833118,6.04726279 C14.4183578,6.87000342 14.4674223,7.72260327 14.5291033,8.60590344 C14.1155601,8.41749598 13.735521,8.28249867 13.386883,8.20119187 C13.0379647,8.11960471 12.7490453,8.07895132 12.5199844,8.07895132 C12.2603634,8.07895132 12.0450406,8.13895012 11.8747169,8.258387 C11.7039726,8.37810424 11.6187407,8.53216659 11.6187407,8.72029369 C11.6187407,8.88332783 11.6683658,9.03626871 11.7676162,9.17869578 C11.8670067,9.32112285 12.0083123,9.47911036 12.191533,9.65223775 C12.8533423,10.2735338 13.3409026,10.7696454 13.654074,11.1412735 C13.9669649,11.5130418 14.187054,11.8658853 14.3146216,12.1991029 C14.4421891,12.532601 14.505272,12.8624542 14.505272,13.1881019 C14.505272,13.4582368 14.4716278,13.7112691 14.4029376,13.9478999 C14.3342473,14.1846709 14.2333148,14.4023768 14.1001399,14.6008776 C13.9683668,14.7995185 13.8157063,14.9779729 13.6425789,15.1355398 C13.4694515,15.2935273 13.2912775,15.4283844 13.1080568,15.5403916 C12.924696,15.6525389 12.6548415,15.7823494 12.2984935,15.9299632 L12.2832134,16.8998972 C12.2832134,17.2204983 12.2857367,17.5310061 12.2907834,17.8317011 C11.7357944,17.8213275 11.2954761,17.8162808 10.9696882,17.8162808 C10.6437601,17.8162808 10.162508,17.8213275 9.52621222,17.8317011 C9.55158555,17.4752129 9.56434231,17.0243807 9.56434231,16.4797654 L9.56434231,16.1667342 C9.15192061,16.1105204 8.80706766,16.0522038 8.5295031,15.9910835 C8.25193853,15.9299632 7.91213221,15.8332362 7.50994395,15.7007622 C7.474197,14.4228437 7.4335436,13.5445902 7.3877034,13.0661418" fill="#FFF" transform="rotate(16 67.85 495.32)"/></g><g><path d="M28.3948491,43.263388 C28.3948491,44.4936316 27.3201109,45.4914132 25.9953965,45.4914132 L2.39998332,45.4914132 C1.07473822,45.4914132 0,44.4936316 0,43.263388 L0,2.22855594 C0,0.997781656 1.07473822,-1.50843938e-14 2.39998332,-1.50843938e-14 L25.9953965,-1.50843938e-14 C27.3201109,-1.50843938e-14 28.3948491,0.997781656 28.3948491,2.22855594 L28.3948491,43.263388" fill="#3A3B39" transform="rotate(-8 463.06 -121.445)"/><path fill="#FEDA2E" d="M21.6141798 41.1839686L26.7952141 41.1839686 26.7952141 29.5035544 21.6141798 29.5035544z" transform="rotate(-8 463.06 -121.445)"/><path fill="#FFFFFE" d="M1.60016579 13.2975635L26.7952141 13.2975635 26.7952141 3.39935718 1.60016579 3.39935718z" transform="rotate(-8 463.06 -121.445)"/><path fill="#52CCC0" d="M1.60016579 21.7367795L6.78173085 21.7367795 6.78173085 16.5562759 1.60016579 16.5562759zM8.27150378 21.7367795L13.4525381 21.7367795 13.4525381 16.5562759 8.27150378 16.5562759zM14.9428418 21.7367795L20.1238761 21.7367795 20.1238761 16.5562759 14.9428418 16.5562759zM21.6141798 21.7367795L26.7952141 21.7367795 26.7952141 16.5562759 21.6141798 16.5562759z" transform="rotate(-8 463.06 -121.445)"/><path fill="#FFFFFE" d="M1.60016579 28.1857396L6.78173085 28.1857396 6.78173085 23.0047053 1.60016579 23.0047053zM8.27150378 28.1857396L13.4525381 28.1857396 13.4525381 23.0047053 8.27150378 23.0047053zM14.9428418 28.1857396L20.1238761 28.1857396 20.1238761 23.0047053 14.9428418 23.0047053zM21.6141798 28.1857396L26.7952141 28.1857396 26.7952141 23.0047053 21.6141798 23.0047053zM1.60016579 34.6845887L6.78173085 34.6845887 6.78173085 29.5035544 1.60016579 29.5035544zM8.27150378 34.6845887L13.4525381 34.6845887 13.4525381 29.5035544 8.27150378 29.5035544zM14.9428418 34.6845887L20.1238761 34.6845887 20.1238761 29.5035544 14.9428418 29.5035544zM1.60016579 41.1839686L6.78173085 41.1839686 6.78173085 36.0024035 1.60016579 36.0024035zM8.27150378 41.1839686L13.4525381 41.1839686 13.4525381 36.0024035 8.27150378 36.0024035zM14.9428418 41.1839686L20.1238761 41.1839686 20.1238761 36.0024035 14.9428418 36.0024035z" transform="rotate(-8 463.06 -121.445)"/></g></g></g></g></svg>