<svg width="127" height="117" xmlns="http://www.w3.org/2000/svg" xmlns:xlink="http://www.w3.org/1999/xlink"><defs><path id="a" d="M0 0H160V160H0z"/></defs><g transform="translate(-16 -22)" fill="none" fill-rule="evenodd"><mask id="b" fill="#fff"><use xlink:href="#a"/></mask><g mask="url(#b)"><g transform="translate(16 18)"><path d="M11.1028885,115.445358 C9.08977329,115.445358 7.45757706,113.813601 7.45757706,111.800485 L7.45757706,48.2252341 C7.45757706,46.2116795 9.08977329,44.5799227 11.1028885,44.5799227 L111.839491,44.5799227 C113.853046,44.5799227 115.484803,46.2116795 115.484803,48.2252341 L115.484803,111.800485 C115.484803,113.813601 113.853046,115.445358 111.839491,115.445358 L11.1028885,115.445358 Z" fill="#2C312F"/><path d="M13.8049092,111.961289 C11.8994354,111.961289 10.3546704,110.489456 10.3546704,108.67405 L10.3546704,51.3512304 C10.3546704,49.535824 11.8994354,48.0639916 13.8049092,48.0639916 L109.137471,48.0639916 C111.042945,48.0639916 112.58771,49.535824 112.58771,51.3512304 L112.58771,108.67405 C112.58771,110.489456 111.042945,111.961289 109.137471,111.961289 L13.8049092,111.961289 Z" fill="#E2F4F2"/><rect fill="#9E9E9E" x="28" y="73" width="67" height="8" rx="4"/><path fill="#EEF1EF" d="M0 117.92858L122.94238 117.92858 122.94238 113.511765 0 113.511765z"/><path d="M61.47119,117.92858 L0,117.92858 L2.50255443,118.725127 C6.9435341,120.139405 12.0510122,120.888062 17.2599808,120.888062 L105.682399,120.888062 C110.891368,120.888062 115.998846,120.139405 120.439826,118.725127 L122.94238,117.92858 L61.47119,117.92858" fill="#C7C7C4"/><path d="M42.6054849,15.6960869 C43.3260537,12.7169324 46.3244173,10.8858166 49.3034328,11.6058327 C52.2824483,12.3258488 54.114065,15.3249385 53.3940825,18.304093 C52.6741,21.2832474 49.6751501,23.1143632 46.6961346,22.3943471 C43.7171191,21.6743311 41.8855024,18.6752413 42.6054849,15.6960869 Z M47.4686359,26.0577042 C48.7932096,26.1374978 50.0879475,25.9230959 51.2779129,25.4609869 L52.1938047,26.9611065 C52.6579952,27.7208804 53.6502113,27.960955 54.4099851,27.4967644 C55.169759,27.0325738 55.4091398,26.0403578 54.945643,25.2805839 L54.0290574,23.7804643 C54.9838052,22.9332644 55.7657825,21.879295 56.3000527,20.6650446 L58.0090234,21.0778898 C58.8742636,21.2867408 59.7450546,20.7552461 59.9545995,19.8900059 C60.1634506,19.0247658 59.6319558,18.1532809 58.7667157,17.9444298 L57.0577449,17.5308908 C57.1368447,16.2070109 56.9224427,14.912273 56.4603337,13.7223076 L57.9604534,12.8064159 C58.7202272,12.3422253 58.9603019,11.3500092 58.4961113,10.5902354 C58.0319207,9.83046155 57.0403985,9.5903869 56.2806246,10.0545775 L54.780505,10.9704692 C53.9326113,10.0164153 52.8786419,9.2337442 51.6643915,8.69947402 L52.0779305,6.99119714 C52.2867815,6.12595698 51.7545929,5.2544721 50.8893528,5.04562103 C50.0241126,4.8360761 49.1533216,5.36826471 48.9437767,6.23419873 L48.5309315,7.94178175 C47.2063578,7.86337587 45.9116199,8.07708394 44.7216545,8.53919296 L43.8057627,7.03976715 C43.3415721,6.27929946 42.3500499,6.03991866 41.5895822,6.50410925 C40.8305023,6.96760599 40.5904276,7.95982205 41.0539243,8.71959588 L41.97051,10.2197155 C41.0157622,11.0669154 40.2337849,12.1208848 39.6995147,13.3351352 L37.990544,12.9229839 C37.1253038,12.713439 36.2545128,13.2449337 36.0456617,14.1108678 C35.8361168,14.9761079 36.3676116,15.8468989 37.2335456,16.05575 L38.9418225,16.469289 C38.8627227,17.7931689 39.0771247,19.0879068 39.5392337,20.2778722 L38.039114,21.1944578 C37.2793402,21.6579545 37.0392655,22.6501706 37.5034561,23.4099444 C37.9676467,24.1704121 38.9598628,24.4097929 39.7196366,23.9456023 L41.2197563,23.0297106 C42.0669561,23.9844583 43.1209255,24.7664356 44.3351759,25.3007058 L43.9223308,27.0089827 C43.7127858,27.8742228 44.2449745,28.7457077 45.1102146,28.9545588 C45.9754548,29.1641037 46.8469397,28.6319151 47.0557907,27.7666749 L47.4686359,26.0577042 Z" fill="#FCCE01" transform="rotate(31 48 17)"/><path d="M99.6995266,16.9834595 C98.2995261,10.1490219 92.2995239,5 85,5 C79.2000068,5 74.2000049,8.26839193 71.6995162,13.0211866 C65.6995139,13.6155275 61,18.6669422 61,24.8113644 C61,31.3481483 66.3990264,36.6981831 73,36.6981831 L99.0000142,36.6981831 C104.499528,36.6981831 109.000106,32.2401429 109.000106,26.7925009 C109.021948,21.5949052 104.937685,17.2873156 99.6995266,16.9834595 Z M87.8611762,21.9238639 L87.8611762,28.5945237 L82.13893,28.5945237 L82.13893,21.9238639 L76.0590433,21.9238639 L85.0000531,13.1509614 L93.9410629,21.9281454 L87.8611762,21.9238639 Z" fill="#D1CCB7" fill-rule="nonzero"/><path d="M25.935493,43.2774223 C21.9197156,41.5822476 20.0390263,36.9515415 21.7354317,32.9357396 C23.430596,28.9199376 28.0612737,27.0392368 32.0770511,28.735032 C36.0928284,30.4308273 37.9728972,35.0609129 36.2777329,39.0767148 C34.581948,43.0925168 29.9518908,44.9732176 25.935493,43.2774223 Z M22.3551172,51.7577722 L22.3551172,51.7577722 C23.4948641,52.2386478 24.8097357,51.7046606 25.291329,50.5649138 L26.2415965,48.3141291 C28.0409323,48.7196436 29.8653885,48.7174904 31.6015645,48.3507331 L32.5209698,50.6144368 C32.9867732,51.7606431 34.2944676,52.3132912 35.4406739,51.8482056 C36.587598,51.3816845 37.1388105,50.0747078 36.6737249,48.9277838 L35.7543196,46.6640801 C37.2543642,45.7166835 38.5642118,44.445593 39.5697441,42.9003318 L41.8212464,43.8505993 C42.961711,44.3321925 44.2758649,43.7982054 44.7574582,42.6584585 C45.2390514,41.517994 44.7043465,40.2031224 43.5645997,39.7215291 L41.3138151,38.7712616 C41.7200473,36.9719258 41.7171764,35.1474696 41.3511368,33.4112936 L43.6148405,32.4918882 C44.7610468,32.0260849 45.3129771,30.7191082 44.8478915,29.5721842 C44.3813704,28.4252601 43.0743938,27.8733298 41.9274697,28.3391331 L39.663766,29.2585385 C38.7163694,27.7584938 37.445279,26.4486463 35.9000177,25.4423963 L36.8502852,23.1916116 C37.3318785,22.0511471 36.7978913,20.7369931 35.6581445,20.2553999 C34.5176799,19.7738066 33.2028083,20.3077938 32.721215,21.4482583 L31.7709475,23.699043 C29.9723294,23.2928108 28.1471555,23.2956817 26.4109795,23.662439 L25.4915742,21.3980176 C25.0257708,20.2518112 23.7187942,19.699881 22.5718701,20.1649666 C21.4256638,20.6307699 20.8730157,21.9384643 21.3395368,23.0846706 L22.2589421,25.349092 C20.7581798,26.2964886 19.4483322,27.5668614 18.4427999,29.1128403 L16.1912975,28.1625729 C15.050833,27.6809796 13.7366791,28.214249 13.2550858,29.3547136 C12.7734925,30.4951781 13.3074797,31.8100498 14.4479443,32.2909253 L16.6987289,33.2419105 C16.2924967,35.0405286 16.2953676,36.8657025 16.6621249,38.6011608 L14.3977035,39.5212839 C13.2514972,39.9870872 12.6995669,41.2940639 13.1653702,42.440988 C13.6304558,43.587912 14.9381502,44.1391246 16.0843566,43.674039 L18.348778,42.7546337 C19.2961746,44.2539605 20.567265,45.5645258 22.1125263,46.5700581 L21.1622588,48.8215605 C20.6806655,49.9620251 21.2146527,51.276179 22.3551172,51.7577722 L22.3551172,51.7577722 Z" fill="#CCC8B4"/><g transform="rotate(30 1.85 131.471)"><path d="M1,0 L44,0 L44,0 L52,7.99963423 L52,69 C52,69.5522847 51.5522847,70 51,70 L1,70 C0.44771525,70 6.76353751e-17,69.5522847 0,69 L0,1 C-6.76353751e-17,0.44771525 0.44771525,1.01453063e-16 1,0 Z" fill="#FFF"/><path fill="#E7E7E7" d="M43.1711481 51.4958075L10.0004037 51.5148236 10 48.0211291 43.1707444 48 43.1711481 51.4958075M43.1711481 59.3926223L10.0008074 59.4231768 10 55.9368005 43.1707444 55.9083532 43.1711481 59.3926223"/><circle fill="#38B2A6" cx="26.181" cy="26.181" r="13.181"/><path d="M19.8373834,25.0849392 L25.7086755,19.7780628 C25.9723389,19.5277048 26.367418,19.5277048 26.6456369,19.7780628 L29.55841,22.4083774 L29.55841,21.9387895 C29.55841,21.7666962 29.6902416,21.6257309 29.8511844,21.6257309 L30.6563141,21.6257309 C30.816841,21.6257309 30.9490886,21.7666962 30.9490886,21.9387895 L30.9490886,23.6761756 L32.5160973,25.0849392 C32.8234272,25.3673145 32.8529542,25.8520217 32.6034305,26.1650802 C32.3397672,26.4937028 31.88605,26.5257202 31.5932755,26.2589089 L31.5055264,26.1806442 L31.5055264,32.2857311 C31.5055264,32.5512083 31.3005011,32.770883 31.052225,32.770883 L27.6994586,32.770883 L27.6994586,27.11982 L24.683965,27.11982 L24.683965,32.770883 L21.3311985,32.770883 C21.0825066,32.770883 20.8774813,32.5512083 20.8774813,32.2857311 L20.8774813,26.1806442 L20.7897321,26.2589089 C20.6579005,26.3847549 20.4824021,26.4465661 20.3214594,26.4465661 C20.1164341,26.4465661 19.9114088,26.3527375 19.7650216,26.1806442 C19.5013582,25.8369024 19.544609,25.3508611 19.8373834,25.0849392" fill="#FFF"/><path fill="#38B2A6" transform="rotate(180 48.001 4)" d="M44 6.75015599e-14L52.002564 6.75015599e-14 52.002564 7.99963423z"/></g><path fill="#E2F4F2" d="M22 81H103V112H22z"/><path fill="#FFF8DA" d="M23.5299915 21.7773848L28.0995232 7.70485997 3.06954462e-14 6.52278231e-14z" transform="matrix(-1 0 0 1 127 81)"/><path fill="#FEDD48" d="M27.786238 8.64581295L35.696642 4.46622388 7.87576973e-14 -5.62749847e-14z" transform="matrix(-1 0 0 1 127 81)"/><path fill="#F9A600" d="M23.5299915 21.7773848L22.8099915 12.6047498 12.7080341 12.6047498z" transform="matrix(-1 0 0 1 127 81)"/><path fill="#FEDD48" d="M9.97602001e-14 -7.33258907e-14L12.679115 23.2797017 22.8099915 12.6047498z" transform="matrix(-1 0 0 1 127 81)"/><path d="M67.7316206,100.147585 L68.4601531,100.832596 C68.8625105,101.210917 69.4953756,101.191432 69.8736968,100.789075 C70.2520181,100.386717 70.232533,99.7538523 69.8301756,99.375531 L69.1016431,98.6905198 C68.6992858,98.3121985 68.0664207,98.3316836 67.6880994,98.734041 C67.3097781,99.1363984 67.3292632,99.7692635 67.7316206,100.147585 Z M72.0823347,103.159696 L72.977297,103.605838 C73.4715711,103.852235 74.0720038,103.651291 74.3184011,103.157017 C74.5647984,102.662743 74.3638545,102.062311 73.8695805,101.815913 L72.9746182,101.369772 C72.4803441,101.123374 71.8799114,101.324318 71.6335141,101.818592 C71.3871168,102.312866 71.5880607,102.913299 72.0823347,103.159696 Z M77.014763,104.906034 L77.9885653,105.13343 C78.5263815,105.259018 79.0641764,104.92484 79.1897639,104.387024 C79.3153514,103.849208 78.981174,103.311413 78.4433579,103.185826 L77.4695556,102.958429 C76.9317394,102.832842 76.3939445,103.167019 76.268357,103.704835 C76.1427695,104.242652 76.4769469,104.780446 77.014763,104.906034 Z M82.1712797,105.636109 L83.1693933,105.697503 C83.7206362,105.73141 84.1949939,105.312026 84.2289007,104.760783 C84.2628076,104.20954 83.8434238,103.735182 83.2921809,103.701276 L82.2940673,103.639882 C81.7428243,103.605975 81.2684667,104.025359 81.2345599,104.576602 C81.200653,105.127845 81.6200368,105.602202 82.1712797,105.636109 Z M87.2436915,105.634887 L88.2421429,105.579257 C88.7935724,105.548533 89.2156879,105.076605 89.1849643,104.525175 C89.1542407,103.973746 88.6823123,103.55163 88.1308828,103.582354 L87.1324313,103.637984 C86.5810018,103.668708 86.1588863,104.140636 86.18961,104.692066 C86.2203336,105.243495 86.692262,105.665611 87.2436915,105.634887 Z M92.3218384,105.119921 L93.311738,104.978152 C93.8584445,104.899854 94.2381652,104.393189 94.1598679,103.846482 C94.0815706,103.299776 93.574905,102.920055 93.0281985,102.998352 L92.0382988,103.140122 C91.4915923,103.218419 91.1118717,103.725085 91.190169,104.271791 C91.2684662,104.818498 91.7751319,105.198219 92.3218384,105.119921 Z M97.3270362,104.227875 L98.3055497,104.021692 C98.8459677,103.90782 99.191752,103.377414 99.0778804,102.836996 C98.9640088,102.296578 98.4336023,101.950793 97.8931842,102.064665 L96.9146707,102.270848 C96.3742526,102.384719 96.0284683,102.915126 96.1423399,103.455544 C96.2562115,103.995962 96.7866181,104.341746 97.3270362,104.227875 Z" fill="#9E9E9E" fill-rule="nonzero"/><g transform="translate(45 88)"><path d="M0.000361651494,6.99877826 L5.19602029e-05,1.04672986 C2.32519309e-05,0.494977103 0.446885283,0.0474592681 0.998637491,0.0466788315 L32.9982239,0.00141639645 C33.5505081,0.00063520736 33.9988561,0.447716731 33.9996373,1.00000093 C33.999638,1.00045508 33.9996383,1.00090924 33.9996383,1.0013634 L33.9999481,6.95793804 C33.9999768,7.50974601 33.5530286,7.95728677 33.0012211,7.95798923 L1.00163467,7.99872542 C0.449350369,7.99942849 0.00106553074,7.55228356 0.000362460432,6.99999925 C0.000361942317,6.99959226 0.00036167267,6.99918526 0.000361651494,6.99877826 Z" fill="#F9A600"/><circle fill="#FFF" cx="9" cy="4" r="2"/><circle fill="#FFF" cx="17" cy="4" r="2"/><circle fill="#FFF" cx="25" cy="4" r="2"/></g></g></g></g></svg>